<?xml version="1.0" encoding="UTF-8" standalone="no"?>
<!DOCTYPE svg PUBLIC "-//W3C//DTD SVG 1.1//EN" "http://www.w3.org/Graphics/SVG/1.1/DTD/svg11.dtd">
<svg width="100%" height="100%" viewBox="0 0 512 512" version="1.1" xmlns="http://www.w3.org/2000/svg" xmlns:xlink="http://www.w3.org/1999/xlink" xml:space="preserve" xmlns:serif="http://www.serif.com/" style="fill-rule:evenodd;clip-rule:evenodd;stroke-linejoin:round;stroke-miterlimit:2;">
    <path d="M237.192,374.77C231.843,374.77 226.495,372.729 222.415,368.649L126.284,272.518L155.838,242.964L237.192,324.317L407.71,153.8L437.264,183.354L251.969,368.649C247.888,372.73 242.541,374.77 237.192,374.77Z" style="fill:rgb(62,189,145);fill-rule:nonzero;"/>
    <g>
        <path d="M437.019,74.981C388.668,26.628 324.38,0 256,0C187.62,0 123.332,26.628 74.981,74.981C26.63,123.334 0,187.62 0,256C0,324.38 26.628,388.668 74.981,437.019C123.334,485.37 187.62,512 256,512C324.38,512 388.668,485.372 437.019,437.019C485.37,388.666 512,324.38 512,256C512,187.62 485.372,123.332 437.019,74.981ZM256,491.102C126.365,491.102 20.898,385.635 20.898,256C20.898,126.365 126.365,20.898 256,20.898C385.635,20.898 491.102,126.365 491.102,256C491.102,385.635 385.635,491.102 256,491.102Z" style="fill:rgb(35,31,32);fill-rule:nonzero;"/>
        <path d="M467.336,220.99C466.392,215.297 461.01,211.448 455.319,212.392C449.626,213.336 445.777,218.717 446.721,224.409C448.437,234.757 449.307,245.386 449.307,256C449.307,362.589 362.59,449.306 256.001,449.306C149.412,449.306 62.694,362.589 62.694,256C62.694,149.411 149.411,62.694 256,62.694C305.151,62.694 352.024,81.234 387.987,114.898C392.2,118.84 398.812,118.623 402.756,114.41C406.699,110.197 406.481,103.585 402.269,99.641C362.42,62.34 310.474,41.796 256,41.796C137.887,41.796 41.796,137.887 41.796,256C41.796,374.113 137.887,470.204 256,470.204C374.113,470.204 470.204,374.113 470.204,256C470.204,244.244 469.24,232.465 467.336,220.99Z" style="fill:rgb(35,31,32);fill-rule:nonzero;"/>
        <path d="M237.192,309.541L163.227,235.576C159.147,231.496 152.53,231.496 148.449,235.576L118.895,265.13C114.815,269.21 114.815,275.827 118.895,279.908L215.026,376.039C220.946,381.959 228.819,385.22 237.191,385.22C245.564,385.22 253.436,381.959 259.356,376.039L444.651,190.744C446.61,188.785 447.711,186.127 447.711,183.356C447.711,180.585 446.61,177.927 444.651,175.968L415.097,146.414C411.017,142.334 404.399,142.334 400.32,146.414L237.192,309.541ZM407.71,168.577L422.487,183.354L244.58,361.26C242.606,363.234 239.982,364.321 237.192,364.321C234.401,364.321 231.777,363.234 229.804,361.26L141.062,272.519L155.839,257.742L229.804,331.707C233.884,335.787 240.501,335.787 244.582,331.707L407.71,168.577Z" style="fill:rgb(35,31,32);fill-rule:nonzero;"/>
    </g>
</svg>
