<?xml version="1.0" encoding="UTF-8"?>
<!-- Generated by Pixelmator Pro 3.4.3 -->
<svg width="792" height="809" viewBox="0 0 792 809" xmlns="http://www.w3.org/2000/svg">
    <path id="path1116-copy" fill="#48aa55" stroke="none" d="M 763.719727 288.613342 C 764.266602 290.146667 764.466797 290.960022 764.706543 291.866699 C 764.292969 290.573303 763.786621 289.106628 763.719727 288.613342 Z M 525.373291 394.320007 C 523.52002 396.226685 521.959717 398.266663 521.106689 400.65332 C 521.386719 400.946716 521.546631 401.280029 521.613281 401.65332 C 521.533203 401.65332 521.466553 401.640015 521.373291 401.640015 C 520.253174 401.160034 518.973389 401.880005 517.639893 403.053345 C 518.879883 398.839966 522.759766 395.93335 525.373291 392.386658 C 525.279785 393.093384 525.359863 393.680054 525.693115 394.06665 Z M 501.853271 426.06665 C 501.919922 425.719971 502.079834 425.440002 502.320068 425.200012 Z M 497.666504 302.573303 L 497.733154 302.453308 L 497.746582 302.573303 Z M 411.186523 412.93335 C 412.373291 409.440002 416.133301 406.853333 417.799805 403.52002 C 416.346436 407.093323 414.040039 410.17334 411.186523 412.93335 Z M 416.706787 544.320007 L 416.706787 544.320007 L 416.706787 544.320007 Z M 387.093018 453.106689 L 386.959717 453.306671 C 386.946533 453.186676 386.946533 453.066681 386.946533 452.93335 L 387.306641 452.800018 C 387.23999 452.893341 387.159912 453 387.093018 453.106689 Z M 334.906738 416 C 334.373291 415.440002 333.840088 414.866699 333.279785 414.320007 C 332.159912 413.17334 331 412.080017 329.746582 411.133362 C 328.826416 410.466675 327.906738 409.799988 326.986572 409.133362 C 326.439941 408.666687 325.919922 408.226685 325.373291 407.76001 L 325.439941 407.373352 C 325.639893 407.58667 325.919922 407.733337 326.266602 407.799988 C 326.399902 407.82666 326.466553 407.786682 326.506592 407.706665 L 327.093018 408.493347 C 327.773438 409.280029 328.52002 409.919983 329.359863 410.400024 L 331.973389 412.65332 C 332.413086 413.160034 332.840088 413.666687 333.306641 414.160034 C 333.879883 414.786682 334.453369 415.400024 335.040039 416.013367 L 335.826416 416.880005 Z M 323.559814 406.133362 C 322.986572 405.65332 322.399902 405.200012 321.799805 404.799988 C 320.919922 404.23999 320.040039 403.680054 319.17334 403.119995 C 318.599854 402.773315 318.053223 402.373291 317.493164 401.93335 C 317.040039 401.386658 316.533203 401 315.959717 400.733337 C 315.93335 400.719971 316.079834 400.146667 316.079834 400.146667 C 316.079834 400.146667 316.479736 400.919983 316.413086 400.839966 C 317.333252 401.65332 318.253174 402.133362 319.026367 401.826721 C 319.133301 401.58667 319.186523 401.306641 319.199951 401 L 320.773438 403.026672 L 321.613281 403.746704 L 322.266602 404.640015 L 323.759766 406.23999 L 324.386719 406.866699 C 324.119873 406.626648 323.840088 406.386658 323.559814 406.133362 Z M 290.040039 374.960022 C 289.306641 374.34668 288.599854 373.773315 287.866455 373.160034 C 287.199951 372.560059 286.533203 371.973328 285.840088 371.426697 C 285.159912 370.893372 284.479736 370.440002 283.773438 370.066711 C 283.626465 370.013367 283.493164 369.973328 283.346436 369.93335 L 284.133301 369.23999 L 283.986572 369.17334 C 283.879883 368.600037 283.613281 368.17334 283.186523 367.880005 L 283.613281 367.853333 L 283.573242 366.760071 C 283.679932 366.773315 283.799805 366.786682 283.893066 366.773315 C 284.279785 367.17334 284.693115 367.573303 285.119873 367.93335 C 285.719971 368.426697 286.320068 368.799988 286.946533 369.093384 L 287.426514 368.880005 L 287.399902 369 C 287.533203 369.799988 287.826416 370.626709 288.306641 371.493347 C 288.853271 372.333374 289.439941 373.146667 290.106689 373.93335 C 291.266602 375.253357 292.493164 376.480042 293.786621 377.600037 C 292.52002 376.773315 291.266602 375.93335 290.040039 374.960022 Z M 228.106689 401.013367 C 228.253174 401.013367 228.373291 401.013367 228.506592 401.013367 C 228.559814 401.119995 228.599854 401.23999 228.666504 401.34668 C 228.479736 401.23999 228.293213 401.133362 228.106689 401.013367 Z M 28.786621 508.680023 C 28.840088 509.026672 28.893066 509.373352 28.959717 509.733337 C 29.546631 513.17334 30.159912 516.573364 30.786621 519.880005 C 31.573242 523.160034 32.413086 526.333374 33.266602 529.400024 C 33.413086 529.52002 33.599854 529.93335 33.826416 530.546692 C 33.840088 530.666687 33.853271 530.773315 33.853271 530.906677 C 33.799805 531.34668 33.93335 532.453369 34.213135 534.013367 C 34.506592 535.573364 34.879883 537.613342 35.546631 539.82666 C 34.58667 537.293335 33.986572 534.559998 33.266602 531.786621 C 32.58667 528.986694 31.893066 526.146729 31.199951 523.280029 C 30.453369 520.41333 30 517.466675 29.47998 514.533325 C 28.946533 511.600006 28.413086 508.693329 27.893066 505.82666 C 28.293213 507.413361 28.599854 508.466675 28.786621 508.680023 Z M 104.706787 698.506714 C 105.706787 699.386658 106.679932 700.280029 107.666504 701.160034 C 109.65332 702.973328 111.626465 704.773315 113.613281 706.573364 C 117.506592 710.320007 121.746582 713.813354 125.93335 717.440002 C 122.093262 714.386658 117.773438 710.93335 113.773438 707.026672 C 111.733154 705.106689 109.679932 703.186646 107.679932 701.306702 C 106.666504 700.373352 105.666504 699.453369 104.679932 698.533325 C 103.746582 697.599976 102.813232 696.666687 101.893066 695.746704 C 102.840088 696.666687 103.773438 697.58667 104.706787 698.506714 Z M 317.106689 778.93335 L 317.106689 778.93335 L 317.106689 778.93335 Z M 347.506592 805.773315 L 349.93335 806.026672 L 349.17334 806.013306 L 344 805.41333 C 345.17334 805.533325 346.333252 805.65332 347.506592 805.773315 Z M 673.320068 691.866699 C 674.866455 690.359985 676.333252 688.746704 677.826416 687.186646 C 680.893066 683.946655 683.919922 680.733337 686.826416 677.573364 C 688.813232 675.186646 690.786621 672.82666 692.773438 670.440002 C 694.026367 668.959961 695.279785 667.47998 696.546631 665.986694 L 697.06665 665.52002 C 696.52002 666.146729 696.013184 666.786621 695.52002 667.426636 C 695.333252 667.680054 695.320068 667.733337 695.399902 667.680054 L 693.599854 669.706665 C 691.706787 671.880005 689.946533 673.959961 688.346436 675.93335 C 686.320068 678.400024 684.040039 680.626709 681.906738 682.986694 C 680.613281 684.320007 679.333252 685.65332 678.040039 687.013306 C 676.386719 688.706665 674.826416 690.440002 673.133301 692.080017 C 672.346436 692.82666 671.573242 693.559998 670.786621 694.306702 Z M 700.799805 660.76001 C 702.040039 659.133301 703.253174 657.533325 704.453369 655.93335 C 706.133301 653.693359 707.799805 651.453369 709.466553 649.213379 C 710.559814 647.800049 711.533203 646.226685 712.65332 644.640015 C 713.813232 643.040039 714.786621 641.613342 715.679932 640.23999 C 715.719971 640.17334 716.346436 639.533325 716.346436 639.533325 C 716.346436 639.533325 715.279785 640.93335 715.119873 641.146729 C 713.17334 643.93335 711.679932 646.200012 711.359863 647.026672 C 711.58667 646.82666 711.906738 646.493347 712.293213 646.053345 C 710.946533 647.986694 709.466553 649.82666 707.986572 651.65332 L 706.119873 654.080017 L 704.213135 656.453369 L 700.439941 661.253296 L 698.93335 663.17334 Z M 762.706543 550.959961 C 763.679688 548.559998 764.413086 546.093323 765.226563 543.640015 C 765.986816 541.280029 766.733398 538.986694 767.493164 536.666687 C 768.17334 534.47998 768.82666 532.386658 769.466797 530.306641 C 769.55957 529.93335 769.626465 529.599976 769.706543 529.253296 L 769.959961 529.440002 L 770.053223 529.026672 C 770.52002 527.733337 770.919922 526.426636 771.266602 525.093323 L 771.159668 525.82666 L 771.973145 523.680054 C 771.933105 523.893311 771.893066 524.106689 771.853516 524.306641 C 771.439941 525.813354 771.026367 527.320007 770.600098 528.813354 C 770.093262 530.866699 769.453125 532.693359 768.973145 534.386658 L 768.946289 534.893311 L 768.866699 535.040039 C 768.146484 536.786621 767.333008 538.866699 766.413086 541.386658 C 765.493164 543.986694 764.55957 546.573364 763.613281 549.23999 C 761.839844 553.773315 760.106445 558.213379 758.386719 562.640015 C 759.812988 558.773315 761.253418 554.906677 762.706543 550.959961 Z M 762.866699 485.320007 C 762.853516 485.559998 762.82666 485.800018 762.812988 486.040009 C 762.746582 486.34668 762.693359 486.640015 762.626465 486.946686 C 762.706543 486.400024 762.786621 485.866669 762.866699 485.320007 Z M 9.546631 360.506653 L 9.506592 360.65332 C 9.533203 360.533325 9.559814 360.400024 9.58667 360.280029 C 9.573242 360.34668 9.559814 360.426697 9.546631 360.506653 Z M 721.799805 79.640015 L 722.453369 79.066711 C 722.199951 79.386658 721.946533 79.720032 721.706787 80.066711 C 721.266602 80.706665 720.866455 81.360046 720.506592 82.039978 C 720.320068 82.333374 720.133301 82.626709 719.93335 82.919983 C 719.973389 82.800049 720.013184 82.693359 720.053223 82.573303 C 720.146484 81.973328 720.040039 81.546692 719.773438 81.266663 C 720.466553 80.786682 721.133301 80.253357 721.799805 79.640015 Z M 723.786621 89.386658 C 724.853271 88.066711 726.159912 87.413391 727.333252 86.386658 C 727.58667 86.146729 727.826416 85.919983 728.06665 85.693359 L 728.093018 86.560059 L 728.359863 86.839966 L 727.533203 87.253357 C 726.546631 87.706665 725.559814 88.280029 724.58667 89.066711 C 723.786621 89.760071 723.026367 90.52002 722.333252 91.360046 L 722.453369 91.106689 C 722.879883 90.52002 723.320068 89.946716 723.786621 89.386658 Z M 732.079834 81.066711 L 731.426514 82.080017 C 731.186523 82.280029 730.959717 82.506653 730.759766 82.746704 L 730.679932 82.786682 Z M 753.439941 25.919983 C 753.093262 26.266663 752.746582 26.720032 752.373535 26.640015 C 752.679688 26.146729 753.066406 26.053345 753.439941 25.919983 Z M 779.546387 346.34668 C 778.946289 342.93335 778.34668 339.493347 777.746582 336.053345 C 776.973145 332.65332 776.199707 329.23999 775.439941 325.853333 C 774.640137 322.480042 773.986816 319.106628 773.120117 315.826721 C 772.253418 312.573303 771.386719 309.360046 770.533203 306.17334 C 769.65332 303.026733 768.986816 299.906677 768.080078 296.960022 C 767.186523 294 766.34668 291.146667 765.586426 288.386658 C 764.919922 286.053345 764.159668 283.546692 763.34668 280.946716 C 762.453125 278.373352 761.413086 275.733337 760.413086 273.026733 C 758.34668 267.640015 756.292969 262.053345 753.959961 256.93335 C 754.893066 258.826721 756.053223 261.106628 757.053223 263.440002 C 758.040039 265.786682 759.026367 268.119995 759.879883 270.039978 C 760.266602 271.013367 760.65332 271.986694 761.040039 272.946716 C 761.812988 274.906677 762.600098 276.853333 763.373535 278.786682 C 764.573242 281.773315 765.533203 284.799988 766.586426 287.560059 C 767.640137 290.360046 768.55957 292.693359 769.359863 294.560059 C 769.839844 295.626709 770.213379 296.333374 770.42627 296.573303 C 770.52002 296.493347 770.47998 296.039978 770.306641 295.200012 C 771.199707 297.493347 771.879883 299.746704 772.573242 301.839966 C 773.333008 304.160034 773.946289 305.813354 774.399902 306.773315 L 774.42627 305.960022 C 773.973145 303.880005 773.386719 301.480042 772.65332 298.65332 C 769.586426 288.733337 766.146484 278.773315 762.186523 269.093384 L 759.493164 262.320007 C 759.65332 262.706665 759.812988 263.080017 759.959961 263.480042 C 761.279785 266.786682 762.613281 270.106628 763.933105 273.400024 C 764.986816 276.080017 766.106445 278.426697 766.906738 280.546692 C 767.786621 282.266663 767.65332 281.306641 767.080078 279.200012 C 766.42627 277.119995 765.253418 273.93335 764.266602 271.106628 C 764.493164 271.546692 764.706543 271.973328 764.933105 272.400024 C 764.946289 272.426697 764.959961 272.426697 764.973145 272.440002 L 765.839844 274.640015 C 766.546387 276.400024 767.359863 278.146667 767.986816 279.986694 L 767.986816 279.986694 L 767.986816 279.986694 L 770.133301 286.253357 C 770.213379 286.213379 770.292969 286.23999 770.413086 286.320007 L 768.253418 280 C 767.373535 277.373352 766.292969 274.826721 765.333008 272.226685 C 765.279785 271.866699 765.159668 271.360046 764.973145 270.693359 C 766.292969 274.52002 768.013184 278.573303 769.55957 283.026733 L 770.55957 285.400024 C 771.026367 284.52002 775.82666 298.919983 777.17334 302.93335 L 777.52002 303.880005 C 777.093262 302.066711 776.533203 299.919983 775.853516 297.52002 C 774.786621 294.026733 773.55957 290.600037 772.413086 287.133362 L 770.066406 280.253357 C 769.319824 277.893372 768.386719 275.866699 767.600098 274.026733 L 765.146484 267.893372 C 764.866699 267.213379 764.573242 266.533325 764.226563 265.866699 C 764.146484 265.706665 764.106445 265.640015 764.080078 265.613342 L 764.040039 265.493347 C 763.359863 263.693359 762.679688 261.880005 762 260.053345 C 761.199707 258.23999 760.399902 256.413391 759.600098 254.573303 C 758.066406 251.080017 756.55957 247.640015 755.040039 244.160034 C 753.986816 241.706665 752.812988 239.799988 751.906738 238.160034 L 748.226563 230.666687 C 746.986816 228.186646 745.853516 225.65332 744.466797 223.253357 C 741.759766 218.373352 739.06665 213.506653 736.373291 208.613342 C 733.346436 203.826721 730.333252 199.013367 727.266602 194.133362 C 724.06665 189.293396 720.506592 184.546692 716.946533 179.613342 C 714.813232 176.626709 712.346436 173.773315 710.013184 170.773315 C 708.119873 168.373352 706.199951 165.93335 704.279785 163.506653 L 705.453369 162.026733 C 707.226563 159.453369 708.466553 157.013367 707.373291 155.186646 C 705.079834 155.919983 703.320068 158.133362 701.453369 160.093384 C 701.23999 159.839966 701.026367 159.58667 700.799805 159.333374 C 702.493164 156.52002 705.213135 154.52002 707.853271 152.453369 L 708.079834 150.293396 L 708.399902 150.400024 C 711.706787 148.440002 714.119873 145.306641 716.279785 141.853333 C 721.226563 135.266663 727.040039 129.146729 730.386719 121.720032 C 731.23999 118.973328 733.973389 117.773315 735.386719 115.480042 L 737.079834 113.320007 C 737.639893 112.58667 738.17334 111.866699 738.693115 111.106689 C 739.079834 110.52002 739.426514 109.919983 739.746582 109.306641 C 739.906738 109.213379 740.079834 109.106689 740.306641 108.919983 L 740.506592 109.373352 L 741.666504 107.34668 L 741.679932 107.546692 C 742.06665 106.666687 741.959717 106.266663 741.359863 106.333374 C 741.52002 106.039978 741.679932 105.760071 741.840088 105.480042 C 742.533203 104.400024 743.226563 103.320007 743.799805 102.200012 C 743.933105 101.919983 744.026367 101.65332 744.106445 101.400024 C 744.240234 101.52002 744.493164 101.466675 744.879883 101.23999 L 745.733398 100.119995 C 746.279785 100 746.853516 99.680054 747.42627 99.106689 L 747.973145 97.866699 C 749.34668 93.493408 753.626465 91.053345 755.893066 87.266663 C 759.812988 80.426697 765.573242 74.800049 770.053223 68.320007 C 770.573242 67.213379 770.586426 66.413391 770.080078 65.893372 C 769.292969 66.093384 768.55957 66.440002 767.879883 66.906677 C 768.133301 66.453369 768.42627 65.946716 768.706543 65.453369 C 770.026367 62.119995 774.719727 59.760071 774.359863 55.960022 C 773.706543 55.866699 772.959961 56.119995 772.133301 56.720032 C 771.719727 57.293396 771.240234 57.773315 770.706543 58.17334 C 769.799805 61.773315 767.453125 64.93335 764.799805 68.026733 C 765.146484 68.440002 765.47998 68.640015 765.799805 68.693359 C 763.893066 70.640015 762.199707 73.093384 760.133301 74.626709 C 758.733398 75.440002 757.359863 76.053345 755.959961 76.813354 C 755.573242 77.039978 755.199707 77.293396 754.82666 77.573303 L 754.266602 77.106689 C 753.600098 77.386658 752.973145 77.853333 752.373535 78.506653 C 751.946289 79.160034 751.706543 79.800049 751.613281 80.413391 C 751.306641 80.573303 751.093262 80.533325 750.919922 80.34668 C 750.959961 79.93335 751.133301 79.466675 751.386719 79.013367 C 751.906738 78.17334 752.533203 77.333374 753.133301 76.506653 L 753.386719 76.133362 L 753.586426 76.186646 C 753.986816 75.613342 754.413086 75.053345 754.839844 74.493408 C 754.973145 74.333374 755.013184 74.080017 754.959961 73.760071 C 754.959961 73.746704 754.946289 73.733337 754.946289 73.720032 C 755.146484 73.360046 755.34668 72.986694 755.52002 72.613342 C 755.626465 72.360046 755.746582 72.093384 755.866699 71.839966 L 755.919922 71.839966 L 756.799805 70.533325 L 756.82666 69.706665 L 756.866699 69.626709 C 757.159668 68.973328 757.42627 68.333374 757.626465 67.680054 C 757.640137 67.666687 757.746582 66.813354 757.746582 66.813354 L 758.42627 65.960022 C 758.879883 65.400024 759.240234 64.800049 759.52002 64.17334 C 762.279785 59.533325 765.55957 55.293396 769.493164 51.560059 C 773.146484 47.853333 775.759766 42.800049 780.133301 40.039978 C 783.773438 35.066711 789.240234 31.080017 790.733398 24.946716 C 787.506836 25.186707 786.17334 29.546692 783.693359 31.413391 L 780.959961 34.919983 C 779.866699 35.58667 779.080078 36.466675 778.586426 37.560059 C 778.213379 37.613342 777.812988 37.746704 777.386719 37.973328 L 769.080078 48.119995 C 767.693359 49.160034 766.986816 48 765.65332 48.866699 L 763.933105 50.373352 L 763.080078 51.640015 C 763.040039 51.773315 763 51.880066 762.959961 52.013367 C 760.839844 54.493408 758.933105 57.413391 756.040039 58.360046 L 755.466797 59.466675 C 754.839844 59.773315 754.199707 60.066711 753.586426 60.34668 C 748.812988 64.386658 745.626465 70.58667 740.546631 74.213379 C 739.840088 74.773315 739.159912 75.360046 738.493164 76.039978 C 737.613281 77.039978 736.919922 78.119995 736.253174 79.23999 C 735.799805 79.906677 735.333252 80.533325 734.853271 81.186646 C 734.279785 81.826721 733.679932 82.426697 733.079834 83.026733 C 733.013184 82.733337 732.866455 82.52002 732.599854 82.413391 L 733.919922 80.760071 C 734.559814 80.533325 735.119873 80.080017 735.626465 79.386658 C 736.119873 78.706665 736.386719 78.039978 736.439941 77.386658 L 736.546631 77.333374 C 736.666504 77.186646 736.65332 76.960022 736.533203 76.65332 C 736.399902 76.373352 736.06665 76.400024 735.52002 76.733337 C 736.026367 76.106689 736.533203 75.466675 737.013184 74.813354 C 737.613281 74.066711 738.213135 73.333374 738.773438 72.560059 L 741.52002 69.146729 C 742.146484 68.360046 742.759766 67.560059 743.319824 66.746704 C 744.52002 65.026733 745.55957 63.306641 745.866699 61.52002 L 745.866699 61.440002 L 746.373535 61.480042 L 747.292969 60.506653 C 747.893066 59.813354 748.319824 59.066711 748.600098 58.280029 L 751.053223 54.333374 C 750.786621 54.23999 750.533203 54.133362 750.292969 54 C 749.839844 54.360046 749.386719 54.746704 748.959961 55.17334 C 748.65332 55.093384 748.413086 54.906677 748.226563 54.65332 C 748.679688 54.306641 749.120117 53.973328 749.573242 53.613342 C 750.640137 52.573303 751.359863 51.280029 752.279785 50.119995 C 752.906738 49.34668 753.413086 48.52002 753.812988 47.666687 C 753.853516 47 753.733398 46.466675 753.453125 46.066711 C 753.666504 45.720032 753.759766 45.360046 753.759766 44.960022 C 753.493164 44.826721 753.226563 44.666687 752.986816 44.506653 C 752.439941 44.946716 751.906738 45.426697 751.399902 45.946716 C 746.506836 48.080017 744.52002 53.986694 740.693115 57.52002 L 740.733154 57.786682 L 740.719971 57.800049 L 740.719971 57.800049 L 740.693115 57.52002 L 738.213135 58.493408 C 737.453369 59.026733 737.013184 59.693359 736.879883 60.466675 L 736.773438 60.306641 L 736.639893 60.400024 L 736.733154 60.226685 C 737.040039 59.466675 737.306641 58.706665 737.533203 57.946716 C 741.17334 53.573303 743.213379 48.93335 744.986816 44.23999 C 745.640137 43.866699 746.159668 43.306641 746.533203 42.58667 L 746.613281 42.640015 C 747.292969 42.013367 747.773438 41.293396 748.080078 40.493408 L 749.120117 38.52002 C 755.719727 31.853333 761.533203 24.720032 765.279785 16.320007 C 765.146484 15.613342 764.693359 15.333374 763.919922 15.493408 C 759.839844 17.613342 757.613281 22.600037 754.053223 25.533386 L 754.040039 25.546692 C 754.093262 25.480042 754.146484 25.426697 754.199707 25.34668 C 755.266602 24.386658 756.106445 23.226746 756.839844 22 C 759.013184 18.34668 762.17334 15.146729 763.986816 11.34668 C 765.186523 8.306641 768.65332 6.066711 769.34668 2.840027 C 769.066406 2.666687 768.786621 2.493408 768.52002 2.306641 C 761.213379 8.573303 755.933105 18.760071 747.319824 22.480042 C 743.853516 24.226746 741.146484 27.893372 738.079834 30.640015 C 738.52002 29.053345 739.759766 27.293396 740.186523 25.693359 L 740.853271 24.773315 C 741.306641 24.160034 741.746582 23.546692 742.159912 22.919983 C 742.786621 21.93335 743.373535 20.93335 743.799805 19.919983 C 744.199707 18.853333 744.399902 17.866699 744.399902 16.946716 C 744.333008 16.360046 744.17334 15.866699 743.866699 15.493408 C 743.546387 15.253357 743.133301 15.146729 742.666504 15.160034 C 743.053223 14.333374 743.373535 13.52002 743.613281 12.693359 C 743.853516 11.773315 743.866699 10.973328 743.640137 10.320007 L 742.759766 9.973328 C 741.919922 10.293396 741.093018 10.773315 740.279785 11.453369 C 737.426514 13.946716 735.666504 17.360046 733.213135 20.200012 C 731.893066 21.720032 730.840088 23.480042 729.373291 24.840027 C 731.146484 22.973328 732.626465 20.866699 734.119873 18.800049 C 734.639893 17.893372 735 16.986694 735.199951 16.119995 C 734.479736 13.813354 732.346436 15.600037 730.426514 16.800049 C 730.413086 16.560059 730.386719 16.306641 730.333252 16.080017 L 730.266602 16 L 730.813232 15.34668 C 731.119873 14.733337 731.453369 14.119995 731.799805 13.52002 L 731.799805 13.52002 L 731.799805 13.52002 L 733.186523 11.58667 C 732.959717 11.426697 732.759766 11.226746 732.559814 11.026733 L 731.133301 12.946716 L 729.106689 15.106689 C 728.813232 15.039978 728.479736 15.013367 728.119873 15.053345 C 729.439941 14.253357 730.413086 13.013367 731.093018 11.400024 L 731.133301 10.280029 C 728.906738 8.826721 732.866455 5.066711 732.546631 2.906677 L 732.58667 2.466675 C 731.906738 2.786682 731.293213 3.293396 730.719971 3.973328 L 728.306641 7.026733 L 726.706787 9.053345 C 726.17334 9.760071 725.813232 10.480042 725.599854 11.213379 L 724.253174 13.146729 C 724.093018 13.360046 724.013184 13.640015 724.040039 13.986694 C 724.040039 14.080017 724.079834 14.133362 724.119873 14.17334 L 724.06665 14.200012 C 722.986572 15.066711 721.973389 16.053345 720.973389 17.106689 C 720.013184 18.066711 719.026367 18.986694 718.079834 19.973328 C 717.466553 20.693359 717.119873 21.426697 716.986572 22.17334 C 711.06665 27.600037 704.65332 32.333374 700.17334 39.826721 C 697.959717 44.720032 693.226563 48.293396 690.879883 53.119995 C 687.053223 55.533325 684.493164 59.600037 681.573242 63.200012 C 676.373291 69.58667 671.786621 76.666687 665.253174 81.506653 C 664 82.360046 663.093018 83.573303 662.293213 84.906677 C 661.373291 86.34668 660.453369 87.786682 659.493164 89.186646 L 655.426514 93.946716 L 654.426514 95.906677 L 649.813232 101.093384 L 650.293213 101.160034 L 648.573242 102.693359 L 646.306641 105.626709 C 633 94.866699 619.053223 84.960022 605.413086 76.133362 C 603.746582 74.946716 601.959717 73.866699 600.119873 72.826721 C 598.279785 71.773315 596.413086 70.720032 594.493164 69.626709 C 590.320068 67.306641 586.199951 64.880005 581.866455 62.800049 L 574.040039 58.760071 C 571.439941 57.400024 568.840088 56.039978 566.146484 54.866699 L 560.533203 52.453369 L 551.666504 48.386658 L 542.613281 44.760071 L 543.213135 45.119995 L 537.306641 42.666687 C 520.479736 36.480042 503.333252 31.039978 485.799805 27.253357 C 477.093018 25.066711 468.226563 23.733337 459.399902 22.119995 C 454.986572 21.373352 450.52002 20.946716 446.079834 20.34668 C 441.626465 19.786682 437.186523 19.160034 432.706787 18.906677 C 432.439941 18.840027 432.186523 18.773315 431.893066 18.706665 C 424.506592 18.066711 417.053223 17.34668 409.573242 17.320007 L 398.359863 17.053345 C 394.626465 17.026733 390.866455 17.226746 387.119873 17.280029 C 382.973389 17.453369 378.799805 17.426697 374.666504 17.746704 L 362.23999 18.800049 L 356.026367 19.333374 L 349.853271 20.213379 L 337.493164 21.946716 C 333.493164 22.613342 329.533203 23.493408 325.559814 24.23999 L 319.599854 25.426697 L 316.626465 26.026733 L 313.679932 26.773315 C 305.853271 28.853333 297.919922 30.573303 290.23999 33.186707 C 287.733154 33.973328 285.226563 34.760071 282.733154 35.546692 L 279 36.746704 C 277.759766 37.146729 276.559814 37.65332 275.346436 38.106689 C 272.146484 39.333374 268.946533 40.560059 265.746582 41.773315 L 260.959717 43.600037 C 259.346436 44.200012 257.813232 44.946716 256.23999 45.613342 L 247.959717 49.200012 C 245.213135 50.426697 242.399902 51.493408 239.733154 52.880066 L 228.106689 58.746704 C 226.679932 59.453369 225.23999 60.133362 223.826416 60.880005 L 219.65332 63.200012 C 216.866699 64.746704 214.093262 66.293396 211.293213 67.839966 C 207.573242 69.826721 204.026367 72.093384 200.47998 74.333374 C 196.946533 76.58667 193.426514 78.800049 190.040039 81.119995 L 174.746582 92.026733 C 170.426514 95.373352 166.040039 98.773315 161.759766 102.093384 C 160.706787 102.93335 159.640137 103.746704 158.613281 104.600037 L 155.65332 107.213379 C 153.706787 108.946716 151.813232 110.666687 150.026367 112.34668 L 144.813232 116.839966 C 143.093262 118.34668 141.47998 119.973328 139.799805 121.533325 L 129.826416 131.013367 L 120.320068 140.919983 C 118.746582 142.58667 117.133301 144.213379 115.58667 145.893372 L 111.06665 151.066711 C 108.079834 154.533325 105 157.93335 102.079834 161.466675 L 93.546631 172.213379 C 90.640137 175.746704 88.013184 179.506653 85.333252 183.213379 C 82.706787 186.946716 79.893066 190.573303 77.399902 194.400024 C 75.320068 197.573303 73.279785 200.680054 71.266602 203.733337 C 69.23999 206.773315 67.23999 209.733337 65.493164 212.720032 C 63.693115 215.613342 61.93335 218.453308 60.17334 221.280029 C 58.453369 224.026733 56.719971 226.626709 55.253418 229.213379 C 57.013184 225.880005 58.573242 223.360046 59.866699 220.93335 C 61.159912 218.546692 62.439941 216.186646 63.759766 213.760071 C 61.546631 216.600037 58.893066 220.880005 56.106689 225.626709 C 53.599854 230.480042 50.786621 235.866699 48.279785 240.706665 C 47.026367 243.160034 45.320068 246.65332 43.813232 249.839966 C 42.293213 253.026733 40.973389 255.906677 40.693115 257.23999 C 42.199951 254.506653 44.413086 249.93335 46.226563 246.386658 L 45.746582 247.440002 C 33 274.293396 22.093262 302.733337 14.65332 331.733337 C 10.453369 348.039978 7.413086 364.880005 4.706787 381.799988 L 3.159912 394.560059 C 2.679932 398.826721 2.040039 403.06665 1.826416 407.34668 C 1.266602 415.906677 0.426514 424.426697 0.453369 432.946716 C 0 460.973358 1.893066 489.626678 7.133301 517.853333 C 7.399902 519.41333 7.666504 520.973389 7.93335 522.546692 C 8.06665 523.333374 8.213135 524.119995 8.346436 524.919983 C 8.533203 525.706665 8.719971 526.506714 8.906738 527.306641 L 8.306641 524.906677 L 7.826416 522.47998 L 6.893066 517.640015 L 7.119873 518.213379 L 4.679932 505.519989 C 4.439941 504.680023 4.320068 505.34668 4.58667 507.266663 C 5.17334 511.066681 5.893066 514.786621 6.666504 518.47998 C 6.706787 518.746704 6.773438 518.986694 6.853271 519.186646 C 7.013184 520.626709 7.320068 522.506714 7.759766 524.919983 C 9.106689 530.573364 10.453369 536.253296 11.866699 541.82666 C 12.146484 542.706665 12.399902 543.58667 12.746582 544.440002 C 12.58667 543.719971 12.47998 543 12.386719 542.266663 L 12.693115 543.026672 L 11.706787 538.919983 C 12.306641 541.266663 12.840088 543.58667 13.599854 545.813354 C 15.093262 550.493347 16.573242 555.160034 18.053223 559.82666 C 19.626465 564.506714 21.466553 569.160034 23.159912 573.893311 C 24.786621 578.65332 26.879883 583.280029 28.853271 587.986694 C 29.853271 590.333374 30.840088 592.693359 31.840088 595.06665 C 32.879883 597.41333 34.053223 599.719971 35.159912 602.053345 C 36.413086 604.626709 37.65332 607.200012 38.906738 609.773315 C 39.786621 611.706665 40.786621 613.559998 41.813232 615.400024 C 42.826416 617.253296 43.840088 619.106689 44.853271 620.973389 C 46.23999 623.453369 47.599854 625.893311 48.986572 628.280029 C 52.533203 633.599976 55.959717 639.093323 59.640137 644.559998 C 61.559814 647.253296 63.47998 649.959961 65.426514 652.706665 C 67.373291 655.453369 69.266602 658.293335 71.426514 660.986694 C 72.626465 662.506714 73.813232 664.013367 75 665.52002 C 73.133301 663.493347 70.493164 660.34668 68 656.853333 C 65.546631 653.333374 63.026367 649.640015 60.919922 646.866699 C 60.853271 646.906677 60.746582 646.906677 60.626465 646.866699 L 64.373291 652.359985 C 65.719971 654.373352 67.093262 656.426636 68.506592 658.546692 C 70.119873 660.666687 71.773438 662.800049 73.47998 664.906677 C 75.746582 667.65332 78.17334 670.82666 80.306641 673.200012 C 81.06665 674.17334 82.146484 675.440002 83.546631 676.986694 L 85.093262 678.466675 L 83.626465 676.506714 L 84.213135 677.013306 L 80.06665 672.253296 C 79.973389 672.040039 79.93335 671.866699 79.879883 671.693359 C 81.706787 673.853333 83.493164 675.973389 85.266602 678.080017 C 86.853271 679.93335 88.466553 681.813354 90.06665 683.679993 C 91.746582 685.666687 93.599854 687.506714 95.373291 689.293335 C 97.199951 691.106689 99.026367 692.920044 100.799805 694.679993 L 101.453369 695.306702 C 101.213135 695.093323 100.959717 694.893311 100.693115 694.706665 C 100.306641 694.440002 100.559814 694.840027 101.493164 695.920044 C 102.320068 696.82666 103.133301 697.720032 103.959717 698.626648 C 104.826416 699.546692 105.786621 700.426636 106.746582 701.359985 C 108.706787 703.200012 110.706787 705.106689 112.733154 707.026672 C 114.773438 708.866699 116.693115 710.840027 118.826416 712.559998 C 120.919922 714.306702 123 716.040039 125.06665 717.773315 C 128.226563 720.34668 131.159912 722.866699 134 724.76001 C 135.626465 725.853333 136.733154 726.546631 137.413086 726.866699 C 137.453369 726.840027 137.386719 726.733337 137.266602 726.573364 C 138.959717 727.82666 140.626465 729.053345 142.279785 730.280029 C 143.759766 731.333374 145.199951 732.440002 146.706787 733.466675 L 151.266602 736.466675 C 154.320068 738.493347 157.373291 740.52002 160.439941 742.559998 C 163.559814 744.546631 166.799805 746.41333 170.026367 748.400024 C 173.279785 750.333374 176.493164 752.466675 179.946533 754.306641 C 182.359863 755.626648 184.759766 756.959961 187.186523 758.293335 C 189.58667 759.58667 191.919922 760.986694 194.373291 762.160034 C 197.306641 763.599976 200.23999 765.026672 203.159912 766.453369 C 206.093262 767.840027 208.946533 769.359985 211.919922 770.546631 C 215.146484 771.880005 218.293213 773.186646 221.47998 774.506714 C 223.533203 775.34668 225.559814 776.266663 227.65332 777.053345 C 229.719971 777.840027 231.786621 778.613342 233.853271 779.400024 L 240.013184 781.746704 C 242.06665 782.52002 244.093018 783.359985 246.186523 784 C 248.253174 784.679993 250.320068 785.34668 252.373291 786.026672 C 254.386719 786.65332 256.359863 787.280029 258.320068 787.893311 C 259.719971 788.306641 261.119873 788.773315 262.559814 789.17334 C 264.026367 789.573364 265.493164 789.959961 266.986572 790.359985 C 269.013184 790.93335 271.079834 791.52002 273.119873 792.093323 C 275.226563 792.679993 277.359863 793.293335 279.466553 793.893311 C 282.813232 794.786682 286.213135 795.546631 289.599854 796.359985 C 291.93335 796.906677 294.266602 797.466675 296.599854 798.013306 C 301.333252 799.119995 306.079834 799.853333 310.706787 800.706665 C 314.053223 801.23999 317.346436 801.959961 320.746582 802.333374 C 323 802.65332 325.23999 802.959961 327.506592 803.280029 L 334.186523 804.253357 L 337.533203 804.733337 L 340.893066 805.093323 L 343.666504 805.373352 C 342.253174 805.359985 342.320068 805.493347 343.93335 805.786682 C 346.093018 806.106689 348.426514 806.373352 350.946533 806.573364 L 350.93335 806.573364 C 352.373291 806.799988 354.053223 807.040039 355.946533 807.280029 C 363.119873 807.920044 369.973389 808.280029 376.053223 808.386658 C 376.306641 808.400024 376.52002 808.400024 376.706787 808.373352 C 378.106689 808.453369 379.65332 808.47998 381.346436 808.466675 C 382.133301 808.426636 382.58667 808.386658 382.719971 808.34668 L 383.439941 808.373352 C 385.466553 808.440002 387.546631 808.52002 389.626465 808.599976 C 391.853271 808.65332 394.119873 808.706665 396.373291 808.76001 C 399.866455 808.746704 403.359863 808.599976 406.813232 808.47998 C 409.013184 808.373352 411.119873 808.266663 413.226563 808.17334 C 414.333252 808.080017 415.399902 808 416.466553 807.920044 C 417.226563 807.920044 418 807.840027 418.759766 807.76001 L 418.946533 807.65332 C 419.439941 807.58667 419.93335 807.52002 420.426514 807.453369 C 421.026367 807.386658 421.626465 807.320007 422.226563 807.253357 C 422.23999 807.320007 422.439941 807.373352 422.826416 807.41333 C 424.213135 807.440002 426.23999 807.359985 428.826416 807.200012 L 430.599854 807.040039 C 430.226563 807.160034 430.533203 807.213318 431.639893 807.213318 C 433.559814 807.133301 435.706787 807.053345 438.053223 806.773315 C 439.879883 806.453369 441.053223 806.200012 441.65332 805.986694 C 441.840088 805.840027 441.426514 805.76001 440.399902 805.773315 L 438.919922 805.920044 L 439.746582 805.706665 C 440.079834 805.573364 439.93335 805.506714 439.439941 805.47998 L 441.106689 805.333374 L 444.306641 804.813354 C 444.306641 804.799988 444.333252 804.773315 444.333252 804.76001 L 445.253174 804.640015 L 447.58667 804.34668 C 447.546631 804.359985 447.559814 804.373352 447.533203 804.386658 L 444.306641 804.813354 C 442.759766 805.119995 442.679932 805.253357 444.333252 805.17334 C 446.399902 805 448.666504 804.733337 451.119873 804.373352 C 451.119873 804.373352 451.013184 804.373352 450.866455 804.359985 C 451.23999 804.333374 451.613281 804.306641 452 804.280029 C 454.106689 804.040039 456.119873 803.866699 457.906738 803.52002 C 459.706787 803.186646 461.320068 802.840027 462.679932 802.47998 C 462.693115 802.386658 462.533203 802.34668 462.213135 802.320007 C 462.52002 802.17334 462.213135 802.160034 461.58667 802.226685 L 462.666504 802.013306 C 464.573242 801.679993 466.399902 801.359985 468.266602 801.040039 C 470.986572 800.626648 473.06665 800.400024 475.413086 800.093323 L 475.533203 800.06665 C 475.559814 800.106689 475.613281 800.146667 475.693115 800.186646 L 476.026367 800.146667 C 474.533203 800.453369 473.053223 800.746704 471.58667 801.053345 C 470.253174 801.34668 469.133301 801.613342 468.186523 801.853333 C 467.079834 801.986694 465.65332 802.226685 463.866455 802.559998 C 460.359863 803.23999 457.06665 804.026672 454.346436 804.453369 C 451.746582 804.946655 449.559814 805.386658 448.386719 805.746704 C 448.106689 805.93335 448.58667 806 449.866455 805.959961 C 451.893066 805.773315 454.320068 805.47998 456.65332 805.200012 C 458.986572 804.866699 461.226563 804.453369 462.93335 804.293335 L 464.533203 804 C 465.306641 803.93335 466.133301 803.82666 467 803.666687 C 467.426514 803.679993 468.266602 803.626648 469.65332 803.453369 L 469.546631 803.47998 C 472.853271 803.080017 477.146484 802.359985 481.199951 801.333374 C 484 800.693359 486.58667 800.06665 488.906738 799.426636 L 494.826416 798.06665 C 496.799805 797.626648 498.733154 797 500.693115 796.466675 C 502.479736 795.920044 504.279785 795.373352 506.079834 794.82666 L 506.546631 794.693359 C 507.053223 794.546631 507.546631 794.41333 508.040039 794.280029 C 510.453369 793.599976 512.840088 792.959961 515.23999 792.226685 C 517.533203 791.440002 519.786621 790.679993 522.079834 789.906677 C 524.293213 789.146667 526.479736 788.400024 528.693115 787.65332 C 530.853271 786.893311 533.013184 786.226685 535.079834 785.333374 C 537.146484 784.493347 539.040039 783.693359 540.799805 782.93335 L 540.986572 782.82666 C 543.853271 781.786682 546.866455 780.65332 550.06665 779.386658 C 549.253174 779.719971 548.453369 780.06665 547.65332 780.400024 C 546.506592 781 546.279785 781.23999 547 781.119995 L 549.973389 780.093323 C 551.213135 779.640015 552.413086 779.080017 553.626465 778.546631 C 556.079834 777.440002 558.373291 776.359985 560.533203 775.320007 L 566.079834 772.733337 L 568.853271 771.453369 L 571.559814 770.040039 C 573.226563 769.040039 573.213135 768.893311 571.759766 769.493347 C 570.746582 769.959961 569.733154 770.440002 568.693115 770.93335 C 567.573242 771.41333 566.439941 771.906677 565.253174 772.41333 C 564.293213 772.853333 563.333252 773.280029 562.373291 773.706665 C 565.279785 772.333374 568.279785 771.080017 571.133301 769.533325 L 577.599854 766.186646 C 579.17334 765.359985 580.733154 764.546631 582.293213 763.733337 C 581.799805 764.013306 581.320068 764.293335 580.840088 764.573364 C 580.386719 764.959961 580.706787 764.959961 581.786621 764.533325 L 584.879883 763.053345 C 586 762.506714 587.06665 761.853333 588.146484 761.23999 C 590.333252 759.973328 592.373291 758.76001 594.266602 757.599976 L 599.479736 754.533325 C 601.226563 753.533325 602.959717 752.493347 604.626465 751.359985 L 609.840088 748.013306 C 609.879883 747.880005 609.893066 747.746704 609.893066 747.626648 L 607.040039 749.320007 L 604.866455 750.893311 C 604.666504 750.973328 604.399902 751.106689 604.013184 751.320007 C 602.426514 752.280029 600.559814 753.253357 598.52002 754.386658 C 596.973389 755.266663 595.426514 756.146667 593.866455 757.026672 L 595.65332 755.959961 C 598.58667 754.186646 601.613281 752.559998 604.386719 750.640015 C 606.213135 749.41333 607.906738 748.266663 609.439941 747.186646 C 609.786621 746.93335 610.119873 746.693359 610.453369 746.440002 L 611.613281 745.853333 C 612.733154 745.106689 613.866455 744.359985 615 743.613342 C 616.626465 742.440002 617.599854 741.679993 617.879883 741.280029 C 617.799805 741.23999 617.613281 741.306641 617.320068 741.41333 L 619.613281 739.599976 C 618.666504 740.266663 617.746582 740.986694 616.759766 741.613342 C 618.040039 740.719971 619.359863 739.666687 620.759766 738.65332 C 622.293213 737.506714 623.826416 736.373352 625.320068 735.253357 C 627.666504 733.52002 630.040039 731.773315 632.453369 729.986694 C 634.119873 728.65332 635.813232 727.293335 637.479736 725.973328 C 639.17334 724.58667 640.853271 723.226685 642.493164 721.880005 C 644.013184 720.599976 645.306641 719.47998 646.266602 718.58667 C 646.399902 718.440002 646.52002 718.306702 646.65332 718.160034 C 647.599854 717.47998 648.546631 716.65332 649.613281 715.786682 C 650.986572 714.626648 652.346436 713.466675 653.733154 712.293335 C 653.93335 712.133362 654.159912 711.973328 654.399902 711.786682 C 656.133301 710.400024 657.813232 708.946655 659.439941 707.426636 L 658.893066 707.853333 C 660.053223 706.82666 661.253174 705.866699 662.320068 704.786682 C 663.93335 703.226685 665.546631 701.666687 667.133301 700.119995 C 670.773438 696.493347 674.346436 692.920044 672.893066 693.746704 C 673.773438 692.453369 677.426514 688.58667 681.159912 684.719971 C 683.026367 682.786682 684.906738 680.840027 686.426514 679.186646 C 687.973389 677.546631 689.013184 676.06665 689.453369 675.306641 L 696.906738 666.58667 L 698.133301 664.853333 L 698.106689 664.880005 C 698.93335 664.013367 699.799805 663 700.719971 661.813354 L 704.959717 656.426636 C 706.373291 654.613342 707.666504 652.893311 708.879883 651.266663 L 710.746582 648.58667 L 712.479736 645.82666 C 712.879883 645.373352 713.346436 644.800049 713.893066 644.106689 C 716.413086 640.82666 719.040039 637.333374 721.746582 633.666687 C 724.293213 629.893311 726.893066 625.919983 729.546631 621.853333 C 732.573242 617.400024 735.093018 612.65332 737.786621 607.973389 C 739 605.773315 740.17334 603.65332 741.373291 601.493347 C 742.333252 599.546692 742.946533 598.093323 743.34668 597.053345 L 745.186523 593.466675 L 744.973145 593.34668 L 743.199707 596.82666 C 743.093262 596.82666 743.093262 596.640015 743.733398 595.23999 C 744.933105 592.693359 746.34668 589.880005 747.746582 587.106689 C 748.279785 586.053345 748.82666 584.973389 749.373535 583.893311 C 749.853516 582.800049 750.34668 581.706665 750.82666 580.626709 C 751.399902 579.320007 751.973145 578.040039 752.546387 576.76001 L 752.120117 577.880005 C 751.906738 578.866699 752.466797 578.133301 753.306641 576.76001 C 753.853516 575.880005 754.42627 574.893311 755.120117 573.666687 C 755.839844 572.320007 756.666504 570.706665 757.600098 568.800049 C 758.586426 566.853333 759.373535 564.746704 760.266602 562.573364 C 760.693359 561.493347 761.120117 560.426636 761.533203 559.359985 L 764.959961 550.599976 C 766.093262 547.680054 767 544.680054 768.026367 541.719971 C 770.373535 534.373352 779.146484 505.640015 775.600098 512.213379 C 775.199707 513.213379 774.719727 514.613342 774.120117 516.506714 L 774.026367 516.82666 L 774.026367 516.746704 C 774.679688 514.506714 775.34668 512.466675 775.626465 510.533356 C 776.040039 508.640015 776.42627 506.813354 776.82666 504.986664 C 780.333008 490.880035 781.279785 483.200012 781.812988 479.920013 C 782.266602 476.613373 781.799805 477.613373 780.746582 480.493347 C 780.333008 483.360016 779.946289 486.17334 779.533203 489.026672 C 779.319824 490.480011 779.133301 491.986664 778.799805 493.600006 C 778.453125 495.213348 778.066406 496.946686 777.613281 498.853333 C 777.080078 501.280029 776.693359 503.280029 776.453125 504.840027 C 776.399902 505.320007 776.386719 505.546692 776.413086 505.666687 L 775.906738 507.200012 C 775.279785 509.640015 774.746582 512.133301 774.026367 514.613342 C 773.773438 515.680054 773.573242 516.546692 773.439941 517.23999 L 773.42627 517.213379 L 773.533203 516.693359 C 773.013184 518.266663 772.52002 519.893311 772.080078 521.546692 L 772.279785 520.613342 C 771.973145 521.466675 771.666504 522.306641 771.373535 523.146729 L 770.040039 527.773315 C 770.159668 527.146729 770.279785 526.546692 770.399902 525.93335 C 770.52002 525.106689 770.573242 524.47998 770.546387 524.106689 C 770.546387 523.959961 770.55957 523.746704 770.573242 523.533325 L 770.946289 522.200012 L 771 521.82666 C 771.399902 520.386658 771.786621 518.986694 772.17334 517.559998 C 772.359863 516.93335 772.506836 516.280029 772.65332 515.58667 C 772.759766 515.040039 772.679688 515.093323 772.453125 515.719971 L 772.866699 514.333374 C 773.133301 513.226685 773.439941 512.146729 773.666504 511.026672 L 773.693359 510.880035 C 773.706543 510.840027 773.719727 510.813354 773.733398 510.773346 C 774.279785 508.786652 774.679688 507 774.959961 505.373352 C 775.319824 503.733337 775.693359 502.093323 776.053223 500.466675 C 776.786621 497.17334 777.319824 494.613373 777.679688 492.400024 C 777.973145 490.160004 778.17334 488.280029 778.373535 486.373352 C 778.946289 479.720001 779.600098 473.946686 779.866699 466.706696 C 780.053223 463.106689 780.319824 459.160004 780.693359 454.600006 C 780.906738 450.013367 781.066406 444.813354 781.413086 438.706696 C 781.52002 436.680054 781.613281 435.080017 781.613281 433.813354 C 781.586426 432.546692 781.546387 431.626648 781.493164 430.973328 C 781.386719 429.65332 781.240234 429.41333 781.066406 429.600037 C 780.719727 429.986694 780.292969 432.119995 780.013184 431.06665 C 779.679688 429.866699 779.439941 431.786682 779.053223 435.040039 C 778.600098 438.280029 778.093262 442.853333 777.626465 447 C 777.399902 448.82666 777.213379 451.973358 776.893066 454.693329 C 776.573242 457.400024 776.34668 459.693329 776.47998 459.82666 C 777.199707 460.573364 776.812988 466.280029 775.866699 473.65332 C 775.226563 477.34668 774.506836 481.400024 773.799805 485.493347 C 773.42627 487.546692 773.066406 489.600006 772.706543 491.600006 C 772.266602 493.573364 771.82666 495.506683 771.413086 497.360016 L 770.866699 499.720001 C 770.866699 499.720001 770.333008 502.053345 770.292969 502.253326 C 770.040039 502.959991 770.080078 502.413361 770.386719 500.880035 C 770.626465 499.58667 770.786621 498.533356 770.879883 497.746704 C 773.799805 481.240021 775.17334 466.533356 773.040039 470.17334 C 772.133301 471.76001 770.933105 472.066681 771.159668 463.93335 C 771.279785 459.493347 769.959961 463.440033 771.213379 453.186676 C 771.933105 443.65332 772.973145 436.76001 773.65332 436.546692 C 773.853516 436.480042 774.080078 435.320007 774.240234 433.533325 C 774.34668 431.719971 774.413086 429.280029 774.493164 426.65332 C 774.613281 422.026672 774.600098 417.813354 774.319824 418.813354 C 772.853516 423.906677 771.839844 399.613342 769.973145 430.040039 C 769.812988 434.040039 769.159668 437.666687 769.026367 435.333374 C 768.719727 431.386658 768.34668 429.426697 768.186523 430.986694 C 767.986816 433.400024 767.613281 437.906677 766.799805 447.786652 C 766.586426 449.453339 766.359863 451.093353 766.133301 452.76001 C 765.839844 454.573364 765.533203 456.400024 765.226563 458.266693 C 764.613281 462.119995 764.026367 466.34668 763.413086 470.946686 C 762.973145 467.813354 762.213379 467.613373 761.133301 470.386658 C 759.893066 473.146698 758.146484 478.853333 755.853516 487.58667 C 754.746582 491.280029 753.693359 494.613373 752.799805 497.840027 C 751.866699 501.040009 751.186523 504.146698 750.292969 507.226685 C 749.399902 510.293335 748.55957 513.41333 747.719727 516.746704 C 746.879883 520.080017 746.080078 523.640015 744.893066 527.493347 L 740.93335 540.040039 L 736.359863 552.400024 C 734.919922 556.559998 733.119873 560.559998 731.386719 564.613342 L 728.799805 570.680054 C 728.359863 571.680054 727.946533 572.706665 727.479736 573.706665 L 726.040039 576.666687 L 723.320068 581.973389 L 720.639893 587.200012 C 719.893066 588.626709 719.106689 590 718.306641 591.320007 C 717.52002 592.680054 716.759766 593.986694 716.013184 595.280029 C 714.533203 597.866699 713.119873 600.400024 711.746582 602.906677 C 708.919922 607.880005 705.93335 612.58667 702.853271 617.58667 C 701.840088 619.253296 700.693115 620.853333 699.546631 622.440002 L 696.146484 627.226685 C 694.413086 629.680054 692.746582 632.053345 691.053223 634.440002 C 689.333252 636.719971 687.599854 639.026672 685.866455 641.306641 C 684.146484 643.599976 682.399902 645.906677 680.58667 648.226685 C 678.65332 650.466675 676.65332 652.733337 674.533203 655.053345 L 669.786621 660.666687 C 668.199951 662.533325 666.466553 664.266663 664.813232 666.080017 L 659.813232 671.466675 L 657.306641 674.160034 C 656.453369 675.040039 655.559814 675.880005 654.679932 676.733337 C 635.306641 696.17334 613.786621 713.533325 590.58667 728.34668 C 588.853271 729.359985 587.119873 730.373352 585.426514 731.47998 C 582.599854 733.133301 579.773438 734.799988 576.946533 736.466675 L 572.693115 738.946655 L 568.333252 741.226685 C 562.506592 744.266663 556.786621 747.426636 550.893066 750.040039 C 548.866455 751 546.840088 751.946655 544.813232 752.893311 C 542.773438 753.840027 540.746582 754.840027 538.626465 755.640015 C 534.439941 757.34668 530.226563 759.053345 526.013184 760.76001 C 521.773438 762.440002 517.399902 763.799988 513.106689 765.333374 L 506.626465 767.573364 L 500.06665 769.47998 L 493.52002 771.41333 C 491.346436 772.053345 489.186523 772.719971 486.973389 773.213318 C 482.599854 774.280029 478.23999 775.34668 473.906738 776.400024 C 471.746582 776.986694 469.559814 777.359985 467.399902 777.799988 L 460.946533 779.080017 L 454.559814 780.373352 C 452.453369 780.813354 450.320068 781.053345 448.226563 781.41333 C 444.866455 781.693359 443.453369 781.613342 439.546631 782.013306 C 435.52002 782.52002 431.639893 782.746704 427.93335 783.06665 C 424.226563 783.373352 420.679932 783.746704 417.266602 784.146667 C 415.493164 784.06665 411.213135 784.119995 406.213135 784.386658 L 400.266602 784.559998 L 397.293213 784.640015 L 394.306641 784.599976 L 382.359863 784.400024 L 380.186523 784.453369 L 379.253174 784.599976 C 378.946533 784.693359 379.226563 784.799988 380.06665 784.920044 C 377.279785 784.986694 374.666504 784.799988 372.279785 784.786682 C 370.226563 784.773315 368.733154 784.813354 367.773438 784.906677 C 366.639893 784.799988 365.493164 784.693359 364.266602 784.573364 C 362.693115 784.453369 361.119873 784.34668 359.546631 784.226685 L 363.906738 784.41333 C 364.146484 784.320007 364.333252 784.23999 364.453369 784.146667 C 362.439941 784 360.426514 783.906677 358.399902 783.719971 L 352.373291 783.080017 C 350.426514 782.773315 348.386719 782.559998 346.266602 782.41333 L 346.879883 782.599976 L 340.879883 781.986694 L 340.879883 781.986694 C 338.919922 781.746704 336.959717 781.41333 335 781.133301 C 334.906738 781.23999 334.879883 781.34668 334.919922 781.466675 C 336.906738 781.719971 338.879883 782.013306 340.866455 782.226685 L 340.866455 782.226685 C 342.719971 782.47998 344.58667 782.666687 346.439941 782.799988 L 346.439941 782.799988 L 349.706787 783.200012 C 345.23999 782.693359 340.813232 782.426636 336.52002 781.773315 C 333.399902 781.373352 330.306641 780.986694 327.17334 780.58667 L 322.853271 779.973328 L 323.266602 779.693359 C 321.040039 779.373352 318.853271 778.840027 316.639893 778.426636 L 317.266602 778.640015 L 314.399902 778.06665 L 311.559814 777.573364 C 311.413086 777.613342 311.23999 777.65332 311.040039 777.693359 L 317.106689 778.93335 C 317.106689 778.93335 317.06665 778.93335 317 778.920044 C 315.119873 778.559998 313.23999 778.200012 311.359863 777.840027 C 309.23999 777.440002 307.119873 777.040039 304.986572 776.626648 C 301.826416 776 298.706787 775.186646 295.58667 774.493347 C 293.546631 774.040039 291.546631 773.599976 289.533203 773.160034 C 287.666504 772.773315 285.733154 772.359985 283.693115 771.733337 C 281.893066 771.17334 280.119873 770.613342 278.293213 770.053345 C 275.719971 769.23999 273.186523 768.453369 270.613281 767.65332 C 268.773438 767.133301 266.93335 766.440002 265.013184 765.799988 C 263.106689 765.200012 261.266602 764.613342 259.413086 764.026672 C 258.826416 763.853333 258.279785 763.693359 257.706787 763.533325 L 257.426514 763.400024 C 255.759766 762.840027 254.253174 762.359985 252.93335 761.973328 C 251.546631 761.453369 249.879883 760.733337 247.813232 760.06665 L 248.23999 760.280029 L 248.266602 760.559998 L 247.479736 760.280029 C 247.399902 760.253357 244.906738 759.320007 244.906738 759.320007 C 244.906738 759.320007 242.426514 758.34668 242.346436 758.320007 C 239.679932 757.226685 237.159912 756.23999 234.58667 755.093323 C 232.666504 754.226685 230.719971 753.34668 228.773438 752.466675 C 226.693115 751.546631 224.573242 750.613342 222.453369 749.679993 L 219.106689 748.200012 L 215.840088 746.599976 C 213.65332 745.546631 211.493164 744.506714 209.320068 743.466675 C 207.23999 742.52002 205.293213 741.626648 203.373291 740.746704 C 201.146484 739.706665 201.719971 740.293335 199.946533 739.52002 C 199.879883 739.320007 199.133301 738.773315 197.146484 737.613342 C 194.866699 736.320007 192.759766 735.17334 191 734.280029 C 188.093262 732.626648 185.226563 730.626648 182.146484 728.733337 C 179.106689 726.786682 175.879883 724.93335 172.706787 722.840027 C 169.06665 720.440002 165.493164 718.06665 161.919922 715.693359 C 159.47998 714.160034 157.253418 712.373352 154.973389 710.746704 C 153.279785 709.52002 151.626465 708.333374 150.013184 707.17334 C 150.306641 707.293335 150.306641 707.186646 149.906738 706.773315 C 148.679932 705.573364 146.626465 703.960022 144.119873 701.666687 C 142.333252 700.146667 140.599854 698.706665 138.893066 697.333374 C 137.213135 695.973328 135.52002 694.58667 133.813232 693.200012 C 132.186523 691.719971 130.559814 690.253357 128.946533 688.786682 C 127.453369 687.493347 126.040039 686.253357 124.599854 685 C 123.359863 683.946655 122.146484 682.920044 120.919922 681.880005 C 119.06665 680.093323 117.23999 678.226685 115.453369 676.266663 C 113.786621 674.400024 112.093262 672.493347 110.06665 670.306641 C 109.266602 669.52002 108.573242 668.613342 107.840088 667.786621 C 107.079834 666.93335 106.306641 666.053345 105.559814 665.186646 L 104.666504 664.200012 C 104.079834 663.52002 103.47998 662.853333 102.879883 662.213379 C 100.666504 659.706665 98.346436 657.320007 96.306641 654.65332 L 90.893066 648.040039 L 88.186523 644.733337 C 87.293213 643.640015 86.493164 642.466675 85.640137 641.333374 C 83.733154 638.733337 81.826416 636.160034 79.919922 633.559998 C 79.293213 632.706665 78.65332 631.840027 78.026367 630.973389 C 77.413086 630.093323 76.853271 629.160034 76.253418 628.23999 C 75.079834 626.386658 73.919922 624.546692 72.759766 622.693359 C 72.373291 622.093323 71.986572 621.47998 71.599854 620.880005 L 71.613281 620.893311 C 72.879883 622.82666 74.146484 624.773315 75.386719 626.680054 C 76.679932 628.613342 77.879883 630.573364 79.226563 632.23999 C 83.346436 637.533325 87.52002 643.76001 92.58667 649.82666 C 94.133301 651.719971 95.626465 653.573364 97.133301 655.453369 C 98.23999 656.880005 99.453369 658.200012 100.65332 659.546692 C 100.733154 659.640015 100.799805 659.706665 100.866699 659.800049 C 101.959717 661.06665 103.026367 662.266663 104.06665 663.400024 C 104.666504 664.093323 105.279785 664.786621 105.893066 665.493347 C 107.386719 667.160034 108.786621 668.906677 110.359863 670.493347 C 112.679932 672.813354 114.973389 675.133301 117.279785 677.453369 C 118.826416 679 120.333252 680.640015 121.93335 682.146667 C 123.573242 683.666687 125.226563 685.186646 126.853271 686.706665 C 128.533203 688.253357 130.199951 689.800049 131.866699 691.34668 C 133.533203 692.959961 135.346436 694.373352 137.079834 695.786682 C 138.813232 697.186646 140.399902 698.426636 141.773438 699.466675 C 142.013184 699.613342 142.226563 699.76001 142.439941 699.893311 L 144.879883 701.960022 C 144.919922 701.906677 144.919922 701.82666 144.893066 701.720032 C 144.320068 701.200012 143.733154 700.666687 143.146484 700.133362 C 143.146484 700.119995 143.159912 700.119995 143.146484 700.093323 C 142.826416 699.640015 142.279785 699.013306 141.466553 698.17334 C 141.866699 697.946655 139.973389 696.106689 137.226563 693.720032 C 134.399902 691.400024 131.079834 688.133301 128.17334 685.546631 C 115.013184 673.453369 102.439941 660.133301 91.546631 645.65332 C 80.559814 631.253296 70.853271 616.040039 62.466553 600.693359 C 60.306641 596.320007 58.146484 591.93335 55.959717 587.52002 C 54.813232 585.320007 53.946533 582.986694 52.959717 580.719971 C 52 578.426636 51.040039 576.160034 50.079834 573.880005 C 48.053223 569.400024 46.573242 564.76001 44.879883 560.34668 C 44.040039 558.17334 43.213135 556 42.386719 553.82666 C 41.679932 551.719971 40.973389 549.599976 40.23999 547.453369 L 38.213135 540.746704 L 37.199951 537.386658 C 36.866699 536.266663 36.626465 535.119995 36.346436 533.986694 C 35.23999 529.426636 34.146484 524.866699 33.040039 520.306641 C 31.333252 511.066681 29.426514 501.853333 28.426514 492.493347 L 27.52002 485.493347 C 27.159912 483.17334 27.106689 480.813354 26.893066 478.480011 C 26.546631 473.786652 26.106689 469.106689 25.813232 464.440033 C 25.573242 455.053345 25.040039 445.706696 25.333252 436.34668 C 25.613281 432.34668 25.626465 428.359985 25.679932 424.400024 C 27.613281 388.600037 33.279785 353.093384 43.946533 318.919983 C 54.23999 284.640015 69.346436 251.760071 88.386719 220.946716 L 90.053223 218.426697 C 91.746582 215.906677 93.386719 213.466675 95.026367 211.026733 C 96.253418 209.200012 97.146484 207.760071 97.693115 206.720032 C 100.573242 202 104.159912 197.053345 107.826416 191.986694 C 111.573242 186.973328 115.759766 182.106689 119.533203 177.23999 C 120.879883 175.560059 122.413086 173.919983 123.93335 172.160034 C 126.946533 168.65332 129.946533 165.17334 132.973389 161.666687 C 134.626465 159.93335 136.306641 158.17334 137.959717 156.440002 C 140.613281 153.666687 143.266602 150.880005 145.93335 148.093384 C 148.453369 145.65332 150.973389 143.226685 153.453369 140.813354 C 153.079834 141.213379 152.706787 141.613342 152.346436 142.039978 C 152.333252 142.160034 152.386719 142.226685 152.493164 142.23999 C 155.453369 139.506653 156.453369 138.400024 156.23999 138.306641 L 156.106689 138.466675 C 155.52002 138.906677 154.959717 139.386658 154.413086 139.893372 C 155.466553 138.853333 156.52002 137.813354 157.573242 136.773315 C 158.266602 136.093384 158.919922 135.440002 159.559814 134.800049 C 160.17334 134.226685 160.759766 133.680054 161.346436 133.133362 C 162.386719 132.373352 163.733154 131.226685 165.439941 129.640015 C 168.47998 127.039978 171.453369 124.333374 174.546631 121.786682 C 177.706787 119.320007 180.853271 116.853333 183.986572 114.400024 C 185.546631 113.186646 187.106689 111.946716 188.693115 110.773315 L 193.533203 107.413391 C 196.759766 105.200012 199.973389 103.039978 203.146484 100.946716 C 204.599854 99.866699 206.253418 98.826721 208.013184 97.680054 C 209.759766 96.546692 211.47998 95.440002 213.186523 94.333374 C 215.346436 92.839966 215.973389 92.200012 218.266602 90.640015 C 223.359863 87.613342 228.533203 84.720032 233.666504 81.760071 C 236.706787 80.053345 239.879883 78.600037 242.986572 77.013367 C 246.119873 75.466675 249.213135 73.866699 252.373291 72.373352 L 261.959717 68.200012 C 265.17334 66.839966 268.320068 65.320007 271.613281 64.17334 C 274.626465 63.080017 277.946533 61.866699 280.946533 60.773315 C 283.959717 59.626709 286.679932 58.533325 288.639893 57.693359 C 313.133301 49.506653 338.546631 44.093384 364.253174 41.626709 C 384.053223 39.493408 404.079834 39.680054 424 41 L 431.466553 41.573303 L 435.199951 41.853333 L 438.906738 42.320007 L 453.759766 44.200012 L 468.506592 46.826721 L 472.199951 47.480042 C 473.413086 47.720032 474.626465 48.026733 475.840088 48.306641 L 483.133301 49.986694 C 486.053223 50.693359 489.013184 51.266663 491.906738 52.066711 L 500.573242 54.533325 C 508.613281 56.600037 515.320068 58.919983 517.439941 59.013367 C 515.93335 58.386658 514.23999 57.720032 512.399902 57.039978 C 510.559814 56.360046 508.58667 55.613342 506.506592 55.039978 C 502.373291 53.813354 498.06665 52.546692 493.986572 51.34668 L 491.773438 50.693359 C 497.199951 51.986694 502.58667 53.493408 507.946533 55.080017 C 513.253174 56.839966 518.479736 58.853333 523.746582 60.760071 C 525.320068 61.160034 526.893066 61.58667 528.426514 62.106689 L 528.679932 62.306641 C 533.06665 64.23999 537.706787 66.17334 542.506592 68.093384 C 547.23999 70.200012 552.06665 72.34668 557.040039 74.560059 C 576.906738 83.880005 596.133301 95.453369 613.666504 107.17334 C 616.666504 109.146729 619.559814 111.200012 622.399902 113.320007 C 625.146484 115.546692 627.879883 117.800049 630.719971 119.973328 L 633.533203 122.186646 L 625.253174 132.919983 C 625.053223 132.893372 624.866455 132.866699 624.666504 132.826721 C 620.893066 136.573303 617.973389 141.053345 614.573242 145.119995 L 603.666504 158.960022 L 593.026367 172.453369 C 591.879883 173.919983 590.706787 175.34668 589.733154 176.919983 C 588.386719 178.946716 587 180.93335 585.559814 182.893372 L 581.466553 187.786682 L 578.746582 191.52002 C 577.279785 193.23999 575.773438 194.919983 574.213135 196.573303 C 572.23999 198.813354 570.186523 201 568.906738 203.706665 L 565.053223 209.160034 C 562.58667 212.160034 559.746582 215.013367 558.733154 218.65332 L 534.666504 249.52002 C 531.359863 253.786682 527.853271 257.480042 523.599854 259.52002 C 525.573242 257.666687 525.546631 255.680054 526.413086 253.746704 C 522.23999 253.693359 520.826416 258.440002 518.479736 261.560059 C 517.853271 263.560059 514.399902 265.386658 515.573242 267.506653 C 516.799805 267.066711 518.026367 265.733337 519.253174 264.893372 L 519.053223 265.253357 C 513.599854 274.440002 506.119873 282.306641 499.93335 291.013367 C 494.013184 301.640015 485.320068 310.546692 478.346436 320.52002 C 473.346436 329.320007 466.919922 337.146667 460.186523 344.786682 C 459.346436 345.546692 458.546631 346.34668 457.773438 347.213379 L 459.666504 344.266663 L 459.879883 344.720032 L 462.373291 340.839966 C 462.146484 340.266663 461.639893 340.160034 460.906738 340.453308 C 459.773438 341.293396 459.013184 342.413391 458.453369 343.65332 C 458.386719 343.733337 458.386719 343.839966 458.439941 343.973328 C 457.866455 344.17334 457.306641 344.58667 456.773438 345.280029 C 455.506592 346.893372 454.159912 348.453308 453.106689 350.200012 L 453.026367 351.386658 L 454.093018 351.23999 L 454.266602 351.733337 L 455.213135 350.573303 C 454.746582 351.293396 454.293213 352.026733 453.906738 352.773315 C 450.866455 359.106628 446.786621 364.986694 442.093018 370.600037 L 440.186523 372.960022 C 439.199951 374.080017 438.186523 375.17334 437.226563 376.333374 C 436.599854 377.119995 436.040039 377.93335 435.546631 378.786682 C 433.559814 382.973328 431.106689 386.93335 427.706787 390.466675 C 427.266602 391 426.866455 391.546692 426.466553 392.093384 C 426.23999 389.440002 429.959717 387.453308 430.786621 384.986694 C 430.559814 384.799988 430.346436 384.600037 430.146484 384.386658 L 428.426514 386.026733 C 427.693115 386.493347 426.973389 387.053345 426.279785 387.680054 C 425.599854 388.34668 424.986572 389.080017 424.493164 389.893372 C 423.906738 391.039978 423.040039 392.146667 422.693115 393.306641 C 422.226563 393.506653 421.813232 393.919983 421.466553 394.58667 L 421.546631 395.613342 L 422.58667 395.333374 L 422.733154 395.799988 L 424.093018 394.026733 C 424.333252 394.106628 424.559814 394.213379 424.786621 394.320007 C 424.106689 395.06665 423.373291 395.746704 422.65332 396.400024 C 422.013184 396.986694 421.399902 397.626709 420.840088 398.306641 C 420.279785 399.026733 419.746582 399.773315 419.279785 400.560059 C 418.813232 401.360046 418.386719 402.186646 418.026367 403 C 417.973389 403.119995 417.93335 403.213379 417.893066 403.320007 C 417.906738 403.186646 417.866455 403 417.759766 402.773315 C 417.613281 402.440002 417.253174 402.373291 416.693115 402.573303 C 415.119873 403.453308 413.799805 404.880005 412.506592 406.400024 C 411.893066 407.146667 411.279785 407.906677 410.706787 408.693359 C 410.119873 409.453308 409.546631 410.226685 409.026367 411.026672 C 408.213135 412.23999 407.546631 413.453308 407.17334 414.693359 C 407.053223 415.480042 407.119873 416.119995 407.373291 416.65332 C 407.52002 416.773376 407.679932 416.840027 407.853271 416.893311 C 407.453369 417.533325 407.053223 418.160034 406.706787 418.813354 C 404.293213 423.480042 401.853271 428.133362 398.226563 432.386658 C 397.613281 433.160034 397.013184 433.919983 396.426514 434.719971 C 395.826416 435.480042 395.226563 436.23999 394.666504 437.040009 L 393.613281 438.440033 L 393.119873 439.106689 L 393.040039 439.266693 C 392.946533 439.493347 392.879883 439.746704 392.840088 440.040009 C 392.826416 440.373352 392.840088 440.746704 392.853271 441.146698 C 392.826416 441.360016 392.773438 441.573364 392.733154 441.786652 L 392.466553 442.280029 C 392.359863 442.426666 392.23999 442.559998 392.146484 442.720001 C 392.040039 442.866669 391.93335 443 391.840088 443.17334 C 391.733154 443.333344 391.65332 443.493347 391.58667 443.706696 C 391.52002 443.920013 391.479736 444.160004 391.466553 444.440033 C 391.453369 444.866669 391.413086 445.266693 391.306641 445.600006 L 390.986572 446.106689 C 390.853271 446.240021 390.719971 446.373352 390.613281 446.533356 C 390.413086 446.746704 390.199951 446.959991 390.013184 447.200012 C 389.879883 447.360016 389.746582 447.519989 389.626465 447.720001 C 389.386719 448.106689 389.159912 448.573364 389 449.226685 C 388.879883 449.720001 388.759766 450.213348 388.613281 450.693329 L 388.279785 451.453339 C 388.026367 451.853333 387.759766 452.200012 387.493164 452.559998 L 387.320068 452.786652 C 387.306641 452.066681 387.186523 451.480011 386.986572 451 C 386.799805 450.693329 386.666504 450.76001 386.573242 451.253326 L 386.573242 451.266693 C 386.439941 450.973358 386.306641 450.773346 386.17334 450.680023 C 385.733154 450.626678 385.426514 451.080017 385.213135 452.986664 C 385.199951 453 385.199951 453.133331 385.199951 453.333344 C 385.106689 453.200012 385.026367 453.320007 384.946533 453.706696 C 384.919922 454.040009 384.906738 454.34668 384.919922 454.626678 L 384.879883 454.600006 C 384.799805 454.533356 384.719971 454.506683 384.639893 454.493347 L 384.493164 454.200012 C 384.346436 453.959991 384.213135 453.746704 384.06665 453.613373 C 383.866455 453.373352 383.65332 453.226685 383.439941 453.213348 C 383.293213 453.226685 383.159912 453.333344 383.026367 453.533356 C 382.946533 453.733337 382.866455 453.93335 382.786621 454.133331 C 382.733154 454.106689 382.679932 454.093353 382.626465 454.133331 L 382.58667 454.613373 L 382.466553 454.906677 C 382.426514 454.973358 382.373291 455.013367 382.320068 455.066681 C 382.346436 454.746704 382.346436 454.400024 382.346436 454.026672 C 382.279785 453.293335 382.186523 452.786652 382.026367 452.466675 L 381.906738 452.426666 C 381.959717 452.053345 381.973389 451.626678 381.946533 451.17334 C 381.866455 450.65332 381.759766 450.386658 381.599854 450.373352 C 381.453369 450.65332 381.320068 451.080017 381.199951 451.626678 C 381.119873 452.226685 381.06665 452.840027 381.079834 453.466675 L 381.159912 453.76001 C 381.119873 453.893341 381.079834 454.026672 381.040039 454.17334 C 380.973389 454.58667 380.93335 455.013367 380.919922 455.453339 L 380.826416 455 L 380.52002 455.280029 L 380.493164 455.466675 L 380.413086 455.413361 L 380.23999 455.226685 L 380.266602 455.053345 L 380.52002 455.280029 C 380.706787 454.866669 380.786621 454.306671 380.746582 453.626678 C 380.65332 453.053345 380.506592 452.786652 380.306641 452.82666 C 380.306641 452.82666 380.293213 452.906677 380.293213 453.026672 C 380.279785 452.906677 380.266602 452.786652 380.253174 452.680023 C 380.026367 451.973358 379.773438 451.76001 379.359863 452.533356 C 379.293213 452.880035 379.23999 453.226685 379.186523 453.58667 C 379.093018 453.946686 379.053223 454.240021 379.06665 454.506683 L 378.959717 454.480011 C 378.799805 454.386658 378.65332 454.186676 378.533203 453.93335 C 378.399902 453.360016 378.373291 452.640015 378.320068 452 L 378.320068 451.973358 L 378.453369 451.386658 L 378.453369 451.280029 C 378.599854 451.266693 378.733154 451.226685 378.879883 451.17334 C 379.026367 451.053345 379.17334 450.866669 379.306641 450.626678 C 379.320068 450.946686 379.399902 451.146698 379.546631 451.213348 C 379.853271 451.133331 380.159912 450.946686 380.439941 450.440033 C 380.733154 449.93335 380.973389 449.320007 381.17334 448.453339 C 381.293213 447.82666 381.346436 447.200012 381.373291 446.58667 C 381.279785 445.746704 380.919922 445.906677 380.973389 444.720001 L 380.893066 444.666687 C 380.919922 444.306671 380.919922 444.133331 380.879883 444.106689 C 380.946533 443.680023 381 443.266693 381.013184 442.893341 L 381.026367 442.866669 C 381.093018 441.906677 380.906738 441.906677 380.746582 441.720001 C 380.65332 441.58667 380.506592 441.640015 380.306641 441.893341 L 379.840088 441.360016 C 379.706787 441.426666 379.58667 441.480011 379.466553 441.506683 C 379.453369 441.506683 379.439941 441.519989 379.426514 441.519989 L 379.386719 441.400024 C 379.306641 441.253326 379.226563 441.119995 379.119873 441.026672 C 379.026367 440.920013 378.93335 440.813354 378.813232 440.733337 C 378.719971 440.640015 378.626465 440.546692 378.506592 440.493347 C 378.399902 440.413361 378.293213 440.360016 378.146484 440.333344 C 378 440.320007 377.826416 440.373352 377.599854 440.493347 L 377.546631 440.559998 C 377.58667 440.160004 377.559814 439.880035 377.413086 439.733337 C 377.479736 439.733337 377.559814 439.720001 377.639893 439.693329 C 377.986572 439.34668 378.306641 438.93335 378.599854 438.480011 L 378.799805 437.959991 L 378.733154 437.746704 C 378.65332 437.65332 378.479736 437.680023 378.23999 437.773346 L 377.533203 437.640015 C 377.146484 437.880035 376.799805 438.186676 376.52002 438.600006 C 376.373291 438.906677 376.320068 439.186676 376.359863 439.386658 C 376.386719 439.453339 376.426514 439.506683 376.479736 439.559998 C 376.266602 439.493347 376.079834 439.373352 375.906738 439.253326 L 375.719971 439.093353 C 375.426514 438.82666 375.146484 438.546692 374.840088 438.266693 C 374.386719 437.82666 373.919922 437.400024 373.439941 437 C 373.65332 437.093353 373.866455 437.160004 374.079834 437.213348 C 374.58667 437.026672 374.853271 436.626648 374.906738 436.013367 L 374.293213 434.919983 L 373.413086 433.919983 C 372.773438 433.293335 372.093018 432.76001 371.373291 432.359985 L 368.146484 429.480042 L 366.639893 427.866699 L 365.799805 428.533325 L 366.293213 429.693359 L 367.359863 430.013367 C 367.320068 430.146667 367.293213 430.306702 367.320068 430.506714 C 367.546631 431.200012 367.893066 431.906677 368.359863 432.600037 C 368.746582 433.106689 369.159912 433.58667 369.599854 434.053345 C 369.399902 433.906677 369.199951 433.746704 369 433.600037 C 368.06665 432.799988 367.146484 431.986694 366.17334 431.23999 C 365.533203 430.773376 364.879883 430.386658 364.226563 430.093323 C 364.053223 430.026672 363.879883 429.986694 363.719971 429.946716 L 363.706787 429.320007 L 362.613281 428.373352 C 361.826416 428.119995 361.17334 428.119995 360.65332 428.386658 C 360.479736 428.573364 360.359863 428.786682 360.253174 429.026672 L 359.146484 428.640015 L 360.053223 429.506714 C 359.52002 429.23999 359 428.906677 358.479736 428.546692 C 357.919922 428.106689 357.359863 427.693359 356.773438 427.34668 C 355.879883 426.786682 355.013184 426.146667 354.17334 425.440002 C 353.599854 424.919983 353.026367 424.386658 352.453369 423.893311 C 351.840088 423.373352 351.213135 422.893311 350.559814 422.493347 C 349.893066 422.146667 349.23999 421.906677 348.626465 421.840027 C 348.506592 421.853333 348.386719 421.893311 348.266602 421.906677 C 348.093018 421.493347 347.893066 421.06665 347.626465 420.640015 C 347.253174 420.119995 346.853271 419.600037 346.439941 419.093323 C 346.439941 418.986694 346.413086 418.866699 346.386719 418.733337 C 346.079834 417.93335 345.52002 417.359985 344.759766 416.986694 L 344.826416 417.266663 C 344.466553 416.853333 344.06665 416.466675 343.65332 416.106689 C 343.079834 415.533325 342.479736 414.986694 341.853271 414.493347 C 340.293213 413.440002 338.746582 412.400024 338.093018 413.813354 C 335.186523 415.026672 333.06665 408.026672 330.186523 409.013367 L 327.17334 406.186646 L 326.106689 406.146667 L 326.106689 406.160034 C 325.93335 405.746704 325.666504 405.320007 325.320068 404.906677 L 323.639893 403.106689 C 323.040039 402.533325 322.413086 402.06665 321.759766 401.680054 L 319.186523 400.866699 C 319.186523 400.573303 319.133301 400.266663 319.026367 399.919983 C 317.786621 397.013367 315.906738 394.213379 313.706787 391.493347 C 312.453369 390 311.119873 388.600037 309.693115 387.293396 C 308.986572 386.680054 308.293213 386.133362 307.546631 385.65332 C 306.840088 385.23999 306.199951 385.06665 305.599854 385.080017 L 304.613281 384.013367 L 304 384.600037 L 304.959717 385.626709 C 304.733154 385.853333 304.466553 386.026733 303.893066 385.799988 C 302.986572 385.266663 302.133301 384.506653 301.306641 383.746704 C 300.706787 383.133362 300.079834 382.52002 299.453369 381.946716 C 299.079834 381.58667 298.706787 381.23999 298.320068 380.906677 C 298.479736 380.960022 298.639893 381.013367 298.799805 381.039978 C 299.626465 380.76001 299.93335 380.026733 300.06665 379.106628 C 300.146484 378.533325 300.186523 377.93335 300.146484 377.280029 C 300.053223 376.613342 299.826416 375.93335 299.479736 375.213379 C 299.093018 374.506653 298.626465 373.839966 298.079834 373.186646 L 297.23999 372.280029 L 292.52002 367.440002 C 288.986572 366.946716 284.199951 356.640015 281.533203 362.733337 C 281.506592 363.266663 281.65332 363.866699 282.013184 364.52002 L 282.079834 364.613342 L 281.986572 364.666687 C 281.546631 363.919983 280.959717 363.413391 280.213135 363.146667 C 279.706787 362.666687 279.159912 362.23999 278.599854 361.866699 C 271.613281 354.039978 270.959717 353.746704 269.693115 357.93335 C 271.639893 359.080017 273.706787 359.506653 275.466553 361.760071 C 276.159912 362.333374 276.866455 362.680054 277.546631 362.826721 C 277.799805 362.826721 277.986572 362.760071 278.146484 362.666687 L 278.133301 363.466675 C 278.626465 364.266663 279.23999 364.946716 279.986572 365.52002 C 280.359863 365.706665 280.719971 365.826721 281.040039 365.866699 L 280.973389 365.919983 L 280.746582 365.866699 C 280.973389 366.480042 281.320068 366.986694 281.799805 367.386658 L 281.399902 367.293396 L 281.599854 368.440002 L 282.759766 369.746704 C 282.453369 369.680054 282.17334 369.626709 281.893066 369.626709 C 281.386719 369.693359 280.93335 369.813354 280.52002 370.013367 C 280.359863 370.093384 280.186523 370.160034 280.013184 370.226685 L 279.679932 369.853333 L 279.453369 369.880005 C 279.093018 369.466675 278.706787 369.093384 278.266602 368.786682 C 278.106689 368.613342 277.866455 368.506653 277.546631 368.466675 C 277.279785 368.426697 277.159912 368.573303 277.186523 368.893372 L 276.879883 368.453308 L 275.759766 367.826721 L 275.719971 367.786682 L 275.719971 367.720032 C 275.439941 366.960022 274.946533 366.506653 274.279785 366.320007 C 273.853271 365.880005 273.399902 365.466675 272.946533 365.066711 C 271.159912 363.386658 269.506592 363.106628 267.853271 362.746704 C 261.666504 361.919983 255.93335 362.360046 248.439941 357.106628 C 243.479736 353.626709 243.93335 358.600037 241.813232 359.533325 C 239.413086 360.58667 241.06665 364.119995 242.399902 367.093384 C 242.986572 368.400024 245.199951 370.866699 246.053223 370.186646 C 250.639893 366.546692 254.65332 373.640015 258.853271 377.293396 L 259.439941 377.960022 C 259.439941 377.960022 260.079834 378.546692 260.146484 378.613342 C 260.079834 379.053345 259.746582 379.093384 259.226563 378.786682 C 258.733154 378.58667 258.266602 378.480042 257.840088 378.493347 C 251.733154 375.786682 246.426514 373.293396 243.266602 378.23999 C 241.879883 380.400024 239.013184 383.333374 234.866455 383.093384 C 232.58667 382.960022 231.506592 386.080017 228.746582 383.373291 C 226.186523 380.853333 225.799805 377.640015 227.439941 375.973328 C 228.466553 374.93335 227.386719 373.640015 226.06665 372.186646 C 224.906738 370.906677 223.52002 370.053345 223.093262 370.960022 C 220.946533 375.640015 210.439941 372.93335 215.453369 383.973328 C 216.119873 385.426697 216.453369 387 214.946533 387.213379 C 209.866699 387.919983 209.866699 387.919983 214.906738 393.799988 C 215.47998 396.546692 216.919922 399.266663 219.226563 401.946716 C 213.279785 404.359985 211.159912 409.280029 212.119873 417.906677 C 212.919922 425.266663 215.746582 427.853333 222.053223 430.466675 L 238.719971 442.65332 L 240.279785 444.320007 L 241.826416 445.973358 C 244.399902 450.373352 248.613281 451.973358 252.013184 454.973358 L 255.093018 458.253326 C 258.040039 461.840027 262.599854 463.146698 264.973389 467.533356 L 273.599854 474.893341 L 297.986572 495.293335 C 298.199951 496.146698 298.706787 496.720001 299.559814 496.973358 C 301.453369 498.65332 303.333252 500.320007 305.213135 501.986664 L 306.626465 503.240021 L 306.986572 503.546692 L 307.559814 504.093323 L 308.759766 505.226685 C 310.333252 506.693329 311.93335 508.160004 313.546631 509.666687 C 322.333252 517.680054 330.853271 526.253296 339.306641 534.453369 C 347.746582 542.613342 356.106689 550.386658 363.879883 556.053345 C 365.253174 558.213379 365.693115 560.040039 367.373291 562.359985 C 370.879883 566.986694 374.279785 570.133301 377.359863 571.906677 C 378.079834 573.973389 380 575.840027 382.213135 577.613342 L 390.306641 585.893311 L 392.466553 583.053345 L 393.293213 581.400024 L 393.599854 580.106689 C 393.679932 579.386658 393.533203 578.986694 393.17334 578.893311 C 394.226563 577.160034 395.199951 575.400024 396.06665 573.65332 C 396.799805 572.080017 397.306641 570.680054 397.58667 569.453369 C 398.026367 569.17334 398.479736 568.813354 398.986572 568.34668 C 399.58667 567.719971 400.199951 567.053345 400.813232 566.333374 L 399.199951 568.853333 C 399.17334 569.47998 399.159912 570.080017 399.17334 570.65332 L 403.879883 564.880005 C 404.719971 564.359985 405.52002 563.373352 406.279785 561.959961 L 405.93335 561.693359 L 408.253174 558.719971 L 408.253174 558.719971 L 410.546631 555.800049 C 410.466553 555.266663 410.359863 554.746704 410.226563 554.280029 L 408.040039 557.599976 L 408.040039 557.599976 C 407.266602 558.23999 406.559814 559.146729 405.893066 560.333374 L 405.893066 560.333374 L 404.599854 561.65332 C 406.306641 559.440002 407.973389 557.160034 409.533203 554.719971 C 410.666504 552.93335 411.813232 551.133301 412.919922 549.386658 C 413.466553 548.626709 413.986572 547.880005 414.52002 547.146729 L 414.773438 548.786621 L 417.426514 545.786621 L 417.053223 545.680054 L 418.199951 544.359985 C 418.199951 544.359985 419.226563 542.813354 419.23999 542.813354 C 419.199951 542.440002 419.159912 542.053345 419.133301 541.666687 L 416.706787 544.320007 C 416.706787 544.320007 416.719971 544.280029 416.733154 544.226685 C 417.453369 543.306641 418.159912 542.400024 418.893066 541.47998 C 419.706787 540.453369 420.52002 539.41333 421.320068 538.34668 C 422.52002 536.800049 423.719971 535.226685 424.879883 533.599976 C 425.639893 532.506714 426.373291 531.426636 427.053223 530.293335 C 427.679932 529.186646 428.373291 528.17334 429.186523 527.186646 C 429.973389 526.47998 430.773438 525.746704 431.559814 525.026672 C 432.693115 524 433.826416 523 434.973389 521.893311 C 435.773438 521.106689 436.573242 520.23999 437.346436 519.280029 C 438.106689 518.266663 438.786621 517.23999 439.413086 516.186646 C 439.58667 515.853333 439.773438 515.493347 439.946533 515.146729 L 440.119873 515.080017 C 440.813232 514.280029 441.373291 513.466675 441.773438 512.640015 C 442.533203 512.213379 443.226563 511.333344 443.826416 510.026672 L 443.559814 510.119995 L 442.93335 509.413361 L 443.199951 508.959991 C 443.199951 508.959991 443.439941 508.626678 443.679932 508.293335 C 443.93335 507.959991 444.186523 507.626678 444.186523 507.626678 C 444.186523 507.626678 444.453369 507.306671 444.719971 506.986664 C 444.986572 506.666687 445.226563 506.34668 445.226563 506.34668 C 446.413086 505.133331 447.626465 504.080017 448.840088 502.893341 C 449.719971 502.013367 450.599854 501.080017 451.453369 500.093353 C 452.359863 499.053345 453.266602 497.959991 454.133301 496.853333 C 455.06665 495.693329 455.973389 494.519989 456.866455 493.333344 C 457.293213 492.746704 457.719971 492.146698 458.17334 491.546692 C 458.359863 491.266693 458.559814 490.986664 458.746582 490.693329 C 458.866455 490.506683 458.986572 490.306671 459.106689 490.106689 C 459.533203 489.293335 459.866455 488.493347 460.053223 487.693329 C 460.159912 486.600006 459.320068 486.320007 459.279785 485.360016 C 459.706787 485.613373 460.23999 485.58667 460.93335 485.026672 C 461.613281 484.306671 462.146484 483.573364 462.413086 482.82666 C 464.666504 481.386658 466.479736 479.280029 468.06665 476.866669 C 468.959717 475.453339 469.773438 474.013367 470.559814 472.573364 C 471.119873 471.640015 471.679932 470.693329 472.17334 469.733337 C 472.573242 469.013367 472.906738 468.280029 473.159912 467.559998 C 473.333252 467.840027 473.58667 468.013367 473.973389 468.040009 C 474.919922 467.959991 475.906738 467.480011 476.93335 466.640015 C 477.533203 465.973358 478.013184 465.266693 478.373291 464.493347 C 479.106689 463.026672 480.199951 461.65332 480.959717 460.186676 C 481.306641 459.480011 481.599854 458.786652 481.813232 458.080017 C 482 457.426666 482.17334 456.786652 482.320068 456.146698 C 482.65332 455.160004 483.253174 454.373352 484.093018 453.746704 C 484.973389 453.253326 485.893066 452.733337 486.773438 451.986664 C 487.053223 451.666687 487.346436 451.333344 487.613281 451.026672 C 487.879883 450.680023 488.146484 450.320007 488.413086 449.973358 L 488.679932 449.546692 C 488.906738 449.293335 489.093018 449 489.226563 448.680023 C 489.853271 447.58667 490.506592 446.440033 491.146484 445.34668 C 492.146484 443.413361 493.17334 441.480011 494.213135 439.506683 C 494.759766 438.400024 495.320068 437.266693 495.866455 436.146667 C 496.253174 435.426697 496.679932 434.719971 497.146484 434.026672 L 498.626465 432.040039 L 499.093018 431.373352 L 499.093018 431.373352 C 498.65332 432.146667 498.213135 432.93335 497.826416 433.719971 C 497.426514 434.52002 497.053223 435.333374 496.759766 436.133362 C 495.906738 438.706696 494.466553 441.200012 492.773438 443.680023 C 492.253174 444.466675 491.773438 445.240021 491.333252 446.040009 C 490.986572 446.65332 490.626465 447.240021 490.253174 447.813354 L 490.146484 447.893341 C 489.733154 448.373352 489.386719 448.880035 489.119873 449.400024 L 488.466553 450.240021 C 487.919922 450.880035 487.399902 451.559998 486.93335 452.266693 C 486.266602 453.333344 485.613281 454.400024 484.959717 455.466675 L 483.493164 457.519989 L 481.946533 459.546692 C 481.413086 460.226685 480.879883 460.920013 480.386719 461.626678 C 479.879883 462.333344 479.399902 463.066681 478.973389 463.82666 C 478.58667 464.58667 478.306641 465.34668 478.17334 466.080017 C 478.199951 466.240021 478.226563 466.386658 478.266602 466.519989 L 477.506592 467.480011 C 477.679932 467.613373 477.866455 467.733337 478.06665 467.840027 C 478.333252 467.693329 478.599854 467.519989 478.866455 467.333344 L 478.959717 467.400024 C 479.466553 467.533356 480.026367 467.573364 480.639893 467.493347 C 482.973389 469.493347 485.213135 465.986664 486.799805 463.453339 C 494.106689 451.800018 503.199951 440.920013 510.119873 429.359985 C 513.919922 422.986694 520.06665 417.640015 522.133301 410.773376 C 530.346436 399.146667 540.426514 388.746704 547.693115 376.480042 C 549.040039 375.613342 550.040039 374.493347 550.466553 372.919983 C 566.386719 350.960022 580.466553 327.973328 597.52002 306.65332 L 598.253174 305.773315 C 599 304.893372 599.813232 304.119995 600.639893 303.386658 C 601.226563 302.786682 601.506592 302.186646 601.453369 301.600037 C 602.17334 296.853333 606.546631 293.906677 609.266602 290.146667 C 609.919922 289.626709 610.506592 289.013367 611.040039 288.320007 C 612.013184 286.866699 612.946533 285.400024 614.013184 284.013367 L 615.693115 281.880005 C 616.613281 280.760071 617.52002 279.613342 618.320068 278.400024 C 619.106689 277.333374 619.866455 276.23999 620.546631 275.133362 C 620.479736 275.333374 620.453369 275.58667 620.493164 275.880005 C 620.706787 276.093384 620.93335 276.280029 621.17334 276.440002 C 622.279785 275.373352 622.306641 274.680054 621.666504 274.213379 L 621.719971 274.34668 C 621.306641 274.386658 621.013184 274.506653 620.799805 274.693359 C 621.093018 274.200012 621.359863 273.706665 621.599854 273.200012 C 621.986572 272.546692 622.23999 271.906677 622.386719 271.293396 C 622.986572 271.146667 623.426514 270.65332 623.706787 269.760071 C 627.306641 264.906677 630.58667 259.733337 635.466553 256.253357 C 635.706787 255.573303 636.040039 254.906677 636.493164 254.253357 C 636.973389 253.626709 637.399902 252.960022 637.759766 252.280029 C 638.06665 251.266663 637.706787 250.573303 638.079834 249.533325 L 641.893066 244.013367 L 651.666504 231.626709 C 653.199951 229.733337 655.719971 228.106628 655.186523 225.65332 L 673.333252 202.760071 L 691.333252 179.93335 C 692.879883 181.93335 694.439941 183.919983 696.013184 185.866699 C 708.906738 202.23999 720.213135 220.386658 730.17334 238.880005 C 731.693115 241.680054 732.58667 243.133362 732.879883 243.266663 C 732.226563 241.666687 731.426514 239.893372 730.533203 237.986694 C 731.186523 239.23999 731.906738 240.573303 732.613281 241.893372 C 737.253174 249.839966 741.773438 261.813354 745.453125 268.266663 C 745.306641 267.34668 744.65332 265.720032 743.65332 263.293396 C 742.853271 261.546692 742.119873 259.893372 741.466553 258.306641 C 740.426514 256.280029 739.386719 254.160034 738.320068 251.973328 C 737.293213 249.760071 736.013184 247.58667 734.840088 245.293396 C 733.65332 243 732.439941 240.680054 731.226563 238.320007 C 730.613281 237.133362 730 235.93335 729.386719 234.733337 C 728.759766 233.546692 728.053223 232.386658 727.386719 231.186646 C 727.106689 231 727.079834 231.17334 727.226563 231.58667 C 723.65332 225.280029 719.786621 218.293396 716.213135 212.666687 C 714.253174 209.280029 712.386719 206.066711 710.439941 202.706665 C 709.799805 201.733337 709.159912 200.773315 708.506592 199.786682 L 708.706787 199.706665 C 707.799805 198.266663 706.666504 196.573303 705.306641 194.640015 C 704.079834 192.946716 703.026367 191.560059 702.106689 190.413391 C 701.65332 189.706665 701.533203 189.440002 701.65332 189.506653 C 702.253174 190.226685 703.026367 191.253357 703.840088 192.34668 C 705.399902 194.52002 707.026367 196.773315 708.639893 199.013367 L 709.346436 199.986694 L 709.426514 200.186646 L 711.079834 202.493408 L 712.626465 204.880005 C 712.93335 205.34668 713.266602 205.813354 713.65332 206.280029 L 713.679932 206.320007 C 714.293213 207.23999 714.906738 208.160034 715.52002 209.066711 C 715.93335 209.680054 716.346436 210.280029 716.759766 210.880005 L 716.786621 210.960022 L 719.106689 214.52002 L 720.186523 215.93335 L 720.320068 216.146729 C 721.413086 217.680054 722.320068 219.226685 723.226563 220.680054 C 723.23999 220.693359 724.346436 222.360046 724.346436 222.360046 L 725.813232 224.906677 C 726.773438 226.613342 727.733154 228.213379 728.65332 229.733337 C 730.559814 232.799988 732.226563 236.013367 733.879883 239.213379 C 735.546631 242.440002 737.199951 245.640015 738.853271 248.839966 C 740.426514 252.080017 741.840088 255.413391 743.319824 258.693359 C 744.746582 262.013367 746.333008 265.266663 747.573242 268.65332 C 752.666504 281.613342 758.120117 295.65332 761.17334 308.466675 C 762.292969 312.453308 763.493164 316.480042 764.52002 320.560059 C 765.439941 324.680054 766.373535 328.799988 767.292969 332.880005 C 767.733398 334.93335 768.266602 336.946716 768.640137 338.986694 C 769.026367 341.013367 769.399902 343.026733 769.773438 345.039978 C 770.546387 349.039978 771.359863 352.946716 772.213379 356.720032 C 772.026367 353.773315 771.319824 349.493347 770.506836 344.960022 C 770.093262 342.693359 769.666504 340.360046 769.253418 338.093384 C 768.759766 335.853333 768.253418 333.666687 767.853516 331.693359 L 765.159668 320.026733 C 764.453125 316.866699 763.55957 313.799988 762.640137 310.826721 C 762.506836 310.080017 762.306641 309.146667 762.026367 307.986694 C 761.186523 305.160034 760.52002 302.280029 759.546387 299.506653 L 756.719727 291.119995 C 755.759766 288.333374 754.893066 285.52002 753.866699 282.760071 L 750.640137 274.533325 C 749.093262 270.266663 749.879883 271.320007 748.533203 267.52002 C 747.866699 265.58667 746.973145 263.760071 746.199707 261.880005 L 744.47998 258.146667 C 744.319824 257.839966 744.186523 257.560059 744.026367 257.253357 C 740.599854 249.119995 736.026367 240.93335 733.373291 234.58667 C 732.840088 233.613342 732.346436 232.626709 731.759766 231.693359 C 730.986572 230.200012 730.226563 228.693359 729.479736 227.200012 C 727.479736 223.573303 725.413086 219.839966 723.23999 216.106689 C 720.906738 212.453369 718.559814 208.760071 716.213135 205.080017 C 713.93335 201.360046 711.359863 197.839966 708.919922 194.320007 C 707.706787 192.573303 706.506592 190.839966 705.293213 189.106689 C 704.119873 187.373352 702.973389 185.640015 701.733154 184.039978 C 700.279785 182.106689 698.826416 180.186646 697.320068 178.186646 C 696.533203 177.200012 695.773438 176.226685 695.013184 175.253357 L 695.359863 174.826721 L 697.813232 177.946716 L 702.613281 184.053345 C 705.040039 187.186646 707.253174 190.506653 709.573242 193.720032 C 711.146484 195.919983 712.733154 198.133362 714.306641 200.320007 C 717.399902 205.080017 720.399902 209.626709 722.919922 213.119995 L 723.040039 213.266663 L 723.346436 213.973328 C 723.986572 215 724.639893 216.013367 725.213135 217.080017 C 726.453369 219.253357 727.626465 221.226685 728.759766 223.026733 L 731.946533 228.440002 C 733.013184 230.23999 734.106689 232.039978 735.040039 233.906677 C 734.986572 233.640015 734.973389 233.440002 734.973389 233.280029 C 734.346436 231.906677 733.573242 230.533325 732.773438 229.106628 C 732.666504 228.760071 732.733154 228.706665 732.93335 228.866699 C 733.639893 230.200012 734.399902 231.506653 735 232.839966 C 736.786621 236.453308 738.666504 239.973328 740.493164 243.546692 C 741.719971 245.960022 742.986572 248.23999 744.026367 250.533325 C 744.733398 251.839966 745.240234 252.65332 745.52002 252.960022 C 745.973145 253.93335 746.399902 254.786682 746.812988 255.52002 C 746.82666 255.34668 746.853516 255.213379 746.893066 255.106628 C 746.146484 253.360046 745.386719 251.613342 744.613281 249.826721 C 744.066406 248.320007 743.399902 246.799988 742.65332 245.280029 C 741.879883 243.693359 741.133301 242.146667 740.373291 240.600037 C 738.813232 237.440002 737.146484 234.186646 735.453369 230.919983 C 733.599854 227.733337 731.719971 224.506653 729.879883 221.333374 C 728.013184 218.160034 726.306641 214.960022 724.386719 212.013367 L 724.079834 211.626709 L 724.053223 211.573303 L 724.053223 211.573303 L 724.386719 212.013367 L 721.333252 206.546692 C 720.079834 204.453369 718.893066 202.640015 717.773438 201.080017 L 717.906738 201.200012 L 717.693115 200.826721 L 717.973389 201.266663 C 719.186523 203.013367 720.373291 204.720032 721.533203 206.400024 C 723.599854 209.706665 725.733154 212.800049 727.599854 215.946716 C 729.439941 219.039978 731.253174 222.093384 733.053223 225.106628 C 736.759766 230.986694 739.746582 236.906677 742.973389 242.613342 C 743.759766 244.386658 744.759766 246.186646 745.693359 248.186646 L 745.679688 248.226685 C 746.666504 250.506653 747.65332 252.640015 748.640137 254.65332 L 751.226563 260.093384 C 761.17334 283.613342 768.82666 307.693359 774.640137 331.440002 C 775.080078 332.680054 775.199707 332.493347 774.959961 330.839966 C 773.040039 319.493347 768.906738 305.480042 765.240234 293.640015 L 765.226563 293.613342 C 765.306641 293.826721 765.373535 294.039978 765.453125 294.293396 C 766.026367 296.133362 766.679688 297.973328 767.253418 299.839966 C 767.799805 301.706665 768.34668 303.58667 768.906738 305.480042 C 772.386719 316.506653 775.026367 328.533325 777.52002 339.573303 C 778.413086 343.773315 779.226563 348.546692 780.066406 353.253357 C 780.866699 357.960022 781.319824 362.666687 782.080078 366.680054 C 782.159668 366.560059 782.240234 366.466675 782.319824 366.386658 C 781.959961 363.119995 781.586426 359.826721 781.213379 356.493347 C 780.773438 353.133362 780.106445 349.760071 779.546387 346.34668"/>
</svg>
