<?xml version="1.0" encoding="UTF-8"?>
<!-- Generated by Pixelmator Pro 3.4.3 -->
<svg width="784" height="793" viewBox="0 0 784 793" xmlns="http://www.w3.org/2000/svg">
    <path id="path62-copy" fill="#48aa55" stroke="none" d="M 762.919922 272.266846 C 763.453125 273.800049 763.65332 274.613281 763.893066 275.52002 C 763.47998 274.226563 762.973145 272.76001 762.919922 272.266846 Z M 681.013184 142.546631 C 680.479736 141.906738 679.946533 141.253418 679.373291 140.626709 L 679.23999 140.466797 L 683.186523 145 Z M 674.599854 132.053467 C 673.119873 130.533447 671.666504 129.053467 670.213135 127.573486 C 669.546631 126.893311 668.906738 126.199951 668.213135 125.533447 C 668.453369 125.746582 668.679932 125.959961 668.893066 126.173584 C 669.959717 127.173584 670.533203 127.626709 670.719971 127.666748 C 672.226563 129.333496 673.759766 131.026611 675.359863 132.773438 L 676.946533 134.506836 Z M 670.626465 131.546631 L 670.426514 131.493408 L 668.959717 129.800049 C 667.266602 127.746582 665.253174 125.693359 662.893066 123.359863 C 660.840088 121.34668 658.786621 119.34668 656.693115 117.306885 L 657.23999 117.800049 L 661.52002 121.866699 C 664.866455 125.06665 667.373291 127.626709 670.133301 130.746582 C 670.746582 131.41333 671.359863 132.06665 671.973389 132.733398 Z M 27.973389 492.333496 C 28.040039 492.679932 28.093262 493.026611 28.146484 493.386719 C 28.733154 496.82666 29.346436 500.226563 29.973389 503.533447 C 30.759766 506.813232 31.599854 509.986816 32.453369 513.053467 C 32.599854 513.173584 32.786621 513.58667 33.013184 514.199951 C 33.026367 514.320068 33.040039 514.426514 33.053223 514.560059 C 32.986572 515 33.119873 516.106934 33.399902 517.666748 C 33.693115 519.226563 34.06665 521.266602 34.733154 523.47998 C 33.773438 520.946777 33.186523 518.213379 32.453369 515.440186 C 31.773438 512.626709 31.079834 509.800049 30.386719 506.93335 C 29.640137 504.06665 29.186523 501.120117 28.666504 498.186768 C 28.133301 495.253418 27.599854 492.34668 27.079834 489.47998 C 27.47998 491.06665 27.799805 492.120117 27.973389 492.333496 Z M 103.893066 682.160156 C 104.893066 683.040039 105.879883 683.93335 106.853271 684.813232 C 108.840088 686.626709 110.813232 688.426758 112.799805 690.226807 C 116.693115 693.973389 120.93335 697.466797 125.133301 701.093506 C 121.279785 698.040039 116.959717 694.58667 112.959717 690.679932 C 110.919922 688.76001 108.866699 686.840088 106.866699 684.959961 C 105.853271 684.026855 104.853271 683.106689 103.866699 682.186768 C 102.93335 681.253418 102.013184 680.320068 101.079834 679.400146 C 102.026367 680.320068 102.973389 681.23999 103.893066 682.160156 Z M 316.306641 762.586792 L 316.306641 762.586792 L 316.306641 762.586792 Z M 346.693115 789.426758 L 349.119873 789.680054 L 348.359863 789.666748 L 343.186523 789.066772 C 344.359863 789.186768 345.52002 789.306641 346.693115 789.426758 Z M 672.506592 675.52002 C 674.053223 674.013428 675.52002 672.400146 677.013184 670.840088 C 680.079834 667.613281 683.106689 664.386719 686.013184 661.226807 C 688 658.840088 689.973389 656.47998 691.973389 654.093506 C 693.213135 652.613281 694.479736 651.133301 695.733154 649.640137 L 696.253174 649.17334 C 695.706787 649.800049 695.199951 650.439941 694.719971 651.080078 C 694.52002 651.333496 694.52002 651.386719 694.58667 651.333496 L 692.786621 653.360107 C 690.893066 655.533447 689.133301 657.613281 687.533203 659.573242 C 685.52002 662.053467 683.226563 664.280029 681.093018 666.640137 C 679.813232 667.973389 678.52002 669.320068 677.226563 670.666748 C 675.573242 672.360107 674.026367 674.093506 672.320068 675.733398 C 671.533203 676.47998 670.759766 677.213379 669.986572 677.959961 Z M 699.986572 644.41333 C 701.226563 642.773438 702.439941 641.186768 703.65332 639.58667 C 705.320068 637.34668 706.986572 635.106689 708.666504 632.866699 C 709.746582 631.453369 710.719971 629.879883 711.840088 628.293457 C 713 626.693359 713.973389 625.266602 714.866455 623.893311 C 714.919922 623.82666 715.533203 623.186768 715.533203 623.186768 C 715.533203 623.186768 714.466553 624.58667 714.320068 624.800049 C 712.359863 627.58667 710.879883 629.853516 710.546631 630.679932 C 710.773438 630.47998 711.093018 630.146729 711.479736 629.706787 C 710.133301 631.640137 708.666504 633.47998 707.17334 635.306641 L 705.320068 637.733398 L 703.399902 640.106689 L 699.626465 644.906738 L 698.133301 646.82666 Z M 761.906738 534.613281 C 762.866699 532.213379 763.600098 529.746582 764.413086 527.293213 C 765.17334 524.93335 765.933105 522.640137 766.679688 520.320068 C 767.359863 518.133301 768.013184 516.040039 768.666504 513.946777 C 768.746582 513.58667 768.812988 513.253418 768.893066 512.906738 L 769.146484 513.093262 L 769.253418 512.679932 C 769.706543 511.386719 770.106445 510.080078 770.453125 508.746582 L 770.34668 509.47998 L 771.159668 507.333496 C 771.120117 507.546631 771.080078 507.76001 771.040039 507.959961 C 770.626465 509.466797 770.213379 510.973389 769.799805 512.466797 C 769.279785 514.52002 768.640137 516.34668 768.159668 518.026611 L 768.133301 518.546631 L 768.053223 518.693359 C 767.333008 520.440186 766.52002 522.52002 765.600098 525.040039 C 764.679688 527.640137 763.759766 530.226563 762.799805 532.893311 C 761.026367 537.426514 759.306641 541.866699 757.573242 546.293213 C 759 542.426514 760.439941 538.560059 761.906738 534.613281 Z M 762.053223 468.959961 C 762.040039 469.213379 762.026367 469.453369 762 469.693359 C 761.946289 470 761.879883 470.293213 761.812988 470.600098 C 761.893066 470.053467 761.973145 469.52002 762.053223 468.959961 Z M 8.746582 344.159912 L 8.693115 344.306885 C 8.719971 344.186768 8.746582 344.053467 8.773438 343.93335 C 8.759766 344 8.746582 344.080078 8.746582 344.159912 Z M 778.733398 330 C 778.133301 326.58667 777.533203 323.146729 776.933105 319.706787 C 776.159668 316.306885 775.386719 312.893311 774.626465 309.506836 C 773.82666 306.133301 773.17334 302.746582 772.306641 299.47998 C 771.439941 296.226563 770.573242 293.013428 769.719727 289.82666 C 768.853516 286.679932 768.17334 283.560059 767.266602 280.613281 C 766.373535 277.653564 765.546387 274.800049 764.773438 272.040283 C 764.106445 269.706787 763.34668 267.199951 762.533203 264.600098 C 761.640137 262.026611 760.613281 259.386719 759.600098 256.679932 C 757.533203 251.293213 755.47998 245.693359 753.146484 240.58667 C 754.080078 242.47998 755.240234 244.76001 756.253418 247.093262 C 757.226563 249.440186 758.213379 251.773438 759.066406 253.693359 C 759.453125 254.666748 759.839844 255.640137 760.226563 256.600098 C 761.013184 258.560059 761.786621 260.506836 762.55957 262.440186 C 763.759766 265.426514 764.719727 268.453369 765.773438 271.213379 C 766.82666 274.013428 767.746582 276.34668 768.546387 278.213379 C 769.026367 279.280029 769.399902 279.986816 769.613281 280.226563 C 769.719727 280.146729 769.666504 279.679932 769.493164 278.853516 C 770.386719 281.146729 771.080078 283.400146 771.759766 285.493408 C 772.533203 287.813232 773.133301 289.466797 773.586426 290.426514 L 773.613281 289.613281 C 773.159668 287.533447 772.573242 285.120117 771.839844 282.306885 C 768.773438 272.386719 765.333008 262.41333 761.373535 252.746582 L 758.679688 245.959961 C 758.839844 246.34668 759 246.733398 759.146484 247.133301 C 760.47998 250.440186 761.799805 253.746582 763.120117 257.053467 C 764.17334 259.733398 765.292969 262.080078 766.093262 264.199951 C 766.973145 265.920166 766.839844 264.959961 766.266602 262.853516 C 765.613281 260.773438 764.439941 257.58667 763.453125 254.76001 C 763.679688 255.199951 763.893066 255.626709 764.120117 256.053467 C 764.133301 256.080078 764.146484 256.080078 764.159668 256.093262 L 765.026367 258.293213 C 765.733398 260.053467 766.546387 261.800049 767.17334 263.640137 L 767.17334 263.640137 L 767.17334 263.640137 L 769.319824 269.906738 C 769.399902 269.866699 769.47998 269.893311 769.600098 269.973389 L 767.439941 263.653564 C 766.573242 261.026611 765.493164 258.47998 764.52002 255.880127 C 764.466797 255.52002 764.34668 255.013428 764.159668 254.34668 C 765.47998 258.173584 767.199707 262.226563 768.759766 266.679932 L 769.746582 269.053467 C 770.213379 268.173584 775.013184 282.573486 776.359863 286.58667 L 776.706543 287.533447 C 776.279785 285.720215 775.733398 283.573486 775.053223 281.173584 C 773.973145 277.679932 772.746582 274.253418 771.600098 270.786865 L 769.266602 263.906738 C 768.506836 261.546631 767.573242 259.52002 766.786621 257.679932 L 764.333008 251.546631 C 764.053223 250.866699 763.759766 250.186768 763.42627 249.52002 C 763.34668 249.359863 763.292969 249.293213 763.266602 249.266846 L 763.226563 249.146729 C 762.546387 247.34668 761.866699 245.533447 761.186523 243.706787 C 760.386719 241.893311 759.586426 240.06665 758.786621 238.226563 C 757.266602 234.746582 755.746582 231.293213 754.226563 227.813232 C 753.17334 225.359863 752 223.453369 751.093262 221.813232 L 747.413086 214.320068 C 746.17334 211.840088 745.040039 209.306885 743.65332 206.906738 C 740.959717 202.026611 738.253174 197.159912 735.559814 192.280029 C 732.533203 187.47998 729.52002 182.666748 726.453369 177.786865 C 723.253174 172.946777 719.693115 168.199951 716.133301 163.266846 C 714 160.280029 711.533203 157.426514 709.199951 154.426514 C 706.840088 151.426514 704.453369 148.41333 702.06665 145.386719 C 699.546631 142.466797 697.026367 139.546631 694.52002 136.653564 C 692.013184 133.773438 689.546631 130.920166 686.893066 128.34668 C 684.906738 126.106934 682.813232 123.813232 680.679932 121.506836 C 679.58667 120.34668 678.506592 119.186768 677.413086 118.013428 C 676.320068 116.853516 675.119873 115.76001 673.959717 114.626709 C 671.613281 112.386719 669.23999 110.120117 666.866455 107.853516 L 663.293213 104.466797 C 662.06665 103.386719 660.826416 102.320068 659.599854 101.253418 C 642.306641 85.813232 623.17334 71.786865 604.599854 59.786865 C 602.93335 58.600098 601.159912 57.52002 599.306641 56.47998 C 597.466553 55.426514 595.599854 54.373535 593.679932 53.280029 C 589.506592 50.946777 585.386719 48.533447 581.053223 46.453369 L 573.226563 42.41333 C 570.626465 41.053467 568.026367 39.693359 565.333252 38.52002 L 559.719971 36.106934 L 550.853271 32.040283 L 541.799805 28.41333 L 542.399902 28.773438 L 536.493164 26.320068 C 519.666504 20.133301 502.533203 14.693359 484.986572 10.906738 C 476.293213 8.720215 467.413086 7.386719 458.58667 5.773438 C 454.17334 5.026611 449.706787 4.600098 445.266602 4 C 440.813232 3.440186 436.373291 2.813232 431.906738 2.560059 C 431.626465 2.493408 431.373291 2.426514 431.079834 2.359863 C 423.693115 1.720215 416.253174 1 408.773438 0.973389 L 397.546631 0.706787 C 393.813232 0.679932 390.053223 0.880127 386.306641 0.946777 C 382.159912 1.106934 378 1.080078 373.853271 1.400146 L 361.426514 2.453369 L 355.213135 2.986816 L 349.040039 3.853516 L 336.679932 5.613281 C 332.693115 6.266846 328.733154 7.146729 324.746582 7.893311 L 318.786621 9.080078 L 315.813232 9.679932 L 312.866455 10.426514 C 305.040039 12.506836 297.106689 14.226563 289.426514 16.840088 C 286.919922 17.626709 284.426514 18.41333 281.919922 19.199951 L 278.186523 20.400146 C 276.946533 20.800049 275.746582 21.306885 274.533203 21.76001 C 271.333252 22.986816 268.133301 24.213379 264.946533 25.426514 L 260.146484 27.253418 C 258.533203 27.853516 257 28.613281 255.426514 29.280029 L 247.146484 32.853516 C 244.413086 34.080078 241.58667 35.146729 238.93335 36.546631 L 227.293213 42.400146 C 225.866699 43.106934 224.426514 43.786865 223.013184 44.533447 L 218.840088 46.853516 C 216.06665 48.400146 213.279785 49.946777 210.47998 51.493408 C 206.759766 53.47998 203.213135 55.746582 199.666504 57.986816 C 196.133301 60.240234 192.613281 62.453369 189.226563 64.773438 L 173.93335 75.679932 C 169.613281 79.026611 165.226563 82.426514 160.946533 85.746582 C 159.893066 86.58667 158.826416 87.400146 157.799805 88.253418 L 154.840088 90.866699 C 152.893066 92.613281 151.013184 94.320068 149.213135 96 L 144.013184 100.493408 C 142.279785 102.013428 140.666504 103.626709 138.986572 105.186768 L 129.026367 114.666748 L 119.506592 124.573486 C 117.93335 126.240234 116.320068 127.866699 114.773438 129.546631 L 110.253418 134.720215 C 107.266602 138.186768 104.199951 141.58667 101.279785 145.120117 L 92.733154 155.866699 C 89.826416 159.400146 87.199951 163.159912 84.52002 166.866699 C 81.893066 170.600098 79.093262 174.226563 76.58667 178.053467 C 74.506592 181.226563 72.466553 184.333496 70.453369 187.386719 C 68.439941 190.426514 66.426514 193.386719 64.679932 196.373535 C 62.879883 199.266846 61.119873 202.106934 59.359863 204.93335 C 57.640137 207.679932 55.919922 210.280029 54.439941 212.866699 C 56.199951 209.533447 57.759766 207.013428 59.053223 204.58667 C 60.346436 202.186768 61.626465 199.840088 62.946533 197.41333 C 60.733154 200.253418 58.093262 204.533447 55.306641 209.280029 C 52.786621 214.133301 49.986572 219.52002 47.466553 224.359863 C 46.213135 226.813232 44.506592 230.306885 43 233.493408 C 41.47998 236.679932 40.159912 239.560059 39.879883 240.893311 C 41.386719 238.159912 43.599854 233.58667 45.413086 230.040283 L 44.946533 231.093262 C 32.186523 257.946777 21.293213 286.386719 13.840088 315.386719 C 9.640137 331.693359 6.599854 348.533447 3.906738 365.453369 L 2.346436 378.213379 C 1.866699 382.47998 1.226563 386.720215 1.013184 391 C 0.453369 399.560059 -0.386719 408.080078 -0.359863 416.613281 C -0.813477 444.626709 1.079834 473.280029 6.320068 501.506836 C 6.58667 503.06665 6.853271 504.626709 7.119873 506.199951 C 7.266602 506.986816 7.399902 507.773438 7.533203 508.573486 C 7.719971 509.359863 7.906738 510.159912 8.093262 510.959961 L 7.493164 508.560059 L 7.026367 506.133301 L 6.079834 501.293213 L 6.306641 501.880127 L 3.866699 489.173584 C 3.626465 488.333496 3.506592 489 3.773438 490.920166 C 4.359863 494.720215 5.079834 498.440186 5.853271 502.133301 C 5.893066 502.400146 5.959717 502.640137 6.040039 502.840088 C 6.213135 504.280029 6.506592 506.159912 6.959717 508.573486 C 8.293213 514.226563 9.640137 519.906738 11.053223 525.47998 C 11.333252 526.359863 11.58667 527.240234 11.93335 528.093262 C 11.773438 527.373535 11.666504 526.65332 11.573242 525.920166 L 11.879883 526.679932 L 10.893066 522.573486 C 11.493164 524.920166 12.026367 527.240234 12.786621 529.466797 C 14.279785 534.146729 15.759766 538.813232 17.23999 543.47998 C 18.813232 548.159912 20.65332 552.813232 22.359863 557.546631 C 23.973389 562.306885 26.079834 566.93335 28.040039 571.640137 C 29.040039 573.986816 30.026367 576.34668 31.026367 578.720215 C 32.06665 581.06665 33.253418 583.359863 34.359863 585.706787 C 35.599854 588.280029 36.840088 590.853516 38.093262 593.426514 C 38.973389 595.359863 39.973389 597.213379 41 599.053467 C 42.013184 600.906738 43.026367 602.76001 44.040039 604.626709 C 45.426514 607.106934 46.786621 609.546631 48.17334 611.93335 C 51.719971 617.253418 55.146484 622.746582 58.826416 628.213379 C 60.746582 630.906738 62.666504 633.613281 64.613281 636.360107 C 66.559814 639.106689 68.453369 641.946777 70.613281 644.640137 C 71.813232 646.160156 73 647.666748 74.186523 649.17334 C 72.320068 647.146729 69.679932 644 67.186523 640.506592 C 64.733154 636.986816 62.213135 633.293457 60.119873 630.52002 C 60.040039 630.560059 59.93335 630.560059 59.813232 630.52002 L 63.559814 636.013428 C 64.906738 638.026855 66.279785 640.080078 67.693115 642.199951 C 69.306641 644.320068 70.973389 646.453369 72.666504 648.560059 C 74.93335 651.306641 77.359863 654.47998 79.493164 656.853516 C 80.253418 657.82666 81.333252 659.093506 82.733154 660.640137 L 84.279785 662.120117 L 82.826416 660.160156 L 83.413086 660.666748 L 79.253418 655.906738 C 79.159912 655.693359 79.119873 655.52002 79.06665 655.34668 C 80.893066 657.506592 82.679932 659.626709 84.453369 661.746582 C 86.040039 663.58667 87.65332 665.466797 89.266602 667.333496 C 90.93335 669.320068 92.786621 671.160156 94.559814 672.946777 C 96.386719 674.76001 98.213135 676.573242 99.986572 678.333496 L 100.640137 678.959961 C 100.399902 678.746582 100.146484 678.546631 99.879883 678.360107 C 99.493164 678.093506 99.759766 678.493408 100.679932 679.573242 C 101.506592 680.47998 102.320068 681.373291 103.146484 682.280029 C 104.026367 683.199951 104.973389 684.080078 105.93335 685.013428 C 107.893066 686.853516 109.893066 688.76001 111.919922 690.679932 C 113.959717 692.52002 115.879883 694.493408 118.026367 696.213379 C 120.106689 697.959961 122.186523 699.693359 124.266602 701.426758 C 127.413086 704 130.346436 706.52002 133.186523 708.41333 C 134.813232 709.506592 135.93335 710.199951 136.599854 710.52002 C 136.65332 710.493408 136.58667 710.386719 136.453369 710.226807 C 138.146484 711.47998 139.813232 712.706787 141.466553 713.93335 C 142.946533 714.986816 144.386719 716.093506 145.893066 717.120117 L 150.453369 720.120117 C 153.506592 722.146729 156.559814 724.17334 159.626465 726.213379 C 162.759766 728.199951 165.986572 730.06665 169.213135 732.053467 C 172.466553 733.986816 175.679932 736.120117 179.133301 737.959961 C 181.546631 739.280029 183.959717 740.613281 186.373291 741.946777 C 188.773438 743.23999 191.106689 744.640137 193.559814 745.813232 C 196.493164 747.253418 199.426514 748.680054 202.346436 750.106689 C 205.279785 751.493408 208.133301 753.013306 211.106689 754.186768 C 214.333252 755.533325 217.47998 756.839966 220.666504 758.160034 C 222.719971 759 224.746582 759.920044 226.840088 760.706665 C 228.919922 761.493408 230.973389 762.266724 233.040039 763.053467 L 239.199951 765.400024 C 241.253174 766.17334 243.279785 767.013306 245.373291 767.653442 C 247.439941 768.333374 249.506592 769 251.573242 769.680054 C 253.573242 770.306641 255.546631 770.93335 257.506592 771.546631 C 258.906738 771.960083 260.306641 772.426758 261.759766 772.826782 C 263.213135 773.226685 264.679932 773.613281 266.17334 774.013306 C 268.199951 774.586792 270.266602 775.160034 272.306641 775.746704 C 274.413086 776.34668 276.546631 776.946655 278.65332 777.546631 C 282 778.440063 285.413086 779.200073 288.786621 780.013306 C 291.119873 780.560059 293.453369 781.106689 295.786621 781.666748 C 300.52002 782.773315 305.279785 783.506714 309.893066 784.360107 C 313.23999 784.893433 316.533203 785.613281 319.93335 785.986816 C 322.186523 786.306641 324.426514 786.613281 326.693115 786.93335 L 333.373291 787.906738 L 336.719971 788.386719 L 340.079834 788.746704 L 342.866455 789.026733 C 341.439941 789.013306 341.506592 789.146606 343.133301 789.440063 C 345.279785 789.760132 347.613281 790.026733 350.133301 790.226685 L 350.119873 790.226685 C 351.559814 790.453491 353.23999 790.693359 355.133301 790.93335 C 362.306641 791.573364 369.159912 791.93335 375.23999 792.040039 C 375.493164 792.053467 375.706787 792.053467 375.893066 792.026733 C 377.293213 792.106689 378.840088 792.133423 380.533203 792.120117 C 381.320068 792.079956 381.773438 792.040039 381.906738 792 L 382.626465 792.026733 C 384.65332 792.093384 386.733154 792.17334 388.826416 792.253418 C 391.053223 792.306641 393.306641 792.360107 395.559814 792.41333 C 399.053223 792.400024 402.546631 792.253418 406 792.133423 C 408.199951 792.026733 410.320068 791.920044 412.426514 791.826782 C 413.52002 791.733398 414.58667 791.653442 415.65332 791.573364 C 416.426514 791.560059 417.186523 791.493408 417.946533 791.41333 L 418.133301 791.293457 C 418.626465 791.23999 419.119873 791.17334 419.613281 791.106689 C 420.213135 791.040039 420.813232 790.973389 421.413086 790.906738 C 421.426514 790.973389 421.626465 791.026733 422.013184 791.066772 C 423.399902 791.093384 425.426514 791.013306 428.013184 790.853394 L 429.786621 790.693359 C 429.413086 790.813354 429.719971 790.866699 430.826416 790.866699 C 432.746582 790.786743 434.893066 790.706665 437.23999 790.426758 C 439.06665 790.106689 440.23999 789.853394 440.853271 789.640015 C 441.026367 789.493408 440.613281 789.41333 439.58667 789.426758 L 438.106689 789.573364 L 438.93335 789.360107 C 439.266602 789.226685 439.119873 789.160034 438.639893 789.133423 L 440.306641 788.986816 L 443.493164 788.466675 C 443.493164 788.453491 443.52002 788.426758 443.52002 788.41333 L 444.439941 788.293457 L 446.773438 788 C 446.733154 788.013306 446.746582 788.026733 446.719971 788.040039 L 443.493164 788.466675 C 441.946533 788.773315 441.866455 788.906738 443.52002 788.826782 C 445.58667 788.653442 447.853271 788.386719 450.306641 788.026733 C 450.306641 788.026733 450.199951 788.026733 450.06665 788.013306 C 450.426514 787.986816 450.799805 787.960083 451.199951 787.93335 C 453.293213 787.693359 455.306641 787.520142 457.106689 787.17334 C 458.893066 786.839966 460.506592 786.493408 461.866455 786.133423 C 461.879883 786.040039 461.719971 786 461.399902 785.973389 C 461.706787 785.826782 461.399902 785.813354 460.773438 785.880005 L 461.853271 785.666748 C 463.759766 785.333374 465.58667 785.013306 467.453369 784.693359 C 470.17334 784.280029 472.266602 784.053467 474.599854 783.746704 L 474.719971 783.720093 C 474.759766 783.760132 474.799805 783.813354 474.879883 783.839966 L 475.213135 783.800049 C 473.719971 784.106689 472.23999 784.400024 470.773438 784.706665 C 469.439941 785 468.320068 785.266724 467.373291 785.506714 C 466.266602 785.640015 464.840088 785.880005 463.053223 786.213379 C 459.546631 786.893433 456.253174 787.680054 453.533203 788.106689 C 450.93335 788.600098 448.746582 789.040039 447.573242 789.400024 C 447.293213 789.573364 447.773438 789.653442 449.053223 789.613281 C 451.079834 789.426758 453.506592 789.133423 455.840088 788.853394 C 458.17334 788.520142 460.413086 788.106689 462.119873 787.946655 L 463.719971 787.653442 C 464.493164 787.586792 465.320068 787.47998 466.186523 787.320068 C 466.626465 787.333374 467.453369 787.280029 468.840088 787.106689 L 468.733154 787.133423 C 472.040039 786.733398 476.333252 786.013306 480.386719 784.986816 C 483.199951 784.34668 485.773438 783.720093 488.093018 783.079956 L 494.013184 781.720093 C 495.986572 781.280029 497.919922 780.653442 499.879883 780.120117 C 501.666504 779.573364 503.466553 779.026733 505.266602 778.47998 L 505.733154 778.34668 C 506.23999 778.200073 506.733154 778.066772 507.226563 777.93335 C 509.639893 777.23999 512.026367 776.613281 514.426514 775.880005 C 516.719971 775.093384 518.986572 774.333374 521.266602 773.560059 C 523.479736 772.800049 525.679932 772.053467 527.879883 771.306641 C 530.040039 770.546631 532.213135 769.880005 534.266602 768.986816 C 536.333252 768.146606 538.23999 767.34668 539.986572 766.586792 L 540.186523 766.47998 C 543.040039 765.440063 546.053223 764.306641 549.253174 763.040039 C 548.439941 763.373413 547.639893 763.720093 546.840088 764.053467 C 545.693115 764.653442 545.466553 764.893433 546.186523 764.773315 L 549.159912 763.746704 C 550.399902 763.293457 551.599854 762.746704 552.813232 762.200073 C 555.266602 761.093384 557.573242 760.013306 559.719971 758.960083 L 565.266602 756.386719 L 568.040039 755.106689 L 570.746582 753.693359 C 572.413086 752.693359 572.399902 752.546631 570.959717 753.146606 C 569.946533 753.613281 568.919922 754.093384 567.879883 754.586792 C 566.759766 755.066772 565.626465 755.560059 564.439941 756.066772 C 563.479736 756.506714 562.52002 756.93335 561.573242 757.360107 C 564.479736 755.986816 567.466553 754.733398 570.320068 753.186768 L 576.799805 749.839966 C 578.373291 749.013306 579.93335 748.200073 581.479736 747.386719 C 580.986572 747.680054 580.506592 747.946655 580.026367 748.226685 C 579.573242 748.613281 579.893066 748.613281 580.986572 748.186768 L 584.06665 746.706665 C 585.186523 746.160034 586.253174 745.506592 587.346436 744.893311 C 589.533203 743.626709 591.573242 742.41333 593.453369 741.253418 L 598.666504 738.186768 C 600.426514 737.186768 602.146484 736.146729 603.813232 735.013428 L 609.040039 731.666748 C 609.06665 731.533447 609.093018 731.400146 609.079834 731.280029 L 606.226563 732.973389 L 604.053223 734.546631 C 603.853271 734.626709 603.599854 734.76001 603.199951 734.973389 C 601.613281 735.93335 599.759766 736.906738 597.706787 738.040039 C 596.159912 738.920166 594.613281 739.800049 593.06665 740.679932 L 594.853271 739.613281 C 597.773438 737.840088 600.799805 736.213379 603.573242 734.293457 C 605.399902 733.06665 607.093018 731.920166 608.626465 730.840088 C 608.973389 730.58667 609.306641 730.34668 609.65332 730.093506 L 610.799805 729.493408 C 611.93335 728.76001 613.06665 728.013428 614.186523 727.280029 C 615.813232 726.093506 616.786621 725.333496 617.06665 724.93335 C 617 724.893311 616.813232 724.959961 616.52002 725.053467 L 618.799805 723.253418 C 617.853271 723.920166 616.93335 724.640137 615.946533 725.266602 C 617.23999 724.373291 618.546631 723.320068 619.946533 722.306641 C 621.479736 721.160156 623.013184 720.026855 624.506592 718.906738 C 626.853271 717.17334 629.226563 715.41333 631.639893 713.640137 C 633.306641 712.306641 635.013184 710.946777 636.666504 709.626709 C 638.373291 708.23999 640.040039 706.879883 641.693115 705.533447 C 643.213135 704.253418 644.493164 703.133301 645.453369 702.23999 C 645.58667 702.093506 645.706787 701.959961 645.840088 701.813232 C 646.786621 701.133301 647.733154 700.306641 648.799805 699.439941 C 650.17334 698.280029 651.546631 697.120117 652.919922 695.946777 C 653.133301 695.786865 653.346436 695.626709 653.599854 695.439941 C 655.320068 694.053467 657 692.600098 658.639893 691.080078 L 658.079834 691.506592 C 659.23999 690.47998 660.439941 689.52002 661.506592 688.439941 C 663.133301 686.879883 664.733154 685.320068 666.333252 683.773438 C 669.959717 680.146729 673.546631 676.560059 672.079834 677.400146 C 672.973389 676.106689 676.613281 672.23999 680.359863 668.373291 C 682.213135 666.439941 684.093018 664.493408 685.613281 662.840088 C 687.159912 661.199951 688.199951 659.720215 688.639893 658.959961 L 696.093018 650.23999 L 697.320068 648.506592 L 697.293213 648.533447 C 698.119873 647.679932 698.986572 646.65332 699.919922 645.466797 L 704.159912 640.080078 C 705.559814 638.266602 706.866455 636.546631 708.06665 634.920166 L 709.93335 632.23999 L 711.666504 629.47998 C 712.06665 629.026855 712.533203 628.453369 713.079834 627.76001 C 715.599854 624.47998 718.226563 620.986816 720.93335 617.320068 C 723.493164 613.546631 726.079834 609.573242 728.733154 605.506836 C 731.759766 601.053467 734.293213 596.306885 736.973389 591.626709 C 738.199951 589.426514 739.359863 587.306885 740.559814 585.146729 C 741.52002 583.199951 742.133301 581.746582 742.533203 580.706787 L 744.373535 577.120117 L 744.17334 577 L 742.386719 580.47998 C 742.279785 580.47998 742.279785 580.293213 742.919922 578.893311 C 744.120117 576.34668 745.546387 573.533447 746.933105 570.76001 C 747.466797 569.706787 748.013184 568.626709 748.55957 567.546631 C 749.053223 566.453369 749.533203 565.359863 750.013184 564.280029 C 750.600098 562.973389 751.159668 561.693359 751.733398 560.41333 L 751.306641 561.533447 C 751.093262 562.52002 751.65332 561.786865 752.493164 560.41333 C 753.040039 559.533447 753.613281 558.546631 754.306641 557.320068 C 755.026367 555.973389 755.853516 554.359863 756.786621 552.453369 C 757.773438 550.506836 758.55957 548.400146 759.453125 546.226563 C 759.879883 545.146729 760.306641 544.080078 760.719727 543.013428 L 764.159668 534.253418 C 765.279785 531.333496 766.186523 528.333496 767.213379 525.373535 C 769.55957 518.013428 778.333008 489.293213 774.786621 495.880127 C 774.386719 496.866699 773.906738 498.266846 773.306641 500.159912 L 773.213379 500.47998 L 773.213379 500.400146 C 773.866699 498.159912 774.533203 496.120117 774.82666 494.186768 C 775.226563 492.293213 775.626465 490.466797 776.013184 488.640137 C 779.52002 474.533447 780.466797 466.853516 781.013184 463.560059 C 781.453125 460.266846 780.986816 461.266846 779.933105 464.146729 C 779.52002 467.013428 779.133301 469.82666 778.733398 472.679932 C 778.506836 474.133301 778.319824 475.640137 777.986816 477.253418 C 777.65332 478.866699 777.253418 480.600098 776.799805 482.506836 C 776.266602 484.93335 775.879883 486.93335 775.640137 488.493408 C 775.586426 488.973389 775.586426 489.199951 775.600098 489.320068 L 775.093262 490.853516 C 774.466797 493.293213 773.933105 495.786865 773.213379 498.266846 C 772.959961 499.333496 772.759766 500.199951 772.626465 500.893311 L 772.613281 500.866699 L 772.719727 500.34668 C 772.199707 501.920166 771.719727 503.546631 771.266602 505.199951 L 771.466797 504.266846 C 771.159668 505.120117 770.853516 505.959961 770.55957 506.800049 L 769.226563 511.426514 C 769.34668 510.800049 769.466797 510.199951 769.586426 509.58667 C 769.706543 508.76001 769.759766 508.133301 769.746582 507.76001 C 769.733398 507.613281 769.746582 507.400146 769.759766 507.186768 L 770.133301 505.853516 L 770.186523 505.47998 C 770.586426 504.040283 770.973145 502.640137 771.373535 501.213379 C 771.546387 500.58667 771.706543 499.93335 771.839844 499.240234 C 771.946289 498.693359 771.879883 498.746582 771.640137 499.373535 L 772.053223 497.986816 C 772.319824 496.880127 772.626465 495.800049 772.853516 494.679932 L 772.879883 494.533447 C 772.893066 494.493408 772.906738 494.466797 772.919922 494.426514 C 773.466797 492.440186 773.879883 490.653564 774.146484 489.026611 C 774.52002 487.386719 774.879883 485.746582 775.240234 484.106934 C 775.973145 480.82666 776.506836 478.266846 776.866699 476.053467 C 777.159668 473.813232 777.359863 471.946777 777.55957 470.026611 C 778.133301 463.373535 778.799805 457.600098 779.053223 450.359863 C 779.253418 446.76001 779.506836 442.813232 779.879883 438.253418 C 780.093262 433.679932 780.253418 428.466797 780.600098 422.359863 C 780.706543 420.333496 780.812988 418.733398 780.799805 417.466797 C 780.773438 416.199951 780.733398 415.280029 780.679688 414.626709 C 780.586426 413.306885 780.42627 413.06665 780.253418 413.253418 C 779.906738 413.640137 779.493164 415.773438 779.213379 414.720215 C 778.866699 413.52002 778.626465 415.440186 778.240234 418.693359 C 777.786621 421.93335 777.279785 426.506836 776.812988 430.653564 C 776.586426 432.47998 776.399902 435.626709 776.080078 438.34668 C 775.759766 441.053467 775.533203 443.34668 775.666504 443.47998 C 776.386719 444.226563 776 449.93335 775.053223 457.306885 C 774.413086 461 773.706543 465.053467 772.986816 469.146729 C 772.613281 471.199951 772.253418 473.240234 771.893066 475.253418 C 771.453125 477.226563 771.013184 479.159912 770.600098 481.013428 L 770.053223 483.373535 C 770.053223 483.373535 769.533203 485.706787 769.47998 485.906738 C 769.226563 486.613281 769.266602 486.06665 769.573242 484.533447 C 769.812988 483.240234 769.973145 482.186768 770.066406 481.41333 C 772.986816 464.893311 774.359863 450.186768 772.226563 453.82666 C 771.319824 455.41333 770.133301 455.720215 770.34668 447.58667 C 770.47998 443.146729 769.146484 447.093262 770.399902 436.840088 C 771.120117 427.306885 772.159668 420.41333 772.839844 420.199951 C 773.040039 420.133301 773.266602 418.973389 773.42627 417.173584 C 773.533203 415.373535 773.600098 412.93335 773.679688 410.306885 C 773.799805 405.679932 773.786621 401.466797 773.506836 402.453369 C 772.040039 407.560059 771.026367 383.266846 769.159668 413.693359 C 769 417.693359 768.359863 421.320068 768.213379 418.986816 C 767.906738 415.040283 767.533203 413.080078 767.373535 414.640137 C 767.17334 417.053467 766.812988 421.560059 766 431.440186 C 765.773438 433.106934 765.546387 434.746582 765.319824 436.41333 C 765.026367 438.226563 764.719727 440.053467 764.413086 441.920166 C 763.812988 445.773438 763.213379 450 762.600098 454.600098 C 762.159668 451.466797 761.413086 451.266846 760.319824 454.040283 C 759.093262 456.800049 757.333008 462.506836 755.040039 471.240234 C 753.933105 474.93335 752.879883 478.280029 751.986816 481.493408 C 751.053223 484.693359 750.373535 487.800049 749.47998 490.880127 C 748.586426 493.946777 747.746582 497.06665 746.906738 500.400146 C 746.066406 503.733398 745.266602 507.293213 744.080078 511.146729 L 740.119873 523.693359 L 735.546631 536.053467 C 734.106689 540.213379 732.306641 544.213379 730.58667 548.266602 L 727.986572 554.333496 C 727.546631 555.333496 727.133301 556.359863 726.679932 557.359863 L 725.226563 560.320068 L 722.506592 565.626709 L 719.826416 570.853516 C 719.079834 572.280029 718.293213 573.65332 717.493164 574.973389 C 716.706787 576.333496 715.946533 577.640137 715.199951 578.93335 C 713.719971 581.52002 712.320068 584.053467 710.93335 586.560059 C 708.106689 591.533447 705.119873 596.240234 702.053223 601.240234 C 701.026367 602.906738 699.879883 604.506836 698.746582 606.093262 L 695.333252 610.879883 C 693.599854 613.34668 691.93335 615.706787 690.253174 618.093506 C 688.52002 620.373291 686.786621 622.679932 685.053223 624.959961 C 683.333252 627.253418 681.58667 629.560059 679.773438 631.879883 C 677.840088 634.120117 675.840088 636.386719 673.719971 638.706787 L 668.973389 644.320068 C 667.386719 646.186768 665.65332 647.920166 664 649.733398 L 659 655.120117 L 656.493164 657.813232 C 655.639893 658.693359 654.746582 659.533447 653.866455 660.386719 C 634.493164 679.82666 612.973389 697.186768 589.773438 712.013428 C 588.053223 713.013428 586.306641 714.026855 584.613281 715.120117 C 581.786621 716.786865 578.959717 718.453369 576.133301 720.106689 L 571.879883 722.600098 L 567.52002 724.879883 C 561.706787 727.920166 555.973389 731.080078 550.079834 733.693359 C 548.053223 734.65332 546.026367 735.600098 544 736.546631 C 541.959717 737.493408 539.93335 738.493408 537.826416 739.293457 C 533.626465 741 529.413086 742.706787 525.199951 744.41333 C 520.959717 746.093384 516.599854 747.453491 512.293213 748.986816 L 505.813232 751.226685 L 499.253174 753.146606 L 492.706787 755.066772 C 490.533203 755.706665 488.373291 756.373413 486.159912 756.866699 C 481.786621 757.93335 477.426514 759 473.093018 760.053467 C 470.93335 760.640015 468.746582 761.013306 466.58667 761.453491 L 460.133301 762.733398 L 453.746582 764.026733 C 451.639893 764.466675 449.506592 764.706665 447.413086 765.066772 C 444.053223 765.34668 442.639893 765.266724 438.733154 765.666748 C 434.706787 766.17334 430.826416 766.400024 427.119873 766.720093 C 423.413086 767.026733 419.866455 767.400024 416.453369 767.800049 C 414.679932 767.720093 410.399902 767.773315 405.399902 768.040039 L 399.453369 768.213379 L 396.479736 768.293457 L 393.506592 768.253418 L 381.546631 768.053467 L 379.386719 768.106689 L 378.439941 768.253418 C 378.133301 768.34668 378.413086 768.453491 379.266602 768.573364 C 376.466553 768.640015 373.853271 768.440063 371.466553 768.440063 C 369.426514 768.426758 367.919922 768.466675 366.959717 768.560059 C 365.826416 768.453491 364.679932 768.34668 363.453369 768.226685 C 361.879883 768.106689 360.306641 768 358.733154 767.880005 L 363.093018 768.066772 C 363.333252 767.973389 363.52002 767.893433 363.65332 767.800049 C 361.626465 767.653442 359.613281 767.560059 357.599854 767.373413 L 351.559814 766.733398 C 349.613281 766.426758 347.58667 766.213379 345.453369 766.066772 L 346.06665 766.253418 L 340.06665 765.640015 L 340.06665 765.640015 C 338.106689 765.400024 336.146484 765.066772 334.186523 764.786743 C 334.093018 764.893433 334.06665 765 334.119873 765.120117 C 336.093018 765.373413 338.06665 765.666748 340.053223 765.880005 L 340.053223 765.880005 C 341.919922 766.133423 343.773438 766.320068 345.626465 766.453491 L 345.626465 766.453491 L 348.906738 766.853394 C 344.439941 766.34668 340 766.079956 335.706787 765.426758 C 332.58667 765.026733 329.493164 764.640015 326.359863 764.23999 L 322.040039 763.626709 L 322.453369 763.34668 C 320.226563 763.026733 318.040039 762.493408 315.826416 762.079956 L 316.453369 762.293457 L 313.58667 761.720093 L 310.759766 761.226685 C 310.599854 761.266724 310.426514 761.306641 310.226563 761.34668 L 316.306641 762.586792 C 316.306641 762.586792 316.253174 762.586792 316.186523 762.573364 C 314.306641 762.213379 312.439941 761.853394 310.559814 761.493408 C 308.426514 761.093384 306.306641 760.693359 304.17334 760.280029 C 301.013184 759.653442 297.893066 758.839966 294.773438 758.146606 C 292.733154 757.693359 290.733154 757.253418 288.733154 756.813354 C 286.853271 756.426758 284.919922 756.013306 282.879883 755.386719 C 281.079834 754.826782 279.306641 754.266724 277.479736 753.706665 C 274.906738 752.893433 272.373291 752.106689 269.799805 751.306641 C 267.959717 750.786743 266.119873 750.093384 264.199951 749.453491 C 262.293213 748.853394 260.453369 748.266724 258.599854 747.680054 C 258.013184 747.506714 257.466553 747.34668 256.893066 747.186768 L 256.613281 747.053467 C 254.946533 746.493408 253.453369 746.013306 252.119873 745.626709 C 250.746582 745.106689 249.079834 744.386719 247.013184 743.720215 L 247.426514 743.93335 L 247.453369 744.213379 L 246.666504 743.93335 C 246.58667 743.906738 244.093018 742.959961 244.093018 742.959961 C 244.093018 742.959961 241.613281 742 241.533203 741.973389 C 238.866455 740.879883 236.346436 739.893311 233.773438 738.746582 C 231.866455 737.879883 229.906738 737 227.959717 736.120117 C 225.879883 735.199951 223.759766 734.266602 221.640137 733.333496 L 218.293213 731.853516 L 215.026367 730.253418 C 212.853271 729.199951 210.679932 728.160156 208.506592 727.120117 C 206.426514 726.160156 204.47998 725.280029 202.559814 724.400146 C 200.333252 723.360107 200.906738 723.946777 199.133301 723.17334 C 199.06665 722.973389 198.320068 722.426758 196.333252 721.266602 C 194.053223 719.973389 191.946533 718.82666 190.186523 717.93335 C 187.279785 716.280029 184.413086 714.280029 181.333252 712.386719 C 178.306641 710.439941 175.06665 708.58667 171.893066 706.493408 C 168.266602 704.093506 164.679932 701.720215 161.106689 699.34668 C 158.679932 697.813232 156.439941 696.026855 154.159912 694.400146 C 152.466553 693.17334 150.813232 691.986816 149.199951 690.82666 C 149.493164 690.946777 149.493164 690.840088 149.093262 690.426758 C 147.866699 689.226807 145.813232 687.613281 143.306641 685.320068 C 141.52002 683.800049 139.786621 682.360107 138.079834 680.986816 C 136.399902 679.626709 134.706787 678.23999 133.013184 676.853516 C 131.373291 675.373291 129.746582 673.906738 128.133301 672.439941 C 126.640137 671.146729 125.226563 669.906738 123.799805 668.65332 C 122.546631 667.600098 121.346436 666.573242 120.106689 665.533447 C 118.253418 663.746582 116.426514 661.879883 114.640137 659.920166 C 112.986572 658.053467 111.279785 656.146729 109.253418 653.959961 C 108.453369 653.17334 107.759766 652.266602 107.026367 651.439941 C 106.279785 650.58667 105.493164 649.706787 104.746582 648.840088 L 103.866699 647.853516 C 103.266602 647.17334 102.679932 646.506592 102.06665 645.853516 C 99.853271 643.34668 97.546631 640.973389 95.493164 638.306641 L 90.079834 631.693359 L 87.373291 628.386719 C 86.47998 627.293457 85.679932 626.120117 84.840088 624.986816 C 82.919922 622.386719 81.026367 619.813232 79.106689 617.213379 C 78.47998 616.360107 77.853271 615.493408 77.213135 614.626709 C 76.599854 613.746582 76.040039 612.813232 75.439941 611.893311 C 74.266602 610.040039 73.106689 608.186768 71.946533 606.34668 C 71.559814 605.746582 71.17334 605.133301 70.799805 604.533447 L 70.799805 604.546631 C 72.06665 606.47998 73.333252 608.426514 74.573242 610.333496 C 75.866699 612.266602 77.06665 614.226807 78.413086 615.893311 C 82.533203 621.186768 86.706787 627.41333 91.786621 633.47998 C 93.320068 635.373291 94.813232 637.226807 96.333252 639.106689 C 97.426514 640.533447 98.640137 641.853516 99.853271 643.199951 C 99.919922 643.293457 99.986572 643.360107 100.053223 643.453369 C 101.146484 644.720215 102.213135 645.920166 103.253418 647.053467 C 103.853271 647.746582 104.466553 648.439941 105.079834 649.146729 C 106.573242 650.813232 107.973389 652.560059 109.559814 654.146729 C 111.866699 656.466797 114.159912 658.786865 116.466553 661.106689 C 118.013184 662.65332 119.52002 664.293457 121.119873 665.800049 C 122.759766 667.320068 124.413086 668.840088 126.053223 670.360107 C 127.719971 671.906738 129.386719 673.453369 131.053223 675 C 132.719971 676.613281 134.533203 678.026855 136.266602 679.439941 C 138 680.840088 139.58667 682.080078 140.959717 683.120117 C 141.199951 683.266602 141.413086 683.41333 141.626465 683.546631 L 144.079834 685.613281 C 144.106689 685.560059 144.119873 685.47998 144.079834 685.373291 C 143.506592 684.853516 142.919922 684.320068 142.333252 683.786865 C 142.333252 683.773438 142.346436 683.773438 142.346436 683.746582 C 142.013184 683.293457 141.466553 682.666748 140.65332 681.82666 C 141.053223 681.600098 139.159912 679.76001 136.413086 677.373291 C 133.58667 675.053467 130.266602 671.773438 127.359863 669.199951 C 114.199951 657.106689 101.640137 643.786865 90.733154 629.306641 C 79.746582 614.906738 70.040039 599.693359 61.65332 584.34668 C 59.493164 579.973389 57.333252 575.58667 55.146484 571.173584 C 54 568.973389 53.133301 566.640137 52.146484 564.373535 C 51.186523 562.080078 50.226563 559.813232 49.266602 557.546631 C 47.23999 553.053467 45.759766 548.41333 44.06665 544 C 43.226563 541.82666 42.399902 539.65332 41.573242 537.47998 C 40.866699 535.373535 40.159912 533.253418 39.439941 531.106934 L 37.399902 524.400146 L 36.386719 521.040039 C 36.053223 519.920166 35.826416 518.773438 35.533203 517.626709 C 34.439941 513.080078 33.333252 508.52002 32.23999 503.959961 C 30.52002 494.720215 28.613281 485.506836 27.613281 476.146729 L 26.706787 469.146729 C 26.346436 466.82666 26.293213 464.466797 26.079834 462.133301 C 25.733154 457.440186 25.293213 452.76001 25 448.080078 C 24.759766 438.706787 24.23999 429.359863 24.533203 420 C 24.799805 416 24.813232 412.013428 24.866699 408.053467 C 26.799805 372.253418 32.47998 336.746582 43.133301 302.573486 C 53.426514 268.293213 68.533203 235.41333 87.573242 204.600098 L 89.23999 202.080078 C 90.93335 199.560059 92.573242 197.120117 94.226563 194.679932 C 95.439941 192.853516 96.333252 191.41333 96.879883 190.373535 C 99.759766 185.653564 103.346436 180.706787 107.013184 175.640137 C 110.759766 170.626709 114.946533 165.76001 118.719971 160.893311 C 120.06665 159.213379 121.599854 157.573486 123.119873 155.813232 C 126.133301 152.306885 129.146484 148.82666 132.159912 145.320068 C 133.813232 143.58667 135.493164 141.82666 137.146484 140.093262 C 139.799805 137.320068 142.453369 134.533447 145.119873 131.746582 C 147.640137 129.306885 150.159912 126.880127 152.640137 124.466797 C 152.266602 124.866699 151.893066 125.266846 151.533203 125.679932 C 151.52002 125.813232 151.573242 125.880127 151.679932 125.893311 C 154.640137 123.159912 155.65332 122.053467 155.426514 121.946777 L 155.306641 122.120117 C 154.706787 122.560059 154.146484 123.040283 153.599854 123.546631 C 154.65332 122.506836 155.706787 121.466797 156.759766 120.426514 C 157.453369 119.746582 158.106689 119.093262 158.746582 118.453369 C 159.359863 117.880127 159.946533 117.333496 160.533203 116.786865 C 161.573242 116.026611 162.93335 114.880127 164.626465 113.293213 C 167.666504 110.679932 170.640137 107.986816 173.733154 105.440186 C 176.893066 102.973389 180.040039 100.506836 183.17334 98.053467 C 184.746582 96.82666 186.293213 95.600098 187.879883 94.41333 L 192.733154 91.06665 C 195.946533 88.853516 199.159912 86.693359 202.333252 84.600098 C 203.786621 83.52002 205.439941 82.47998 207.199951 81.333496 C 208.946533 80.199951 210.666504 79.093262 212.373291 77.986816 C 214.533203 76.493408 215.17334 75.853516 217.453369 74.280029 C 222.546631 71.266846 227.719971 68.373535 232.853271 65.41333 C 235.893066 63.706787 239.079834 62.253418 242.17334 60.666748 C 245.306641 59.120117 248.399902 57.52002 251.559814 56.026611 L 261.146484 51.853516 C 264.359863 50.493408 267.506592 48.973389 270.799805 47.82666 C 273.826416 46.733398 277.133301 45.52002 280.146484 44.426514 C 283.146484 43.280029 285.879883 42.186768 287.826416 41.34668 C 312.333252 33.159912 337.733154 27.746582 363.439941 25.280029 C 383.253174 23.146729 403.266602 23.333496 423.186523 24.653564 L 430.65332 25.226563 L 434.386719 25.506836 L 438.106689 25.973389 L 452.959717 27.853516 L 467.693115 30.47998 L 471.386719 31.133301 C 472.599854 31.373535 473.813232 31.679932 475.026367 31.959961 L 482.320068 33.640137 C 485.23999 34.34668 488.199951 34.920166 491.093018 35.720215 L 499.759766 38.186768 C 507.799805 40.253418 514.52002 42.573486 516.626465 42.666748 C 515.133301 42.040283 513.426514 41.373535 511.58667 40.693359 C 509.746582 40.013428 507.786621 39.266846 505.706787 38.693359 C 501.559814 37.466797 497.253174 36.199951 493.17334 35 L 490.973389 34.34668 C 496.386719 35.640137 501.773438 37.146729 507.133301 38.733398 C 512.439941 40.493408 517.679932 42.506836 522.93335 44.41333 C 524.506592 44.813232 526.079834 45.240234 527.613281 45.76001 L 527.866455 45.959961 C 532.253174 47.893311 536.893066 49.82666 541.693115 51.746582 C 546.426514 53.853516 551.266602 56 556.226563 58.213379 C 576.093018 67.533447 595.320068 79.106934 612.853271 90.82666 C 615.853271 92.800049 618.759766 94.853516 621.58667 96.973389 C 624.333252 99.213379 627.06665 101.453369 629.906738 103.626709 L 635.666504 108.159912 C 637.506592 109.746582 639.346436 111.333496 641.186523 112.906738 C 642.599854 114.106934 644 115.280029 645.399902 116.453369 C 645.746582 116.773438 646.146484 117.146729 646.693115 117.640137 L 646.119873 117.320068 C 647.706787 118.640137 649.293213 119.946777 650.773438 121.373535 L 650.453369 121.120117 C 652.306641 122.786865 652.853271 123.173584 652.106689 122.306885 L 654.026367 124.06665 C 656.506592 126.373535 658.986572 128.666748 661.439941 130.946777 C 662.026367 131.47998 662.559814 131.946777 663.040039 132.426514 C 662.986572 132.440186 663.306641 132.853516 664.053223 133.693359 L 666.639893 136.41333 C 667.386719 137.333496 668.439941 138.546631 669.906738 140.106934 L 672.399902 142.600098 C 674.506592 144.546631 676.426514 146.720215 678.359863 148.93335 C 680.266602 151.159912 682.199951 153.400146 684.146484 155.653564 C 685.093018 156.786865 686.079834 157.906738 687.013184 159.06665 C 687.919922 160.240234 688.826416 161.41333 689.733154 162.58667 C 691.546631 164.93335 693.359863 167.253418 695.199951 169.52002 C 708.093018 185.893311 719.413086 204.040283 729.359863 222.546631 C 730.879883 225.333496 731.773438 226.786865 732.06665 226.906738 C 731.413086 225.320068 730.613281 223.546631 729.719971 221.640137 C 730.386719 222.893311 731.093018 224.226563 731.799805 225.546631 C 736.439941 233.493408 740.959717 245.466797 744.640137 251.920166 C 744.493164 251 743.839844 249.373535 742.839844 246.946777 C 742.040039 245.213379 741.320068 243.546631 740.65332 241.959961 C 739.613281 239.93335 738.573242 237.813232 737.506592 235.613281 C 736.479736 233.41333 735.199951 231.240234 734.026367 228.946777 C 732.840088 226.653564 731.639893 224.333496 730.413086 221.973389 C 729.799805 220.786865 729.186523 219.58667 728.573242 218.386719 C 727.946533 217.199951 727.23999 216.026611 726.573242 214.840088 C 726.293213 214.653564 726.266602 214.82666 726.413086 215.240234 C 722.853271 208.93335 718.973389 201.946777 715.399902 196.320068 C 713.439941 192.93335 711.573242 189.720215 709.626465 186.359863 C 708.986572 185.386719 708.346436 184.41333 707.693115 183.440186 L 707.893066 183.359863 C 706.986572 181.920166 705.853271 180.226563 704.493164 178.293213 C 703.266602 176.600098 702.213135 175.213379 701.293213 174.06665 C 700.840088 173.359863 700.719971 173.093262 700.853271 173.159912 C 701.439941 173.880127 702.213135 174.906738 703.026367 176 C 704.599854 178.173584 706.213135 180.426514 707.826416 182.666748 L 708.533203 183.640137 L 708.613281 183.840088 L 710.266602 186.146729 L 711.813232 188.533447 C 712.119873 189 712.453369 189.466797 712.840088 189.946777 L 712.866455 189.973389 C 713.479736 190.893311 714.093018 191.813232 714.706787 192.720215 C 715.119873 193.333496 715.533203 193.93335 715.946533 194.546631 L 715.973389 194.613281 L 718.293213 198.173584 L 719.373291 199.58667 L 719.506592 199.800049 C 720.599854 201.333496 721.506592 202.880127 722.413086 204.333496 C 722.426514 204.34668 723.533203 206.013428 723.533203 206.013428 L 725 208.560059 C 725.973389 210.266846 726.919922 211.866699 727.840088 213.386719 C 729.746582 216.453369 731.413086 219.666748 733.06665 222.866699 C 734.733154 226.093262 736.386719 229.293213 738.040039 232.493408 C 739.626465 235.733398 741.026367 239.06665 742.506836 242.34668 C 743.933105 245.666748 745.52002 248.906738 746.759766 252.306885 C 751.853516 265.266846 757.306641 279.306885 760.359863 292.120117 C 761.47998 296.106934 762.679688 300.133301 763.706543 304.213379 C 764.640137 308.333496 765.55957 312.453369 766.47998 316.533447 C 766.919922 318.58667 767.453125 320.600098 767.82666 322.640137 C 768.213379 324.666748 768.586426 326.679932 768.959961 328.693359 C 769.733398 332.693359 770.546387 336.600098 771.399902 340.359863 C 771.213379 337.426514 770.506836 333.146729 769.693359 328.613281 C 769.279785 326.34668 768.853516 324.013428 768.439941 321.746582 C 767.946289 319.493408 767.439941 317.320068 767.040039 315.34668 L 764.34668 303.679932 C 763.640137 300.52002 762.746582 297.453369 761.82666 294.47998 C 761.693359 293.733398 761.493164 292.800049 761.213379 291.640137 C 760.373535 288.813232 759.719727 285.93335 758.733398 283.159912 L 755.919922 274.773438 C 754.959961 271.986816 754.080078 269.173584 753.053223 266.41333 L 749.82666 258.186768 C 748.279785 253.920166 749.080078 254.973389 747.733398 251.173584 C 747.053223 249.240234 746.159668 247.41333 745.386719 245.533447 L 743.666504 241.800049 C 743.506836 241.493408 743.373535 241.213379 743.213379 240.906738 C 739.799805 232.773438 735.226563 224.58667 732.559814 218.240234 C 732.040039 217.266846 731.533203 216.280029 730.946533 215.34668 C 730.186523 213.853516 729.426514 212.34668 728.666504 210.853516 C 726.666504 207.226563 724.599854 203.493408 722.426514 199.746582 C 720.093018 196.106934 717.746582 192.41333 715.399902 188.733398 C 713.119873 185.013428 710.546631 181.493408 708.106689 177.973389 C 706.893066 176.226563 705.693115 174.493408 704.493164 172.746582 C 703.306641 171.026611 702.17334 169.293213 700.93335 167.693359 C 699.466553 165.76001 698.026367 163.840088 696.506592 161.840088 C 694.266602 159.026611 692.186523 156.226563 689.866455 153.626709 C 688.426514 151.986816 687.026367 150.386719 685.58667 148.733398 C 684.079834 146.959961 682.599854 145.226563 681.119873 143.47998 C 681.52002 143.840088 681.693115 143.920166 681.626465 143.733398 L 685.373291 148.06665 C 686.293213 149.293213 687.52002 150.773438 689.040039 152.506836 C 689.786621 153.34668 690.466553 154.106934 691.119873 154.82666 C 691.679932 155.47998 692.226563 156.106934 692.773438 156.733398 L 692.93335 156.973389 C 693.266602 157.386719 693.58667 157.720215 693.906738 158.013428 C 694.213135 158.280029 693.879883 157.733398 692.919922 156.41333 L 697 161.600098 L 701.799805 167.706787 C 704.23999 170.840088 706.439941 174.159912 708.759766 177.359863 C 710.346436 179.573486 711.919922 181.786865 713.493164 183.973389 C 716.599854 188.733398 719.58667 193.280029 722.106689 196.773438 L 722.226563 196.920166 L 722.533203 197.626709 C 723.186523 198.653564 723.826416 199.666748 724.399902 200.733398 C 725.639893 202.906738 726.813232 204.880127 727.946533 206.679932 L 731.133301 212.093262 C 732.199951 213.893311 733.293213 215.693359 734.23999 217.560059 C 734.186523 217.293213 734.159912 217.093262 734.159912 216.946777 C 733.533203 215.560059 732.759766 214.186768 731.973389 212.76001 C 731.866455 212.41333 731.93335 212.359863 732.119873 212.52002 C 732.826416 213.853516 733.58667 215.159912 734.186523 216.493408 C 735.973389 220.106934 737.853271 223.626709 739.679932 227.199951 C 740.906738 229.613281 742.17334 231.893311 743.213379 234.186768 C 743.919922 235.493408 744.42627 236.306885 744.706543 236.613281 C 745.159668 237.58667 745.586426 238.440186 746 239.173584 C 746.013184 239 746.040039 238.866699 746.080078 238.76001 C 745.333008 237.013428 744.573242 235.266846 743.812988 233.47998 C 743.253418 231.973389 742.586426 230.453369 741.840088 228.93335 C 741.06665 227.34668 740.320068 225.800049 739.573242 224.253418 C 738 221.080078 736.333252 217.840088 734.639893 214.560059 C 732.786621 211.386719 730.906738 208.159912 729.06665 204.986816 C 727.199951 201.813232 725.493164 198.613281 723.573242 195.666748 L 723.266602 195.280029 L 723.23999 195.226563 L 723.23999 195.226563 L 723.573242 195.666748 L 720.52002 190.199951 C 719.266602 188.106934 718.079834 186.293213 716.959717 184.733398 L 717.093018 184.853516 L 716.879883 184.47998 L 717.159912 184.920166 C 718.373291 186.666748 719.559814 188.373535 720.719971 190.053467 C 722.786621 193.359863 724.919922 196.453369 726.786621 199.600098 C 728.626465 202.693359 730.439941 205.746582 732.23999 208.76001 C 735.946533 214.640137 738.93335 220.560059 742.159668 226.266846 C 742.946289 228.040283 743.946289 229.840088 744.879883 231.840088 L 744.866699 231.880127 C 745.853516 234.159912 746.839844 236.293213 747.82666 238.306885 L 750.413086 243.746582 C 760.359863 267.266846 768.013184 291.34668 773.82666 315.080078 C 774.279785 316.333496 774.386719 316.146729 774.146484 314.493408 C 772.226563 303.146729 768.093262 289.133301 764.42627 277.293213 L 764.413086 277.266846 C 764.493164 277.47998 764.55957 277.693359 764.640137 277.946777 C 765.213379 279.786865 765.879883 281.626709 766.439941 283.493408 C 766.986816 285.359863 767.533203 287.240234 768.093262 289.133301 C 771.573242 300.159912 774.213379 312.186768 776.706543 323.226563 C 777.600098 327.426514 778.42627 332.199951 779.253418 336.906738 C 780.053223 341.613281 780.506836 346.320068 781.266602 350.333496 C 781.34668 350.213379 781.42627 350.120117 781.506836 350.040283 C 781.146484 346.773438 780.773438 343.47998 780.399902 340.146729 C 779.959961 336.786865 779.292969 333.41333 778.733398 330"/>
</svg>
