<?xml version="1.0" encoding="UTF-8"?>
<!-- Generated by Pixelmator Pro 3.4.3 -->
<svg width="819" height="786" viewBox="0 0 819 786" xmlns="http://www.w3.org/2000/svg">
    <path id="path124-copy" fill="#48aa55" stroke="none" d="M 761.679932 470.813232 C 761.422607 471.959961 761.165283 473.120117 760.909302 474.266846 C 759.702637 480.199951 758.124023 485.679932 756.8479 490.93335 C 756.090698 493.866699 755.263916 496.560059 754.517334 499.266846 C 753.910645 501.213379 753.366699 503.186768 752.726685 505.133301 L 752.654663 505.653564 C 752.246704 506.906738 751.84668 508.146729 751.426636 509.440186 C 750.933289 510.920166 750.417297 512.47998 749.905334 514.013428 C 749.833313 514.026611 749.601257 514.493164 749.197327 515.440186 C 747.722656 519.053467 745.721313 523.959961 743.151978 530.266602 L 741.288025 534.613281 C 741.613342 533.65332 741.218689 534.34668 739.975952 537.013428 C 738.960022 539.359863 737.783936 541.800049 736.523987 544.34668 C 735.286621 546.920166 733.990662 549.613281 732.619934 552.453369 C 730.410645 556.82666 729.019958 559.706787 728.359985 561.240234 C 728.233337 561.773438 728.841309 560.879883 730.2146 558.533447 L 732.09729 555.040039 C 731.76532 555.746582 731.426697 556.466797 731.137268 557.080078 C 730.797302 557.93335 731.039978 557.65332 731.723999 556.546631 L 729.580017 560.47998 C 728.91864 561.76001 728.289307 563.053467 727.602661 564.320068 L 725.493347 568.093262 C 725.502625 568.106934 725.475952 568.173584 725.482666 568.186768 L 724.2453 570.34668 C 723.193359 572.159912 722.177307 573.986816 721.096008 575.773438 C 721.139954 575.679932 721.115967 575.693359 721.138672 575.640137 C 722.588013 573.120117 724.034607 570.613281 725.486633 568.106934 C 727.486633 564.400146 727.509277 564.120117 725.198669 567.879883 C 723.774658 570.280029 722.302673 572.773438 720.76532 575.373535 C 719.150635 577.946777 717.466614 580.640137 715.697327 583.466797 C 715.697327 583.466797 715.872009 583.226563 716.083984 582.920166 C 715.550598 583.733398 715.019958 584.546631 714.424011 585.453369 C 712.862671 587.813232 711.25061 590.053467 709.755981 592.240234 C 708.221313 594.41333 706.861328 596.58667 705.374634 598.52002 C 704.007996 600.386719 702.710632 602.173584 701.469299 603.879883 C 701.154663 604.199951 700.84259 604.52002 700.527954 604.840088 C 700.427979 604.946777 700.329346 605.053467 700.229309 605.146729 C 701.449341 603.47998 702.632019 601.82666 703.797302 600.253418 C 706.416016 596.773438 708.580017 593.306885 710.602661 590.266602 C 711.561279 588.786865 712.483948 587.373535 713.361328 586.026611 C 714.167969 584.666748 714.930664 583.373535 715.643982 582.173584 C 717.039978 579.786865 718.175964 577.813232 718.947937 576.386719 C 719.246643 575.65332 718.470642 576.626709 716.569336 579.41333 C 715.078613 581.666748 713.563965 584.213379 711.810669 586.733398 C 710.067932 589.253418 708.266663 591.866699 706.496033 594.440186 C 704.766663 597.026611 702.822632 599.400146 701.133301 601.693359 C 699.390686 603.93335 697.857361 606.080078 696.369324 607.786865 L 693.666626 611.133301 C 692.729309 612.199951 691.747986 613.373291 690.746643 614.58667 C 688.838623 616.400146 686.917297 618.213379 684.961304 620 C 685.598694 619.253418 686.124023 618.600098 686.493347 618.06665 C 686.890686 617.47998 685.749329 618.666748 683.069336 621.613281 L 684.17865 620.146729 C 683.353271 621.106689 682.485352 622.013428 681.649353 622.959961 C 673.773254 630.013428 665.529358 636.866699 656.796021 643.47998 C 641.449341 655.333496 624.201294 666.306641 606.247986 675.973389 C 597.244019 680.773438 588.058655 685.226807 578.83728 689.333496 C 576.523987 690.333496 574.217285 691.34668 571.916016 692.34668 C 569.59729 693.280029 567.285339 694.199951 564.981323 695.133301 C 560.406616 697.053467 555.746643 698.666748 551.187988 700.373291 C 536.139954 705.41333 519.917297 709.946777 503.11731 713.506592 C 486.322632 717.080078 468.957336 719.693359 451.746643 721.17334 C 421.149353 723.786865 389.927979 723.213379 359.469299 719.426758 C 329.001282 715.679932 299.359985 708.493408 271.889282 698.640137 C 269.361328 697.720215 266.814697 696.786865 264.244019 695.853516 C 261.686646 694.853516 259.107971 693.840088 256.50531 692.813232 C 255.201294 692.306641 253.891968 691.800049 252.578674 691.280029 C 251.280029 690.733398 249.977356 690.186768 248.670654 689.626709 C 246.057312 688.52002 243.426636 687.41333 240.781311 686.293457 C 229.293304 681.160156 218.045319 675.493408 207.06131 669.280029 C 193.686646 661.613281 180.866669 653.053467 168.677338 643.666748 C 166.529327 642.080078 164.473328 640.386719 162.365326 638.746582 C 160.274658 637.093506 158.149353 635.47998 156.139984 633.720215 C 143.127991 622.693359 130.934662 610.706787 119.691986 597.893311 L 120.807983 599.333496 C 118.987976 597.213379 117.099976 595.159912 115.333313 593 L 110.044006 586.493164 C 80.527985 549.946777 58.467987 507.253418 46.737335 461.906738 C 42.690643 446.34668 39.901337 430.453369 38.378662 414.466797 C 38.710663 412.746582 39.040009 411.026611 39.355988 409.293213 C 40.083984 405.959961 40.814667 402.613281 41.545349 399.253418 L 42.649353 394.226563 L 43.895996 389.199951 C 44.81601 385.47998 45.733337 381.773438 46.650635 378.06665 C 47.558655 374.359863 48.664001 370.706787 49.661316 367.013428 C 50.421326 364.293213 51.17868 361.573486 51.937317 358.866699 C 52.725311 356.159912 53.600006 353.47998 54.425323 350.800049 C 56.11731 345.426514 57.701324 340.026611 59.614685 334.706787 C 60.838654 331.133301 62.053314 327.573486 63.258636 324.053467 C 64.462646 320.52002 65.839996 317.093262 67.098663 313.640137 C 70.329315 304.813232 73.837341 296.013428 77.621307 287.253418 C 78.225311 286.280029 78.814667 285.333496 79.426666 284.359863 C 81.044006 281.76001 82.623993 279.080078 84.465332 276.47998 C 86.227997 273.866699 87.97467 271.280029 89.721313 268.693359 L 93.278656 263.41333 L 97.054657 258.266846 L 104.614685 247.986816 L 112.578674 238.013428 L 116.565308 233.026611 C 117.914673 231.373535 119.341339 229.800049 120.725311 228.173584 C 127.146667 219.866699 144.654633 201.053467 159.634644 186.800049 C 163.383972 183.253418 166.898651 179.93335 169.96933 177.026611 C 173.019989 174.213379 175.615997 171.82666 177.623993 169.973389 C 181.445343 166.386719 182.333313 165.253418 178.32132 168.226563 C 176.095978 170.093262 172.923981 172.666748 168.880005 176.320068 L 168.216003 176.93335 L 168.353302 176.773438 C 173.078674 172.453369 177.56665 168.613281 181.47467 164.986816 C 185.47467 161.34668 189.527985 158.053467 193.32132 154.786865 C 200.936005 148.306885 207.975983 142.946777 214.038666 138.080078 C 220.170654 133.293213 225.575989 129.320068 230.137329 125.82666 C 239.386658 119.053467 245.513306 114.560059 249.283997 111.800049 C 256.774658 106.426514 254.202637 107.840088 247.029297 112.213379 C 233.671997 122.093262 223.082672 130.06665 206.090637 143.573486 C 200.698639 147.82666 196.447998 151.506836 193.174652 154.400146 C 192.216003 155.266846 191.76532 155.706787 191.56665 155.946777 L 188.055969 158.679932 C 185.342651 160.853516 182.718628 163.173584 180.085297 165.506836 C 177.455963 167.840088 174.81601 170.173584 172.150635 172.546631 C 169.901337 174.546631 168.182678 176.280029 166.803986 177.640137 C 166.803986 177.640137 166.82132 177.600098 166.809326 177.600098 L 167.859985 176.573486 C 164.478668 179.640137 161.063995 182.800049 157.62265 186.053467 C 158.245331 185.440186 158.874664 184.82666 159.491974 184.213379 C 157.646667 185.893311 155.759979 187.47998 154.009338 189.186768 L 144.613342 198.546631 C 145.902649 197.173584 147.083984 195.920166 148.133331 194.813232 C 149.662659 193.120117 150.789307 191.840088 151.398651 191.053467 C 151.703979 190.693359 152.034668 190.293213 152.378662 189.880127 L 155.109344 187.173584 L 155.812012 186.440186 C 158.833313 183.600098 161.809326 180.786865 164.733337 178.040283 C 166.041321 176.813232 167.38266 175.52002 168.766663 174.146729 C 169.869324 173.06665 169.679993 173.146729 168.314667 174.34668 C 169.274658 173.440186 170.299988 172.58667 171.294647 171.706787 C 173.629333 169.600098 175.957306 167.493408 178.286652 165.386719 L 178.595978 165.106934 C 178.695984 165.026611 178.735992 165 178.841339 164.906738 C 183.219971 161.146729 186.945343 157.946777 190.5 154.893311 C 194.098663 151.920166 197.627991 148.82666 201.229309 145.959961 C 215.786652 134.226563 223.901337 127.880127 232.276001 121.280029 C 239.641357 115.640137 246.458618 110.226563 253.657288 104.986816 C 257.242676 102.34668 260.829346 99.626709 264.616028 96.920166 C 268.441345 94.213379 272.362671 91.426514 276.453308 88.52002 C 280.553284 85.679932 284.873291 82.706787 289.497314 79.600098 C 294.660034 77.959961 299.855957 76.426514 305.082642 75 C 318.432007 71.613281 331.85199 68.466797 345.296021 66.453369 C 354.143982 64.880127 363.083984 64.040283 372.006653 63.106934 L 385.430664 62.226563 C 389.906616 61.959961 394.390686 62.013428 398.870605 61.893311 C 400.838684 61.880127 402.806641 61.800049 404.774658 61.82666 L 410.671997 62.013428 C 414.603943 62.173584 418.538635 62.199951 422.467957 62.453369 L 434.25061 63.34668 L 446.001282 64.640137 C 457.288025 66.173584 468.570618 67.880127 479.691956 70.426514 C 496.047974 74.053467 512.164001 78.773438 527.897339 84.533447 C 548.744019 92.053467 568.874634 101.613281 587.739929 112.146729 C 602.062683 120.293213 615.854675 129.373535 628.963989 139.320068 C 651.872009 156.813232 673.050598 177.600098 689.298645 197.58667 C 696.773254 206.986816 703.847961 216.720215 710.098694 226.93335 C 716.366638 237.120117 722.238647 247.573486 727.111938 258.453369 C 728.441345 261.133301 729.523987 263.906738 730.691956 266.640137 C 731.84668 269.386719 733.033325 272.106934 734.058655 275.013428 L 740.426697 292.213379 L 746.069336 309.626709 C 747.833313 315.453369 749.341309 321.34668 750.996033 327.213379 C 757.090698 350.76001 761.179932 374.76001 762.962646 398.920166 C 764.744019 422.840088 764.251953 446.906738 761.679932 470.813232 Z M 675.890686 669.080078 C 667.065369 677.040039 657.621338 684.41333 647.738647 691.253418 C 650.114624 689.41333 652.478638 687.560059 654.80127 685.666748 C 665.373291 676.986816 675.641296 668.013428 685.12262 658.386719 L 688.717285 654.82666 L 692.181274 651.146729 C 694.475952 648.693359 696.76532 646.23999 699.049316 643.800049 C 699.454651 643.320068 699.863953 642.853516 700.271973 642.386719 C 698.461304 644.679932 696.969299 646.560059 696.075928 647.733398 C 699.174622 644.546631 702.955994 639.906738 706.67865 634.973389 C 707.291992 634.253418 707.907959 633.533447 708.511963 632.800049 C 699.057312 645.866699 688.055969 658.013428 675.890686 669.080078 Z M 578.932007 705.160156 C 578.682678 705.266602 578.434631 705.373291 578.185303 705.47998 C 578.437256 705.34668 578.687988 705.199951 578.941345 705.06665 L 580.090698 704.439941 C 580.34668 704.333496 580.601257 704.226807 580.857361 704.120117 C 580.216003 704.466797 579.574646 704.813232 578.932007 705.160156 Z M 576.523987 705.613281 L 572.802673 707.120117 C 570.573303 708 568.354675 708.866699 566.135986 709.746582 L 565.557312 709.959961 L 573.483948 706.813232 L 576.687988 705.533447 C 576.633301 705.560059 576.578613 705.58667 576.523987 705.613281 Z M 539.909302 716.160156 C 534.169312 717.786865 528.593323 719.58667 523.011963 720.959961 C 520.437256 721.626709 517.85199 722.293457 515.254639 722.959961 C 516.103943 722.733398 516.967957 722.506592 517.799988 722.280029 C 521.735962 721.186768 523.694641 720.58667 524.083984 720.373291 C 527.053284 719.693359 530.073303 718.853516 533.177307 717.973389 C 536.273315 717.06665 539.496033 716.280029 542.717285 715.199951 C 544.813354 714.533447 546.897339 713.879883 548.989319 713.213379 C 545.965332 714.186768 542.93866 715.17334 539.909302 716.160156 Z M 532.171997 721.026855 L 531.735962 721.266602 C 529.690674 721.82666 527.635986 722.360107 525.547974 722.840088 C 521.885315 723.679932 518.094666 724.666748 514.03064 725.52002 C 509.957336 726.333496 505.681274 727.333496 501.055969 728.186768 C 497.119995 728.893311 493.145264 729.679932 489.105347 730.360107 C 485.053284 730.986816 480.961304 731.613281 476.828003 732.253418 C 477.523987 732.17334 478.225281 732.040039 478.919983 731.920166 C 484.399963 731.013428 489.932007 730.253418 495.395996 729.146729 C 508.294617 726.800049 518.195984 724.493408 529.632019 721.560059 C 532.058655 720.866699 534.527954 720.160156 536.998657 719.466797 C 535.389282 719.986816 533.771973 720.506592 532.171997 721.026855 Z M 523.26001 730.840088 L 522.717285 731.080078 C 518.93866 732.546631 514.937256 733.746582 510.877319 735.17334 C 506.822632 736.613281 502.559998 737.853516 498.18396 739.226807 C 500.442627 738.506592 502.673279 737.800049 504.833313 737.106689 C 508.070618 735.973389 508.744019 735.493408 506.924011 735.986816 C 504.25061 736.773438 501.589294 737.560059 498.919983 738.34668 C 495.559998 739.386719 492.211975 740.426758 488.811951 741.306641 C 485.357361 742.253418 482.007996 743.186768 478.749329 744.079956 C 475.481323 744.893433 472.306641 745.680054 469.208008 746.453491 L 465.261292 747.41333 L 461.288025 748.23999 L 453.339966 749.893433 C 448.029358 750.946655 442.68396 751.786743 437.354675 752.733398 C 435.390686 753.053467 434.174683 753.266724 433.650635 753.386719 C 433.317322 753.360107 432.981323 753.333374 432.650635 753.306641 C 429.627991 753.093384 426.627991 752.880005 423.671997 752.666748 C 411.862671 751.813354 400.791992 751.079956 392.063965 750.680054 C 394.077332 750.893433 396.090698 751.120117 398.109314 751.333374 C 408.127991 752.120117 418.246643 752.853394 428.381287 753.560059 C 430.103943 753.680054 431.771973 753.800049 433.416016 753.920044 L 431.618652 754.160034 C 427.009277 753.839966 422.398682 753.520142 417.782654 753.200073 C 406.069336 752.386719 394.380005 751.506714 382.708008 750.533325 C 359.38269 748.546631 336.137268 746.226685 313.195984 742.893311 C 301.705322 741.306641 290.332031 739.320068 279.007996 737.23999 C 273.385315 736.06665 267.716003 735.06665 262.145325 733.746582 L 253.76532 731.879883 L 245.455994 729.82666 C 228.345337 725.600098 211.558655 720.47998 195.144012 714.226807 C 194.38797 713.813232 193.605316 713.373291 192.817291 712.920166 C 202.027985 716.453369 211.581329 719.693359 222.034668 723.026855 C 237.538666 727.773438 253.410645 731.706787 269.43335 735.013428 C 252.802673 731.306641 236.347992 726.920166 220.350647 721.666748 C 217.708008 720.840088 214.957306 719.893311 212.06665 718.866699 C 209.17868 717.840088 206.097321 716.879883 202.923981 715.693359 C 201.327972 715.120117 199.737335 714.546631 198.14801 713.959961 L 193.094635 711.013428 C 188.366669 708.333496 183.721313 705.506592 179.063995 702.693359 L 172.221313 698.253418 C 169.934662 696.786865 167.644012 695.320068 165.444 693.720215 C 162.661316 691.920166 162.919983 692.23999 166.230652 694.706787 C 168.302673 696.280029 170.638672 697.706787 173.029327 699.320068 C 175.450653 700.879883 177.946655 702.613281 180.679993 704.266602 C 186.195984 707.47998 191.048004 710.506592 195.534668 712.746582 C 196.398651 713.146729 197.266663 713.546631 198.133331 713.946777 C 194.634644 712.65332 191.159973 711.320068 187.719971 709.93335 C 184.813324 708.186768 181.911987 706.453369 178.970673 704.693359 C 178.436005 704.320068 177.82132 703.906738 177.106659 703.41333 C 172.17868 700.093506 167.109344 696.946777 162.221313 693.493408 L 163.730652 694.600098 C 160.367981 692.17334 156.910675 689.946777 153.68396 687.439941 C 151.263977 685.600098 148.850647 683.773438 146.453308 681.959961 C 144.033325 680.186768 141.791992 678.213379 139.482666 676.373291 C 128.717316 667.786865 118.881348 658.400146 121.769318 661.706787 C 120.154633 660.400146 116.679993 657.34668 112.473328 653.186768 C 110.40799 651.053467 108.129333 648.706787 105.731995 646.23999 C 103.313324 643.786865 101.010681 641 98.580017 638.320068 C 97.385315 636.959961 96.159973 635.626709 95 634.266602 C 93.86264 632.879883 92.738678 631.506592 91.637329 630.160156 C 89.465332 627.453369 87.237335 624.973389 85.453308 622.533447 C 81.818634 617.706787 78.725311 614 77.303986 612.133301 C 74.41333 607.879883 71.312012 603.76001 68.64801 599.373535 L 64.514679 592.866699 C 63.158661 590.679932 61.933319 588.426514 60.634674 586.213379 L 57.635986 581.400146 C 56.175995 578.533447 54.558655 575.359863 52.742676 571.800049 C 51.276001 569.093262 50.086639 566.266602 48.785309 563.493164 C 47.540009 560.693359 46.137329 557.959961 45.054657 555.093262 C 43.889313 552.253418 42.761322 549.493164 41.662659 546.813232 C 40.571991 544.120117 39.710663 541.453369 38.753326 538.906738 C 36.587982 533.493164 34.991974 527.893311 33.181335 522.373535 C 32.749329 520.786865 32.409332 518.853516 31.870667 516.546631 C 31.677338 515.679932 31.471985 514.800049 31.269318 513.93335 L 31.191986 513.133301 C 31.040009 511.546631 31.023987 509.93335 30.933319 508.320068 C 30.783966 505.106934 30.635986 501.893311 30.486633 498.666748 C 30.410675 495.426514 30.477325 492.159912 30.465332 488.906738 C 30.453308 488.333496 30.471985 487.76001 30.470673 487.199951 C 34.625305 500.013428 39.527985 512.573486 45.129333 524.813232 C 46.40799 527.613281 47.778656 530.306885 49.055969 532.959961 C 49.702667 534.293213 50.342682 535.58667 50.971985 536.879883 C 51.644012 538.133301 52.305328 539.386719 52.957306 540.600098 C 54.261322 543.040039 55.519989 545.386719 56.722656 547.626709 C 58.002655 549.813232 59.222656 551.893311 60.376007 553.866699 C 62.634674 557.813232 64.808014 561.133301 66.573334 563.800049 C 68.347992 566.466797 69.682678 568.506836 70.659973 569.666748 C 65.730652 561.47998 59.496002 551.199951 53.769318 539.840088 C 47.985321 528.52002 42.365326 516.320068 38.029327 504.720215 C 37.164001 502.640137 36.458649 500.47998 35.681335 498.359863 C 47.35733 529.026611 62.733337 558.453369 81.88266 585.320068 C 84.694641 589.199951 87.813324 592.840088 90.781342 596.58667 C 90.934662 596.82666 91.080017 597.06665 91.243988 597.333496 C 108.46933 619.666748 130.458649 641.93335 155.830658 661.146729 C 181.486633 680.840088 210.127991 697.053467 239.880005 709.560059 C 269.649353 722.053467 300.536011 730.920166 331.011963 736.186768 C 351.77594 739.720215 372.17865 742.320068 393.088013 743.213379 L 398.460022 743.466675 L 403.834595 743.586792 C 407.417297 743.613281 411.001282 743.773315 414.589294 743.706665 C 418.157349 743.666748 421.716003 743.626709 425.27063 743.586792 L 435.914612 743.146606 C 441.399963 742.920166 446.749329 742.41333 452.032043 742.040039 C 453.349304 741.93335 454.942627 741.786865 457.151978 741.600098 L 455.273315 741.906738 L 464.283936 740.973389 C 467.283936 740.626709 470.271973 740.186768 473.263977 739.800049 L 472.078613 739.986816 C 479.302673 739.026855 481.227966 738.573242 477.922607 738.959961 C 480.430664 738.546631 482.922607 738.146729 485.449341 737.733398 C 490.386658 736.986816 495.285339 736.026855 500.138672 735.06665 C 505.007996 734.186768 509.767944 732.986816 514.473267 731.93335 C 516.722656 731.439941 518.75061 730.906738 520.677307 730.373291 C 520.59198 730.439941 522.067932 730.120117 525.273315 729.34668 L 530.354675 728.040039 C 527.902649 729.013428 525.526672 729.920166 523.26001 730.840088 Z M 450.634644 751.106689 C 446.385315 751.839966 442.126648 752.573364 437.861328 753.306641 L 436.027954 753.560059 C 435.509277 753.520142 434.996033 753.47998 434.477356 753.440063 C 434.939941 753.400024 435.538635 753.34668 436.281311 753.266724 C 439.119995 752.920044 442.078613 752.386719 445.205322 751.906738 C 448.32666 751.400024 451.618652 750.93335 455.038635 750.186768 C 457.797302 749.626709 460.539978 749.066772 463.27594 748.506714 C 459.073303 749.373413 454.869324 750.293457 450.634644 751.106689 Z M 117.874664 659.453369 C 113.581329 655.466797 109.537323 651.17334 105.462646 646.973389 C 103.327972 644.840088 101.411987 642.533447 99.393311 640.320068 C 97.426636 638.06665 95.34668 635.920166 93.487976 633.613281 C 89.717316 629.026855 85.880005 624.560059 82.431976 619.893311 C 81.15332 618.226807 79.880005 616.560059 78.606659 614.906738 C 77.350647 613.23999 76.193329 611.506592 74.981354 609.800049 C 72.580017 606.400146 70.137329 603.013428 67.934662 599.440186 C 66.529327 597.240234 65.119965 595.026611 63.70932 592.813232 C 62.35733 590.573486 61.074677 588.280029 59.750641 586.013428 L 58.895996 584.34668 C 60.014679 586.293213 61.127991 588.186768 62.253326 590.040039 C 62.695984 590.76001 62.773346 590.853516 62.67334 590.626709 C 63.827972 592.773438 65.221313 594.786865 66.483978 596.879883 C 70.527985 603.52002 74.841339 609.493408 78.838654 615.026855 L 86.675995 625.280029 L 94.91333 635.199951 C 98.263977 638.920166 101.510681 642.733398 104.987976 646.426758 C 107.203979 648.720215 109.405334 651.013428 111.606659 653.293457 C 113.77066 655.613281 116.15332 657.720215 118.427979 659.946777 C 120.558655 661.959961 122.580017 664.040039 124.791992 665.93335 C 122.381348 663.879883 120.182678 661.600098 117.874664 659.453369 Z M 33.370667 523.106934 L 36.03598 532.213379 C 36.926666 535.253418 38.070648 538.199951 39.071991 541.199951 C 39.071991 541.199951 39.759979 543.146729 40.446686 545.093262 C 40.77066 546.06665 41.210663 547 41.489319 547.720215 C 41.781342 548.440186 41.977325 548.920166 41.977325 548.920166 L 45.009338 556.52002 C 46.041321 559.053467 47.27066 561.52002 48.389313 564.013428 C 49.56665 566.493164 50.598663 569.040039 51.914673 571.453369 L 54.929321 577.280029 C 53.661316 574.840088 52.395996 572.41333 51.137329 570 C 49.914673 567.47998 48.785309 564.973389 47.623993 562.506836 C 46.478668 560.040039 45.289307 557.640137 44.332001 555.186768 C 42.914673 551.693359 41.389313 548.253418 40.053314 544.733398 C 38.777344 541.199951 37.498657 537.65332 36.216003 534.093262 C 35.509338 531.800049 34.793304 529.47998 34.059998 527.093262 C 33.376007 524.693359 32.498657 522.293213 31.923981 519.733398 C 31.876007 519.533447 31.832001 519.359863 31.783966 519.159912 C 31.768005 518.986816 31.751984 518.82666 31.73465 518.65332 C 31.86264 519.159912 31.997314 519.679932 32.114685 520.133301 C 32.951965 523.280029 33.813324 525.533447 34.214661 526.613281 C 34.055969 525.840088 33.77066 524.65332 33.370667 523.106934 Z M 52.718658 640.466797 C 51.772003 639.266602 51.129333 638.47998 50.858643 638.226807 C 50.235992 637.34668 49.619965 636.47998 48.993317 635.600098 C 36.905334 618.160156 27.810669 599.466797 21.440002 581.333496 C 21.181335 580.93335 20.65332 579.706787 19.927979 577.853516 C 19.82132 577.493164 19.745331 577.226563 19.626648 576.82666 C 19.283966 575.600098 18.613342 572.306885 17.402649 567.679932 C 16.803986 565.333496 16.126648 562.679932 15.383972 559.773438 C 14.790649 556.800049 14.146667 553.573486 13.465332 550.173584 C 13.905334 552.159912 14.34668 554.146729 14.791992 556.159912 C 15.248016 558.173584 15.626648 560.226563 16.253326 562.226563 C 17.394653 566.293213 18.549347 570.386719 19.716003 574.533447 C 21.055969 578.640137 22.567993 582.746582 24.001312 586.906738 L 25.094666 590.026611 L 26.403992 593.080078 C 27.278656 595.120117 28.155975 597.173584 29.03598 599.226563 C 29.942657 601.266602 30.73999 603.359863 31.741333 605.359863 L 34.834656 611.34668 L 37.93866 617.34668 C 38.431976 618.360107 39 619.320068 39.609344 620.280029 L 41.380005 623.146729 C 42.562653 625.053467 43.745331 626.959961 44.925323 628.866699 C 46.110657 630.773438 47.243988 632.706787 48.600006 634.47998 C 49.906677 636.293457 51.20932 638.093506 52.506653 639.893311 C 53.79599 641.706787 55.089325 643.493408 56.521301 645.160156 C 54.889313 643.320068 53.661316 641.679932 52.718658 640.466797 Z M 82.545349 276.213379 C 85.398651 271.906738 88.254639 267.600098 91.14267 263.240234 C 94.376007 258.600098 97.806671 254.013428 101.23465 249.266846 C 103.274658 246.359863 105.538666 243.640137 107.721313 240.866699 C 109.916016 238.106934 112.110657 235.333496 114.317322 232.560059 C 118.664001 227.293213 123.09198 222.306885 127.381348 217.253418 C 131.73465 212.493408 135.818634 208.026611 139.745331 203.733398 C 140.463989 202.93335 141.053314 202.280029 141.721313 201.546631 L 141.727997 201.946777 L 142.550629 201.106934 C 145.261322 198.52002 147.951965 195.880127 150.62265 193.173584 L 149.253296 194.679932 L 153.854645 190.359863 C 153.399994 190.853516 152.973328 191.306885 152.657318 191.653564 C 149.613342 194.693359 146.583984 197.733398 143.581329 200.746582 C 139.526642 204.893311 136.040009 208.853516 132.782684 212.400146 L 131.949341 213.493408 C 131.833313 213.600098 131.741333 213.679932 131.61731 213.800049 C 130.708008 214.733398 129.763977 215.693359 128.782684 216.693359 C 127.833313 217.76001 126.847992 218.853516 125.82132 220 C 123.755981 222.320068 121.527985 224.82666 119.106659 227.546631 C 117.883972 228.959961 116.625305 230.34668 115.417297 231.773438 C 114.23465 233.240234 113.046661 234.706787 111.850647 236.186768 C 109.461304 239.146729 107.045349 242.146729 104.587982 245.186768 C 100.510681 250.466797 96.675995 255.853516 92.766663 261.106934 C 89.249329 266.146729 85.909332 271.240234 82.527985 276.253418 C 82.533325 276.240234 82.540009 276.226563 82.545349 276.213379 Z M 194.159973 144.706787 C 196.970673 142.266846 199.339996 140.386719 201 138.920166 C 210.119965 131.306885 219.255981 124.266846 227.490631 117.82666 C 235.866669 111.573486 243.278687 105.840088 249.389282 101.426514 C 261.478638 92.41333 267.690674 87.76001 262.605347 90.159912 C 260.341309 91.253418 258.753296 91.746582 260.257324 90.146729 C 266.181335 87.746582 272.167969 85.493408 278.201294 83.386719 C 272.473328 87.320068 265.359985 92.213379 257.338684 97.733398 C 239.955994 109.640137 219.001312 124.959961 202.377319 138.386719 L 197.007996 142.640137 C 197.007996 142.640137 195.67334 143.693359 194.32666 144.840088 C 192.970673 145.986816 191.558655 147.173584 191.338654 147.359863 C 189.666656 148.626709 190.781342 147.600098 194.159973 144.706787 Z M 218.827972 112.026611 C 218.233307 112.506836 217.718628 112.93335 217.170654 113.373535 C 216.447998 113.906738 215.748016 114.426514 214.986633 114.986816 C 216.222656 114.040283 217.5 113.053467 218.827972 112.026611 Z M 376.76001 39.306885 L 380.394653 38.626709 C 381.611938 38.426514 382.839966 38.293213 384.06665 38.133301 C 388.975952 37.506836 393.91333 36.866699 398.885315 36.240234 L 400.752014 36 L 402.630676 35.880127 L 406.399963 35.626709 C 408.916016 35.466797 411.44397 35.306885 413.981323 35.133301 C 416.518677 35 419.065369 34.746582 421.626648 34.693359 C 424.186646 34.693359 426.758667 34.693359 429.342651 34.693359 L 440.2547 34.653564 C 443.883972 34.800049 447.507996 35.093262 451.146667 35.293213 C 454.734619 35.546631 458.32666 35.679932 461.893311 36.013428 C 465.445313 36.466797 468.997314 36.920166 472.557312 37.386719 C 481.149353 38.213379 489.534607 40.213379 497.949341 41.773438 C 500.063965 42.120117 502.111938 42.746582 504.182678 43.266846 C 506.247986 43.813232 508.310669 44.34668 510.370605 44.880127 C 514.485352 45.973389 518.629333 46.920166 522.61731 48.34668 C 527.041321 49.773438 531.393311 51.186768 535.721313 52.58667 C 539.991943 54.146729 544.17865 55.880127 548.419983 57.506836 C 553.942627 59.506836 559.223999 62.146729 564.625305 64.626709 C 567.274658 65.906738 569.987976 67.026611 572.57196 68.426514 L 580.32135 72.613281 L 588.026672 76.786865 L 595.494629 81.386719 L 602.946655 85.973389 C 605.411987 87.52002 607.76001 89.266846 610.173279 90.893311 C 614.955994 94.226563 619.796021 97.41333 624.279968 101.026611 C 626.538635 102.76001 628.769287 104.466797 630.970642 106.159912 C 632.07196 107 633.165344 107.82666 634.25061 108.666748 C 635.291992 109.546631 636.325317 110.426514 637.35199 111.293213 C 640.332031 113.813232 643.34259 116.359863 646.395996 118.946777 L 648.690674 120.920166 L 650.902649 123 C 652.385315 124.400146 653.878601 125.813232 655.385315 127.240234 C 657.433289 129.186768 659.496033 131.146729 661.559998 133.106934 C 663.570618 135.120117 665.496033 137.226563 667.458618 139.266846 C 669.473267 141.400146 671.503967 143.533447 673.53595 145.679932 C 675.329346 147.52002 676.945313 149.506836 678.613342 151.453369 C 675.411926 148.320068 672.162659 145.253418 668.863953 142.240234 C 666.138672 139.359863 663.414612 136.466797 660.641296 133.626709 L 649.391968 122.906738 C 652.061279 125.41333 654.706604 127.959961 657.386658 130.47998 C 661.927979 134.573486 665.669312 138.773438 669.314636 142.426514 C 670.155945 143.226563 671.002625 144.026611 671.850647 144.840088 C 672.281311 145.173584 672.807983 145.613281 673.430664 146.159912 C 669.338623 141.82666 665.314636 137.440186 661.175964 133.159912 C 657.274658 129.306885 653.255981 125.466797 649.111938 121.640137 C 644.882629 117.866699 640.53064 114.226563 636.25061 110.52002 C 634.145264 108.613281 631.84259 106.959961 629.615967 105.199951 L 622.894653 100 L 624.410645 101.320068 C 621.507996 99.213379 621.355957 99.240234 624.373291 101.733398 C 626.225281 103.213379 628.185303 104.773438 630.261292 106.426514 C 631.313293 107.266846 632.393311 108.120117 633.503967 109 C 634.596008 109.906738 635.67865 110.880127 636.815979 111.866699 C 640.302673 114.880127 643.789307 117.906738 647.285339 120.920166 C 647.626648 121.240234 647.962646 121.560059 648.302673 121.880127 C 644.141296 118.213379 639.894653 114.626709 635.701294 111 L 637.283936 112.493408 C 634.257324 110.040283 634.146667 110.093262 636.950623 112.666748 C 638.757324 114.253418 640.675964 115.959961 642.713318 117.76001 C 644.738647 119.600098 647.034607 121.386719 649.191956 123.560059 C 653.646667 127.746582 657.659973 131.506836 661.231995 134.866699 C 662.47467 136.146729 663.722656 137.453369 664.967957 138.746582 C 662.274658 136.34668 659.56665 133.986816 656.825317 131.666748 C 647.68396 124.186768 638.465332 116.893311 628.878601 110.320068 C 624.179993 106.906738 619.27063 103.853516 614.501282 100.653564 C 612.09198 99.093262 609.630615 97.640137 607.210632 96.133301 C 604.777344 94.640137 602.386658 93.106934 599.91333 91.733398 C 595.197327 89.159912 590.138672 86.306885 584.550659 83.52002 C 579.029358 80.560059 573.452026 78.026611 568.070618 75.493408 C 564.527954 73.880127 562.089294 72.986816 559.642639 71.973389 C 557.17865 71 554.705322 69.906738 550.857361 68.466797 C 534.577332 61.866699 517.874634 56.320068 500.880005 51.866699 C 480.865356 46.626709 460.446655 42.893311 439.84668 40.786865 C 419.253296 38.640137 398.442627 38.386719 377.783997 39.653564 C 376.401306 39.746582 374.998657 39.82666 373.588013 39.906738 C 374.645325 39.706787 375.700012 39.506836 376.76001 39.306885 Z M 750.947937 218.386719 L 750.947937 218.386719 L 750.947937 218.386719 Z M 790.034668 461.813232 C 789.421387 463.946777 788.799927 466.06665 788.074707 468.146729 C 788.746704 466.040283 789.398682 463.93335 790.034668 461.813232 Z M 799.171997 424.253418 C 799.149292 424.373535 799.133301 424.493408 799.110596 424.613281 L 798.144043 430.159912 L 796.873291 435.653564 C 796.029297 439.320068 795.186646 442.986816 794.343994 446.640137 C 793.498657 450.306885 792.302612 453.866699 791.302612 457.466797 C 791.230591 457.706787 791.16272 457.946777 791.093384 458.173584 C 794.333252 446.986816 797.047974 435.666748 799.171997 424.253418 Z M 810.001221 364.959961 C 809.989258 368.693359 810.021362 372.986816 809.905273 374.306885 C 809.897339 369.840088 809.945313 367.52002 810.001221 364.959961 Z M 810.065308 356.040283 C 810.091919 357.306885 810.099976 358.573486 810.058594 359.82666 C 810.058594 359.853516 810.057373 359.893311 810.057373 359.920166 C 810.055908 359.293213 810.055908 358.679932 810.054688 357.946777 C 810.074707 357.306885 810.074707 356.679932 810.065308 356.040283 Z M 815.558594 322.706787 C 812.419922 298.973389 806.654663 274.880127 798.527954 252.053467 C 794.561279 240.600098 789.77063 229.573486 784.797363 218.920166 C 782.139893 213.679932 779.509277 208.493408 776.900024 203.359863 C 774.025269 198.426514 771.178589 193.546631 768.352051 188.693359 C 770.291992 192.466797 772.785278 197.06665 775.609253 202.173584 C 776.341309 203.426514 777.014648 204.773438 777.670654 206.146729 C 778.34668 207.52002 779.033325 208.920166 779.733276 210.333496 C 781.139893 213.173584 782.590698 216.106934 784.065308 219.080078 C 785.618652 222.013428 786.83728 225.159912 788.205322 228.240234 C 789.542603 231.320068 790.880005 234.41333 792.196045 237.466797 C 793.589355 240.47998 794.567993 243.600098 795.692017 246.560059 C 796.763916 249.533447 797.802612 252.41333 798.796021 255.159912 C 799.276001 256.52002 799.819946 257.853516 800.249268 259.226563 L 801.507935 263.34668 L 804.025269 271.58667 C 805.83728 277.053467 807.072021 282.679932 808.449341 288.253418 C 808.97998 290.533447 809.505371 292.786865 810.026611 295.040283 C 810.604004 297.280029 810.878662 299.560059 811.325317 301.813232 C 812.16394 306.306885 812.994629 310.746582 813.823975 315.199951 C 814.090698 317.333496 814.303955 320.06665 814.686646 323.493408 C 815.177368 327.693359 815.758667 331.893311 816.17334 336.120117 L 816.950684 348.813232 C 817.070557 350.920166 817.22937 353.040283 817.317261 355.146729 L 817.328003 361.506836 L 817.3479 374.226563 L 816.631958 386.920166 L 816.269287 393.253418 C 816.091919 395.373535 815.802612 397.466797 815.574707 399.573486 L 814.119995 412.199951 C 813.514648 416.400146 812.706665 420.560059 812.009277 424.733398 C 811.42395 427.946777 811.002686 430.120117 810.666626 431.746582 C 810.323975 433.386719 809.950684 434.453369 809.666626 435.493408 C 809.062622 437.573486 808.495972 439.466797 807.126709 445.080078 L 806.114624 449.333496 L 805.608032 451.453369 L 804.986572 453.560059 L 802.494629 461.93335 L 800.869263 467.58667 L 800.053345 470.41333 L 799.091919 473.173584 C 798.776001 474.120117 798.482666 474.986816 798.17334 475.906738 C 792.205322 493.706787 784.319946 511.746582 776.446655 526.693359 C 776.927979 524.573486 777.389282 522.453369 777.783936 520.306885 C 778.021362 519.146729 778.258667 517.986816 778.495972 516.82666 L 780.997314 511.573486 C 781.821289 509.853516 782.637329 508.146729 783.445313 506.440186 C 784.192017 504.720215 784.873291 503 785.577271 501.293213 C 786.961304 497.880127 788.319946 494.546631 789.656006 491.253418 C 791.237305 487.34668 791.869263 484.733398 792.149292 483.640137 C 793.135986 480.800049 793.984009 478.253418 794.693359 476.013428 C 794.475952 476.386719 794.293335 476.653564 794.144043 476.82666 C 793.26001 479.293213 792.364014 481.786865 791.457275 484.320068 C 790.993286 485.573486 790.574707 486.866699 790.06665 488.133301 C 789.539917 489.386719 789.01062 490.653564 788.477295 491.93335 C 786.670654 496.120117 784.833252 500.386719 782.965332 504.720215 C 781.853271 507.120117 780.674683 509.546631 779.482666 511.973389 C 779.511963 511.82666 779.542603 511.679932 779.573242 511.533447 C 779.901245 509.82666 780.267944 508.133301 780.583984 506.453369 C 782.395996 502.560059 784.03064 498.34668 785.843994 493.973389 L 785.898682 493.906738 C 788.734619 487.560059 790.747925 481.320068 792.761353 475.41333 C 793.635986 472.76001 794.641357 470.159912 795.410645 467.47998 L 797.686646 459.440186 C 807.978638 425.426514 812.22937 389.946777 811.417236 355.06665 C 811.142578 350.720215 810.869263 346.373535 810.595947 342.026611 C 810.449341 339.866699 810.338623 337.693359 810.16272 335.52002 L 809.353271 329.06665 C 808.798706 324.773438 808.310669 320.466797 807.699951 316.186768 C 806.903931 311.946777 806.109253 307.693359 805.314575 303.466797 C 804.897339 301.34668 804.563965 299.226563 804.078613 297.133301 L 802.515991 290.880127 C 801.454712 286.720215 800.478638 282.546631 799.350586 278.426514 C 798.073242 274.34668 796.796021 270.266846 795.521362 266.199951 C 794.86792 264.173584 794.28125 262.133301 793.575928 260.133301 L 791.322632 254.173584 C 789.916016 250.786865 789.93457 251.253418 791.394653 255.640137 C 792.038696 257.52002 792.745239 259.41333 793.377319 261.373535 C 793.955933 263.34668 794.539917 265.34668 795.130615 267.359863 C 796.329346 271.41333 797.552002 275.546631 798.796021 279.746582 C 799.822632 284.026611 800.865356 288.359863 801.918701 292.746582 C 802.416016 294.959961 803.060059 297.133301 803.447998 299.386719 C 803.8573 301.626709 804.266602 303.866699 804.675903 306.120117 C 805.089355 308.373535 805.501221 310.626709 805.914673 312.893311 C 806.338623 315.146729 806.771973 317.400146 806.994629 319.693359 C 807.549316 324.240234 808.102661 328.786865 808.651978 333.293213 C 808.982666 335.546631 809.091919 337.813232 809.218628 340.053467 C 809.350586 342.293213 809.481323 344.533447 809.610596 346.746582 C 809.76001 349.34668 809.925293 351.920166 810.017334 354.47998 C 809.955933 352.959961 809.854614 351.440186 809.767944 349.93335 C 809.604004 347.240234 809.441284 344.560059 809.277344 341.866699 C 809.082642 336.453369 808.287964 331.093262 807.614624 325.746582 C 807.364014 323.76001 807.113281 321.773438 806.859985 319.786865 L 806.473267 316.786865 L 805.917236 313.813232 C 805.181274 309.840088 804.439941 305.840088 803.697266 301.840088 C 803.06665 297.800049 801.919922 293.866699 800.989258 289.880127 C 799.974609 285.906738 799.130615 281.893311 797.97998 277.959961 C 796.780029 274.040283 795.579956 270.133301 794.385376 266.240234 C 793.77063 264.293213 793.226685 262.333496 792.557373 260.41333 C 791.850586 258.506836 791.146606 256.613281 790.44397 254.720215 C 789.036011 250.93335 787.635986 247.173584 786.246704 243.440186 C 784.703979 239.76001 783.073242 236.159912 781.507935 232.58667 C 780.280029 229.880127 779.122681 227.053467 777.77063 224.226563 C 776.36792 221.426514 774.938599 218.573486 773.490723 215.693359 C 772.027954 212.800049 770.631958 209.840088 769.08667 206.93335 C 767.467896 204.06665 765.841309 201.186768 764.218628 198.320068 C 762.577271 195.453369 761.025269 192.560059 759.332031 189.786865 C 757.575928 187.040283 755.838623 184.333496 754.133301 181.679932 C 752.418701 179.026611 750.735962 176.440186 749.09198 173.893311 C 747.319946 171.493408 745.59198 169.146729 743.907959 166.853516 C 744.006592 167.146729 744.06665 167.386719 744.088013 167.573486 C 745.378601 169.41333 746.674622 171.253418 747.978638 173.093262 C 749.313293 174.93335 750.432007 176.920166 751.681274 178.840088 C 754.125244 182.706787 756.591919 186.613281 759.078613 190.546631 C 761.364014 194.600098 763.667969 198.693359 765.984009 202.800049 C 767.115967 204.866699 768.355957 206.893311 769.410645 209.013428 C 770.461304 211.133301 771.514648 213.266846 772.569336 215.400146 C 773.626709 217.533447 774.685303 219.679932 775.745239 221.813232 L 777.33728 225.026611 C 777.8573 226.106934 778.293335 227.226563 778.776001 228.320068 C 780.666626 232.720215 782.560059 237.120117 784.454712 241.533447 C 786.297363 245.959961 787.802612 250.52002 789.491943 255 C 790.305298 257.253418 791.157349 259.47998 791.938599 261.733398 C 792.630615 264.026611 793.321289 266.306885 794.01062 268.58667 C 794.701294 270.853516 795.389282 273.133301 796.077271 275.400146 C 796.757324 277.666748 797.497314 279.920166 797.991943 282.226563 C 799.093384 286.800049 800.189331 291.359863 801.277344 295.880127 C 801.877319 298.133301 802.23999 300.41333 802.645264 302.693359 C 803.049316 304.959961 803.452026 307.213379 803.852051 309.466797 C 804.25061 311.706787 804.647949 313.946777 805.043945 316.173584 C 805.425293 318.400146 805.594604 320.653564 805.877319 322.866699 C 806.383911 327.293213 806.883911 331.679932 807.378662 336.013428 C 807.601318 340.34668 807.821289 344.613281 808.037231 348.840088 C 808.139893 350.946777 808.242676 353.026611 808.343994 355.093262 C 808.317261 357.159912 808.290649 359.213379 808.263916 361.253418 C 808.201294 365.293213 808.139893 369.280029 808.079956 373.186768 C 807.941284 376.506836 807.619995 379.93335 807.401245 383.466797 C 807.125244 386.986816 806.995972 390.626709 806.605347 394.320068 C 806.154663 398.013428 805.696045 401.773438 805.230591 405.573486 C 805.001221 407.493408 804.771973 409.41333 804.539917 411.34668 C 804.26001 413.266846 803.871948 415.186768 803.542603 417.120117 C 802.8573 421 802.167969 424.893311 801.477295 428.813232 C 800.771973 432.720215 799.710693 436.560059 798.8479 440.440186 C 798.393311 442.373535 797.939941 444.293213 797.488037 446.226563 L 796.810669 449.106934 L 795.97998 451.93335 C 794.865356 455.693359 793.761353 459.41333 792.671997 463.093262 C 795.903931 452.026611 799.817261 436.280029 801.565308 425.026611 C 802.045288 422.213379 802.526611 419.400146 803.003906 416.613281 L 803.728027 412.386719 C 803.958618 410.986816 804.065308 409.560059 804.23999 408.146729 C 804.555908 405.320068 804.870605 402.506836 805.182617 399.706787 C 805.42395 397.533447 805.66394 395.373535 805.902588 393.213379 C 806.017334 391.053467 806.131958 388.920166 806.244019 386.800049 C 806.449341 382.560059 806.651978 378.426514 806.8479 374.400146 C 806.737305 366.293213 806.660034 359.533447 806.370605 354.06665 C 806.060059 350.946777 805.805298 348.82666 805.625244 348.040283 C 805.518677 348.159912 805.488037 349.400146 805.527954 351.666748 C 805.290649 348.373535 805.057373 345.146729 804.830688 342 C 804.610596 338.866699 804.416016 335.800049 803.93457 332.866699 C 803.026611 326.373535 802.318604 321.679932 801.818604 318.93335 C 801.817261 319.626709 801.81604 320.320068 801.81604 321.026611 C 802.113281 323.893311 802.432007 326.946777 802.774658 330.240234 C 802.957275 331.906738 803.147949 333.640137 803.345337 335.426514 C 803.563965 337.213379 803.56665 339.093262 803.69873 341.040283 C 805.234619 363.173584 804.610596 385.720215 801.703979 407.93335 C 801.94397 405.706787 802.16272 403.533447 802.393311 401.453369 C 802.722656 398.013428 803.131958 394.786865 803.312012 391.76001 C 803.314575 389.199951 803.237305 388.546631 803.101318 389.266846 C 802.925293 389.973389 802.871948 392.053467 802.409302 394.920166 C 802.024048 397.840088 801.54126 401.493408 801.024048 405.41333 C 800.769287 407.400146 800.506592 409.440186 800.244019 411.47998 C 799.865356 413.493408 799.488037 415.52002 799.121338 417.47998 C 799.303955 416.133301 799.477295 414.840088 799.634644 413.679932 C 799.634644 413.613281 799.634644 413.573486 799.634644 413.506836 C 800.045288 411.453369 800.241333 409.386719 800.481323 407.306885 C 801.013306 402.293213 801.550659 397.226563 802.093384 392.106934 L 802.093384 392.106934 L 802.094604 392.106934 C 802.414673 386.240234 802.734619 380.373535 803.054688 374.506836 C 802.974609 374.546631 802.903931 374.41333 802.843994 374.106934 L 801.864014 391.800049 C 801.526611 395.440186 801.026611 399.080078 800.619995 402.720215 L 799.97998 408.186768 L 799.661255 410.920166 C 799.531982 411.82666 799.350586 412.733398 799.197266 413.626709 C 798.957275 414.560059 798.646606 415.906738 798.262695 417.706787 C 798.715942 415.053467 799.34668 412.373535 799.661255 409.600098 C 799.988037 406.813232 800.321289 403.973389 800.661255 401.093262 C 800.985352 398.199951 801.343994 395.253418 801.635986 392.253418 C 801.778564 389.253418 801.925293 386.186768 802.074707 383.06665 C 802.139893 380.813232 802.206665 378.546631 802.274658 376.293213 C 802.027954 376.720215 802.167969 374.546631 801.997314 370.880127 C 801.894653 367.199951 801.825317 362.026611 801.773315 356.440186 C 801.514648 350.866699 801.003906 344.906738 800.661255 339.640137 C 800.538696 337.013428 800.158691 334.573486 799.8573 332.440186 C 799.547974 330.359863 799.280029 328.573486 799.063965 327.120117 L 798.678589 324.52002 C 798.945313 326.986816 799.234619 329.626709 799.543945 332.466797 C 799.709229 333.906738 799.880005 335.386719 800.055908 336.906738 C 800.145264 338.453369 800.238647 340.040283 800.333252 341.679932 C 800.605347 346.453369 800.961304 351.226563 801.179932 356 L 801.209229 370.34668 C 801.30127 373.52002 801.058594 376.693359 800.880005 379.880127 L 800.3479 389.400146 C 800.254639 392.666748 799.785278 395.720215 799.501221 398.640137 C 799.202637 401.546631 798.919922 404.293213 798.647949 406.93335 L 798.151978 411.240234 L 797.419922 415.52002 L 795.961304 424.093262 C 795.66394 425.959961 795.366699 427.82666 795.042603 429.866699 C 794.952026 430.333496 794.916016 430.546631 794.916016 430.626709 C 794.887939 430.746582 794.865356 430.82666 794.835938 430.946777 C 793.67334 435.82666 792.489258 440.786865 791.287964 445.82666 C 791.015991 447.093262 790.671997 448.34668 790.278564 449.600098 C 790.08667 450.253418 789.891968 450.906738 789.69873 451.560059 C 789.793335 450.93335 789.881348 450.320068 789.974609 449.693359 C 790.069336 449.359863 790.171997 449.026611 790.265381 448.706787 C 791.018677 446.013428 791.490723 443.359863 792.033325 440.82666 L 792.15332 440.34668 C 792.43335 439.133301 792.657349 438 792.825317 436.959961 C 792.989258 435.959961 792.582642 437.426514 791.609253 441.373535 L 790.46936 446.320068 C 790.573242 445.613281 790.685303 444.893311 790.785278 444.186768 C 791.419922 438.213379 792.274658 432.266846 792.644043 426.280029 L 793.325317 417.306885 L 793.709229 408.320068 C 793.709229 408.320068 793.754639 406.679932 793.798706 405.053467 C 793.833252 404.240234 793.81604 403.426514 793.813354 402.813232 C 793.807983 402.199951 793.805298 401.800049 793.805298 401.800049 C 793.803955 401.786865 793.675903 399.013428 793.674683 398.973389 C 793.574707 398.080078 793.465332 398.93335 793.3479 401.47998 C 793.330688 397.293213 793.383911 393.240234 793.289307 389.333496 C 793.131958 385.453369 792.981323 381.706787 792.835938 378.120117 C 792.43457 371.986816 791.963989 367.52002 791.656006 364.679932 C 791.485352 361.453369 791.122681 357.986816 790.802612 354.173584 C 790.449341 349.52002 789.744019 344.82666 789.15332 340.093262 C 789.706665 344.41333 790.455933 348.720215 790.832031 353.06665 C 791 353.746582 791.15332 354.266846 791.289307 354.626709 L 790.853271 350.093262 L 790.277344 345.573486 L 789.090698 336.546631 L 787.609253 327.560059 L 786.858643 323.06665 L 785.970581 318.613281 C 785.395996 315.666748 784.821289 312.720215 784.234619 309.720215 C 783.557373 306.720215 782.78125 303.693359 782.005371 300.58667 L 782.323975 302.440186 C 780.995972 296.560059 779.322632 290.76001 777.708008 284.959961 L 777.708008 284.959961 C 776.958618 282.080078 775.970581 279.266846 775.102661 276.426514 C 774.182617 273.58667 773.364014 270.733398 772.358643 267.93335 C 772.17334 267.746582 772.058594 267.76001 772.015991 267.973389 C 773.046631 270.773438 773.880005 273.653564 774.819946 276.47998 C 775.708008 279.34668 776.715942 282.159912 777.484009 285.053467 L 777.484009 285.053467 C 778.917236 290.52002 780.522583 295.880127 781.797363 301.293213 L 781.798706 301.293213 C 782.525269 304.506836 783.3573 307.706787 783.994629 310.93335 C 781.017334 297.800049 777.649292 284.920166 773.470581 272.626709 C 770.491943 263.693359 767.213379 254.973389 763.590698 246.173584 C 762 242.146729 760.133301 238.186768 758.410645 234.159912 L 759.154663 235.026611 C 757.855957 231.906738 756.41333 228.866699 754.952026 225.82666 C 753.477295 222.786865 752.119995 219.693359 750.545288 216.720215 L 751.358643 218.493408 L 747.311951 210.720215 C 747.311951 210.720215 746.303955 208.813232 745.296021 206.906738 C 744.267944 205.013428 743.166626 203.159912 743.166626 203.159912 C 742.894653 202.82666 742.588013 202.440186 742.242615 201.986816 L 744.523987 206.026611 L 746.674622 210.146729 L 750.946655 218.386719 C 750.946655 218.386719 750.881287 218.266846 750.781311 218.080078 L 746.799988 210.47998 L 744.803955 206.666748 L 742.682678 202.93335 L 737.86792 194.493408 L 732.698669 186.253418 C 727.75061 178 722.052002 170.293213 716.59729 162.47998 C 718.84668 165.533447 720.985352 168.666748 723.221313 171.746582 C 724.47467 173.440186 725.729309 175.146729 726.973267 176.82666 C 726.003967 175.333496 725.042603 173.853516 724.081299 172.373535 C 721.487976 168.706787 718.942627 165 716.305298 161.373535 L 708.027954 150.746582 C 706.625305 149 705.318665 147.173584 703.835999 145.47998 L 699.441345 140.386719 C 696.481262 137.013428 693.650635 133.533447 690.580017 130.253418 L 691.345276 131.373535 L 689.854675 129.986816 C 692.129333 132.280029 694.121338 134.82666 696.254639 137.253418 L 702.554688 144.600098 C 704.498657 146.773438 706.222656 149.120117 708.022644 151.41333 L 713.378601 158.320068 C 714.435974 159.600098 715.441345 160.920166 716.432007 162.253418 C 712.558655 157.306885 708.781311 152.493408 705.055969 147.733398 C 701.382629 143.373535 697.445313 138.93335 693.306641 134.06665 C 691.533325 131.880127 689.567932 129.893311 687.669312 127.82666 C 685.753296 125.773438 683.830627 123.706787 681.873291 121.600098 C 680.494629 120.146729 679.154663 118.653564 677.757324 117.226563 L 673.457336 113.053467 C 670.580017 110.253418 667.690674 107.453369 664.749329 104.613281 C 660.515991 100.746582 655.994629 96.946777 651.411926 92.959961 C 649.134583 90.920166 646.726685 89.133301 644.393311 87.333496 C 642.059998 85.546631 639.767944 83.800049 637.509277 82.080078 C 636.042603 80.959961 634.682678 79.93335 633.267944 78.866699 C 633.034607 78.666748 632.779968 78.47998 632.531982 78.306885 C 628.18927 75.266846 624.297302 72.600098 620.857361 70.280029 C 617.339966 67.58667 612.650635 64.773438 607.042603 61.440186 L 608.227966 62.213379 L 608.386658 62.626709 C 607.667969 62.186768 606.970642 61.76001 606.2453 61.320068 C 606.157349 61.280029 599.20929 57.013428 599.20929 57.013428 C 599.20929 57.013428 592.046631 53.120117 591.963989 53.080078 C 588.164001 51.013428 584.517273 48.920166 580.811951 47 C 577.039978 45.186768 573.288025 43.386719 569.471985 41.546631 C 563.906616 38.720215 557.86792 36.41333 551.83728 33.973389 C 550.246643 33.333496 548.646667 32.693359 547.041321 32.040283 L 544.629333 31.080078 L 542.15863 30.240234 C 538.853271 29.146729 535.534607 28.040283 532.225281 26.946777 C 525.296021 24.440186 518.107971 22.773438 511.03064 20.880127 L 505.719971 19.493408 C 503.941345 19.080078 502.139954 18.773438 500.355957 18.41333 C 496.779968 17.720215 493.218689 17.026611 489.670593 16.34668 C 487.893311 16.026611 486.162659 15.666748 484.455994 15.386719 C 482.744019 15.186768 481.06665 14.973389 479.429321 14.786865 C 476.173279 14.400146 473.07196 14.040283 470.119995 13.706787 C 462.766663 12.973389 465.074646 13.320068 459.291992 13.146729 C 458.828003 12.973389 456.085327 12.693359 449.177307 12.213379 C 441.297302 11.493408 434.098694 11.800049 428.155945 11.82666 C 425.634644 11.800049 423.09198 11.786865 420.526672 11.76001 C 417.961304 11.840088 415.370605 12.026611 412.753296 12.159912 C 407.523987 12.506836 402.170593 12.679932 396.771973 13.226563 C 391.381287 13.893311 385.911987 14.573486 380.370605 15.253418 C 380.345276 15.253418 380.319946 15.266846 380.294617 15.266846 C 380.490662 15.146729 380.68396 15.040283 380.874634 14.920166 C 380.994629 14.906738 381.114624 14.893311 381.235962 14.880127 C 386.446655 14.213379 391.605347 13.546631 396.677307 12.893311 C 397.941345 12.706787 399.208008 12.58667 400.473267 12.52002 C 401.735962 12.440186 402.993347 12.34668 404.244019 12.253418 C 406.741333 12.080078 409.213318 11.906738 411.657349 11.720215 C 414.093323 11.546631 416.501282 11.373535 418.877319 11.199951 C 421.249329 11.026611 423.596008 11.093262 425.894653 11.026611 C 430.461304 10.946777 434.883972 10.853516 439.164001 10.773438 L 438.686646 10.52002 C 419.390686 9.746582 401.033325 10.946777 383.441345 13.426514 C 386.810669 11.426514 388.537292 10.34668 387.285339 10.920166 C 380.441345 14.040283 392.221313 6.506836 395.998657 3.546631 C 397.886658 2.06665 397.771973 1.733398 392.322632 4.440186 C 388.539978 6.333496 382.167969 9.666748 372.150635 15.186768 C 369.313354 15.679932 366.494629 16.186768 363.697327 16.746582 C 360.755981 17.320068 357.809265 17.813232 354.910645 18.466797 C 352.029358 19.186768 349.157349 19.906738 346.290649 20.626709 C 340.573303 22.106934 334.835999 23.373535 329.293335 25.253418 C 323.726685 27.040283 318.125305 28.653564 312.634644 30.573486 C 307.185364 32.613281 301.737305 34.653564 296.281311 36.679932 C 295 37.186768 294.052002 37.560059 293.455994 37.880127 C 292.853333 38.173584 292.572021 38.34668 292.599976 38.373535 C 292.662659 38.453369 293.932007 37.920166 296.445313 37.120117 C 300.027954 35.866699 303.737305 34.560059 307.596008 33.213379 C 309.532043 32.52002 311.502625 31.813232 313.514648 31.106934 C 315.523987 30.373535 317.639954 29.82666 319.76001 29.173584 C 324.621338 27.679932 329.567932 26.159912 334.567932 24.626709 C 339.634644 23.320068 344.788025 22.093262 349.947937 20.813232 C 352.538635 20.226563 355.094666 19.453369 357.725281 19.013428 L 365.582642 17.546631 C 366.726685 17.34668 367.865356 17.133301 369.007996 16.920166 C 368.77594 17.040283 368.536011 17.173584 368.30127 17.306885 C 366.76532 17.600098 365.235962 17.880127 363.691956 18.173584 C 362.069336 18.47998 360.449341 18.786865 358.834595 19.080078 C 357.218689 19.386719 355.607971 19.679932 354.029358 20.106934 C 350.859985 20.906738 347.705322 21.679932 344.56134 22.466797 C 341.422668 23.253418 338.294617 24.026611 335.175964 24.813232 C 332.109314 25.76001 329.050659 26.693359 325.998657 27.640137 C 321.889282 28.93335 317.7547 30.120117 313.713318 31.47998 C 309.711975 32.959961 305.738647 34.426514 301.810669 35.866699 C 298.803955 37.026611 295.807983 38 293.011963 39.226563 C 290.216003 40.440186 287.494629 41.626709 284.853333 42.773438 C 285.657349 42.34668 285.445313 42.333496 283.842651 42.920166 C 281.437317 43.82666 278.416016 45.013428 274.817322 46.466797 C 271.26532 48.146729 267.194641 50.053467 262.609314 52.213379 C 261.02533 52.973389 259.455994 53.733398 257.899963 54.493408 C 257.12262 54.866699 256.349365 55.240234 255.580017 55.626709 C 254.830627 56.040283 254.083984 56.440186 253.338684 56.853516 C 250.380005 58.506836 247.470642 60.133301 244.598633 61.733398 C 241.825317 63.306885 238.945343 64.840088 236.12265 66.52002 C 233.332001 68.266846 230.513336 70.026611 227.691986 71.786865 C 224.871979 73.546631 222.050629 75.306885 219.250641 77.06665 C 216.545319 78.959961 213.86264 80.82666 211.222656 82.679932 C 206.225311 86.213379 201.491974 89.426514 197.293304 92.920166 C 193.431976 96.013428 189.682678 99 185.994659 101.946777 C 185.138672 102.693359 184.281342 103.440186 183.426636 104.173584 C 182.367981 104.853516 181.309326 105.533447 180.255981 106.226563 C 182.762665 104.080078 185.195984 101.853516 187.835999 99.893311 C 190.495972 97.840088 193.162659 95.773438 195.827972 93.706787 L 199.823975 90.613281 L 201.82132 89.06665 L 203.889313 87.626709 C 206.698639 85.679932 209.517303 83.720215 212.332001 81.773438 L 216.551971 78.840088 C 217.950653 77.853516 219.351959 76.880127 220.814667 76.013428 C 226.729309 72.359863 232.526642 68.613281 238.306671 65.173584 C 244.083984 61.906738 249.319946 58.946777 253.895996 56.34668 C 254.716003 55.866699 255.378662 55.440186 255.955994 55.146729 L 264.610657 50.93335 C 264.573303 50.880127 264.419983 50.893311 264.154663 50.946777 C 262.104004 51.920166 259.946655 52.93335 257.697327 53.986816 C 257.667969 54 257.702637 53.959961 257.651978 53.973389 C 256.889282 54.280029 255.91864 54.640137 254.774658 55.186768 C 253.582642 55.773438 252.25061 56.440186 250.738647 57.186768 C 250.854614 56.880127 249.142639 57.640137 246.185303 59.146729 C 244.65332 59.946777 242.880005 60.880127 240.889282 61.920166 C 238.881348 63.026611 236.550629 64.133301 234.222656 65.640137 C 229.502655 68.546631 224.151978 71.853516 218.713348 75.213379 C 213.414673 78.800049 208.125305 82.560059 203.276001 85.93335 C 191.514679 94.466797 180.230652 103.706787 169.425323 113.506836 C 168.746674 113.973389 168.059998 114.440186 167.383972 114.920166 C 151.742676 125.920166 136.759979 137.906738 122.86264 151.093262 C 120.09198 153.533447 117.53598 156.213379 114.90799 158.800049 C 112.313324 161.426514 109.626648 163.973389 107.110657 166.679932 C 102.14267 172.159912 96.982666 177.453369 92.330658 183.213379 C 82.631989 194.386719 73.971985 206.440186 65.699982 218.720215 C 61.793304 225.013428 57.677338 231.186768 54.175995 237.733398 C 52.397308 240.986816 50.455994 244.146729 48.813324 247.466797 L 43.845337 257.426514 C 37.542664 270.866699 31.814667 284.613281 27.550629 298.880127 C 25.145325 305.920166 23.53598 313.199951 21.654633 320.386719 C 20.813324 324.013428 20.190643 327.693359 19.450653 331.34668 L 18.383972 336.82666 C 18.059998 338.653564 17.834656 340.493408 17.555969 342.333496 C 16.606659 348.733398 15.87735 355.159912 15.339996 361.613281 C 14.730652 363.613281 14.126648 365.626709 13.491974 367.613281 C 12.743988 370.013428 12.006653 372.386719 11.278687 374.720215 C 10.682678 377.106934 10.093323 379.466797 9.510681 381.800049 C 8.934662 384.146729 8.363983 386.453369 7.798645 388.76001 C 7.272003 391.053467 6.597321 393.306885 6.246674 395.613281 C 4.623993 404.786865 2.832001 413.640137 2.100006 422.546631 C 1.859985 424.773438 1.621307 426.973389 1.383972 429.186768 L 1.03067 432.493408 C 0.937317 433.58667 0.922638 434.706787 0.865326 435.813232 C 0.68399 440.240234 0.502655 444.653564 0.319977 449.093262 L 0.187988 452.41333 C 0.182678 453.533447 0.23465 454.640137 0.255981 455.76001 C 0.314667 457.986816 0.372009 460.226563 0.430664 462.466797 C 0.489319 464.720215 0.548004 466.973389 0.608002 469.240234 C 0.638672 470.373535 0.669342 471.506836 0.699982 472.640137 C 0.797333 473.786865 0.893311 474.93335 0.991974 476.080078 L 1.750641 485.266846 C 2.029327 488.333496 2.534668 491.359863 2.921326 494.400146 C 3.61731 500.52002 4.927979 506.506836 6.040009 512.546631 C 6.087982 512.773438 6.144012 513 6.193329 513.226563 C 6.221313 513.679932 6.23999 514.133301 6.27066 514.58667 C 6.62265 517.973389 6.970673 521.333496 7.31601 524.65332 L 7.828003 529.959961 L 8.610657 535.253418 C 9.14801 538.773438 9.631989 542.306885 10.218658 545.82666 L 12.41333 556.333496 C 12.803986 558.080078 13.098663 559.840088 13.567993 561.573486 L 14.996002 566.76001 C 18.477325 580.693359 23.861328 594.159912 29.927979 607.266602 C 33.301331 613.65332 36.414673 620.199951 40.436005 626.23999 L 43.303986 630.853516 C 44.269318 632.386719 45.175995 633.959961 46.278656 635.400146 L 52.638672 644.199951 C 61.507996 655.640137 71.41864 666.160156 82.050629 675.813232 C 92.645325 685.506592 104.139984 694.06665 116.003998 701.906738 C 121.893311 705.920166 128.045349 709.453369 134.144012 713.080078 L 143.465332 718.160156 C 146.557312 719.893311 149.77066 721.360107 152.916016 722.959961 C 162.876007 727.879883 173.03598 732.320068 183.327972 736.333496 C 192.783966 741.506592 202.444 746.293457 212.285309 750.680054 C 231.487976 759.226685 251.369324 766.253418 271.700012 771.613281 C 292.032043 777 312.824036 780.640015 333.682678 782.666748 C 336.70929 783.106689 339.767944 783.266724 342.824036 783.533325 C 345.88269 783.760132 348.946655 784.013306 352.02533 784.106689 C 381.798706 785.693359 411.934631 784.026733 441.191956 779.466675 L 442.574646 779.520142 C 449.386658 779.813354 456.151978 779.733398 462.883972 779.440063 C 476.345276 778.839966 489.655945 777.280029 502.818665 775.066772 C 529.155945 770.666748 554.863953 763.426758 579.790649 754.079956 C 592.231995 749.333374 604.441345 743.973389 616.409302 738.080078 C 628.370605 732.17334 639.970642 725.506592 651.273254 718.34668 C 673.77063 703.853516 694.810669 686.706787 712.815979 666.453369 C 721.934631 656.453369 729.978638 645.426758 737.25061 633.93335 C 744.598694 622.466797 750.59198 610.106689 755.595947 597.400146 C 756.776001 594.213379 758.075928 590.986816 759.150635 587.813232 L 762.215942 578.320068 L 765.28125 568.813232 C 766.253296 565.640137 767.124023 562.41333 768.050659 559.213379 C 769.53064 554.013428 771.045288 548.813232 772.364014 543.560059 C 773.513306 541.546631 774.645264 539.52002 775.741333 537.47998 C 777.942627 533.359863 779.609253 530.199951 780.746704 527.973389 C 781.861328 525.733398 782.330688 524.373535 782.417236 524.026611 C 781.832031 525.133301 781.286621 526.306885 780.624023 527.466797 C 779.955933 528.626709 779.274658 529.82666 778.578613 531.040039 C 777.179932 533.506836 775.72937 536.080078 774.228027 538.733398 C 776.202637 535.080078 778.294678 531.199951 780.365356 527.34668 C 783.245239 521.253418 786.370605 514.65332 789.610596 507.800049 C 791.067993 504.293213 792.549316 500.720215 794.034668 497.146729 C 795.51062 493.573486 797.083984 490.026611 798.278564 486.373535 C 799.552002 482.746582 800.812012 479.159912 802.04126 475.666748 C 802.629395 473.906738 803.306641 472.199951 803.791992 470.466797 C 804.283936 468.733398 804.769287 467.026611 805.245239 465.359863 C 807.081299 458.653564 808.973267 452.573486 809.8573 447.240234 C 809.457275 448.693359 808.953247 450.506836 808.309326 452.840088 C 807.54126 455.34668 806.608032 458.386719 805.501221 462 C 804.722656 464.666748 803.966675 467.253418 803.226685 469.786865 C 802.497314 472.333496 801.52002 474.706787 800.703979 477.06665 C 794.467896 496.613281 785.251953 518.026611 773.436035 539.159912 C 774.021362 536.733398 774.625244 534.306885 775.221313 531.866699 C 775.410645 531.52002 775.593384 531.173584 775.782715 530.82666 C 778.369263 526.306885 780.53064 521.573486 782.77063 516.879883 C 784.993286 512.173584 787.3479 507.533447 789.223999 502.666748 C 797.598633 483.613281 803.92395 463.693359 808.839966 443.493408 C 809.414673 441.040283 809.990723 438.58667 810.569336 436.120117 C 810.852051 434.880127 811.16272 433.640137 811.419922 432.400146 L 812.078613 428.626709 C 812.950684 423.58667 813.829346 418.52002 814.710693 413.440186 C 815.298706 408.320068 815.887939 403.173584 816.477295 398.026611 L 816.917236 394.173584 C 817.024048 392.893311 817.072021 391.600098 817.151978 390.306885 C 817.298706 387.720215 817.442627 385.146729 817.588013 382.573486 C 818.61731 361.986816 818.03064 341.560059 815.558594 322.706787"/>
</svg>
