<?xml version="1.0" encoding="UTF-8"?>
<!-- Generated by Pixelmator Pro 3.4.3 -->
<svg width="845" height="809" viewBox="0 0 845 809" xmlns="http://www.w3.org/2000/svg">
    <path id="path1236-copy" fill="#48aa55" stroke="none" d="M 819.93335 589.880005 L 819.786621 590.280029 C 821.053223 586.58667 822.493408 582.946655 823.453369 579.146729 C 822.893311 581.200012 822.34668 583.253296 821.599854 585.253296 C 821.040039 586.800049 820.493408 588.34668 819.93335 589.880005 Z M 817.800049 542.719971 C 817.226563 546.133301 816.373291 549.493347 815.679932 552.880005 C 814.893311 556.266663 814.306641 559.693359 813.386719 563.013367 C 812.466553 566.333374 811.533203 569.65332 810.613281 572.946655 C 810.146484 574.599976 809.693359 576.23999 809.23999 577.880005 C 808.786621 579.506714 808.159912 581.080017 807.626709 582.680054 C 806.546631 585.853333 805.466553 589 804.399902 592.146729 C 800.373291 602.080017 795.773193 612.453369 790.23999 622.573364 L 788.253418 626.426636 C 787.560059 627.693359 786.773193 628.906677 786.026611 630.160034 C 784.533203 632.640015 783.040039 635.133301 781.533203 637.626709 C 779.973145 640.080017 778.279785 642.453369 776.65332 644.880005 C 775.026611 647.280029 773.426758 649.706665 771.599854 651.959961 C 759.279785 668.453369 744.76001 683.626709 728.813232 696.840027 C 712.773315 709.946655 695.386719 721.093323 677.65332 730.026672 C 674.439941 731.746704 671.039917 733.293335 667.58667 734.93335 C 667.226685 735.106689 666.866577 735.293335 666.493286 735.466675 C 666.773315 735.293335 667.039917 735.119995 667.319946 734.959961 C 671.52002 732.133301 675.58667 729.186646 679.719971 726.293335 C 680.76001 725.559998 681.773315 724.840027 682.773315 724.133362 C 683.719971 723.359985 684.666626 722.613342 685.599976 721.866699 C 687.439941 720.386658 689.226685 718.946655 690.973267 717.546692 C 693.986694 715.106689 697.053345 712.733337 699.879883 710.06665 C 703.866577 706.533325 708.173218 702.973328 711.399902 699.82666 C 714.599976 696.640015 716.973267 694.146667 717.546509 693.253357 C 714.773315 695.920044 712.106567 698.47998 709.386719 701.080017 C 706.533325 703.613342 703.65332 706.213318 700.773315 708.853333 L 699.359985 709.973328 L 696.693359 712.253357 C 695.786621 713 694.839966 713.679993 693.906616 714.400024 C 689.76001 717.573364 685.599976 720.946655 681.186646 724.226685 C 677.853394 726.599976 674.613281 728.906677 671.493286 731.119995 C 669.933228 732.213318 668.453369 733.373352 666.920044 734.359985 C 665.399902 735.34668 663.920044 736.320007 662.466675 737.266663 C 662.253296 737.41333 662.06665 737.533325 661.879883 737.666687 C 660.599976 738.226685 659.319946 738.786682 658.039917 739.34668 C 660.839966 737.58667 663.65332 735.813354 666.479858 734.053345 C 670.693359 731.23999 674.773315 728.253357 678.906616 725.359985 L 681.986694 723.186646 L 684.933228 720.840027 C 686.893311 719.280029 688.839966 717.733337 690.786621 716.17334 C 692.719971 714.613342 694.58667 713.146667 696.306641 711.679993 C 697.959961 710.160034 699.546509 708.706665 701.06665 707.320007 C 704.773315 703.82666 703.413208 704.706665 706.279907 701.946655 C 706.58667 701.786682 708.213257 700.76001 711.599976 697.386658 C 715.493286 693.573364 719 690.080017 721.866699 687.133301 C 724.23999 684.559998 726.639893 681.946655 729.079834 679.306641 C 731.493408 676.599976 734.106689 673.973389 736.359863 670.973389 C 740.986572 665.040039 746.040039 659.133301 750.320068 652.47998 C 752.853271 648.680054 755.52002 645.013367 757.866699 641.200012 C 760.133301 637.34668 762.399902 633.52002 764.65332 629.706665 L 766.906494 625.866699 C 767.58667 624.546692 768.266602 623.226685 768.946533 621.919983 C 770.293213 619.293335 771.626709 616.693359 772.946533 614.106689 C 773.946533 612.119995 774.986572 610.200012 775.879883 608.293335 C 776.719971 606.359985 777.533203 604.47998 778.333252 602.65332 C 778.146484 603.266663 778.279785 603.17334 778.853271 602.146729 C 779.666504 600.559998 780.666504 598.546692 781.82666 596.133301 C 783.013184 593.719971 784.373291 590.919983 785.613281 587.613342 C 787.386719 583.093323 789.06665 578.719971 790.639893 574.466675 C 792.106689 570.320007 793.399902 565.919983 794.839844 561.559998 C 795.533203 559.373352 796.23999 557.186646 796.93335 555.013367 C 797.573242 552.82666 798.093262 550.626709 798.666504 548.493347 C 799.693359 544.440002 800.65332 540.626709 801.58667 536.93335 C 802.386719 533.613342 802.893311 530.333374 803.52002 527.160034 C 804.47998 521.93335 805.813232 516.680054 806.639893 511.280029 C 807.533203 506.200012 808.599854 501.026672 809.47998 494.920013 C 809.733398 492.626678 810 490.266693 810.253418 488.013367 C 810.506592 485.666687 810.773193 483.240021 811.026611 480.893341 C 811.120117 479.986664 811.213135 479.080017 811.320068 478.17334 C 811.560059 476.320007 811.573242 474.466675 811.679932 472.640015 C 811.853271 469.186676 812.040039 465.746704 812.213135 462.306671 L 812.47998 457.146698 C 812.47998 455.426666 812.493408 453.693329 812.493408 451.946686 C 812.493408 449 812.506592 446.053345 812.506592 443.106689 C 812.493408 440.160004 812.560059 437.226685 812.359863 434.293335 C 812.053223 428.426697 811.813232 422.573364 811.439941 416.733337 C 810.746582 410.093323 810.133301 403.559998 809.373291 396.93335 C 808.719971 392.613342 808.06665 388.213379 807.399902 383.746704 C 807.053223 381.52002 806.813232 379.266663 806.373291 377.066711 L 805.079834 370.440002 C 804.786621 368.986694 804.506592 367.560059 804.226563 366.119995 L 804.226563 366.119995 C 805.133301 370.826721 806.226563 375.52002 806.973145 380.093384 C 807.719971 384.826721 808.439941 389.480042 809.133301 393.880005 C 809.76001 397.293396 810.093262 400.839966 810.466553 404.466675 C 810.839844 408.119995 811.213135 411.840027 811.599854 415.626648 C 811.973145 419.440002 812.026611 423.333374 812.253418 427.293335 C 812.386719 431.253357 812.719971 435.266663 812.693359 439.34668 C 812.666504 444.426666 812.65332 449.373352 812.639893 454.333344 L 812.626709 457.119995 L 812.47998 459.906677 L 812.186768 465.493347 C 812.159912 465.733337 812.146484 465.920013 812.133301 466.17334 C 811.93335 469.613373 811.76001 472.906677 811.573242 476.093353 C 811.439941 478 811.186768 479.906677 810.986572 481.82666 C 810.47998 486.440033 809.986572 491.040009 809.47998 495.640015 C 808.546631 502.34668 807.439941 508.986664 806.426758 515.693359 C 805.493408 520.146729 804.546631 524.640015 803.613281 529.106689 C 803.120117 531.373352 802.666504 533.640015 802.146484 535.906677 C 801.546631 538.146729 800.946533 540.386658 800.34668 542.626709 C 799.079834 547.17334 797.986572 551.786621 796.599854 556.280029 C 795.133301 560.82666 793.693359 565.359985 792.266602 569.800049 C 791.919922 570.893311 791.58667 571.973389 791.253418 573.013367 C 790.879883 574.040039 790.52002 575.053345 790.159912 576.026672 C 789.466553 577.946655 788.813232 579.76001 788.186768 581.466675 C 788 582.053345 787.82666 582.573364 787.679932 583.040039 L 785.279785 589.23999 C 785.34668 589.253296 785.426758 589.186646 785.560059 589.040039 C 786.146484 587.58667 786.773193 586.06665 787.41333 584.47998 C 787.439941 584.466675 787.426758 584.493347 787.453369 584.466675 C 787.986572 583.466675 788.733398 581.906677 789.719971 579.693359 C 789.853271 579.93335 790.466553 578.786621 791.386719 576.680054 C 791.839844 575.626709 792.439941 574.359985 792.959961 572.866699 C 793.47998 571.333374 794.053223 569.666687 794.666504 567.880005 C 795.866699 564.226685 797.213135 560.106689 798.58667 555.919983 C 799.82666 551.680054 800.893311 547.333374 801.946533 543.400024 L 803.733398 536.599976 C 804.279785 534.320007 804.706543 532.013367 805.213135 529.719971 C 806.159912 525.119995 807.120117 520.506714 808.06665 515.893311 C 809.466553 506.58667 811.23999 497.280029 812.026611 487.853333 L 812.786621 480.800018 L 813.159912 477.266693 L 813.373291 473.720001 L 814.186768 459.546692 C 814.373291 457.17334 814.333252 454.813354 814.359863 452.440033 L 814.41333 445.333344 L 814.466553 438.240021 C 814.466553 435.880005 814.293213 433.506714 814.213135 431.146667 C 814.013184 426.426697 813.800049 421.706665 813.599854 416.986694 C 813.159912 412.280029 812.719971 407.58667 812.279785 402.893311 C 812.026611 400.560059 811.919922 398.200012 811.533203 395.880005 L 810.52002 388.893372 L 809.506592 381.93335 C 809.199951 379.839966 808.893311 377.760071 808.466553 375.693359 C 808.546631 375.746704 808.58667 375.706665 808.599854 375.52002 L 808.026611 373.453308 C 807.839844 372.466675 807.639893 371.480042 807.439941 370.493347 C 808.013184 372.613342 808.58667 374.733337 809.17334 376.880005 C 809.853271 379.213379 810.373291 381.386658 810.853271 383.386658 C 811.34668 385.34668 811.813232 387.160034 812.253418 388.880005 C 816.65332 408.786682 819.866699 428.65332 821.34668 449.053345 C 822.893311 469.453339 823.159912 490.360016 821.546631 512.320007 C 820.906494 518.906677 820.573242 525.733337 819.359863 532.47998 C 818.839844 535.880005 818.320068 539.293335 817.800049 542.719971 Z M 811.053223 606.23999 C 809.41333 609.986694 807.959961 613.733337 806.293213 617.293335 C 805.466553 618.919983 804.639893 620.546692 803.800049 622.17334 C 804.06665 621.640015 804.333252 621.093323 804.599854 620.559998 C 805.800049 618.040039 806.359863 616.76001 806.399902 616.440002 C 808.146484 612.666687 809.919922 608.613342 811.800049 604.34668 C 812.41333 602.973389 813.013184 601.599976 813.626709 600.226685 Z M 810.986572 612.800049 L 810.946533 613.146729 C 810.333252 614.466675 809.733398 615.800049 809.120117 617.133301 C 806.613281 621.773315 803.946533 626.706665 800.919922 632.280029 C 799.65332 634.719971 798.079834 637.026672 796.65332 639.440002 C 795.599854 641.119995 794.573242 642.840027 793.52002 644.559998 C 795.306641 641.58667 797.093262 638.626709 798.879883 635.65332 C 800.093262 633.746704 801.026611 631.840027 801.986572 630.040039 C 802.946533 628.23999 803.866699 626.493347 804.786621 624.773315 C 805.706543 623.06665 806.599854 621.373352 807.52002 619.666687 C 807.973145 618.813354 808.453369 617.973389 808.879883 617.080017 C 809.279785 616.186646 809.693359 615.266663 810.106689 614.34668 C 810.800049 612.76001 811.506592 611.146729 812.213135 609.533325 C 811.800049 610.613342 811.386719 611.706665 810.986572 612.800049 Z M 780.026611 526.213379 C 779.813232 527.280029 779.599854 528.320007 779.386719 529.386658 C 778.226563 534.053345 776.946533 538.76001 775.706543 543.493347 C 774.573242 548.266663 772.839844 552.893311 771.34668 557.626709 C 770.573242 559.986694 769.786621 562.359985 769 564.733337 C 768.146484 567.06665 767.186768 569.386658 766.266602 571.719971 C 771.093262 558.23999 776.47998 541.76001 780.026611 526.213379 Z M 261.746582 401.493347 C 261.559937 401.386658 261.386719 401.280029 261.199951 401.160034 C 261.333252 401.160034 261.466675 401.160034 261.58667 401.160034 C 261.639893 401.266663 261.679932 401.386658 261.746582 401.493347 Z M 317.06665 369.320007 C 316.959961 368.746704 316.693359 368.320007 316.279907 368.026733 L 316.706543 367.986694 L 316.65332 366.906677 C 316.773315 366.919983 316.879883 366.93335 316.973267 366.919983 C 317.373291 367.320007 317.773315 367.720032 318.199951 368.080017 C 318.799927 368.573303 319.413208 368.946716 320.026611 369.23999 L 320.52002 369.026733 L 320.479858 369.146667 C 320.613281 369.946716 320.906616 370.773315 321.399902 371.640015 C 321.93335 372.480042 322.52002 373.293396 323.199951 374.080017 C 324.359985 375.400024 325.58667 376.626709 326.866577 377.760071 C 325.613281 376.919983 324.346558 376.066711 323.119995 375.106628 C 322.399902 374.493347 321.693359 373.919983 320.959961 373.306641 C 320.279907 372.706665 319.613281 372.119995 318.93335 371.573303 C 318.253296 371.039978 317.559937 370.58667 316.853394 370.213379 C 316.719971 370.160034 316.573242 370.119995 316.439941 370.080017 L 317.226685 369.386658 Z M 357.479858 407.013367 C 357.199951 406.773376 356.93335 406.533325 356.639893 406.280029 C 356.06665 405.799988 355.479858 405.34668 354.879883 404.946716 C 354 404.386658 353.133301 403.82666 352.253296 403.266663 C 351.693359 402.919983 351.133301 402.52002 350.58667 402.080017 C 350.119995 401.533325 349.626709 401.146667 349.053345 400.880005 C 349.026611 400.866699 349.160034 400.293396 349.160034 400.293396 C 349.160034 400.293396 349.559937 401.06665 349.493286 400.986694 C 350.413208 401.799988 351.333252 402.280029 352.106567 401.973328 C 352.213257 401.733337 352.266602 401.453308 352.279907 401.146667 L 353.853394 403.17334 L 354.693359 403.893311 L 355.346558 404.786682 L 356.853394 406.386658 Z M 368.906616 417.013367 L 368 416.146667 C 367.466675 415.58667 366.920044 415.013367 366.359985 414.466675 C 365.23999 413.320007 364.079956 412.226685 362.82666 411.280029 C 361.920044 410.613342 360.986694 409.946716 360.079956 409.280029 C 359.533325 408.813354 359 408.373352 358.466675 407.906677 L 358.52002 407.52002 C 358.719971 407.733337 359 407.880005 359.346558 407.946716 C 359.479858 407.973328 359.559937 407.93335 359.599976 407.853333 L 360.173218 408.640015 C 360.853394 409.426697 361.613281 410.06665 362.439941 410.546692 L 365.06665 412.799988 C 365.493286 413.306702 365.93335 413.813354 366.386719 414.306702 C 366.973267 414.93335 367.546631 415.546692 368.119995 416.160034 Z M 420.386719 452.946686 C 420.320068 453.040009 420.253296 453.146698 420.186646 453.253326 L 420.039917 453.440033 C 420.039917 453.333344 420.039917 453.213348 420.039917 453.080017 Z M 449.786621 544.466675 L 449.786621 544.466675 L 449.786621 544.466675 Z M 444.266602 413.080017 C 445.466675 409.58667 449.213257 407 450.879883 403.666687 C 449.426636 407.23999 447.119995 410.320007 444.266602 413.080017 Z M 530.82666 302.720032 L 530.746582 302.720032 L 530.82666 302.600037 Z M 535.399902 425.34668 L 534.933228 426.213379 C 535 425.866699 535.160034 425.58667 535.399902 425.34668 Z M 554.693359 401.799988 C 554.613281 401.799988 554.546509 401.786682 554.466675 401.786682 C 553.333252 401.306641 552.053345 402.026733 550.719971 403.200012 C 551.959961 398.986694 555.853394 396.080017 558.466675 392.533325 C 558.359985 393.23999 558.439941 393.826721 558.786621 394.213379 L 558.453369 394.466675 C 556.599976 396.373291 555.053345 398.41333 554.186646 400.799988 C 554.479858 401.093384 554.626587 401.440002 554.693359 401.799988 Z M 377.479858 115.133362 C 378.546631 115.013367 379.65332 114.893372 380.799927 114.760071 C 380.293335 114.839966 379.82666 114.906677 379.346558 114.986694 C 378.719971 115.039978 378.119995 115.080017 377.479858 115.133362 Z M 304.639893 144.373352 C 307.160034 143.893372 309.693359 143.34668 312.226685 142.733337 L 310.893311 143.133362 C 312.320068 142.880005 313.733276 142.613342 315.160034 142.426697 C 314.733276 142.533325 314.320068 142.626709 314 142.706665 C 311.119995 143.373352 308.253296 144.026733 305.399902 144.693359 C 301.52002 145.600037 297.986694 146.453369 294.786621 147.280029 L 293.920044 147.65332 C 293.813232 147.666687 293.719971 147.693359 293.613281 147.706665 C 290.146606 148.506653 286.079956 149.493408 281.199951 150.746704 C 276.199951 151.919983 271.279907 153.58667 266.119995 155.146729 C 263.93335 155.826721 261.76001 156.506653 259.58667 157.17334 C 257.413208 157.839966 255.320068 158.693359 253.199951 159.426697 C 248.959961 160.973328 244.773315 162.493408 240.599976 164.013367 C 244.199951 162.666687 247.799927 161.320007 251.426636 159.960022 C 255.06665 158.600037 258.746582 157.186646 262.599976 156.026733 C 267.253296 154.533325 271.839966 153.066711 276.493286 151.58667 C 281.013184 150.333374 285.426636 149.119995 289.82666 147.906677 C 294.093262 146.65332 298.160034 145.706665 302.026611 144.760071 C 302.733276 144.573303 303.320068 144.426697 303.986694 144.253357 L 303.853394 144.573303 Z M 647.133301 718.773315 C 644.466675 720.440002 641.920044 722.23999 639.199951 723.786682 C 635.679932 725.813354 632.160034 727.82666 628.599976 729.866699 C 626.853394 730.893311 625.053345 731.813354 623.226685 732.719971 L 617.813232 735.466675 L 612.413208 738.186646 C 610.613281 739.093323 608.733276 739.866699 606.906616 740.719971 C 603.226685 742.359985 599.559937 744.013306 595.879883 745.65332 C 592.146606 747.160034 588.439941 748.65332 584.746582 750.146667 C 581.133301 751.693359 577.493286 752.93335 574 754.23999 C 571.466675 755.17334 568.906616 756.119995 566.306641 757.06665 C 563.706543 758 561 758.799988 558.266602 759.693359 C 554.52002 760.82666 550.773315 762.146667 546.973267 763.146667 C 543.06665 764.226685 539.093262 765.306641 535.160034 766.386658 C 528.933228 767.973328 522.599976 769.41333 516.306641 770.893311 C 512.746582 771.626648 509.173218 772.359985 505.599976 773.093323 C 453.253296 777.320007 400.466675 775.306641 349.306641 765.440002 C 348.813232 765.306641 348.386719 765.160034 347.853394 764.986694 C 321.346558 759.453369 294.973267 751.866699 269.973267 741.546631 C 242.226685 730.119995 215.920044 715.506714 191.946533 697.706665 C 168.58667 680.386719 147.52002 660.040039 129.23999 637.333374 L 124.773315 631.840027 L 122.533325 629.093323 L 120.493286 626.253296 C 117.799927 622.440002 115.026611 618.719971 112.400024 614.919983 L 107.466675 607.186646 C 105.853394 604.599976 104.093384 602.093323 102.666626 599.373352 L 98.173218 591.359985 L 95.93335 587.359985 L 93.906616 583.226685 C 89.06665 573.613342 84.773315 563.719971 80.920044 553.626709 L 76.853394 542.65332 C 75.599976 538.946655 74.493286 535.200012 73.293335 531.47998 C 71.466675 526.026672 70.173218 520.41333 68.719971 514.853333 C 67.160034 509.320007 66.173218 503.640015 64.973267 498.013367 C 64.599976 496.160004 64.160034 494.306671 63.82666 492.426666 L 62.920044 486.786652 C 62.333252 483.026672 61.65332 479.293335 61.119995 475.533356 C 60.65332 471.773346 60.199951 468.026672 59.746582 464.280029 C 59.533325 462.413361 59.23999 460.559998 59.06665 458.693329 L 58.58667 453.106689 C 58.146606 447.440033 57.613281 441.786652 57.52002 436.106689 C 57.306641 430.426697 57.026611 424.746704 57.160034 419.053345 C 57.213257 399.133362 58.82666 378.706665 61.093384 360.919983 C 63.559937 344.386658 66.626709 327.906677 71.06665 311.786682 C 71.599976 309.773315 72.093384 307.733337 72.65332 305.720032 L 74.479858 299.733337 C 75.506592 296.480042 76.413208 293.186646 77.466675 289.93335 C 78.813232 288.026733 80.173218 286.133362 81.58667 284.280029 C 82.853394 282.573303 84.079956 280.919983 85.279907 279.306641 C 86.493286 277.720032 87.693359 276.186646 88.853394 274.693359 C 91.213257 271.426697 93.813232 268.333374 96.293335 265.146667 C 97.119995 264.280029 98.053345 263.293396 99.146606 262.146667 C 109.58667 250.866699 121.813232 238.773315 135.706665 227.253357 C 143.359985 220.786682 151.266602 214.706665 159.413208 208.880005 C 163.253296 206.080017 167.026611 203.546692 170.719971 201.013367 C 174.06665 198.733337 176.52002 197.146729 178.173218 195.93335 C 180.279907 194.573303 182.466675 193.333374 184.613281 192.039978 L 184.506592 191.826721 C 182.426636 193.093384 180.306641 194.280029 178.266602 195.600037 C 178.146606 195.573303 178.346558 195.293396 180.76001 193.760071 C 183.026611 192.386658 185.399902 190.946716 187.82666 189.466675 C 190.320068 188.053345 192.853394 186.626709 195.373291 185.200012 C 199.279907 183.093384 203.320068 180.93335 207.253296 178.986694 C 209.65332 177.800049 212.013184 176.640015 214.346558 175.493408 C 213.639893 175.826721 212.986694 176.200012 212.373291 176.52002 C 210.813232 177.546692 212.413208 176.946716 215.186646 175.880005 C 216.973267 175.213379 218.946533 174.440002 221.373291 173.466675 C 223.973267 172.360046 227.173218 171.253357 230.839966 169.773315 C 234.613281 168.320007 238.453369 166.65332 242.559937 165.133362 C 244.599976 164.400024 246.613281 163.680054 248.639893 162.960022 C 254.133301 160.973328 259.599976 158.919983 265.213257 157.266663 C 270.813232 155.573303 276.320068 153.626709 282.013184 152.213379 C 283.733276 151.666687 286.093262 150.986694 288.866577 150.200012 C 291.65332 149.440002 294.839966 148.453369 298.306641 147.720032 C 301.76001 146.919983 305.426636 146.080017 309.093262 145.23999 C 310.93335 144.826721 312.746582 144.373352 314.573242 144.013367 C 316.386719 143.65332 318.186646 143.306641 319.93335 142.973328 C 333.813232 140.119995 344.399902 138.533325 337.506592 138.693359 C 335.533325 138.906677 332.733276 139.186646 329.053345 139.880005 L 328.439941 139.986694 L 328.58667 139.93335 C 332.893311 139.093384 336.920044 138.560059 340.52002 137.866699 C 344.160034 137.266663 347.679932 136.680054 351.093262 136.106689 C 357.906616 135.253357 363.93335 134.506653 369.226685 133.839966 C 374.533325 133.306641 379.119995 132.853333 383.039917 132.453369 C 390.879883 131.600037 396.119995 131.34668 399.266602 131 C 405.559937 130.400024 403.546631 130.266663 397.773315 130.146729 C 394.959961 130.413391 392.253296 130.65332 389.559937 130.893372 C 386.879883 131.213379 384.213257 131.52002 381.466675 131.853333 C 375.946533 132.493408 369.973267 133.066711 362.58667 134.039978 C 357.920044 134.666687 354.093262 135.213379 351.133301 135.706665 C 350.266602 135.893372 349.839966 136.013367 349.65332 136.093384 L 346.613281 136.413391 C 341.893311 137.106689 337.106567 137.839966 332.293335 138.65332 C 330.279907 139.066711 328.639893 139.440002 327.346558 139.746704 L 327.359985 139.720032 L 328.346558 139.493408 C 325.253296 140.013367 322.106567 140.58667 318.920044 141.213379 C 319.506592 141.080017 320.093262 140.946716 320.679932 140.813354 C 318.986694 141.080017 317.320068 141.333374 315.65332 141.600037 C 312.65332 142.106689 309.719971 142.893372 306.76001 143.533325 C 307.973267 143.186646 309.106567 142.880005 310.160034 142.600037 C 311.65332 142.133362 312.773315 141.760071 313.399902 141.493408 C 313.666626 141.386658 314.026611 141.280029 314.399902 141.160034 L 317 140.666687 L 317.666626 140.480042 C 320.466675 139.93335 323.213257 139.400024 325.93335 138.866699 C 327.146606 138.640015 328.386719 138.373352 329.693359 138.053345 C 330.719971 137.813354 330.58667 137.786682 329.346558 137.973328 L 332.039917 137.480042 C 334.173218 137.106689 336.293335 136.733337 338.413208 136.360046 L 338.693359 136.320007 C 338.786621 136.306641 338.82666 136.306641 338.920044 136.293396 C 342.813232 135.773315 346.253296 135.213379 349.333252 134.640015 C 352.506592 134.133362 355.706543 133.786682 358.839966 133.34668 C 371.053345 131.746704 378.199951 130.800049 385.839966 129.786682 C 398.493286 128.160034 409.573242 126.800049 423.413208 125.680054 C 430.333252 125.053345 437.959961 124.720032 446.799927 124.213379 C 455.639893 123.93335 465.719971 123.546692 477.573242 123.546692 C 485.439941 123.480042 490.039917 123.466675 492.58667 123.386658 C 495.119995 123.293396 495.599976 123.146729 495.213257 122.960022 C 494.453369 122.613342 490.253296 122.17334 492.293335 121.893372 C 494.599976 121.600037 490.853394 121.253357 484.466675 120.960022 C 478.093262 120.760071 469.079956 120.413391 460.906616 120.400024 C 457.320068 120.386658 451.133301 120.373352 445.773315 120.493408 C 440.426636 120.666687 435.920044 120.866699 435.679932 121.026733 C 435.053345 121.453369 431.959961 121.800049 427.213257 122.133362 C 422.466675 122.546692 416.079956 122.960022 408.839966 123.360046 C 401.626709 123.919983 393.559937 124.413391 385.479858 125.146729 C 377.413208 125.960022 369.306641 126.626709 362.026611 127.680054 L 357.359985 128.266663 C 357.359985 128.266663 352.719971 128.866699 352.333252 128.919983 C 350.879883 129 351.906616 128.800049 354.93335 128.373352 C 357.466675 127.986694 359.52002 127.65332 361.013184 127.373352 C 393.346558 122.560059 422.320068 121.080017 414.573242 119.773315 C 411.199951 119.23999 410.119995 118.146729 426.173218 116.560059 C 434.973267 115.826721 426.799927 115.253357 447.466675 114.626709 C 466.599976 114.293396 480.466675 115.013367 480.959961 115.666687 C 481.119995 115.880005 483.426636 115.973328 487.013184 116.080017 C 490.599976 116.213379 495.453369 116.306641 500.693359 116.413391 C 509.879883 116.600037 518.253296 116.800049 516.266602 116.466675 C 511.133301 115.640015 520.773315 115.186646 524.06665 114.573303 C 525.706543 114.266663 525.773315 113.919983 521.58667 113.466675 C 517.399902 113.053345 509 112.360046 493.666626 111.853333 C 485.613281 111.52002 478.199951 111.306641 482.906616 110.973328 C 490.839966 110.453369 494.813232 110.293396 491.626587 110.053345 C 490.039917 109.946716 486.65332 109.800049 481.079956 109.760071 C 475.506592 109.733337 467.76001 109.560059 457.386719 109.706665 C 454.106567 109.65332 450.719971 109.600037 447.173218 109.533325 C 443.533325 109.573303 439.746582 109.613342 435.813232 109.65332 C 427.853394 109.693359 419.119995 110.119995 409.639893 110.546692 C 415.786621 109.413391 415.986694 108.640015 409.946533 108.200012 C 406.920044 107.93335 402.333252 107.973328 396.160034 108.039978 C 393.06665 108.093384 389.58667 108.106689 385.693359 108.293396 C 381.706543 108.52002 377.413208 108.746704 372.799927 109.013367 C 370.773315 109.133362 368.813232 109.266663 366.906616 109.386658 C 364.973267 109.560059 363.093262 109.733337 361.266602 109.906677 C 357.493286 110.280029 353.93335 110.626709 350.506592 110.973328 C 343.533325 111.733337 336.920044 112.813354 330.253296 113.813354 C 323.58667 114.906677 316.920044 116.333374 309.82666 117.760071 C 306.279907 118.52002 302.65332 119.480042 298.879883 120.400024 C 295.106567 121.373352 291.160034 122.253357 287.053345 123.453369 C 251.266602 133.053345 216.146606 145.946716 183.413208 164.306641 C 179.719971 166.373352 176 168.386658 172.386719 170.573303 L 167.039917 173.760071 L 161.773315 177.066711 C 150.079956 184.306641 139.959961 191.613342 130.453369 199.17334 C 123.266602 204.880005 116.439941 210.760071 109.65332 217.026733 L 111.479858 213.773315 C 112.479858 211.946716 113.639893 210.226685 114.719971 208.453369 C 116.93335 204.946716 119.079956 201.373352 121.333252 197.893372 L 128.400024 187.65332 L 130.173218 185.093384 L 132.053345 182.626709 L 135.82666 177.693359 C 139.879883 172.146729 144.373291 167.119995 148.65332 162.080017 C 150.733276 159.52002 153.039917 157.213379 155.253296 154.880005 C 157.466675 152.560059 159.666626 150.266663 161.82666 148 C 164.079956 145.839966 166.359985 143.773315 168.559937 141.706665 C 170.799927 139.666687 172.893311 137.560059 175.160034 135.706665 C 177.399902 133.853333 179.613281 132.026733 181.799927 130.23999 C 184 128.480042 186.039917 126.640015 188.23999 125.119995 C 186.879883 126.119995 185.639893 127.160034 184.493286 128.160034 C 183.333252 129.160034 182.226685 130.119995 181.160034 131.026733 C 179.06665 132.866699 177.133301 134.560059 175.253296 136.213379 C 171.65332 139.58667 168.533325 142.866699 164.813232 146.453369 C 174.399902 138.026733 191.76001 122.466675 208.119995 111.400024 C 212.039917 108.360046 218.093262 104.826721 223.453369 101.440002 C 226.106567 99.706665 228.773315 98.320007 230.93335 97.026733 C 233.106567 95.760071 234.82666 94.693359 235.786621 93.973328 C 233.306641 95.253357 230.053345 97.013367 226.626709 98.866699 C 223.253296 100.786682 219.813232 102.986694 216.719971 104.813354 L 218.479858 103.693359 C 229.679932 96.333374 241.693359 90.106689 253.839966 84.160034 L 263.133301 80.066711 L 267.799927 78.013367 L 272.546631 76.186646 L 282.053345 72.52002 L 291.746582 69.306641 L 296.58667 67.693359 L 301.493286 66.293396 L 311.333252 63.52002 C 314.639893 62.706665 317.959961 61.973328 321.279907 61.186646 L 326.253296 60.013367 C 327.906616 59.626709 329.599976 59.373352 331.266602 59.039978 L 341.306641 57.160034 C 344.666626 56.58667 348.053345 56.17334 351.413208 55.666687 C 358.133301 54.560059 364.920044 54.106689 371.679932 53.373352 C 375.479858 52.986694 379.306641 52.853333 383.133301 52.58667 L 388.893311 52.226746 L 394.666626 52.133362 C 398.52002 52.093384 402.373291 51.93335 406.23999 52.013367 C 410.106567 52.119995 413.973267 52.226746 417.853394 52.333374 C 419.786621 52.34668 421.719971 52.493408 423.65332 52.640015 L 429.466675 53.053345 L 435.279907 53.466675 C 437.213257 53.626709 439.146606 53.893372 441.079956 54.106689 C 444.946533 54.560059 448.82666 54.946716 452.693359 55.480042 L 464.253296 57.306641 C 495.013184 62.600037 525.213257 71.720032 553.626587 84.226685 C 577.119995 94.253357 599.573242 107.080017 620.533325 122.119995 C 630.146606 129.026733 639.453369 136.453369 648.439941 144.306641 C 648.173218 144.626709 647.933228 144.946716 647.666626 145.266663 L 636.746582 159.106689 L 626.119995 172.600037 C 624.959961 174.053345 623.786621 175.493408 622.82666 177.066711 C 621.479858 179.093384 620.079956 181.080017 618.65332 183.039978 L 614.546509 187.93335 L 611.82666 191.666687 C 610.359985 193.386658 608.853394 195.066711 607.293335 196.720032 C 605.319946 198.960022 603.266602 201.146729 601.986694 203.853333 L 598.133301 209.306641 C 595.666626 212.306641 592.82666 215.160034 591.813232 218.799988 L 567.76001 249.666687 C 564.439941 253.93335 560.933228 257.626709 556.693359 259.666687 C 558.666626 257.813354 558.639893 255.826721 559.506592 253.893372 C 555.333252 253.839966 553.906616 258.58667 551.559937 261.706665 C 550.946533 263.720032 547.479858 265.533325 548.65332 267.65332 C 549.879883 267.213379 551.119995 265.880005 552.346558 265.039978 L 552.146606 265.400024 C 546.679932 274.58667 539.199951 282.453308 533.013184 291.160034 C 527.093262 301.786682 518.399902 310.693359 511.426636 320.666687 C 506.426636 329.466675 500 337.293396 493.266602 344.93335 C 492.439941 345.693359 491.626587 346.493347 490.866577 347.360046 L 492.76001 344.413391 L 492.973267 344.853333 L 495.453369 340.986694 C 495.226685 340.413391 494.719971 340.306641 493.986694 340.600037 C 492.866577 341.440002 492.106567 342.546692 491.533325 343.799988 C 491.479858 343.880005 491.479858 343.986694 491.52002 344.119995 C 490.946533 344.320007 490.399902 344.733337 489.866577 345.426697 C 488.599976 347.039978 487.239868 348.600037 486.186646 350.34668 L 486.119995 351.533325 L 487.186646 351.386658 L 487.346558 351.880005 L 488.293335 350.720032 C 487.82666 351.440002 487.386719 352.160034 486.986694 352.906677 C 483.959961 359.253357 479.866577 365.133362 475.173218 370.746704 L 473.266602 373.106628 C 472.279907 374.226685 471.266602 375.320007 470.306641 376.480042 C 469.693359 377.266663 469.119995 378.080017 468.639893 378.93335 C 466.639893 383.119995 464.199951 387.080017 460.786621 390.613342 C 460.359985 391.146667 459.946533 391.693359 459.546631 392.23999 C 459.320068 389.58667 463.039917 387.600037 463.879883 385.133362 C 463.65332 384.946716 463.426636 384.746704 463.226685 384.533325 L 461.506592 386.17334 C 460.773315 386.640015 460.06665 387.200012 459.373291 387.826721 C 458.679932 388.493347 458.079956 389.213379 457.573242 390.039978 C 456.986694 391.186646 456.119995 392.293396 455.773315 393.453308 C 455.320068 393.65332 454.906616 394.06665 454.559937 394.733337 L 454.626709 395.76001 L 455.679932 395.480042 L 455.82666 395.946716 L 457.186646 394.17334 C 457.426636 394.253357 457.639893 394.360046 457.866577 394.466675 C 457.186646 395.213379 456.466675 395.893372 455.733276 396.546692 C 455.106567 397.133362 454.493286 397.773315 453.93335 398.453308 C 453.359985 399.17334 452.82666 399.919983 452.373291 400.706665 C 451.906616 401.506653 451.466675 402.333374 451.106567 403.146667 C 451.053345 403.266663 451.026611 403.359985 450.973267 403.453308 C 451 403.333374 450.946533 403.146667 450.839966 402.919983 C 450.693359 402.58667 450.333252 402.52002 449.773315 402.719971 C 448.199951 403.600037 446.879883 405.026672 445.599976 406.546692 C 444.973267 407.293335 444.359985 408.053345 443.786621 408.840027 C 443.199951 409.600037 442.626709 410.373352 442.106567 411.17334 C 441.306641 412.386658 440.639893 413.600037 440.266602 414.840027 C 440.133301 415.613342 440.199951 416.266663 440.453369 416.799988 C 440.599976 416.919983 440.76001 416.986694 440.946533 417.040039 C 440.533325 417.680054 440.146606 418.306702 439.799927 418.960022 C 437.386719 423.626648 434.93335 428.280029 431.320068 432.533325 C 430.706543 433.306702 430.093262 434.06665 429.506592 434.866699 C 428.906616 435.626648 428.320068 436.386658 427.746582 437.186676 L 426.706543 438.573364 L 426.213257 439.253326 L 426.133301 439.413361 C 426.039917 439.640015 425.959961 439.893341 425.93335 440.186676 C 425.906616 440.519989 425.93335 440.893341 425.93335 441.280029 C 425.906616 441.506683 425.853394 441.720001 425.813232 441.93335 L 425.546631 442.426666 C 425.439941 442.573364 425.333252 442.706696 425.23999 442.866669 C 425.119995 443.013367 425.013184 443.146698 424.920044 443.320007 C 424.82666 443.480011 424.733276 443.640015 424.666626 443.853333 C 424.613281 444.066681 424.573242 444.306671 424.559937 444.58667 C 424.546631 445.013367 424.493286 445.413361 424.386719 445.746704 L 424.06665 446.253326 C 423.946533 446.386658 423.813232 446.519989 423.693359 446.680023 C 423.493286 446.893341 423.293335 447.106689 423.106567 447.34668 C 422.959961 447.493347 422.82666 447.666687 422.719971 447.866669 C 422.466675 448.253326 422.253296 448.720001 422.079956 449.373352 C 421.973267 449.866669 421.839966 450.360016 421.706543 450.82666 L 421.359985 451.600006 C 421.106567 452 420.839966 452.34668 420.573242 452.706696 L 420.413208 452.93335 C 420.386719 452.213348 420.266602 451.626678 420.079956 451.146698 C 419.879883 450.840027 419.746582 450.906677 419.65332 451.400024 L 419.65332 451.400024 C 419.52002 451.119995 419.386719 450.920013 419.266602 450.82666 C 418.82666 450.773346 418.52002 451.226685 418.293335 453.133331 C 418.279907 453.146698 418.279907 453.266693 418.279907 453.480011 C 418.186646 453.34668 418.106567 453.466675 418.039917 453.853333 C 418.013184 454.17334 418 454.493347 418 454.773346 L 417.959961 454.733337 C 417.879883 454.680023 417.799927 454.65332 417.719971 454.640015 L 417.573242 454.34668 C 417.439941 454.106689 417.293335 453.893341 417.160034 453.76001 C 416.946533 453.519989 416.733276 453.373352 416.52002 453.360016 C 416.386719 453.373352 416.23999 453.480011 416.106567 453.680023 C 416.026611 453.880035 415.946533 454.080017 415.866577 454.280029 C 415.813232 454.253326 415.76001 454.240021 415.706543 454.280029 L 415.666626 454.76001 L 415.546631 455.053345 C 415.506592 455.119995 415.453369 455.160004 415.413208 455.213348 C 415.426636 454.893341 415.439941 454.546692 415.426636 454.17334 C 415.373291 453.440033 415.266602 452.93335 415.106567 452.613373 L 414.986694 452.573364 C 415.053345 452.200012 415.06665 451.773346 415.026611 451.320007 C 414.946533 450.800018 414.839966 450.533356 414.693359 450.519989 C 414.533325 450.800018 414.399902 451.226685 414.293335 451.773346 C 414.199951 452.373352 414.160034 452.986664 414.160034 453.613373 L 414.23999 453.906677 C 414.199951 454.040009 414.173218 454.17334 414.133301 454.320007 C 414.053345 454.733337 414.013184 455.160004 414 455.600006 L 413.920044 455.146698 L 413.599976 455.426666 L 413.573242 455.613373 L 413.506592 455.559998 L 413.320068 455.373352 L 413.346558 455.200012 L 413.599976 455.426666 C 413.799927 455.013367 413.866577 454.453339 413.82666 453.773346 C 413.733276 453.200012 413.599976 452.93335 413.386719 452.973358 C 413.386719 452.973358 413.386719 453.053345 413.373291 453.17334 C 413.359985 453.053345 413.346558 452.93335 413.333252 452.82666 C 413.106567 452.119995 412.853394 451.906677 412.453369 452.680023 C 412.373291 453.026672 412.320068 453.373352 412.279907 453.733337 C 412.173218 454.093353 412.146606 454.386658 412.146606 454.65332 L 412.053345 454.626678 C 411.879883 454.533356 411.746582 454.333344 411.613281 454.080017 C 411.479858 453.506683 411.453369 452.786652 411.399902 452.146698 L 411.399902 452.119995 L 411.546631 451.533356 L 411.533325 451.426666 C 411.679932 451.413361 411.82666 451.373352 411.973267 451.320007 C 412.119995 451.200012 412.253296 451.013367 412.386719 450.773346 C 412.413208 451.093353 412.493286 451.293335 412.626709 451.360016 C 412.93335 451.266693 413.23999 451.093353 413.533325 450.58667 C 413.813232 450.080017 414.053345 449.466675 414.266602 448.600006 C 414.373291 447.973358 414.439941 447.34668 414.453369 446.733337 C 414.359985 445.893341 414.013184 446.053345 414.053345 444.866669 L 413.973267 444.813354 C 414.013184 444.453339 414 444.280029 413.959961 444.253326 C 414.039917 443.82666 414.079956 443.413361 414.106567 443.040009 L 414.119995 443.013367 C 414.173218 442.053345 413.986694 442.053345 413.839966 441.866669 C 413.733276 441.733337 413.599976 441.786652 413.386719 442.040009 L 412.920044 441.506683 C 412.799927 441.573364 412.666626 441.626678 412.546631 441.65332 C 412.533325 441.65332 412.52002 441.666687 412.52002 441.666687 L 412.466675 441.546692 C 412.386719 441.400024 412.306641 441.266693 412.199951 441.17334 C 412.106567 441.053345 412.013184 440.959991 411.906616 440.880035 C 411.813232 440.786652 411.706543 440.693329 411.599976 440.640015 C 411.493286 440.559998 411.373291 440.506683 411.23999 440.480011 C 411.093262 440.466675 410.906616 440.519989 410.693359 440.640015 L 410.626709 440.706696 C 410.679932 440.306671 410.639893 440.026672 410.493286 439.880035 C 410.573242 439.880035 410.639893 439.866669 410.733276 439.840027 C 411.079956 439.493347 411.386719 439.080017 411.679932 438.626678 L 411.879883 438.106689 L 411.82666 437.893341 C 411.733276 437.800018 411.559937 437.82666 411.320068 437.920013 L 410.613281 437.786652 C 410.226685 438.026672 409.893311 438.333344 409.599976 438.746704 C 409.466675 439.053345 409.399902 439.333344 409.439941 439.533356 C 409.466675 439.600006 409.506592 439.65332 409.559937 439.706696 C 409.346558 439.626678 409.160034 439.519989 408.986694 439.400024 L 408.799927 439.240021 C 408.52002 438.973358 408.226685 438.693329 407.93335 438.413361 C 407.466675 437.973358 407 437.546692 406.52002 437.146698 C 406.733276 437.240021 406.946533 437.306671 407.160034 437.360016 C 407.666626 437.17334 407.946533 436.773376 407.986694 436.160034 L 407.373291 435.06665 L 406.493286 434.06665 C 405.866577 433.440002 405.186646 432.906677 404.466675 432.506714 L 401.226685 429.626648 L 399.719971 428.013367 L 398.879883 428.680054 L 399.386719 429.840027 L 400.439941 430.160034 C 400.399902 430.293335 400.386719 430.453308 400.399902 430.65332 C 400.626709 431.34668 400.973267 432.053345 401.439941 432.746704 C 401.82666 433.253357 402.253296 433.733337 402.693359 434.200012 C 402.493286 434.053345 402.279907 433.893311 402.079956 433.746704 C 401.146606 432.946716 400.226685 432.133362 399.266602 431.386658 C 398.613281 430.919983 397.973267 430.533325 397.306641 430.226685 C 397.133301 430.17334 396.973267 430.133362 396.799927 430.093323 L 396.799927 429.466675 L 395.693359 428.52002 C 394.906616 428.266663 394.253296 428.266663 393.746582 428.533325 C 393.573242 428.719971 393.439941 428.93335 393.346558 429.17334 L 392.226685 428.786682 L 393.133301 429.65332 C 392.599976 429.386658 392.079956 429.053345 391.559937 428.693359 C 391.013184 428.253357 390.439941 427.840027 389.866577 427.493347 C 388.973267 426.93335 388.106567 426.293335 387.253296 425.58667 C 386.693359 425.06665 386.119995 424.533325 385.533325 424.040039 C 384.93335 423.52002 384.293335 423.040039 383.65332 422.640015 C 382.973267 422.280029 382.333252 422.053345 381.719971 421.986694 C 381.58667 422 381.466675 422.040039 381.346558 422.053345 C 381.186646 421.640015 380.973267 421.213379 380.706543 420.786682 C 380.346558 420.266663 379.946533 419.746704 379.52002 419.23999 C 379.52002 419.133362 379.506592 419.013367 379.466675 418.880005 C 379.160034 418.080017 378.613281 417.506714 377.839966 417.133362 L 377.920044 417.400024 C 377.546631 417 377.160034 416.613342 376.746582 416.23999 C 376.160034 415.680054 375.559937 415.133362 374.93335 414.640015 C 373.373291 413.58667 371.82666 412.546692 371.173218 413.960022 C 368.266602 415.17334 366.160034 408.17334 363.279907 409.160034 L 360.253296 406.333374 L 359.186646 406.293335 L 359.199951 406.306702 C 359.013184 405.893311 358.76001 405.466675 358.413208 405.053345 L 356.733276 403.253357 C 356.133301 402.680054 355.493286 402.213379 354.839966 401.826721 L 352.279907 401.013367 C 352.266602 400.719971 352.213257 400.41333 352.119995 400.06665 C 350.866577 397.160034 348.986694 394.360046 346.799927 391.626709 C 345.533325 390.146667 344.213257 388.746704 342.773315 387.440002 C 342.079956 386.826721 341.373291 386.280029 340.626709 385.799988 C 339.920044 385.386658 339.293335 385.213379 338.693359 385.226685 L 337.693359 384.160034 L 337.079956 384.746704 L 338.039917 385.773315 C 337.813232 386 337.546631 386.17334 336.986694 385.946716 C 336.06665 385.41333 335.226685 384.65332 334.399902 383.893372 C 333.786621 383.280029 333.160034 382.65332 332.533325 382.093384 C 332.160034 381.719971 331.786621 381.386658 331.399902 381.053345 C 331.573242 381.106628 331.733276 381.160034 331.893311 381.186646 C 332.706543 380.906677 333.026611 380.160034 333.160034 379.253357 C 333.23999 378.680054 333.279907 378.080017 333.226685 377.426697 C 333.133301 376.760071 332.920044 376.080017 332.559937 375.360046 C 332.173218 374.65332 331.706543 373.986694 331.160034 373.333374 L 330.320068 372.426697 L 325.599976 367.58667 C 322.079956 367.093384 317.293335 356.786682 314.613281 362.880005 C 314.599976 363.413391 314.746582 364.013367 315.093262 364.666687 L 315.160034 364.760071 L 315.079956 364.813354 C 314.626709 364.066711 314.053345 363.560059 313.306641 363.293396 C 312.786621 362.813354 312.23999 362.386658 311.679932 362.013367 C 304.706543 354.186646 304.039917 353.893372 302.773315 358.080017 C 304.719971 359.226685 306.799927 359.65332 308.546631 361.906677 C 309.253296 362.480042 309.946533 362.826721 310.626709 362.973328 C 310.879883 362.973328 311.06665 362.906677 311.226685 362.813354 L 311.226685 363.613342 C 311.706543 364.413391 312.320068 365.093384 313.06665 365.666687 C 313.453369 365.853333 313.799927 365.973328 314.119995 366.013367 L 314.06665 366.066711 L 313.82666 366.013367 C 314.053345 366.626709 314.413208 367.133362 314.879883 367.533325 L 314.479858 367.440002 L 314.693359 368.58667 L 315.839966 369.893372 C 315.546631 369.826721 315.253296 369.773315 314.973267 369.773315 C 314.466675 369.839966 314.026611 369.960022 313.613281 370.160034 C 313.453369 370.23999 313.279907 370.306641 313.106567 370.373352 L 312.76001 369.986694 L 312.533325 370.026733 C 312.173218 369.613342 311.786621 369.23999 311.359985 368.93335 C 311.199951 368.760071 310.959961 368.65332 310.626709 368.613342 C 310.373291 368.573303 310.253296 368.720032 310.266602 369.039978 L 309.973267 368.600037 L 308.839966 367.973328 L 308.799927 367.93335 L 308.799927 367.866699 C 308.52002 367.106628 308.039917 366.65332 307.373291 366.466675 C 306.93335 366.026733 306.493286 365.613342 306.026611 365.213379 C 304.253296 363.533325 302.599976 363.253357 300.93335 362.893372 C 294.76001 362.066711 289.013184 362.506653 281.533325 357.253357 C 276.559937 353.773315 277.026611 358.746704 274.893311 359.680054 C 272.506592 360.733337 274.160034 364.266663 275.479858 367.23999 C 276.06665 368.546692 278.293335 371 279.133301 370.333374 C 283.719971 366.693359 287.733276 373.786682 291.93335 377.440002 L 292.52002 378.106628 C 292.52002 378.106628 293.173218 378.693359 293.23999 378.760071 C 293.160034 379.200012 292.82666 379.23999 292.306641 378.93335 C 291.82666 378.733337 291.359985 378.626709 290.93335 378.640015 C 284.813232 375.93335 279.52002 373.440002 276.346558 378.386658 C 274.959961 380.546692 272.106567 383.480042 267.959961 383.23999 C 265.679932 383.106628 264.58667 386.226685 261.82666 383.506653 C 259.266602 381 258.893311 377.786682 260.52002 376.119995 C 261.546631 375.080017 260.479858 373.786682 259.146606 372.333374 C 257.986694 371.053345 256.599976 370.200012 256.186646 371.106628 C 254.026611 375.786682 243.533325 373.080017 248.546631 384.119995 C 249.199951 385.573303 249.546631 387.146667 248.039917 387.360046 C 242.959961 388.06665 242.959961 388.06665 247.986694 393.93335 C 248.573242 396.693359 250.013184 399.400024 252.306641 402.093384 C 246.373291 404.493347 244.253296 409.426697 245.199951 418.053345 C 246.013184 425.41333 248.82666 428 255.146606 430.613342 L 271.799927 442.800018 L 273.373291 444.466675 L 274.906616 446.119995 C 277.479858 450.519989 281.693359 452.119995 285.093262 455.119995 L 288.186646 458.400024 C 291.119995 461.986664 295.693359 463.293335 298.06665 467.680023 L 306.693359 475.040009 L 331.079956 495.440033 C 331.279907 496.293335 331.786621 496.866669 332.65332 497.119995 C 334.546631 498.800018 336.413208 500.466675 338.306641 502.133331 L 339.719971 503.386658 L 340.06665 503.693329 L 340.639893 504.226685 L 341.839966 505.373352 C 343.426636 506.82666 345.013184 508.306671 346.626709 509.813354 C 355.413208 517.82666 363.93335 526.400024 372.399902 534.599976 C 380.82666 542.76001 389.186646 550.533325 396.959961 556.200012 C 398.333252 558.359985 398.773315 560.186646 400.466675 562.506714 C 403.973267 567.133301 407.359985 570.280029 410.439941 572.053345 C 411.160034 574.119995 413.093262 575.986694 415.306641 577.76001 L 423.399902 586.040039 L 425.546631 583.200012 L 426.373291 581.546692 L 426.693359 580.253296 C 426.773315 579.533325 426.613281 579.133301 426.253296 579.040039 C 427.306641 577.306641 428.293335 575.546692 429.146606 573.800049 C 429.893311 572.226685 430.386719 570.82666 430.666626 569.599976 C 431.106567 569.320007 431.573242 568.959961 432.06665 568.493347 C 432.679932 567.866699 433.293335 567.186646 433.906616 566.47998 L 432.293335 569 C 432.253296 569.626709 432.23999 570.226685 432.253296 570.800049 L 436.973267 565.026672 C 437.799927 564.506714 438.599976 563.52002 439.359985 562.106689 L 439.026611 561.840027 L 441.346558 558.866699 L 441.346558 558.866699 L 443.639893 555.946655 C 443.559937 555.41333 443.453369 554.893311 443.320068 554.426636 L 441.119995 557.746704 L 441.119995 557.746704 C 440.346558 558.386658 439.639893 559.293335 438.986694 560.47998 L 438.986694 560.47998 L 437.679932 561.800049 C 439.386719 559.58667 441.053345 557.306641 442.626709 554.866699 C 443.76001 553.080017 444.893311 551.266663 446 549.533325 C 446.546631 548.773315 447.079956 548.026672 447.613281 547.293335 L 447.853394 548.93335 L 450.506592 545.93335 L 450.133301 545.82666 L 451.279907 544.506714 C 451.279907 544.506714 452.320068 542.959961 452.320068 542.946655 C 452.279907 542.58667 452.23999 542.200012 452.213257 541.813354 L 449.786621 544.466675 C 449.786621 544.466675 449.799927 544.426636 449.82666 544.373352 C 450.533325 543.453369 451.253296 542.546692 451.973267 541.626709 C 452.786621 540.599976 453.599976 539.559998 454.399902 538.493347 C 455.613281 536.93335 456.813232 535.373352 457.973267 533.733337 C 458.733276 532.65332 459.453369 531.573364 460.133301 530.440002 C 460.76001 529.333374 461.466675 528.320007 462.266602 527.333374 C 463.053345 526.613342 463.866577 525.893311 464.639893 525.17334 C 465.786621 524.146729 466.920044 523.146729 468.06665 522.040039 C 468.866577 521.253296 469.65332 520.386658 470.439941 519.426636 C 471.186646 518.41333 471.879883 517.386658 472.493286 516.333374 C 472.666626 516 472.853394 515.640015 473.039917 515.293335 L 473.213257 515.226685 C 473.906616 514.426636 474.453369 513.599976 474.866577 512.786621 C 475.613281 512.359985 476.306641 511.480011 476.920044 510.17334 L 476.639893 510.266663 L 476.013184 509.559998 L 476.279907 509.106689 C 476.279907 509.106689 476.52002 508.773346 476.773315 508.440002 C 477.026611 508.106689 477.266602 507.773346 477.266602 507.773346 C 477.266602 507.773346 477.533325 507.453339 477.799927 507.133331 C 478.06665 506.813354 478.319946 506.493347 478.319946 506.493347 C 479.506592 505.280029 480.719971 504.213348 481.920044 503.040009 C 482.799927 502.160004 483.693359 501.226685 484.546509 500.240021 C 485.439941 499.200012 486.346558 498.106689 487.213257 497 C 488.146606 495.840027 489.06665 494.666687 489.946533 493.480011 C 490.386719 492.893341 490.813232 492.293335 491.253296 491.693329 C 491.439941 491.413361 491.639893 491.133331 491.839966 490.840027 C 491.959961 490.65332 492.06665 490.453339 492.186646 490.253326 C 492.626587 489.440033 492.946533 488.640015 493.133301 487.840027 C 493.253296 486.746704 492.413208 486.453339 492.359985 485.493347 C 492.799927 485.76001 493.319946 485.733337 494.013184 485.17334 C 494.706543 484.453339 495.239868 483.720001 495.493286 482.973358 C 497.76001 481.533356 499.559937 479.426666 501.160034 477.013367 C 502.053345 475.600006 502.866577 474.160004 503.639893 472.720001 C 504.213257 471.786652 504.76001 470.840027 505.266602 469.880035 C 505.65332 469.160004 505.986694 468.426666 506.253296 467.706696 C 506.413208 467.986664 506.679932 468.160004 507.053345 468.186676 C 508 468.106689 508.986694 467.626678 510.013184 466.786652 C 510.613281 466.119995 511.093262 465.413361 511.453369 464.640015 C 512.199951 463.17334 513.279907 461.800018 514.039917 460.333344 C 514.399902 459.626678 514.679932 458.93335 514.906616 458.226685 C 515.079956 457.573364 515.266602 456.93335 515.413208 456.293335 C 515.733276 455.306671 516.333252 454.519989 517.173218 453.893341 C 518.06665 453.400024 518.973267 452.880035 519.866577 452.133331 C 520.146606 451.813354 520.426636 451.480011 520.706543 451.17334 C 520.959961 450.82666 521.239868 450.466675 521.493286 450.119995 L 521.773315 449.693329 C 522 449.440033 522.173218 449.146698 522.306641 448.82666 C 522.933228 447.733337 523.599976 446.58667 524.226685 445.493347 C 525.239868 443.559998 526.253296 441.626678 527.293335 439.65332 C 527.839966 438.546692 528.399902 437.413361 528.946533 436.293335 C 529.333252 435.573364 529.76001 434.880005 530.226685 434.17334 L 531.719971 432.186646 L 532.186646 431.52002 L 532.173218 431.52002 C 531.746582 432.293335 531.306641 433.080017 530.920044 433.853333 C 530.506592 434.666687 530.133301 435.480042 529.839966 436.280029 C 528.986694 438.853333 527.559937 441.34668 525.853394 443.82666 C 525.346558 444.613373 524.853394 445.386658 524.413208 446.186676 C 524.079956 446.800018 523.719971 447.386658 523.333252 447.959991 L 523.239868 448.040009 C 522.813232 448.519989 522.479858 449.026672 522.213257 449.546692 L 521.546509 450.386658 C 521 451.040009 520.479858 451.706696 520.013184 452.413361 C 519.359985 453.480011 518.693359 454.546692 518.039917 455.613373 L 516.58667 457.666687 L 515.039917 459.693329 C 514.506592 460.373352 513.973267 461.066681 513.479858 461.773346 C 512.959961 462.480011 512.493286 463.213348 512.06665 463.973358 C 511.679932 464.733337 511.399902 465.493347 511.266602 466.213348 C 511.279907 466.386658 511.306641 466.533356 511.346558 466.666687 L 510.58667 467.626678 C 510.773315 467.76001 510.946533 467.880035 511.146606 467.986664 C 511.413208 467.840027 511.679932 467.666687 511.946533 467.480011 L 512.039917 467.546692 C 512.546509 467.680023 513.106567 467.720001 513.719971 467.640015 C 516.053345 469.640015 518.293335 466.133331 519.879883 463.600006 C 527.199951 451.946686 536.293335 441.066681 543.199951 429.506714 C 547.013184 423.133362 553.146606 417.786682 555.226685 410.919983 C 563.439941 399.293396 573.52002 388.893372 580.773315 376.626709 C 582.133301 375.760071 583.133301 374.640015 583.546509 373.066711 C 599.479858 351.106628 613.559937 328.119995 630.599976 306.786682 L 631.333252 305.919983 C 632.079956 305.039978 632.893311 304.266663 633.733276 303.533325 C 634.319946 302.93335 634.58667 302.333374 634.546509 301.746704 C 635.253296 297 639.626587 294.053345 642.359985 290.293396 C 643 289.773315 643.599976 289.160034 644.119995 288.466675 C 645.106567 287.013367 646.039917 285.546692 647.106567 284.160034 L 648.786621 282.013367 C 649.706543 280.893372 650.613281 279.760071 651.413208 278.546692 C 652.186646 277.480042 652.946533 276.386658 653.626587 275.266663 C 653.559937 275.480042 653.546509 275.733337 653.58667 276.026733 C 653.786621 276.23999 654.013184 276.426697 654.266602 276.58667 C 655.373291 275.52002 655.399902 274.826721 654.746582 274.360046 L 654.799927 274.493347 C 654.399902 274.533325 654.093262 274.65332 653.893311 274.839966 C 654.173218 274.34668 654.453369 273.853333 654.693359 273.34668 C 655.06665 272.693359 655.333252 272.053345 655.466675 271.440002 C 656.06665 271.293396 656.52002 270.799988 656.799927 269.906677 C 660.386719 265.053345 663.666626 259.880005 668.546509 256.400024 C 668.786621 255.720032 669.133301 255.053345 669.573242 254.400024 C 670.053345 253.773315 670.479858 253.106628 670.839966 252.426697 C 671.146606 251.413391 670.786621 250.720032 671.160034 249.680054 L 674.973267 244.160034 L 684.746582 231.773315 C 686.279907 229.880005 688.813232 228.253357 688.279907 225.799988 L 704.533325 205.293396 C 705.226685 206.200012 705.920044 207.119995 706.599976 208.026733 L 709.746582 211.893372 L 707.52002 208.58667 L 708.506592 209.706665 L 704.879883 204.853333 L 704.893311 204.839966 C 707.199951 207.880005 709.506592 210.906677 711.773315 213.880005 C 722.133301 228.093384 732.040039 243.133362 740.813232 259.146667 C 749.47998 275.213379 757.41333 292.013367 764.040039 309.560059 C 765.866699 314.413391 767.453369 319.333374 769.199951 324.226685 C 770.533203 327.826721 771.546631 331.506653 772.626709 335.17334 C 773.693359 338.839966 774.773193 342.506653 775.853271 346.186646 C 777.093262 351.160034 778.320068 356.066711 779.533203 360.919983 C 784.946533 383.41333 788.306641 406.93335 788.93335 431.946716 C 789.013184 433.693359 789.079834 435.440002 789.146484 437.17334 C 789.17334 438.920013 789.133301 440.65332 789.133301 442.400024 C 789.079834 441.146698 789.040039 439.76001 789.026611 438.240021 C 788.986572 436.719971 788.853271 435.093323 788.773193 433.359985 C 788.639893 429.906677 788.47998 426.133362 788.320068 422.253357 C 788.266602 418.373352 787.746582 414.440002 787.466553 410.680054 C 787.120117 406.93335 786.786621 403.34668 786.426758 400.23999 C 786.34668 400.226685 786.23999 400.133362 786.133301 399.946716 L 787.159912 411.906677 C 787.320068 414.013367 787.47998 416.17334 787.639893 418.386658 C 787.76001 420.626648 787.786621 422.919983 787.866699 425.280029 C 787.959961 427.693359 788.040039 430.106689 788.133301 432.533325 C 788.199951 434.946716 788.41333 437.386658 788.333252 439.82666 C 788.333252 443.053345 788.320068 446.440033 788.320068 449.76001 C 788.293213 453.080017 788.386719 456.320007 788.199951 459.200012 C 788 461.440033 787.800049 464.413361 787.613281 468.186676 L 787.58667 472.040009 L 788.026611 467.666687 L 788.053223 469.053345 L 788.733398 457.640015 C 788.813232 457.240021 788.906494 456.946686 788.986572 456.640015 C 788.639893 461.800018 788.306641 466.813354 787.973145 471.773346 C 787.906494 472.853333 787.82666 473.946686 787.746582 475.053345 C 787.626709 476.146698 787.493408 477.253326 787.359863 478.360016 C 787.106689 480.573364 786.853271 482.813354 786.599854 485.040009 C 786.359863 487.386658 786.106689 489.720001 785.853271 492.053345 C 785.626709 494.373352 785.159912 496.65332 784.853271 498.920013 C 784.120117 503.559998 783.47998 508.213348 782.746582 512.599976 L 782.426758 514.213379 C 782.533203 513.626709 782.626709 513.053345 782.679932 512.466675 C 782.773193 511.640015 782.493408 512.453369 781.879883 514.946655 C 780.893311 519.080017 779.866699 523.573364 778.82666 528.266663 C 777.693359 532.93335 776.266602 537.746704 774.986572 542.640015 C 773.813232 547.47998 772.133301 552.119995 770.639893 556.840027 C 769.879883 559.186646 769.120117 561.506714 768.373291 563.840027 C 767.613281 566.160034 766.65332 568.400024 765.813232 570.666687 C 764.52002 574.093323 763.253418 577.440002 762.040039 580.65332 C 760.800049 583.840027 759.399902 586.786621 758.226563 589.626709 C 756.866699 592.880005 756.013184 595.093323 755.613281 596.34668 C 755.639893 596.400024 755.773193 596.226685 755.959961 595.93335 L 754.800049 598.546692 L 753.506592 601.053345 C 752.65332 602.719971 751.800049 604.373352 750.959961 606.013367 C 739.06665 629.386658 724.359863 651.333374 704.82666 671.82666 C 701.293335 675.34668 697.76001 678.840027 694.213257 682.359985 C 690.599976 685.719971 686.853394 688.906677 683.186646 692.200012 C 681.013184 694.226685 678.613281 695.986694 676.306641 697.82666 C 674 699.666687 671.679932 701.506714 669.373291 703.333374 C 664.666626 706.880005 659.799927 710.17334 655.093262 713.599976 C 652.439941 715.386658 649.76001 717.053345 647.133301 718.773315 Z M 523.079956 793.613342 C 521.746582 793.719971 520.346558 793.82666 518.879883 793.93335 L 520.306641 793.640015 C 521.106567 793.47998 521.906616 793.280029 522.706543 793.093323 C 524.213257 792.959961 525.706543 792.82666 527.213257 792.679993 C 525.839966 793 524.466675 793.306641 523.079956 793.613342 Z M 515.559937 794.186646 C 516.813232 793.920044 518.06665 793.666687 519.319946 793.400024 C 519.373291 793.400024 519.413208 793.400024 519.466675 793.386658 C 518.306641 793.640015 517.160034 793.906677 515.986694 794.146667 C 515.839966 794.160034 515.706543 794.17334 515.559937 794.186646 Z M 273.52002 767.52002 C 272.479858 767.213318 271.399902 766.906677 270.320068 766.599976 C 270.320068 766.52002 270 766.359985 269.333252 766.080017 C 266.946533 765.213318 263.399902 764.040039 258.82666 762.599976 C 257.799927 762.266663 256.733276 762.013306 255.719971 761.613342 C 256.399902 761.773315 255.906616 761.506714 254.026611 760.719971 C 250.746582 759.426636 247.06665 758.040039 242.973267 756.573364 C 239.773315 755.466675 237.639893 754.853333 236.546631 754.52002 C 236.160034 754.493347 236.773315 754.93335 238.506592 755.679993 L 241.06665 756.65332 C 240.546631 756.506714 240.039917 756.359985 239.573242 756.213318 C 238.946533 756.093323 239.133301 756.253357 239.946533 756.640015 L 237.079956 755.52002 C 235.226685 754.799988 233.386719 754.013306 231.546631 753.266663 C 231.546631 753.280029 231.493286 753.280029 231.479858 753.280029 L 229.906616 752.613342 L 225.93335 750.893311 C 226 750.906677 225.986694 750.893311 226.039917 750.893311 L 231.546631 753.266663 C 234.253296 754.306641 234.466675 754.266663 231.719971 752.946655 C 228.253296 751.34668 224.413208 749.666687 220.186646 747.893311 C 220.186646 747.893311 220.373291 747.986694 220.58667 748.106689 C 219.973267 747.82666 219.373291 747.546631 218.693359 747.226685 C 211.719971 743.746704 205.52002 740.546631 200.799927 738.453369 C 200.719971 738.506714 200.920044 738.693359 201.413208 739.026672 C 200.839966 738.840027 201.306641 739.146667 202.306641 739.706665 L 200.493286 738.813354 C 198.866577 738.06665 197.373291 737.146667 195.866577 736.266663 C 194.359985 735.386658 192.866577 734.506714 191.373291 733.640015 C 187.026611 731 183.733276 729.013306 180.106567 726.666687 L 179.920044 726.533325 C 179.893311 726.466675 179.866577 726.386658 179.786621 726.280029 L 179.279907 725.920044 C 180.439941 726.719971 181.666626 727.41333 182.879883 728.080017 C 184.093262 728.76001 185.293335 729.426636 186.479858 730.093323 C 188.626709 731.253357 190.479858 732.266663 192.119995 733.160034 C 193.853394 734.226685 196.146606 735.573364 199.039917 737.253357 C 204.946533 740.133301 210.533325 742.82666 215.106567 744.959961 C 216.213257 745.466675 217.253296 745.986694 218.266602 746.400024 C 219.279907 746.786682 220.253296 747.160034 221.160034 747.52002 C 222.946533 748.186646 224.426636 748.733337 225.493286 749.080017 C 226.039917 749.160034 225.320068 748.706665 223.226685 747.666687 C 221.546631 746.880005 219.65332 746.106689 217.746582 745.17334 C 215.866577 744.213318 213.920044 743.226685 212 742.23999 C 208.173218 740.293335 204.479858 738.400024 201.746582 736.893311 C 200.866577 736.440002 199.959961 736.040039 199.119995 735.52002 C 197.946533 734.746704 196.639893 733.959961 195.23999 733.146667 C 194.639893 732.679993 193.373291 731.840027 191.226685 730.506714 L 191.399902 730.599976 C 188.82666 729 185.82666 727.213318 182.65332 725.359985 C 179.546631 723.386658 176.373291 721.186646 173.199951 719.106689 C 168.893311 716.17334 164.719971 713.679993 161.266602 711.093323 C 158.320068 708.93335 155.359985 706.773315 152.52002 704.453369 L 148.226685 701.040039 C 146.799927 699.893311 145.426636 698.666687 144.026611 697.493347 C 141.439941 695.34668 138.82666 693.17334 136.293335 690.840027 L 135.626709 690.253357 C 134.946533 689.613342 134.266602 688.986694 133.573242 688.34668 C 130.199951 685.306641 127.106567 682.080017 123.82666 678.93335 C 120.813232 675.733337 117.733276 672.680054 114.813232 669.426636 C 111.986694 666.23999 109.106567 663.17334 106.426636 659.893311 C 105.093384 658.306641 103.76001 656.719971 102.426636 655.160034 C 101.119995 653.573364 99.879883 651.93335 98.599976 650.34668 C 97.346558 648.773315 96.133301 647.253296 94.946533 645.786621 C 93.82666 644.293335 92.733276 642.853333 91.679932 641.466675 L 91.413208 641.160034 C 89.813232 638.906677 88.146606 636.599976 86.533325 634.133301 C 84.920044 631.693359 83.146606 629.226685 81.466675 626.58667 C 82.333252 627.959961 83.266602 629.253296 84.160034 630.52002 C 85.599976 632.373352 86.026611 632.733337 85.413208 631.58667 C 84.386719 629.986694 83.320068 628.426636 82.346558 626.800049 C 81.053345 624.773315 79.773315 622.746704 78.493286 620.733337 C 75.839966 616.613342 73.573242 612.613342 71.253296 608.946655 L 65.853394 599.266663 L 60.76001 589.426636 C 59.160034 586.306641 59 586.266663 60.079956 588.893311 C 61.746582 592.426636 63.626709 596.293335 65.82666 600.533325 C 66.746582 602.213379 67.666626 603.893311 68.58667 605.559998 C 65.666626 600.47998 63.013306 595.226685 60.320068 589.959961 C 58.439941 585.959961 56.479858 581.986694 54.706665 577.946655 C 53.413208 574.986694 52.133301 572.040039 50.866577 569.133301 C 51.293335 570.119995 51.746582 571.053345 52.146606 571.906677 C 52.693359 572.82666 52.613281 572.293335 51.893311 570.320007 C 51.106567 568.400024 50.426636 566.440002 49.679932 564.52002 C 48.879883 562.400024 48.013306 560.306641 47.253296 558.186646 C 45.76001 553.853333 44.160034 549.853333 42.93335 546.013367 C 40.639893 539.080017 38.58667 532.06665 36.773315 525 C 35.946533 521.359985 34.946533 517.746704 34.253296 514.06665 C 34.119995 513.906677 34 513.773315 33.879883 513.680054 C 34.213257 515.666687 34.599976 517.626709 35.053345 519.58667 L 36.333252 524.280029 C 36.386719 524.65332 36.479858 525.17334 36.639893 525.973389 C 37.346558 529.280029 38.386719 532.93335 39.453369 537.040039 C 40.320068 540.146729 41.346558 543.226685 42.306641 546.34668 C 41.920044 545.133301 41.533325 543.946655 41.133301 542.733337 L 39.706665 538.293335 L 38.439941 533.813354 C 37.599976 530.813354 36.679932 527.853333 35.986694 524.880005 C 35.053345 520.986694 34.013306 517.41333 33.320068 514.080017 C 33.133301 513.280029 32.959961 512.559998 32.786743 511.840027 L 32.439941 509.519989 L 31.693359 505.906677 L 31.079956 502.266663 C 30.373291 498.693329 29.879883 496.493347 29.58667 495.693329 C 29.533325 495.773346 29.52002 496.133331 29.546631 496.680023 C 29.173218 494.946686 28.959961 493.200012 28.666626 491.453339 C 28.93335 493.559998 29.199951 495.65332 29.58667 497.746704 C 29.013306 494.946686 28.666626 491.906677 28.213257 488.786652 C 27.986694 487.026672 27.706665 485.280029 27.52002 483.559998 C 27.346558 481.82666 27.173218 480.133331 27.013306 478.480011 C 26.386719 473.306671 26.173218 467.893341 25.839966 462.333344 C 25.786743 458.426666 25.719971 454.453339 25.666626 450.58667 C 25.786743 446.533356 25.799927 442.546692 25.946533 438.786652 C 26.146606 435.160034 26.266602 432.053345 26.333252 429.65332 C 26.320068 429.280029 26.320068 428.960022 26.320068 428.613342 C 26.58667 426.466675 26.893311 424.200012 27.213257 421.733337 C 27.413208 420.119995 27.559937 418.493347 27.813232 416.866699 C 28.079956 415.23999 28.346558 413.613342 28.599976 411.986694 C 28.693359 411.546692 28.786743 411.053345 28.893311 410.480042 C 29.533325 406.480042 30.413208 402.52002 31.093384 398.506653 L 30.813232 399.746704 C 31.320068 396.973328 31.986694 394.253357 32.613281 391.546692 C 33.479858 387.506653 34.58667 383.546692 35.626709 379.666687 C 35.639893 379.626709 35.65332 379.573303 35.666626 379.533325 C 35.573242 380.546692 35.493286 381.560059 35.400024 382.58667 L 34.853394 388.680054 C 34.706665 390.719971 34.65332 392.746704 34.533325 394.786682 C 34.333252 398.853333 34.133301 402.919983 33.946533 406.960022 C 33.893311 411.013367 33.839966 415.053345 33.799927 419.080017 C 33.773315 421.093323 33.746582 423.106689 33.719971 425.106689 C 33.733276 427.106689 33.82666 429.106689 33.866577 431.106689 C 33.973267 435.080017 34.079956 439.053345 34.173218 443 C 34.373291 446.946686 34.666626 450.853333 34.893311 454.733337 C 35.226685 458.413361 35.533325 462.400024 36.133301 466.65332 C 36.666626 470.906677 37.186646 475.080017 37.693359 479.160004 C 38.626709 484.440033 39.146606 486.160004 40.160034 491.720001 C 41.039917 497.706696 42.479858 503.58667 43.719971 509.506683 C 44.866577 515.453369 46.599976 521.253296 48.106567 527.119995 C 55.426636 554.666687 66.199951 581.34668 80.160034 606.306641 C 81.813232 609.186646 83.346558 612.280029 85.186646 615.200012 C 87.026611 618.119995 88.853394 621.040039 90.599976 623.840027 C 91.493286 625.226685 92.359985 626.58667 93.199951 627.906677 C 94.039917 629.226685 94.986694 630.41333 95.82666 631.573364 C 97.546631 633.893311 99.119995 635.946655 100.493286 637.640015 C 116.226685 658.853333 133.866577 678.559998 153.546631 696.186646 C 173.320068 713.693359 195.039917 728.93335 218.026611 741.840027 L 224.666626 745.599976 C 226.866577 746.880005 229.199951 747.906677 231.466675 749.06665 L 245.133301 755.82666 L 259.133301 761.853333 C 261.479858 762.82666 263.786621 763.906677 266.173218 764.786682 L 273.306641 767.426636 L 273.599976 767.533325 C 273.573242 767.533325 273.546631 767.52002 273.52002 767.52002 Z M 78.173218 287.826721 C 79.146606 286.440002 80.119995 285.066711 81.106567 283.746704 C 84.106567 279.493347 87.333252 275.426697 90.546631 271.280029 C 92.65332 268.720032 94.813232 266.053345 97.173218 263.280029 C 99.599976 260.546692 101.706665 258.160034 103.773315 255.826721 C 103.866577 255.746704 105.119995 254.613342 105.119995 254.613342 C 105.119995 254.613342 104.373291 255.386658 103.65332 256.106628 C 102.946533 256.826721 102.320068 257.533325 102.506592 257.333374 C 100.426636 259.693359 98.573242 261.826721 97.039917 263.573303 C 95.613281 265.306641 94.613281 266.640015 94.173218 267.320007 C 94.573242 266.946716 95.173218 266.34668 95.93335 265.533325 C 93.079956 268.880005 90.213257 272.186646 87.506592 275.640015 C 87.506592 275.640015 86.626709 276.760071 85.746582 277.880005 C 84.853394 279 84.013306 280.133362 84.013306 280.133362 L 80.58667 284.65332 C 79.719971 285.773315 78.906616 286.93335 78.093384 288.093384 C 78.119995 288 78.146606 287.919983 78.173218 287.826721 Z M 424.866577 51.480042 L 425.146606 51.506653 C 424.920044 51.493408 424.666626 51.480042 424.439941 51.466675 C 424.573242 51.466675 424.706543 51.466675 424.866577 51.480042 Z M 719.813232 185.919983 C 721.026611 187.906677 725.079834 193.600037 730.293213 200.666687 C 726.839844 196.053345 723.17334 191.306641 719.359985 186.493408 Z M 720.986572 184.426697 C 721.186768 184.720032 721.386719 185.026733 721.573242 185.320007 C 721.386719 185.080017 721.199951 184.826721 721.013184 184.58667 L 720.93335 184.493408 Z M 801.76001 341.146667 L 798.34668 331.853333 C 797.986572 330.853333 797.613281 329.839966 797.23999 328.839966 C 797.466553 329.440002 797.706543 330.039978 797.93335 330.626709 C 799.17334 334.146667 800.493408 337.640015 801.76001 341.146667 Z M 804.146484 348.253357 C 803.386719 345.906677 802.613281 343.573303 801.786621 341.253357 C 802.279785 342.626709 802.773193 344.013367 803.226563 345.400024 C 803.533203 346.360046 803.839844 347.293396 804.146484 348.253357 Z M 724.17334 180.386658 C 734.426758 196.280029 744.82666 213 754.386719 229.720032 C 767.599854 252.706665 779.106689 275.706665 787.373291 295.733337 C 789.17334 300.093384 791.053223 304.640015 793.013184 309.34668 C 794.906494 314.17334 796.866699 319.160034 798.853271 324.226685 C 800.706543 329.373352 802.58667 334.58667 804.439941 339.773315 C 805.41333 342.34668 806.199951 344.973328 807.013184 347.560059 C 807.82666 350.146667 808.639893 352.706665 809.426758 355.23999 C 808.120117 351.386658 806.599854 346.893372 805.06665 342.386658 C 803.373291 337.93335 801.693359 333.506653 800.253418 329.733337 C 799.546631 327.880005 798.919922 326 798.17334 324.186646 C 796.679932 320.506653 795.17334 316.826721 793.706543 313.200012 C 791.47998 307.533325 788.893311 302.133362 786.599854 297.026733 C 785.226563 293.93335 783.893311 291.226685 782.65332 288.786682 C 779.253418 280.560059 775.639893 272.413391 771.786621 264.453308 C 762.866699 246.066711 752.533203 228.93335 742.320068 213.960022 L 734.079834 202.013367 C 731.293213 198.066711 728.293213 194.266663 725.41333 190.373352 C 725.093262 189.960022 724.800049 189.546692 724.493408 189.146729 C 723.399902 187.466675 722.306641 185.800049 721.226563 184.133362 Z M 789.34668 295.680054 C 788.06665 292.839966 787.506592 291.333374 786.813232 289.693359 C 787.866699 292.066711 789.053223 294.786682 789.34668 295.680054 Z M 754.893311 79.786682 L 755.546631 79.213379 C 755.279785 79.533325 755.040039 79.866699 754.786621 80.213379 C 754.359863 80.853333 753.946533 81.506653 753.58667 82.186646 C 753.41333 82.480042 753.213135 82.773315 753.026611 83.066711 C 753.06665 82.946716 753.106689 82.839966 753.146484 82.720032 C 753.226563 82.119995 753.120117 81.693359 752.853271 81.413391 C 753.546631 80.93335 754.226563 80.400024 754.893311 79.786682 Z M 756.866699 89.533325 C 757.946533 88.213379 759.253418 87.560059 760.41333 86.533325 C 760.666504 86.293396 760.906494 86.066711 761.146484 85.839966 L 761.186768 86.706665 L 761.439941 86.986694 L 760.613281 87.400024 C 759.626709 87.853333 758.639893 88.426697 757.666504 89.213379 C 756.866699 89.906677 756.120117 90.666687 755.41333 91.506653 L 755.546631 91.253357 C 755.959961 90.666687 756.41333 90.093384 756.866699 89.533325 Z M 765.17334 81.213379 L 764.52002 82.226685 C 764.266602 82.426697 764.053223 82.65332 763.853271 82.893372 L 763.773193 82.93335 Z M 786.52002 26.066711 C 786.17334 26.413391 785.839844 26.866699 785.453369 26.786682 C 785.773193 26.293396 786.159912 26.200012 786.52002 26.066711 Z M 835.186768 402.160034 C 833.93335 395.880005 833.133301 392.560059 832.786621 392.133362 C 833.439941 395.506653 833.959961 399.386658 834.706543 403.533325 C 834.159912 400.733337 833.573242 397.76001 832.986572 394.826721 C 830.773193 385.906677 828.560059 375.133362 825.58667 365.026733 C 824.879883 362.480042 824.186768 359.973328 823.506592 357.52002 C 822.800049 355.080017 821.973145 352.733337 821.23999 350.466675 C 819.733398 345.946716 818.306641 341.813354 816.986572 338.360046 C 817.386719 340.119995 818.34668 343.52002 819.879883 348.52002 C 821.026611 352.160034 822.23999 355.573303 823.079834 358.906677 C 828.613281 376.160034 833.439941 396.826721 836.786621 418.359985 C 837.026611 418.93335 837.093262 418.65332 837.040039 417.773376 C 838.013184 424.973328 839.266602 432.493347 839.853271 439.973358 C 840.199951 443.693329 840.546631 447.373352 840.893311 450.973358 C 841.133301 454.573364 841.23999 458.080017 841.386719 461.413361 C 841.47998 465.440033 841.719971 469.226685 841.639893 473 C 841.573242 476.773346 841.493408 480.519989 841.426758 484.413361 C 841.373291 486.666687 841.41333 489 841.293213 491.413361 L 841.093262 491.306671 C 840.839844 494.693329 840.599854 498.746704 840.373291 503.453339 C 840.293213 505.519989 840.226563 507.426666 840.159912 509.213348 C 840.040039 510.93335 839.93335 512.52002 839.813232 514.013367 C 839.613281 515.666687 839.506592 516.226685 839.466553 515.986694 C 839.613281 514.026672 839.800049 511.519989 840 508.853333 C 840.213135 503.559998 840.453369 498 840.679932 492.519989 L 840.773193 490.119995 C 840.786621 489.973358 840.800049 489.840027 840.82666 489.693329 C 840.800049 485.93335 840.773193 482.160004 840.746582 478.386658 C 840.746582 477.266693 840.706543 476.119995 840.626709 474.920013 C 840.626709 474.880035 840.626709 474.866669 840.613281 474.82666 C 840.599854 472.600006 840.560059 470.400024 840.386719 468.253326 C 840.279785 466.786652 840.186768 465.34668 840.093262 463.893341 L 840.093262 463.733337 C 839.93335 460.920013 839.773193 458.106689 839.613281 455.306671 L 839.279785 451.800018 L 839.226563 451.293335 C 838.813232 447.626678 838.399902 444.080017 838 440.680023 C 838 440.65332 837.47998 436.693359 837.47998 436.693359 C 837.266602 434.773376 837.146484 432.82666 836.82666 430.906677 C 836.253418 427.093323 835.706543 423.453308 835.17334 419.93335 C 830.65332 391.666687 823.800049 363.799988 814.453369 336.773315 C 805.493408 310.640015 793.120117 283.506653 781.65332 260.133362 C 766.786621 230.893372 749.120117 200.93335 731.866699 175.773315 C 737.65332 185.839966 750.133301 204.693359 758.013184 218.613342 C 760.053223 221.986694 761.946533 225.453308 763.919922 228.853333 C 765.853271 232.293396 767.879883 235.680054 769.733398 239.160034 C 772.639893 244.853333 775.693359 250.34668 778.58667 255.799988 C 779.186768 257.146667 779.986572 258.839966 781.013184 260.973328 C 791.573242 281.706665 801.120117 302.960022 809.333252 324.733337 C 812.279785 333.200012 811.079834 330.946716 813.666504 338.453308 C 814.946533 342.253357 816.079834 346.106628 817.279785 349.919983 C 818.120117 352.493347 818.959961 355.053345 819.786621 357.600037 C 819.986572 358.253357 820.17334 358.866699 820.359863 359.493347 C 822.639893 367.880005 825.213135 376.453308 826.93335 384.746704 C 827.839844 388.893372 828.853271 392.880005 829.52002 396.719971 C 830.186768 400.560059 830.800049 404.186646 831.306641 407.52002 L 832.573242 413.919983 C 832.959961 417.186646 833.34668 420.440002 833.733398 423.746704 C 834.013184 425.773376 834.279785 427.799988 834.560059 429.840027 L 834.973145 432.906677 L 835.266602 436.013367 C 835.666504 440.17334 836.06665 444.373352 836.466553 448.58667 L 836.773193 451.76001 L 836.946533 454.946686 C 837.06665 457.080017 837.17334 459.213348 837.279785 461.34668 L 837.626709 467.76001 L 837.786621 470.973358 L 837.813232 474.186676 C 837.82666 478.466675 837.853271 482.746704 837.866699 487 L 837.879883 490.186676 L 837.733398 493.360016 C 837.626709 495.480011 837.52002 497.58667 837.426758 499.680023 C 837.320068 501.773346 837.213135 503.853333 837.106689 505.93335 L 836.946533 509.040009 C 836.866699 510.066681 836.733398 511.093323 836.626709 512.106689 C 836.17334 516.17334 835.733398 520.186646 835.293213 524.17334 C 835.17334 525.320007 835.040039 526.47998 834.919922 527.640015 C 834.773193 528.813354 834.546631 529.973389 834.359863 531.146729 C 833.973145 533.506714 833.58667 535.906677 833.186768 538.359985 C 832.919922 540.106689 832.65332 541.840027 832.386719 543.546692 C 832.120117 545.266663 831.879883 546.973389 831.493408 548.65332 C 830.786621 552 830.093262 555.333374 829.386719 558.693359 C 828.946533 560.773315 828.506592 562.82666 828.06665 564.893311 C 827.506592 566.93335 826.946533 568.986694 826.373291 571.053345 C 825.093262 575.440002 823.959961 579.746704 822.58667 584.013367 C 822.879883 583.013367 822.906494 582.65332 822.733398 582.973389 L 825.76001 572.186646 C 826.613281 569.320007 827.879883 565.773315 828.706543 561.320007 C 829.639893 556.946655 830.34668 553.373352 830.866699 550.52002 L 830.986572 549.959961 C 831.213135 548.959961 831.359863 548.053345 831.453369 547.226685 C 831.546631 546.453369 831.213135 547.65332 830.493408 550.733337 C 831.506592 546.559998 832.013184 542.280029 832.693359 538.053345 C 833.439941 533.053345 834.373291 528.06665 834.733398 523.026672 C 835.106689 519.17334 835.493408 515.320007 835.879883 511.466675 C 836.106689 509.546692 836.17334 507.600006 836.253418 505.666687 L 836.52002 499.866669 C 836.639893 497.226685 836.746582 494.573364 836.866699 491.93335 C 836.906494 491.400024 836.906494 490.880035 836.919922 490.360016 C 836.919922 490.720001 836.93335 491.080017 836.919922 491.453339 C 837.026611 490.800018 837.106689 490.533356 837.186768 490.65332 C 837.213135 486.959991 837.23999 483.280029 837.266602 479.613373 C 837.293213 475.146698 837.34668 470.693329 836.959961 466.280029 L 836.946533 467.546692 C 836.893311 466.58667 836.813232 465.626678 836.706543 464.65332 C 836.58667 463.666687 836.573242 464.573364 836.65332 467.360016 C 836.959961 471.373352 836.853271 475.386658 836.906494 479.400024 C 836.906494 482.280029 836.93335 485.160004 836.93335 488.040009 C 836.919922 486.693329 836.893311 485.34668 836.893311 484.013367 C 836.866699 481.240021 836.839844 478.506683 836.82666 475.813354 C 836.813232 473.133331 836.773193 470.493347 836.560059 467.959991 C 836.23999 462.880035 835.906494 458.133331 835.573242 453.959991 C 835.560059 453.840027 835.546631 453.733337 835.533203 453.613373 L 835.573242 452.106689 L 834.906494 445.066681 C 834.41333 440.213348 834.013184 435.746704 833.41333 431.65332 L 831.573242 419.533325 C 831.266602 417.52002 831 415.493347 830.639893 413.480042 L 829.466553 407.466675 C 829.493408 407.986694 829.47998 408.373352 829.453369 408.626648 C 829.973145 411.533325 830.546631 414.546692 830.919922 417.693359 C 830.946533 418.41333 830.866699 418.440002 830.719971 417.986694 C 830.506592 416.533325 830.34668 415.080017 830.120117 413.65332 C 829.866699 412.213379 829.613281 410.799988 829.373291 409.400024 C 828.65332 405.546692 827.93335 401.719971 827.213135 397.893372 C 826.879883 395.973328 826.439941 394.06665 825.973145 392.186646 L 824.639893 386.493347 C 823.426758 381.360046 822.333252 376.413391 820.893311 371.746704 C 820.013184 368.973328 819.399902 367.23999 819.06665 366.533325 C 818.506592 364.533325 817.973145 362.773315 817.466553 361.226685 C 817.466553 361.533325 817.439941 361.760071 817.399902 361.93335 C 818.34668 365.426697 819.293213 369 820.279785 372.666687 C 820.666504 374.200012 821.040039 375.720032 821.426758 377.266663 C 821.76001 378.839966 822.106689 380.426697 822.439941 382.026733 C 823.159912 385.253357 823.879883 388.52002 824.613281 391.839966 C 825.426758 395.146667 826.013184 398.573303 826.666504 402.013367 C 827.320068 405.466675 827.986572 408.93335 828.639893 412.440002 C 829.839844 419.453308 830.800049 426.58667 831.839844 433.613342 C 832.506592 440.680023 833.34668 447.65332 833.76001 454.426666 L 833.866699 455.360016 L 833.866699 455.480011 L 833.866699 455.466675 L 833.76001 454.426666 L 834.026611 466.493347 C 834.293213 471.186676 834.226563 475.360016 834.373291 479.040009 L 834.320068 478.706696 C 834.306641 478.986664 834.306641 479.266693 834.306641 479.546692 C 834.293213 479.213348 834.293213 478.866669 834.293213 478.546692 C 834.23999 476.453339 834.199951 474.400024 834.159912 472.386658 C 834.120117 470.386658 833.893311 468.426666 833.773193 466.519989 C 832.47998 436.573364 828.040039 410.973328 821.959961 386.573303 C 821.159912 382.960022 820.41333 379.053345 819.213135 375 L 819.226563 374.93335 C 817.986572 370.320007 816.76001 365.960022 815.533203 361.839966 C 815.040039 359.973328 814.453369 358.146667 813.82666 356.320007 L 812 350.853333 C 797.266602 304.039978 775.546631 260.133362 751.053223 219.973328 C 749.613281 217.880005 749.65332 218.213379 751.17334 221.039978 C 761.986572 240.306641 775.65332 264.746704 785.34668 286.453308 L 785.373291 286.506653 C 785.199951 286.119995 785.013184 285.733337 784.786621 285.266663 C 783.213135 281.906677 781.626709 278.533325 780.026611 275.160034 C 778.426758 271.760071 776.639893 268.453308 774.93335 265.119995 C 764.773193 245.426697 753.186768 224.866699 741.573242 206.480042 C 736.373291 198.266663 730.439941 188.853333 724.573242 179.880005 L 734.333252 167.493408 L 738.533203 162.17334 C 740.320068 159.600037 741.546631 157.160034 740.453369 155.333374 C 737.65332 156.226685 735.65332 159.320007 733.293213 161.480042 C 733.093262 161.693359 732.906494 161.906677 732.706543 162.119995 C 733.973145 157.800049 737.546631 155.266663 740.946533 152.600037 L 741.159912 150.440002 L 741.47998 150.546692 C 744.786621 148.573303 747.199951 145.453369 749.359863 142 C 754.306641 135.413391 760.120117 129.293396 763.466553 121.866699 C 764.333252 119.106689 767.053223 117.919983 768.466553 115.626709 L 770.17334 113.466675 C 770.719971 112.733337 771.266602 112.013367 771.773193 111.253357 C 772.159912 110.666687 772.506592 110.066711 772.82666 109.453369 C 772.986572 109.360046 773.159912 109.23999 773.386719 109.053345 L 773.58667 109.52002 L 774.76001 107.493408 L 774.76001 107.693359 C 775.146484 106.813354 775.040039 106.413391 774.439941 106.480042 C 774.599854 106.186646 774.773193 105.906677 774.93335 105.613342 C 775.626709 104.546692 776.320068 103.466675 776.893311 102.34668 C 777.013184 102.066711 777.106689 101.800049 777.186768 101.546692 C 777.320068 101.666687 777.573242 101.613342 777.959961 101.386658 L 778.813232 100.266663 C 779.373291 100.146729 779.93335 99.826721 780.506592 99.253357 L 781.06665 98 C 782.426758 93.640015 786.719971 91.200012 788.973145 87.413391 C 792.893311 80.573303 798.65332 74.946716 803.133301 68.466675 C 803.666504 67.360046 803.666504 66.560059 803.159912 66.039978 C 802.373291 66.23999 801.65332 66.58667 800.959961 67.053345 C 801.213135 66.600037 801.506592 66.093384 801.786621 65.600037 C 803.106689 62.266663 807.813232 59.906677 807.453369 56.106689 C 806.786621 56.013367 806.040039 56.266663 805.226563 56.866699 C 804.813232 57.440002 804.333252 57.919983 803.800049 58.320007 C 802.879883 61.906677 800.533203 65.080017 797.879883 68.17334 C 798.23999 68.58667 798.560059 68.786682 798.879883 68.839966 C 796.986572 70.786682 795.279785 73.23999 793.213135 74.773315 C 791.82666 75.58667 790.439941 76.200012 789.053223 76.946716 C 788.666504 77.186646 788.293213 77.440002 787.919922 77.720032 L 787.359863 77.253357 C 786.693359 77.533325 786.053223 78 785.453369 78.65332 C 785.040039 79.306641 784.786621 79.946716 784.693359 80.560059 C 784.386719 80.720032 784.17334 80.680054 784.013184 80.493408 C 784.040039 80.080017 784.226563 79.613342 784.466553 79.160034 C 784.986572 78.320007 785.613281 77.493408 786.213135 76.65332 L 786.47998 76.280029 L 786.666504 76.333374 C 787.079834 75.760071 787.493408 75.200012 787.93335 74.640015 C 788.053223 74.480042 788.093262 74.226685 788.040039 73.906677 C 788.040039 73.893372 788.026611 73.880005 788.026611 73.866699 C 788.226563 73.506653 788.426758 73.133362 788.599854 72.760071 C 788.719971 72.506653 788.839844 72.23999 788.946533 71.986694 L 789 71.986694 L 789.893311 70.680054 L 789.906494 69.853333 L 789.946533 69.773315 C 790.253418 69.119995 790.506592 68.480042 790.719971 67.826721 C 790.719971 67.813354 790.82666 66.960022 790.82666 66.960022 L 791.506592 66.106689 C 791.959961 65.546692 792.333252 64.946716 792.599854 64.320007 C 795.373291 59.680054 798.65332 55.440002 802.573242 51.706665 C 806.226563 47.986694 808.839844 42.946716 813.226563 40.186707 C 816.853271 35.213379 822.333252 31.226746 823.813232 25.093384 C 820.58667 25.333374 819.253418 29.693359 816.786621 31.560059 L 814.040039 35.066711 C 812.959961 35.733337 812.159912 36.613342 811.679932 37.706665 C 811.306641 37.760071 810.906494 37.893372 810.47998 38.119995 L 802.159912 48.266663 C 800.773193 49.306641 800.06665 48.146729 798.746582 49 L 797.026611 50.52002 L 796.17334 51.786682 C 796.120117 51.919983 796.093262 52.026733 796.040039 52.160034 C 793.919922 54.640015 792.026611 57.560059 789.133301 58.506653 L 788.560059 59.613342 C 787.919922 59.906677 787.279785 60.213379 786.679932 60.493408 C 781.893311 64.533325 778.706543 70.733337 773.639893 74.360046 C 772.93335 74.919983 772.23999 75.506653 771.573242 76.186646 C 770.706543 77.186646 770 78.266663 769.333252 79.386658 C 768.893311 80.053345 768.426758 80.680054 767.946533 81.333374 C 767.359863 81.973328 766.76001 82.573303 766.159912 83.17334 C 766.106689 82.880005 765.946533 82.666687 765.693359 82.546692 L 767.013184 80.906677 C 767.639893 80.680054 768.213135 80.226685 768.706543 79.546692 C 769.199951 78.853333 769.466553 78.186646 769.533203 77.533325 L 769.626709 77.480042 C 769.746582 77.333374 769.746582 77.106689 769.613281 76.800049 C 769.493408 76.52002 769.146484 76.546692 768.599854 76.880005 C 769.106689 76.23999 769.613281 75.613342 770.093262 74.960022 C 770.693359 74.213379 771.293213 73.480042 771.866699 72.706665 L 774.599854 69.293396 C 775.226563 68.506653 775.839844 67.706665 776.399902 66.893372 C 777.599854 65.17334 778.65332 63.453369 778.946533 61.666687 L 778.946533 61.58667 L 779.466553 61.626709 L 780.386719 60.65332 C 780.986572 59.960022 781.41333 59.213379 781.679932 58.426697 L 784.133301 54.480042 C 783.866699 54.386658 783.613281 54.280029 783.373291 54.146729 C 782.919922 54.506653 782.47998 54.893372 782.053223 55.320007 C 781.733398 55.23999 781.493408 55.053345 781.320068 54.800049 C 781.76001 54.453369 782.199951 54.119995 782.65332 53.760071 C 783.719971 52.720032 784.453369 51.426697 785.373291 50.266663 C 785.986572 49.493408 786.493408 48.666687 786.906494 47.813354 C 786.946533 47.146729 786.82666 46.613342 786.546631 46.213379 C 786.746582 45.866699 786.853271 45.506653 786.839844 45.106689 C 786.573242 44.960022 786.320068 44.813354 786.06665 44.65332 C 785.52002 45.093384 785 45.573303 784.493408 46.093384 C 779.58667 48.226746 777.599854 54.133362 773.773193 57.666687 L 773.82666 57.93335 L 773.813232 57.946716 L 773.813232 57.946716 L 773.773193 57.666687 L 771.306641 58.640015 C 770.546631 59.17334 770.106689 59.839966 769.959961 60.613342 L 769.853271 60.453369 L 769.719971 60.546692 L 769.813232 60.373352 C 770.120117 59.613342 770.399902 58.853333 770.613281 58.093384 C 774.266602 53.720032 776.293213 49.080017 778.06665 44.386658 C 778.719971 44.013367 779.23999 43.453369 779.613281 42.733337 L 779.706543 42.786682 C 780.386719 42.160034 780.866699 41.440002 781.159912 40.640015 L 782.213135 38.666687 C 788.800049 32 794.613281 24.866699 798.359863 16.466675 C 798.226563 15.760071 797.786621 15.480042 797.013184 15.640015 C 792.93335 17.760071 790.706543 22.746704 787.133301 25.680054 L 787.120117 25.693359 C 787.17334 25.626709 787.23999 25.573303 787.293213 25.493408 C 788.34668 24.533386 789.186768 23.373352 789.919922 22.146729 C 792.093262 18.493408 795.253418 15.293396 797.079834 11.493408 C 798.266602 8.453369 801.733398 6.213379 802.426758 2.986694 C 802.146484 2.813354 801.866699 2.640015 801.599854 2.453369 C 794.293213 8.720032 789.013184 18.906677 780.399902 22.626709 C 776.93335 24.373352 774.23999 28.039978 771.159912 30.786682 C 771.599854 29.186707 772.853271 27.440002 773.266602 25.840027 L 773.93335 24.919983 C 774.386719 24.306641 774.82666 23.693359 775.23999 23.066711 C 775.879883 22.080017 776.453369 21.080017 776.893311 20.066711 C 777.279785 19 777.47998 18.013367 777.493408 17.093384 C 777.426758 16.506653 777.253418 16.013367 776.959961 15.640015 C 776.626709 15.400024 776.226563 15.293396 775.746582 15.306641 C 776.133301 14.480042 776.453369 13.666687 776.706543 12.840027 C 776.946533 11.919983 776.959961 11.119995 776.733398 10.466675 L 775.839844 10.119995 C 775.013184 10.440002 774.186768 10.919983 773.359863 11.600037 C 770.52002 14.093384 768.746582 17.506653 766.293213 20.34668 C 764.986572 21.866699 763.93335 23.613342 762.466553 24.986694 C 764.23999 23.119995 765.719971 21.013367 767.199951 18.93335 C 767.719971 18.039978 768.079834 17.133362 768.279785 16.266663 C 767.573242 13.960022 765.439941 15.746704 763.506592 16.946716 C 763.493408 16.706665 763.466553 16.453369 763.426758 16.226746 L 763.359863 16.146729 L 763.893311 15.493408 C 764.213135 14.880066 764.546631 14.266663 764.893311 13.666687 L 764.893311 13.666687 L 764.893311 13.666687 L 766.279785 11.733337 C 766.053223 11.560059 765.839844 11.373352 765.65332 11.17334 L 764.226563 13.093384 L 762.186768 15.266663 C 761.893311 15.186707 761.560059 15.160034 761.213135 15.200012 C 762.533203 14.400024 763.506592 13.160034 764.17334 11.546692 L 764.213135 10.426697 C 761.986572 8.973328 765.959961 5.213379 765.639893 3.053345 L 765.666504 2.613342 C 764.986572 2.93335 764.373291 3.440002 763.800049 4.119995 L 761.386719 7.17334 L 759.800049 9.213379 C 759.253418 9.906677 758.893311 10.626709 758.679932 11.360046 L 757.333252 13.293396 C 757.17334 13.493408 757.106689 13.773315 757.133301 14.133362 C 757.133301 14.213379 757.159912 14.280029 757.199951 14.320007 L 757.159912 14.34668 C 756.06665 15.213379 755.053223 16.200012 754.06665 17.253357 C 753.093262 18.213379 752.120117 19.133362 751.159912 20.119995 C 750.546631 20.840027 750.199951 21.573303 750.079834 22.320007 C 744.146484 27.746704 737.733398 32.480042 733.253418 39.960022 C 731.053223 44.866699 726.306641 48.440002 723.973145 53.266663 C 720.133301 55.680054 717.573242 59.746704 714.65332 63.333374 C 709.466675 69.733337 704.866577 76.813354 698.333252 81.65332 C 697.079956 82.506653 696.173218 83.720032 695.373291 85.053345 C 694.466675 86.493408 693.533325 87.93335 692.573242 89.333374 L 688.506592 94.093384 L 687.506592 96.053345 L 682.893311 101.23999 L 683.386719 101.306641 L 681.65332 102.839966 L 673.039917 114 C 671.160034 111.333374 669.279907 108.666687 667.399902 106.013367 L 655.58667 89.813354 L 660.06665 96.600037 C 664.319946 102.52002 668.546509 108.440002 672.773315 114.360046 L 664.439941 125.160034 C 650.399902 112.746704 635.266602 101.466675 619.559937 91.333374 C 603.253296 80.826721 586.253296 71.52002 568.746582 63.58667 C 565 61.853333 561.226685 60.200012 557.479858 58.573303 C 555.58667 57.773315 553.733276 56.919983 551.813232 56.200012 C 549.920044 55.506653 548.026611 54.813354 546.079956 54.106689 C 537.506592 50.693359 528.733276 47.880066 519.986694 45.026733 L 506.706543 41.213379 C 502.293335 39.960022 497.786621 39 493.319946 37.880066 C 475.413208 33.733337 457.266602 30.720032 438.986694 28.986694 C 402.426636 25.800049 365.426636 27.17334 329.373291 34.306641 L 322.613281 35.600037 C 320.359985 36.066711 318.133301 36.640015 315.906616 37.160034 L 309.199951 38.746704 L 305.839966 39.546692 L 302.533325 40.480042 L 289.279907 44.293396 L 276.199951 48.680054 C 258.879883 54.866699 241.986694 62.333374 225.719971 71.039978 L 213.65332 77.826721 C 209.706543 80.226685 205.82666 82.720032 201.906616 85.17334 L 198.959961 87.013367 C 198 87.65332 197.06665 88.320007 196.119995 88.986694 L 190.426636 92.946716 L 184.733276 96.919983 L 179.253296 101.17334 L 173.76001 105.426697 L 171.013184 107.560059 L 168.373291 109.813354 L 157.813232 118.866699 L 147.706543 128.480042 L 145.186646 130.893372 L 142.786621 133.426697 L 138 138.506653 L 133.719971 143.026733 C 129.613281 147.773315 125.65332 152.360046 121.746582 156.880005 C 118.959961 160.440002 116.893311 163.226685 115.52002 165.200012 C 113.893311 167.52002 112.106567 169.813354 110.439941 172.266663 C 108.773315 174.760071 107.093384 177.253357 105.386719 179.786682 C 103.706665 182.34668 101.82666 184.839966 100.213257 187.546692 C 98.546631 190.213379 96.866577 192.906677 95.173218 195.626709 C 88.400024 206.493408 82.133301 218.026733 76.613281 229.320007 C 76.106567 230.306641 75.599976 231.306641 75.079956 232.306641 C 74.613281 233.320007 74.133301 234.360046 73.666626 235.400024 C 72.719971 237.493347 71.76001 239.613342 70.786743 241.773315 L 67.920044 248.226685 C 67.026611 250.400024 66.186646 252.613342 65.320068 254.799988 L 62.733276 261.373352 C 61.866577 263.573303 60.973267 265.760071 60.226685 268.013367 C 59.253296 270.813354 58.266602 273.626709 57.279907 276.440002 C 51.839966 284.253357 46.559937 292.400024 41.226685 301.266663 C 36.026611 310.320007 31.306641 319.65332 26.946533 329.160034 C 22.719971 338.720032 18.839966 348.453308 15.52002 358.373352 C 10.893311 372.280029 7.279907 386.52002 4.757202 400.960022 C 2.253296 415.41333 0.83728 430.040039 0.489258 444.666687 C -0.205322 473.906677 3.299927 503.133331 10.573242 531.253296 C 11.386719 535.41333 12.65332 539.466675 13.866577 543.559998 C 21.733276 570 32.639893 595.853333 46.160034 619.333374 C 55.373291 635.626709 66.053345 651.426636 77.906616 666.41333 C 89.746582 681.41333 102.813232 695.599976 116.973267 708.440002 C 131.079956 721.306702 146.266602 733.093323 162.06665 742.853333 C 164.013184 744.133301 165.959961 745.400024 167.906616 746.666687 C 169.879883 747.866699 171.906616 748.973328 173.906616 750.119995 C 177.906616 752.400024 181.893311 754.65332 185.853394 756.906677 C 187.813232 758.080017 189.879883 759.013306 191.906616 760.026672 C 193.93335 761.013306 195.959961 762.013306 197.973267 763 C 200 763.973328 202.013184 764.959961 204.013184 765.93335 C 206.026611 766.906677 208 767.920044 210.06665 768.719971 C 216.426636 771.640015 219 773.026672 226.466675 776.359985 C 230.346558 778.040039 234.266602 779.373352 238.053345 780.813354 C 241.853394 782.213318 245.559937 783.613342 249.213257 784.893311 C 256.639893 787.119995 263.746582 789.253357 270.599976 791.146667 C 274.106567 792.253357 282.733276 794.506714 292.866577 796.773315 L 304.973267 799.17334 C 309 799.946655 313.013184 800.840027 317.093262 801.359985 L 329.266602 803.17334 C 331.306641 803.453369 333.333252 803.799988 335.359985 804.040039 L 341.479858 804.666687 C 341.479858 804.666687 345.906616 805.013306 345.93335 805.026672 C 345.93335 805.026672 347.839966 805.06665 347.866577 805.06665 C 348.493286 805.026672 347.906616 804.853333 346.186646 804.58667 C 351.893311 805.093323 357.23999 805.640015 362.119995 805.719971 C 366.320068 805.853333 369.399902 805.906677 371.346558 805.866699 C 373.58667 806.040039 375.959961 806.213318 378.533325 806.41333 C 381.733276 806.47998 384.959961 806.559998 388.226685 806.626648 L 379.293335 806.559998 C 378.799927 806.666687 378.439941 806.746704 378.186646 806.82666 L 390.613281 807.080017 C 394.76001 807.106689 398.906616 807.320007 403.053345 807.200012 C 407.093262 807.200012 411.279907 807.093323 415.639893 806.920044 L 414.359985 806.82666 C 418.479858 806.706665 422.58667 806.693359 426.693359 806.359985 L 426.693359 806.359985 L 438.839966 805.58667 C 439 805.466675 439 805.34668 438.866577 805.253357 L 426.65332 806.119995 L 426.65332 806.119995 C 422.813232 806.373352 418.986694 806.400024 415.199951 806.559998 L 415.199951 806.559998 L 408.439941 806.666687 C 413.039917 806.546631 417.599976 806.426636 422.133301 806.306641 C 426.65332 806.040039 431.119995 805.693359 435.546631 805.386658 C 438.746582 805.146667 441.93335 804.906677 445.119995 804.65332 C 448.306641 804.306641 451.493286 803.946655 454.719971 803.599976 C 457.666626 803.280029 460.626709 802.973328 463.58667 802.65332 L 462.893311 803.06665 L 466.319946 802.733337 L 469.733276 802.266663 L 476.573242 801.34668 L 475.239868 801.440002 L 481.160034 800.626648 C 481.160034 800.626648 486.959961 799.786682 486.973267 799.773315 C 487.239868 799.666687 487.559937 799.546631 487.933228 799.426636 L 475.386719 801.093323 C 475.386719 801.093323 475.479858 801.080017 475.613281 801.053345 C 479.479858 800.52002 483.346558 799.973328 487.213257 799.440002 C 491.573242 798.733337 495.920044 797.946655 500.279907 797.186646 L 505.146606 796.333374 L 509.133301 795.52002 C 509.546509 795.47998 509.959961 795.440002 510.359985 795.41333 C 509.479858 795.626648 508.599976 795.840027 507.719971 796.053345 C 508.920044 795.880005 510.106567 795.693359 511.306641 795.506714 L 513.373291 795.080017 C 516.746582 794.693359 519.52002 794.306641 521.453369 793.973328 C 515.746582 795.226685 510.013184 796.400024 504.346558 797.440002 C 496.319946 798.76001 488.599976 800.293335 481.026611 801.280029 C 473.466675 802.359985 466.160034 803.58667 458.959961 804.306641 C 454.573242 804.840027 451.359985 805.293335 449.199951 805.65332 L 450.613281 805.706665 C 447.82666 805.893311 444.413208 806.213318 440.320068 806.373352 C 435.346558 806.706665 430.413208 807.026672 425.493286 807.333374 C 423.493286 807.52002 421.626709 807.613342 419.879883 807.666687 C 418.173218 807.746704 416.573242 807.82666 415.06665 807.906677 L 415.373291 807.853333 C 411.173218 807.893311 407.186646 807.986694 403.413208 808.17334 C 402.666626 808.186646 401.959961 808.23999 401.320068 808.333374 C 400.666626 808.426636 401.533325 808.47998 403.920044 808.493347 L 402.279907 808.613342 L 412.413208 808.306641 C 412.706543 808.333374 413.133301 808.373352 413.82666 808.386658 C 416.186646 808.359985 418.546631 808.320007 420.906616 808.280029 C 423.160034 808.23999 425.399902 807.986694 427.639893 807.840027 C 431.893311 807.546631 437.58667 807.160034 442.320068 806.82666 C 447.039917 806.506714 450.693359 805.920044 450.76001 805.706665 L 451.959961 805.613342 C 451.786621 805.626648 451.573242 805.640015 451.386719 805.65332 C 455.959961 805.226685 460.52002 804.813354 465.079956 804.386658 C 469.639893 803.906677 474.173218 803.226685 478.706543 802.65332 C 487.799927 801.559998 496.813232 799.93335 505.82666 798.373352 C 515.546509 796.52002 525.199951 794.34668 534.773315 791.906677 C 535.319946 791.853333 535.879883 791.799988 536.439941 791.733337 C 539.666626 791.213318 542.906616 790.773315 546.106567 790.17334 C 546.306641 790.17334 546.506592 790.17334 546.719971 790.17334 C 565.853394 787.920044 586.719971 784.17334 607.879883 778.986694 C 610.559937 778.306641 613.253296 777.626648 615.933228 776.946655 L 624 774.746704 C 626.679932 774 629.373291 773.146667 632.053345 772.34668 L 640.013184 769.666687 C 650.639893 766.146667 660.986694 761.853333 671.186646 757.373352 C 691.426636 748.06665 710.573242 736.82666 727.733398 724.013306 C 730.706543 721.893311 733.506592 719.58667 736.34668 717.359985 C 739.159912 715.106689 742.06665 712.973328 744.76001 710.573364 L 752.959961 703.559998 C 755.560059 701.06665 758.17334 698.58667 760.800049 696.06665 C 762.626709 694.386658 764.333252 692.573364 766.040039 690.76001 L 771.159912 685.333374 C 772.906494 683.573364 774.439941 681.626709 776.053223 679.76001 L 780.82666 674.119995 C 783.266602 671.186646 785.41333 668.133301 787.65332 665.213379 C 788.226563 664.493347 788.906494 663.613342 789.853271 662.41333 L 789.159912 663.533325 C 790.453369 661.880005 791.613281 660.133301 792.773193 658.386658 L 796.279785 653.160034 L 795.839844 653.866699 C 798.626709 649.640015 799.320068 648.466675 797.919922 650.306641 C 798.919922 648.853333 799.733398 647.293335 800.666504 645.786621 C 802.439941 642.813354 804.199951 639.82666 805.959961 636.880005 C 807.506592 633.82666 809.053223 630.786621 810.573242 627.800049 C 811.266602 626.386658 811.919922 625.080017 812.546631 623.82666 C 812.546631 623.906677 813.079834 623 814.159912 620.986694 C 815.306641 618.719971 816.213135 616.34668 817.23999 614.026672 C 818.279785 611.866699 819.626709 608.893311 821.373291 604.893311 C 822.359863 602.706665 823.040039 600.426636 823.813232 598.17334 C 831.52002 576.320007 837.706543 552.266663 840.506592 528.82666 C 845.133301 487.013367 843.533203 443.626678 835.186768 402.160034"/>
</svg>
