<?xml version="1.0" encoding="UTF-8"?>
<!-- Generated by Pixelmator Pro 3.4.3 -->
<svg width="787" height="808" viewBox="0 0 787 808" xmlns="http://www.w3.org/2000/svg">
    <path id="path1052-copy" fill="#48aa55" stroke="none" d="M 725.640137 82.039978 C 725.399902 82.23999 725.17334 82.453369 724.973389 82.693359 L 724.893066 82.733337 L 726.293213 81.013367 Z M 721.746582 87.200012 C 720.759766 87.666687 719.773438 88.226685 718.799805 89.013367 C 717.986572 89.706665 717.23999 90.480042 716.546631 91.306641 L 716.666504 91.053345 C 717.093262 90.466675 717.533203 89.893372 718 89.333374 C 719.06665 88.013367 720.373291 87.360046 721.546631 86.333374 C 721.786621 86.106689 722.040039 85.866699 722.279785 85.640015 L 722.306641 86.506653 L 722.573242 86.800049 Z M 714.719971 81.986694 C 714.533203 82.280029 714.346436 82.58667 714.146484 82.866699 C 714.186523 82.760071 714.226563 82.65332 714.266602 82.533325 C 714.359863 81.919983 714.253418 81.493408 713.986572 81.213379 C 714.679932 80.746704 715.346436 80.200012 716.013184 79.600037 L 716.666504 79.013367 C 716.413086 79.34668 716.159912 79.680054 715.919922 80.013367 C 715.47998 80.666687 715.079834 81.320007 714.719971 81.986694 Z M 222.879883 401.293396 C 222.693115 401.200012 222.506592 401.080017 222.320068 400.960022 C 222.466553 400.973328 222.58667 400.960022 222.719971 400.960022 C 222.773438 401.080017 222.813232 401.186646 222.879883 401.293396 Z M 278.199951 369.133362 C 278.093262 368.560059 277.826416 368.119995 277.399902 367.839966 L 277.826416 367.799988 L 277.773438 366.706665 C 277.893066 366.720032 278 366.733337 278.106689 366.720032 C 278.493164 367.133362 278.906738 367.52002 279.333252 367.893372 C 279.93335 368.373352 280.533203 368.760071 281.159912 369.039978 L 281.640137 368.826721 L 281.613281 368.946716 C 281.746582 369.746704 282.040039 370.58667 282.52002 371.453308 C 283.06665 372.293396 283.65332 373.106628 284.320068 373.893372 C 285.47998 375.213379 286.706787 376.426697 287.986572 377.560059 C 286.733154 376.720032 285.47998 375.880005 284.253418 374.906677 C 283.52002 374.306641 282.813232 373.720032 282.079834 373.106628 C 281.41333 372.506653 280.746582 371.93335 280.053223 371.386658 C 279.373291 370.853333 278.693115 370.400024 277.986572 370.013367 C 277.840088 369.960022 277.706787 369.93335 277.559814 369.880005 L 278.346436 369.200012 Z M 318.599854 406.813354 C 318.333252 406.573364 318.053223 406.333374 317.773438 406.093323 C 317.199951 405.600037 316.613281 405.160034 316 404.76001 C 315.133301 404.186646 314.253418 403.626648 313.386719 403.06665 C 312.813232 402.719971 312.266602 402.333374 311.706787 401.880005 C 311.253418 401.333374 310.746582 400.946716 310.17334 400.693359 C 310.146484 400.666687 310.293213 400.106628 310.293213 400.106628 C 310.293213 400.106628 310.693115 400.866699 310.626465 400.786682 C 311.546631 401.613342 312.466553 402.080017 313.23999 401.773315 C 313.346436 401.533325 313.399902 401.253357 313.399902 400.960022 L 314.986572 402.973328 L 315.826416 403.693359 L 316.466553 404.58667 L 317.973389 406.200012 Z M 330.040039 416.82666 L 329.119873 415.946716 C 328.58667 415.386658 328.053223 414.813354 327.493164 414.266663 C 326.373291 413.119995 325.213135 412.040039 323.959717 411.093323 C 323.040039 410.426697 322.119873 409.746704 321.199951 409.080017 C 320.65332 408.626648 320.133301 408.17334 319.58667 407.719971 L 319.65332 407.320007 C 319.853271 407.546692 320.133301 407.680054 320.47998 407.76001 C 320.613281 407.786682 320.679932 407.733337 320.719971 407.65332 L 321.306641 408.453308 C 321.986572 409.23999 322.733154 409.880005 323.573486 410.34668 L 326.186768 412.600037 C 326.626465 413.119995 327.053223 413.626648 327.52002 414.106689 C 328.093262 414.733337 328.666504 415.34668 329.253418 415.973328 Z M 381.52002 452.76001 C 381.439941 452.853333 381.373291 452.946686 381.306641 453.066681 L 381.159912 453.253326 C 381.159912 453.133331 381.159912 453.013367 381.159912 452.880035 Z M 410.919922 544.266663 L 410.919922 544.266663 L 410.919922 544.266663 Z M 405.386719 412.893311 C 406.58667 409.400024 410.346436 406.799988 412.013184 403.480042 C 410.546631 407.040039 408.253418 410.133362 405.386719 412.893311 Z M 491.959717 302.52002 L 491.879883 302.533325 L 491.946533 302.413391 Z M 496.533203 425.160034 L 496.06665 426.013367 C 496.133301 425.680054 496.293213 425.386658 496.533203 425.160034 Z M 515.813232 401.600037 C 515.746582 401.600037 515.679932 401.600037 515.58667 401.58667 C 514.466553 401.106628 513.186768 401.826721 511.853271 403.013367 C 513.079834 398.799988 516.973389 395.880005 519.58667 392.34668 C 519.493164 393.053345 519.573486 393.626709 519.906738 394.013367 L 519.58667 394.266663 C 517.733154 396.17334 516.17334 398.226685 515.320068 400.600037 C 515.599854 400.906677 515.759766 401.23999 515.813232 401.600037 Z M 238.959717 128.413391 C 237.773438 129.706665 237.106689 130.320007 236.373291 131.026733 C 237.386719 129.960022 238.533203 128.733337 238.959717 128.413391 Z M 270.386719 106.693359 C 267.679932 108.786682 265.06665 110.986694 262.506592 113.213379 C 262.879883 112.906677 263.23999 112.58667 263.613281 112.266663 L 266.946533 109.400024 C 268.093262 108.493408 269.226563 107.600037 270.386719 106.693359 Z M 704.333252 234.666687 C 709.013184 250.560059 712.373291 266.906677 714.640137 283.493347 C 715.053223 286.17334 715.373291 288.866699 715.65332 291.560059 C 715.959717 294.253357 716.266602 296.919983 716.573242 299.613342 C 716.879883 303.160034 717.186523 306.706665 717.47998 310.23999 C 717.773438 313.786682 717.893066 317.360046 718.106689 320.906677 C 718.279785 324.039978 718.320068 327.17334 718.373291 330.306641 C 718.413086 333.440002 718.546631 336.573303 718.47998 339.720032 C 718.453369 344.266663 718.559814 348.799988 718.359863 353.34668 C 718.06665 360.026733 717.986572 366.720032 717.359863 373.360046 C 717.026367 377.760071 716.759766 382.17334 716.373291 386.546692 C 715.919922 390.919983 715.506592 395.266663 715.159912 399.560059 C 714.893066 402.82666 714.413086 406.080017 713.986572 409.333374 L 712.679932 419.093323 C 711.813232 424.773376 710.679932 430.480042 709.746582 436.080017 C 708.773438 441.666687 707.546631 447.053345 706.719971 452.160004 C 702.47998 470.946686 697.253418 489.493347 690.866699 507.626678 C 684.346436 525.719971 676.773438 543.400024 668.146484 560.546692 C 664.399902 567.546692 660.93335 574.440002 657.053223 580.58667 C 655.186523 583.640015 653.359863 586.626709 651.546631 589.58667 C 649.65332 592.400024 647.773438 595.06665 645.973389 597.599976 C 648.146484 594.320007 649.799805 591.693359 651.23999 589.213379 C 652.58667 586.719971 653.906738 584.280029 655.279785 581.719971 C 652.986572 584.693359 650.373291 589.213379 647.186523 593.986694 C 644.053223 598.773315 640.973389 604.213379 637.559814 608.813354 C 635.986572 611.213379 633.599854 614.47998 631.466553 617.47998 C 630.946533 618.226685 630.426514 618.959961 629.93335 619.65332 C 629.439941 620.306641 628.973389 620.93335 628.506592 621.546692 C 627.65332 622.719971 627 623.693359 626.706787 624.320007 C 627.773438 623.106689 629.146484 621.47998 630.559814 619.719971 C 631.906738 617.919983 633.279785 616.053345 634.559814 614.34668 L 633.879883 615.34668 L 630.559814 620.133301 L 627 624.76001 L 619.826416 634 C 618.666504 635.573364 617.373291 637.053345 616.093262 638.52002 L 612.23999 642.959961 C 609.65332 645.906677 607.133301 648.919983 604.47998 651.813354 L 596.293213 660.293335 C 593.559814 663.119995 590.893066 666 587.959717 668.626709 C 582.186523 673.946655 576.65332 679.533325 570.58667 684.493347 C 567.23999 687.400024 563.919922 690.293335 560.58667 693.200012 L 550.040039 701.386658 L 544.746582 705.47998 C 542.93335 706.799988 541.06665 708.040039 539.23999 709.320007 C 535.546631 711.866699 531.866699 714.41333 528.17334 716.973328 C 513.013184 726.573364 497.506592 735.799988 481.373291 743.400024 C 455.119873 756.52002 426.879883 766.440002 397.786621 772.733337 C 396.199951 773.093323 394.599854 773.440002 392.986572 773.799988 C 391.359863 774.080017 389.706787 774.359985 388.040039 774.65332 C 389.706787 774.333374 391.386719 774.053345 393.053223 773.693359 L 398.013184 772.466675 L 397.426514 772.746704 L 410.426514 769.533325 C 411.266602 769.186646 410.58667 769.213318 408.613281 769.559998 C 404.719971 770.373352 400.906738 771.306641 397.146484 772.293335 C 396.879883 772.359985 396.640137 772.440002 396.426514 772.52002 C 394.946533 772.746704 393.040039 773.266663 390.533203 773.640015 C 384.640137 774.679993 378.706787 775.706665 372.879883 776.813354 C 371.973389 777.06665 371.040039 777.213318 370.106689 777.386658 C 370.866699 777.359985 371.626465 777.386658 372.373291 777.306641 C 372.106689 777.400024 371.840088 777.493347 371.559814 777.546631 C 373 777.333374 374.439941 777.053345 375.879883 776.813354 C 374.65332 777.053345 373.426514 777.280029 372.213135 777.506714 C 371 777.706665 369.773438 777.82666 368.573486 778 C 363.559814 778.679993 358.546631 779.34668 353.52002 780.026672 C 350.986572 780.41333 348.426514 780.573364 345.866699 780.773315 C 343.306641 780.959961 340.733154 781.253357 338.146484 781.320007 C 327.786621 781.93335 317.226563 781.82666 306.559814 781.359985 C 303.599854 781.186646 300.666504 781.013306 297.706787 780.840027 C 293.359863 780.400024 289.040039 780.06665 284.693115 779.533325 C 281.786621 779.200012 278.93335 778.866699 276.079834 778.533325 C 262.959717 777 249.58667 774.546631 235.800049 770.813354 C 233.840088 770.359985 231.946533 769.746704 230.026611 769.23999 C 235.599854 770.386658 246.47998 773.453369 253.573486 774.679993 C 253.599854 774.599976 253.679932 774.533325 253.800049 774.47998 L 247.119873 772.93335 C 244.773438 772.373352 242.320068 771.65332 239.706787 770.973328 C 237.053223 770.253357 234.346436 769.613342 231.666504 768.853333 C 228.119873 767.906677 224.146484 766.853333 220.986572 765.93335 C 219.786621 765.466675 218.17334 764.946655 216.106689 764.333374 L 213.946533 763.840027 L 216.279785 764.786682 L 215.493164 764.65332 L 221.719971 766.613342 C 221.919922 766.746704 222.06665 766.866699 222.213135 766.986694 C 219.426514 766.053345 216.693115 765.160034 213.986572 764.266663 C 211.626465 763.41333 209.226563 762.533325 206.826416 761.666687 C 204.279785 760.813354 201.773438 759.813354 199.333252 758.906677 C 196.813232 757.973328 194.279785 757.093323 191.946533 756.119995 L 191.06665 755.773315 C 191.386719 755.893311 191.706787 755.986694 192.040039 756.053345 C 192.506592 756.160034 192.093262 755.880005 190.786621 755.226685 C 188.453369 754.160034 186.119873 753.080017 183.706787 751.973328 C 181.199951 750.786682 178.626465 749.573364 176.026611 748.333374 C 173.493164 747.06665 170.973389 745.799988 168.439941 744.533325 C 165.919922 743.320007 163.506592 741.920044 161.053223 740.626648 C 157.333252 738.693359 153.919922 736.679993 150.826416 735.013306 C 149.040039 734.080017 147.813232 733.506714 147.119873 733.213318 C 147.06665 733.23999 147.146484 733.34668 147.279785 733.493347 C 145.453369 732.359985 143.626465 731.213318 141.826416 730.093323 C 129.133301 722.146667 116.93335 713.266663 105.186768 702.200012 C 103.146484 700.226685 101.026611 698.359985 99.040039 696.320007 C 97.079834 694.320007 95.133301 692.320007 93.17334 690.320007 C 90.919922 687.82666 88.679932 685.333374 86.439941 682.853333 C 84.320068 680.306641 82.199951 677.773315 80.079834 675.23999 C 77.893066 672.373352 75.65332 669.680054 73.58667 666.82666 C 72.266602 664.973389 70.959717 663.106689 69.640137 661.226685 C 68.320068 659.373352 67.199951 657.400024 65.973389 655.493347 C 64.786621 653.58667 63.559814 651.693359 62.506592 649.680054 L 59.23999 643.76001 L 57.599854 640.813354 C 57.06665 639.82666 56.599854 638.800049 56.106689 637.800049 C 55.133301 635.853333 54.17334 633.93335 53.226563 632.040039 C 51.786621 629.386658 50.599854 626.52002 49.333252 623.559998 C 48.47998 621.546692 47.626465 619.493347 46.773438 617.466675 C 46.013184 615.320007 45.226563 613.146729 44.466553 610.986694 C 43.853271 609.293335 43.253418 607.58667 42.65332 605.880005 C 42.053223 604.17334 41.573486 602.41333 41.040039 600.680054 C 40.306641 598.293335 39.573486 595.893311 38.840088 593.493347 C 37.546631 588.573364 36.226563 583.719971 35.026611 578.919983 C 34.23999 575.440002 33.439941 571.973389 32.65332 568.47998 C 32.159912 566.133301 31.786621 563.76001 31.346436 561.386658 L 30.133301 554.34668 C 29.813232 551.973389 29.493164 549.599976 29.159912 547.226685 L 28.773438 544.293335 C 29.093262 545.76001 29.213135 545.65332 29.106689 543.919983 C 28.853271 541.640015 28.666504 539.146729 28.306641 536.47998 L 28.306641 536.493347 C 28.226563 534.946655 28.106689 533.146729 27.946533 531.133301 C 27.573486 527.320007 27.426514 523.573364 27.106689 519.986694 C 26.813232 516.546692 26.533203 513.226685 26.23999 509.720001 C 26.226563 509.453339 26.199951 509.213348 26.159912 509.026672 C 26.119873 507.519989 26.040039 505.880035 25.906738 504.066681 C 25.813232 503.226685 25.733154 502.746704 25.679932 502.600006 L 25.666504 501.82666 C 25.640137 499.65332 25.613281 497.426666 25.58667 495.17334 C 25.546631 492.786652 25.493164 490.360016 25.453369 487.93335 C 25.41333 484.200012 25.373291 480.480011 25.320068 476.76001 C 25.293213 474.373352 25.266602 472.106689 25.23999 469.853333 C 25.186768 468.666687 25.146484 467.519989 25.106689 466.373352 C 25.106689 465.559998 25.106689 464.746704 25.106689 463.893341 L 25 463.693329 C 24.986572 463.160004 24.959717 462.626678 24.946533 462.093353 C 24.946533 461.440033 24.93335 460.786652 24.93335 460.133331 C 25 460.119995 25.06665 459.920013 25.146484 459.506683 C 25.320068 458.026672 25.453369 455.840027 25.546631 453.053345 L 25.573486 451.133331 C 25.65332 451.546692 25.746582 451.226685 25.853271 450.040009 C 25.986572 447.986664 26.106689 445.680023 26.17334 443.133331 C 26.159912 441.146698 26.093262 439.853333 25.986572 439.17334 C 25.866699 438.959991 25.719971 439.386658 25.559814 440.480011 L 25.466553 442.080017 L 25.399902 441.160004 C 25.320068 440.786652 25.213135 440.93335 25.119873 441.453339 L 25.253418 439.65332 L 25.266602 436.160004 C 25.253418 436.160004 25.23999 436.119995 25.226563 436.119995 L 25.266602 435.119995 L 25.386719 432.58667 C 25.399902 432.640015 25.41333 432.626648 25.426514 432.65332 L 25.266602 436.146698 C 25.306641 437.853333 25.426514 437.959991 25.626465 436.186676 C 25.826416 433.960022 25.959717 431.52002 26.040039 428.840027 C 26.040039 428.840027 26.013184 428.960022 25.986572 429.106689 C 26.026611 428.706665 26.053223 428.306702 26.093262 427.880005 C 26.386719 423.320007 26.666504 419.266663 26.599854 416.23999 C 26.52002 416.213379 26.439941 416.359985 26.333252 416.706665 C 26.266602 416.34668 26.186768 416.666687 26.093262 417.333374 L 26.159912 416.146667 C 26.253418 414.080017 26.399902 412.053345 26.573486 410.053345 C 26.879883 407.106689 27.186768 404.866699 27.47998 402.359985 L 27.493164 402.226685 C 27.546631 402.213379 27.599854 402.17334 27.65332 402.106689 L 27.693115 401.746704 C 27.613281 403.373352 27.52002 405 27.439941 406.600037 C 27.386719 408.053345 27.359863 409.293335 27.346436 410.34668 C 27.213135 411.52002 27.053223 413.06665 26.973389 415.026672 C 26.826416 418.866699 26.693115 422.493347 26.679932 425.440002 C 26.706787 428.293335 26.759766 430.680054 26.906738 432 C 27.026611 432.320007 27.186768 431.82666 27.373291 430.466675 C 27.693115 426.106689 27.973389 420.053345 28.426514 416.41333 L 28.52002 414.680054 C 28.640137 413.866699 28.733154 412.973328 28.800049 412.040039 C 28.93335 411.600037 29.093262 410.719971 29.266602 409.253357 L 29.266602 409.359985 C 29.733154 405.853333 30.013184 401.226685 30.453369 396.826721 C 30.746582 393.773315 30.93335 390.960022 31.106689 388.426697 C 31.599854 384.160034 32.026611 379.880005 32.573486 375.626709 C 32.800049 373.666687 33.026611 371.693359 33.253418 369.720032 L 33.306641 369.200012 C 33.386719 368.65332 33.453369 368.119995 33.533203 367.573303 C 33.866699 364.946716 34.333252 362.386658 34.719971 359.773315 C 35.133301 357.253357 35.453369 354.746704 35.919922 352.253357 C 36.346436 349.826721 36.773438 347.426697 37.213135 345.013367 C 37.599854 342.626709 38.093262 340.306641 38.546631 338 C 39 335.706665 39.386719 333.573303 39.733154 331.58667 L 39.759766 331.360046 C 40.546631 328.266663 41.399902 325 42.226563 321.493347 C 42.026611 322.400024 41.826416 323.293396 41.640137 324.17334 C 41.466553 325.52002 41.533203 325.853333 41.840088 325.17334 L 42.733154 322.013367 C 43.06665 320.666687 43.386719 319.320007 43.773438 318 C 44.506592 315.280029 45.159912 312.720032 45.746582 310.293396 C 46.813232 306.186646 48.106689 302.160034 49.279785 298.080017 C 49.746582 296.119995 49.666504 296.026733 49.040039 297.533325 C 48.293213 299.640015 47.52002 301.986694 46.679932 304.600037 C 46.359863 305.65332 46.040039 306.706665 45.719971 307.746704 C 46.679932 304.52002 47.65332 301.280029 48.613281 298.039978 C 49.359863 295.600037 50.23999 293.226685 51.026611 290.826721 C 51.613281 289.080017 52.199951 287.333374 52.773438 285.600037 C 52.613281 286.17334 52.439941 286.733337 52.279785 287.280029 C 52.213135 287.906677 52.439941 287.666687 52.946533 286.573303 C 53.346436 285.453308 53.840088 284.373352 54.279785 283.280029 L 55.693115 279.65332 C 56.626465 277.213379 57.426514 274.880005 58.320068 272.760071 L 60.733154 266.973328 L 61.946533 264.093384 L 63.266602 261.266663 L 66.040039 255.506653 C 66 255.360046 65.946533 255.23999 65.879883 255.146667 L 64.293213 258.17334 L 63.226563 260.746704 C 63.106689 260.919983 62.946533 261.17334 62.706787 261.58667 C 61.773438 263.253357 60.853271 265.226685 59.866699 267.453308 C 59.133301 269.146667 58.386719 270.839966 57.65332 272.546692 L 58.47998 270.546692 C 59.866699 267.280029 61.146484 263.919983 62.679932 260.799988 C 63.626465 258.720032 64.493164 256.786682 65.266602 255 C 65.439941 254.58667 65.599854 254.186646 65.759766 253.786682 L 66.439941 252.640015 C 67.093262 251.400024 67.746582 250.146667 68.399902 248.906677 C 69.279785 247.026733 69.773438 245.826721 69.866699 245.333374 C 69.786621 245.333374 69.626465 245.480042 69.41333 245.720032 L 70.719971 242.973328 L 69.013184 246.186646 C 69.773438 244.693359 70.559814 243.133362 71.346436 241.560059 C 72.320068 239.773315 73.346436 238.053345 74.266602 236.386658 C 75.773438 233.813354 77.199951 231.039978 78.959717 228.373352 C 80.17334 226.493347 81.41333 224.573303 82.626465 222.706665 C 83.866699 220.733337 85.106689 218.813354 86.359863 217.039978 C 87.52002 215.306641 88.493164 213.800049 89.213135 212.613342 C 89.306641 212.426697 89.399902 212.266663 89.493164 212.080017 C 90.266602 211.066711 91.06665 210.026733 91.919922 208.906677 C 93.093262 207.440002 94.279785 205.960022 95.466553 204.466675 C 95.65332 204.266663 95.840088 204.053345 96.06665 203.813354 C 97.58667 202.039978 98.986572 200.17334 100.426514 198.320007 L 99.919922 198.853333 C 100.973389 197.613342 102.013184 196.386658 103.053223 195.160034 C 104.573486 193.333374 106.093262 191.533325 107.599854 189.733337 C 111.133301 185.640015 114.719971 181.666687 113.23999 182.640015 C 114.666504 179.493408 129.159912 166.640015 131.453369 163.65332 C 134.373291 160.826721 137.47998 158.186646 140.546631 155.52002 L 142.119873 153.880005 L 142.093262 153.906677 C 143.133301 153.053345 144.213135 152.17334 145.426514 151.186646 L 151.146484 146.640015 C 153.06665 145.119995 154.800049 143.600037 156.533203 142.293396 L 161.906738 137.866699 C 162.466553 137.52002 163.119873 137.093384 163.906738 136.573303 C 167.546631 134.066711 171.533203 131.613342 175.573486 128.906677 C 179.666504 126.280029 184.013184 123.693359 188.399902 120.93335 C 190.879883 119.480042 193.359863 118.039978 195.840088 116.600037 C 198.306641 115.119995 200.786621 113.680054 203.320068 112.320007 C 205.679932 111 207.93335 109.733337 210.226563 108.453369 C 212.226563 107.266663 213.719971 106.493408 214.706787 105.839966 L 218.573486 103.93335 L 218.47998 103.706665 L 214.719971 105.573303 C 214.640137 105.506653 214.759766 105.34668 216.199951 104.560059 C 218.879883 103.160034 221.866699 101.573303 224.879883 100.160034 C 227.186768 99.093384 229.58667 98 231.879883 96.946716 C 233.279785 96.306641 234.65332 95.666687 236 95.039978 C 235.626465 95.23999 235.23999 95.440002 234.866699 95.640015 C 234 96.280029 234.959717 96.053345 236.599854 95.546692 C 237.65332 95.253357 238.826416 94.906677 240.266602 94.440002 C 241.813232 93.919983 243.626465 93.253357 245.746582 92.453369 C 247.893066 91.600037 250.133301 90.746704 252.493164 89.906677 C 253.65332 89.480042 254.813232 89.053345 255.959717 88.626709 C 262.186768 86.17334 268.559814 84.186646 274.879883 82.026733 C 275.679932 81.733337 276.733154 81.373352 277.946533 80.960022 C 277.879883 81.053345 277.826416 81.119995 277.800049 81.160034 C 277.973389 81.066711 278.159912 80.946716 278.320068 80.839966 C 278.679932 80.720032 279.06665 80.600037 279.453369 80.480042 C 279.399902 80.52002 279.346436 80.560059 279.293213 80.600037 C 277.040039 82.200012 274.733154 83.839966 272.320068 85.560059 C 269.893066 87.333374 267.399902 89.186646 264.946533 90.986694 C 262.573486 92.866699 260.23999 94.733337 258.133301 96.493408 C 256.013184 98.226685 254.213135 100.013367 252.706787 101.52002 C 253.599854 100.973328 255.213135 99.733337 257.559814 97.839966 C 259.266602 96.453369 260.906738 95.17334 262.47998 93.973328 C 267.800049 89.386658 274.040039 84.65332 280.813232 80.053345 C 282.733154 79.453369 284.879883 78.813354 287.106689 78.17334 C 275.17334 85.986694 263.773438 94.573303 252.893066 103.786682 C 240.733154 114.053345 229.106689 126.706665 219.320068 138.093384 C 207.399902 152.746704 196.146484 169.560059 189.026611 185.733337 C 192.573486 180.026733 198.346436 168.320007 203.706787 160.786682 C 204.893066 158.839966 206.213135 157 207.493164 155.119995 C 208.800049 153.266663 210.026611 151.34668 211.399902 149.546692 C 213.746582 146.680054 215.826416 143.720032 218.013184 140.93335 C 218.613281 140.320007 219.333252 139.52002 220.23999 138.493408 C 228.679932 128.106689 237.906738 118.360046 247.759766 109.320007 C 251.626465 105.906677 250.773438 107.133362 254.333252 104.280029 L 259.65332 99.880005 L 263.253418 96.960022 C 263.546631 96.693359 263.826416 96.466675 264.106689 96.213379 C 265.093262 95.440002 266.06665 94.65332 267.053223 93.880005 L 270.079834 91.626709 C 272.106689 90.133362 274.093262 88.613342 276.093262 87.226685 C 280.119873 84.52002 283.906738 81.919983 287.320068 80.093384 L 290.439941 78.026733 C 291.293213 77.52002 292.17334 77.026733 293.040039 76.546692 C 294.119873 76.266663 295.186768 76 296.226563 75.746704 C 297.053223 75.52002 297.853271 75.306641 298.626465 75.093384 L 294 77.893372 C 292.013184 79.146729 290.079834 80.453369 288.119873 81.720032 C 288.399902 81.626709 288.626465 81.573303 288.786621 81.560059 C 290.253418 80.65332 291.733154 79.746704 293.266602 78.800049 C 293.65332 78.65332 293.706787 78.720032 293.52002 78.93335 C 292.093262 79.800049 290.666504 80.666687 289.266602 81.52002 C 285.426514 83.826721 281.840088 86.466675 278.17334 88.986694 C 275.693115 90.693359 273.426514 92.52002 271.213135 94.213379 C 269.946533 95.293396 269.159912 96 268.906738 96.386658 C 267.986572 97.133362 267.186768 97.826721 266.506592 98.453369 C 266.693115 98.426697 266.840088 98.413391 266.946533 98.426697 C 268.573486 97.146729 270.266602 95.893372 272.040039 94.626709 C 281.840088 87.93335 293.640137 79.839966 305.359863 73.306641 C 305.399902 73.293396 305.466553 73.266663 305.506592 73.253357 C 306.973389 72.813354 307.599854 72.493408 307.013184 72.360046 C 307.773438 71.946716 308.533203 71.573303 309.293213 71.17334 C 310.199951 70.960022 311.093262 70.746704 311.986572 70.533325 C 299.640137 77.080017 289.17334 83.986694 279.439941 91.306641 C 277.65332 92.426697 275.866699 93.813354 273.946533 95.266663 L 273.906738 95.266663 C 271.679932 96.853333 269.626465 98.413391 267.773438 100.039978 L 262.719971 104.226685 C 241.040039 121.826721 222.399902 142.760071 208.58667 165.533325 C 207.946533 166.826721 208.17334 166.760071 209.253418 165.306641 C 216.399902 155.080017 225.666504 142.23999 234.946533 132.453369 L 234.973389 132.426697 C 234.813232 132.613342 234.65332 132.786682 234.453369 133 C 231.693115 136.146729 228.786621 139.293396 226.226563 142.680054 C 218.426514 152.480042 210.679932 163.34668 204.706787 174.039978 C 203.613281 176.093384 202.346436 178.213379 201.159912 180.440002 C 199.986572 182.680054 198.773438 184.973328 197.559814 187.253357 C 195.306641 191.880005 193.053223 196.453369 191.599854 200.600037 C 191.719971 200.533325 191.853271 200.493408 191.959717 200.466675 C 197.693115 187.733337 204.93335 174.17334 213.399902 161.880005 C 221.786621 149.560059 231.17334 138.440002 240.013184 129.973328 C 247.439941 122.680054 257.186768 113.373352 266.640137 105.946716 C 264.906738 107.400024 262.93335 109.266663 260.893066 111.066711 C 259.893066 111.960022 258.879883 112.866699 257.919922 113.733337 C 257.013184 114.613342 256.146484 115.480042 255.306641 116.293396 C 254.493164 117.053345 253.679932 117.813354 252.866699 118.573303 C 251.199951 120.080017 249.613281 121.65332 248.06665 123.226685 C 245.65332 125.666687 243.293213 128.066711 241.226563 130.453369 C 239.133301 132.853333 237.386719 134.839966 236.133301 136.58667 C 235.41333 137.600037 234.946533 138.306641 234.853271 138.626709 C 234.959717 138.666687 235.359863 138.373352 236.013184 137.773315 C 234.373291 139.773315 232.759766 141.65332 231.359863 143.52002 C 229.826416 145.58667 228.773438 147.106689 228.213135 148.066711 L 228.919922 147.600037 C 230.453369 145.960022 232.06665 143.93335 234.146484 141.706665 C 241.306641 133.52002 248.879883 125.466675 257 118.119995 C 258.47998 116.720032 260 115.386658 261.546631 114.053345 C 258.800049 116.480042 256.106689 118.960022 253.453369 121.453369 C 251.279785 123.533325 249.466553 125.560059 247.840088 127.293396 C 246.613281 128.893372 247.453369 128.320007 249.146484 126.813354 C 250.853271 125.320007 253.399902 122.866699 255.800049 120.866699 C 255.453369 121.23999 255.119873 121.626709 254.800049 121.986694 C 254.773438 122.013367 254.786621 122.026733 254.773438 122.053345 C 254.17334 122.613342 253.546631 123.146729 252.986572 123.720032 C 251.599854 125.146729 250.213135 126.573303 248.813232 128.013367 L 248.813232 128.013367 L 248.813232 128.013367 C 247.159912 129.613342 245.58667 131.293396 244.040039 132.986694 C 244.106689 133.026733 244.133301 133.119995 244.106689 133.253357 C 245.666504 131.560059 247.23999 129.866699 248.906738 128.266663 C 250.973389 126.280029 252.946533 124.200012 255.106689 122.306641 C 255.426514 122.106689 255.879883 121.800049 256.453369 121.360046 C 253.213135 124.039978 250.06665 127.34668 246.693115 130.880005 L 245.013184 132.93335 C 245.533203 132.960022 243.026611 135.720032 240.186768 139.039978 C 237.386719 142.386658 234.146484 146.17334 233.013184 148.053345 L 232.426514 148.893372 C 233.719971 147.480042 235.106689 145.706665 236.826416 143.800049 C 239.293213 140.986694 241.693115 138.133362 244.306641 135.440002 C 246.013184 133.640015 247.65332 131.773315 249.439941 130.053345 C 251.253418 128.253357 252.840088 126.613342 254.23999 125.106689 C 255.853271 123.533325 257.533203 122.013367 259.17334 120.453369 C 259.733154 119.93335 260.266602 119.400024 260.786621 118.826721 C 260.906738 118.693359 260.959717 118.626709 260.973389 118.58667 L 261.06665 118.506653 C 264.079834 116.013367 267.159912 113.34668 270.41333 110.760071 C 273.506592 108.360046 276.493164 105.93335 279.706787 103.666687 C 281.919922 102.066711 283.693115 100.600037 285.23999 99.426697 C 294.679932 92.893372 304.453369 87.200012 314.679932 81.866699 C 324.919922 76.560059 335.65332 71.666687 347.266602 67.093384 C 356.679932 63.253357 367.06665 60.119995 377.373291 57.533325 C 379.693115 57.386658 382.106689 57.213379 384.719971 57.160034 C 402.65332 56.853333 390.773438 55.960022 393.093262 55.360046 C 394.253418 55.053345 392.746582 54.813354 389.906738 54.613342 C 390.626465 54.466675 391.346436 54.293396 392.06665 54.146729 C 404.23999 52.280029 417.906738 50.52002 431.293213 50.013367 C 455.053223 49.093384 479.533203 51.093384 501.719971 56.200012 C 503.733154 56.720032 505.826416 57.213379 507.946533 57.680054 C 510.079834 58.146729 512.253418 58.626709 514.41333 59.186646 L 521.573486 60.960022 L 528.679932 62.973328 C 534.439941 64.773315 540.17334 66.65332 545.813232 68.800049 C 547.786621 69.480042 549.773438 70.133362 551.719971 70.906677 C 557.919922 73.400024 564.040039 76.080017 570.053223 78.973328 L 569.466553 78.546692 L 575.320068 81.506653 C 595.253418 91.440002 614.06665 103.706665 630.866699 118.093384 L 619.466553 132.866699 C 619.266602 132.839966 619.079834 132.813354 618.879883 132.786682 C 615.106689 136.52002 612.186523 141.013367 608.786621 145.080017 L 597.879883 158.919983 L 587.23999 172.413391 C 586.093262 173.866699 584.919922 175.306641 583.946533 176.880005 C 582.599854 178.893372 581.213135 180.880005 579.773438 182.839966 L 575.679932 187.733337 L 572.959717 191.466675 C 571.493164 193.186646 569.986572 194.880005 568.426514 196.52002 C 566.453369 198.773315 564.399902 200.960022 563.119873 203.65332 L 559.266602 209.106689 C 556.800049 212.119995 553.959717 214.960022 552.946533 218.613342 L 528.879883 249.480042 C 525.573486 253.746704 522.06665 257.440002 517.813232 259.466675 C 519.786621 257.613342 519.759766 255.626709 520.626465 253.706665 C 516.453369 253.640015 515.040039 258.386658 512.693115 261.506653 C 512.06665 263.52002 508.613281 265.333374 509.786621 267.466675 C 511.013184 267.013367 512.23999 265.680054 513.466553 264.839966 L 513.266602 265.213379 C 507.813232 274.400024 500.320068 282.266663 494.146484 290.973328 C 488.226563 301.58667 479.533203 310.493347 472.546631 320.480042 C 467.559814 329.266663 461.133301 337.106628 454.399902 344.746704 C 453.559814 345.493347 452.759766 346.293396 451.986572 347.17334 L 453.879883 344.213379 L 454.093262 344.666687 L 456.58667 340.799988 C 456.359863 340.226685 455.853271 340.119995 455.119873 340.413391 C 453.986572 341.253357 453.226563 342.360046 452.666504 343.600037 C 452.599854 343.680054 452.599854 343.786682 452.65332 343.93335 C 452.079834 344.119995 451.52002 344.546692 450.986572 345.226685 C 449.719971 346.839966 448.373291 348.400024 447.320068 350.160034 L 447.23999 351.333374 L 448.306641 351.186646 L 448.466553 351.680054 L 449.426514 350.533325 C 448.959717 351.253357 448.506592 351.973328 448.119873 352.720032 C 445.079834 359.066711 441 364.93335 436.306641 370.546692 L 434.399902 372.906677 C 433.41333 374.039978 432.399902 375.133362 431.439941 376.280029 C 430.813232 377.066711 430.253418 377.880005 429.759766 378.733337 C 427.773438 382.919983 425.320068 386.893372 421.919922 390.426697 C 421.47998 390.946716 421.06665 391.493347 420.679932 392.039978 C 420.453369 389.400024 424.17334 387.41333 425 384.93335 C 424.773438 384.746704 424.559814 384.546692 424.346436 384.34668 L 422.640137 385.986694 C 421.906738 386.453308 421.186768 387 420.493164 387.640015 C 419.813232 388.293396 419.199951 389.026733 418.706787 389.853333 C 418.119873 390.986694 417.253418 392.093384 416.906738 393.266663 C 416.439941 393.453308 416.026611 393.880005 415.679932 394.546692 L 415.759766 395.560059 L 416.800049 395.293396 L 416.946533 395.746704 L 418.306641 393.973328 C 418.546631 394.06665 418.773438 394.160034 419 394.266663 C 418.320068 395.026733 417.58667 395.706665 416.866699 396.360046 C 416.226563 396.946716 415.613281 397.573303 415.053223 398.253357 C 414.493164 398.973328 413.946533 399.733337 413.493164 400.506653 C 413.026611 401.320007 412.599854 402.133362 412.226563 402.960022 C 412.186768 403.06665 412.146484 403.160034 412.106689 403.266663 C 412.119873 403.133362 412.079834 402.960022 411.973389 402.719971 C 411.826416 402.400024 411.466553 402.333374 410.906738 402.52002 C 409.333252 403.400024 408 404.840027 406.719971 406.359985 C 406.106689 407.106689 405.493164 407.853333 404.919922 408.640015 C 404.333252 409.41333 403.759766 410.186646 403.23999 410.986694 C 402.426514 412.186646 401.759766 413.400024 401.386719 414.640015 C 401.266602 415.426697 401.333252 416.06665 401.58667 416.600037 C 401.733154 416.719971 401.893066 416.799988 402.06665 416.853333 C 401.666504 417.480042 401.266602 418.119995 400.919922 418.773376 C 398.506592 423.426697 396.06665 428.093323 392.439941 432.333374 C 391.826416 433.106689 391.226563 433.866699 390.640137 434.666687 C 390.040039 435.426697 389.439941 436.200012 388.879883 436.986664 L 387.826416 438.386658 L 387.333252 439.066681 L 387.266602 439.226685 C 387.159912 439.453339 387.093262 439.693329 387.053223 439.986664 C 387.040039 440.320007 387.053223 440.706696 387.06665 441.093353 C 387.040039 441.320007 386.986572 441.519989 386.946533 441.733337 L 386.679932 442.240021 C 386.573486 442.373352 386.453369 442.519989 386.359863 442.680023 C 386.253418 442.813354 386.146484 442.959991 386.053223 443.119995 C 385.946533 443.280029 385.866699 443.453339 385.800049 443.666687 C 385.733154 443.880035 385.693115 444.106689 385.679932 444.400024 C 385.666504 444.82666 385.613281 445.213348 385.52002 445.546692 L 385.199951 446.053345 C 385.06665 446.186676 384.93335 446.320007 384.826416 446.493347 C 384.626465 446.706696 384.41333 446.906677 384.226563 447.160004 C 384.093262 447.306671 383.959717 447.466675 383.840088 447.680023 C 383.599854 448.053345 383.373291 448.519989 383.213135 449.186676 C 383.093262 449.666687 382.973389 450.160004 382.826416 450.640015 L 382.493164 451.400024 C 382.23999 451.813354 381.973389 452.160004 381.706787 452.519989 L 381.533203 452.733337 C 381.52002 452.013367 381.399902 451.426666 381.213135 450.959991 C 381.013184 450.640015 380.879883 450.720001 380.786621 451.213348 L 380.786621 451.213348 C 380.65332 450.920013 380.52002 450.733337 380.386719 450.626678 C 379.946533 450.573364 379.640137 451.026672 379.426514 452.93335 C 379.41333 452.959991 379.41333 453.080017 379.41333 453.293335 C 379.320068 453.160004 379.23999 453.266693 379.159912 453.65332 C 379.133301 453.986664 379.119873 454.293335 379.133301 454.58667 L 379.079834 454.546692 C 379 454.493347 378.93335 454.453339 378.853271 454.453339 L 378.706787 454.160004 C 378.559814 453.906677 378.426514 453.706696 378.279785 453.559998 C 378.06665 453.333344 377.866699 453.17334 377.65332 453.160004 C 377.506592 453.17334 377.373291 453.280029 377.226563 453.493347 C 377.159912 453.680023 377.079834 453.880035 377 454.093353 C 376.946533 454.053345 376.893066 454.040009 376.840088 454.080017 L 376.800049 454.573364 L 376.679932 454.853333 C 376.626465 454.920013 376.58667 454.973358 376.533203 455.026672 C 376.559814 454.693329 376.559814 454.34668 376.559814 453.973358 C 376.493164 453.240021 376.399902 452.733337 376.23999 452.413361 L 376.119873 452.386658 C 376.17334 452 376.186768 451.58667 376.159912 451.119995 C 376.079834 450.613373 375.973389 450.333344 375.813232 450.320007 C 375.666504 450.600006 375.533203 451.026672 375.41333 451.58667 C 375.333252 452.186676 375.279785 452.786652 375.293213 453.426666 L 375.373291 453.720001 C 375.333252 453.853333 375.293213 453.986664 375.253418 454.119995 C 375.186768 454.533356 375.146484 454.959991 375.133301 455.400024 L 375.040039 454.959991 L 374.733154 455.240021 L 374.706787 455.413361 L 374.626465 455.373352 L 374.453369 455.186676 L 374.47998 455 L 374.733154 455.240021 C 374.919922 454.813354 375 454.266693 374.946533 453.58667 C 374.866699 453 374.719971 452.746704 374.52002 452.773346 C 374.52002 452.773346 374.506592 452.866669 374.506592 452.973358 C 374.493164 452.853333 374.47998 452.733337 374.466553 452.626678 C 374.23999 451.920013 373.986572 451.706696 373.573486 452.493347 C 373.506592 452.82666 373.453369 453.17334 373.399902 453.533356 C 373.306641 453.893341 373.266602 454.186676 373.266602 454.453339 L 373.17334 454.426666 C 373.013184 454.34668 372.866699 454.146698 372.746582 453.893341 C 372.599854 453.306671 372.58667 452.58667 372.533203 451.946686 L 372.52002 451.920013 L 372.666504 451.333344 L 372.666504 451.226685 C 372.813232 451.213348 372.946533 451.186676 373.093262 451.133331 C 373.23999 451 373.386719 450.813354 373.52002 450.58667 C 373.533203 450.906677 373.613281 451.106689 373.759766 451.160004 C 374.06665 451.080017 374.373291 450.893341 374.65332 450.400024 C 374.946533 449.893341 375.186768 449.266693 375.386719 448.400024 C 375.493164 447.786652 375.559814 447.160004 375.58667 446.533356 C 375.493164 445.693329 375.133301 445.853333 375.186768 444.666687 L 375.106689 444.626678 C 375.133301 444.253326 375.133301 444.080017 375.093262 444.053345 C 375.159912 443.626678 375.213135 443.213348 375.226563 442.840027 L 375.23999 442.813354 C 375.306641 441.866669 375.119873 441.853333 374.959717 441.666687 C 374.866699 441.533356 374.719971 441.58667 374.52002 441.840027 L 374.053223 441.320007 C 373.919922 441.386658 373.800049 441.426666 373.666504 441.466675 C 373.666504 441.453339 373.65332 441.466675 373.640137 441.466675 L 373.599854 441.360016 C 373.52002 441.213348 373.426514 441.066681 373.333252 440.973358 C 373.23999 440.866669 373.146484 440.76001 373.026611 440.693329 C 372.93335 440.600006 372.840088 440.506683 372.719971 440.440033 C 372.613281 440.373352 372.506592 440.306671 372.359863 440.280029 C 372.213135 440.280029 372.040039 440.333344 371.813232 440.453339 L 371.759766 440.519989 C 371.800049 440.106689 371.773438 439.840027 371.626465 439.693329 C 371.693115 439.680023 371.773438 439.666687 371.853271 439.640015 C 372.199951 439.306671 372.52002 438.893341 372.813232 438.426666 L 373.013184 437.920013 L 372.946533 437.693329 C 372.853271 437.613373 372.693115 437.626678 372.453369 437.733337 L 371.746582 437.58667 C 371.359863 437.82666 371.013184 438.146698 370.733154 438.546692 C 370.58667 438.866669 370.533203 439.133331 370.573486 439.34668 C 370.599854 439.413361 370.640137 439.466675 370.693115 439.506683 C 370.47998 439.440033 370.293213 439.333344 370.119873 439.200012 L 369.93335 439.053345 C 369.640137 438.773346 369.346436 438.493347 369.053223 438.213348 C 368.599854 437.773346 368.133301 437.360016 367.65332 436.946686 C 367.866699 437.040009 368.079834 437.119995 368.293213 437.17334 C 368.786621 436.986664 369.06665 436.58667 369.119873 435.973328 L 368.506592 434.880005 L 367.626465 433.880005 C 366.986572 433.23999 366.306641 432.719971 365.58667 432.306702 L 362.359863 429.440002 L 360.853271 427.82666 L 360.013184 428.493347 L 360.506592 429.640015 L 361.559814 429.960022 C 361.533203 430.106689 361.506592 430.266663 361.533203 430.453308 C 361.759766 431.160034 362.106689 431.853333 362.573486 432.559998 C 362.959717 433.06665 363.373291 433.546692 363.813232 434 C 363.613281 433.853333 363.41333 433.706665 363.213135 433.546692 C 362.279785 432.76001 361.359863 431.946716 360.386719 431.200012 C 359.746582 430.733337 359.093262 430.333374 358.439941 430.040039 C 358.266602 429.986694 358.093262 429.93335 357.93335 429.893311 L 357.919922 429.266663 L 356.826416 428.320007 C 356.040039 428.06665 355.386719 428.080017 354.866699 428.34668 C 354.693115 428.52002 354.559814 428.733337 354.466553 428.973328 L 353.359863 428.600037 L 354.266602 429.453308 C 353.733154 429.186646 353.213135 428.853333 352.693115 428.493347 C 352.133301 428.06665 351.573486 427.65332 350.986572 427.306702 C 350.106689 426.733337 349.226563 426.093323 348.386719 425.400024 C 347.813232 424.880005 347.23999 424.34668 346.666504 423.853333 C 346.053223 423.320007 345.426514 422.840027 344.773438 422.440002 C 344.106689 422.093323 343.453369 421.866699 342.840088 421.799988 C 342.719971 421.799988 342.599854 421.840027 342.47998 421.866699 C 342.306641 421.440002 342.106689 421.026672 341.840088 420.600037 C 341.466553 420.06665 341.06665 419.559998 340.65332 419.053345 C 340.65332 418.93335 340.626465 418.82666 340.599854 418.693359 C 340.293213 417.893311 339.733154 417.320007 338.973389 416.946716 L 339.040039 417.213379 C 338.679932 416.799988 338.279785 416.41333 337.866699 416.053345 C 337.293213 415.493347 336.693115 414.946716 336.06665 414.453308 C 334.506592 413.386658 332.959717 412.359985 332.306641 413.773376 C 329.399902 414.973328 327.279785 407.986694 324.399902 408.960022 L 321.386719 406.146667 L 320.320068 406.106689 L 320.320068 406.119995 C 320.146484 405.693359 319.879883 405.280029 319.533203 404.853333 L 317.853271 403.053345 C 317.253418 402.480042 316.626465 402.013367 315.973389 401.626709 L 313.399902 400.826721 C 313.399902 400.533325 313.346436 400.213379 313.23999 399.866699 C 312 396.960022 310.119873 394.17334 307.919922 391.440002 C 306.666504 389.960022 305.333252 388.560059 303.906738 387.253357 C 303.199951 386.640015 302.506592 386.093384 301.759766 385.600037 C 301.053223 385.200012 300.41333 385.013367 299.813232 385.039978 L 298.826416 383.973328 L 298.213135 384.546692 L 299.17334 385.573303 C 298.946533 385.813354 298.666504 385.986694 298.106689 385.76001 C 297.199951 385.213379 296.346436 384.453308 295.52002 383.693359 C 294.919922 383.093384 294.293213 382.466675 293.666504 381.893372 C 293.293213 381.533325 292.919922 381.186646 292.533203 380.866699 C 292.693115 380.919983 292.853271 380.960022 293.013184 381 C 293.840088 380.719971 294.146484 379.973328 294.279785 379.06665 C 294.359863 378.480042 294.399902 377.880005 294.359863 377.226685 C 294.266602 376.573303 294.040039 375.880005 293.693115 375.160034 C 293.306641 374.466675 292.840088 373.786682 292.293213 373.146667 L 291.453369 372.226685 L 286.733154 367.400024 C 283.199951 366.893372 278.41333 356.58667 275.746582 362.680054 C 275.719971 363.226685 275.866699 363.813354 276.226563 364.466675 L 276.293213 364.573303 L 276.199951 364.613342 C 275.759766 363.880005 275.17334 363.360046 274.439941 363.106628 C 273.906738 362.613342 273.373291 362.186646 272.800049 361.826721 C 265.826416 353.986694 265.17334 353.693359 263.906738 357.880005 C 265.853271 359.026733 267.919922 359.453308 269.679932 361.706665 C 270.373291 362.280029 271.06665 362.640015 271.759766 362.773315 C 272 362.773315 272.199951 362.720032 272.346436 362.613342 L 272.346436 363.426697 C 272.840088 364.213379 273.453369 364.906677 274.199951 365.480042 C 274.573486 365.666687 274.93335 365.773315 275.253418 365.826721 L 275.186768 365.866699 L 274.959717 365.826721 C 275.17334 366.440002 275.533203 366.93335 276.013184 367.34668 L 275.613281 367.253357 L 275.813232 368.386658 L 276.959717 369.693359 C 276.666504 369.626709 276.386719 369.58667 276.106689 369.58667 C 275.599854 369.640015 275.146484 369.760071 274.733154 369.973328 C 274.573486 370.053345 274.399902 370.119995 274.226563 370.17334 L 273.893066 369.799988 L 273.666504 369.826721 C 273.306641 369.426697 272.919922 369.053345 272.47998 368.733337 C 272.320068 368.560059 272.079834 368.453308 271.759766 368.413391 C 271.493164 368.386658 271.386719 368.533325 271.399902 368.839966 L 271.106689 368.400024 L 269.973389 367.773315 L 269.93335 367.733337 L 269.93335 367.680054 C 269.65332 366.919983 269.159912 366.466675 268.493164 366.266663 C 268.06665 365.839966 267.613281 365.413391 267.159912 365.026733 C 265.373291 363.34668 263.719971 363.053345 262.06665 362.706665 C 255.879883 361.866699 250.133301 362.306641 242.65332 357.066711 C 237.693115 353.573303 238.146484 358.546692 236.026611 359.480042 C 233.626465 360.546692 235.279785 364.080017 236.613281 367.053345 C 237.199951 368.360046 239.41333 370.813354 240.266602 370.133362 C 244.853271 366.493347 248.853271 373.58667 253.06665 377.253357 L 253.65332 377.919983 C 253.65332 377.919983 254.293213 378.506653 254.359863 378.560059 C 254.293213 379 253.959717 379.039978 253.439941 378.746704 C 252.946533 378.533325 252.47998 378.440002 252.053223 378.440002 C 245.946533 375.733337 240.640137 373.23999 237.47998 378.186646 C 236.093262 380.34668 233.226563 383.293396 229.079834 383.053345 C 226.800049 382.919983 225.719971 386.039978 222.959717 383.320007 C 220.399902 380.799988 220.013184 377.600037 221.65332 375.93335 C 222.679932 374.880005 221.599854 373.58667 220.279785 372.133362 C 219.119873 370.853333 217.719971 370 217.306641 370.906677 C 215.159912 375.58667 204.65332 372.880005 209.666504 383.919983 C 210.333252 385.373291 210.666504 386.960022 209.159912 387.160034 C 204.079834 387.866699 204.079834 387.866699 209.119873 393.746704 C 209.693115 396.493347 211.133301 399.213379 213.439941 401.893311 C 207.493164 404.306702 205.373291 409.226685 206.333252 417.866699 C 207.133301 425.213379 209.959717 427.813354 216.266602 430.41333 L 232.93335 442.600006 L 234.493164 444.280029 L 236.040039 445.920013 C 238.613281 450.333344 242.826416 451.93335 246.226563 454.920013 L 249.306641 458.200012 C 252.253418 461.800018 256.826416 463.106689 259.186768 467.480011 L 267.813232 474.853333 L 292.199951 495.240021 C 292.41333 496.093353 292.919922 496.666687 293.773438 496.93335 C 295.666504 498.600006 297.546631 500.266693 299.426514 501.946686 L 300.840088 503.186676 L 301.199951 503.493347 L 301.773438 504.040009 L 302.973389 505.17334 C 304.546631 506.640015 306.133301 508.119995 307.759766 509.613342 C 316.546631 517.626709 325.06665 526.213379 333.52002 534.400024 C 341.946533 542.573364 350.320068 550.34668 358.093262 556 C 359.466553 558.160034 359.906738 559.986694 361.58667 562.306641 C 365.093262 566.93335 368.47998 570.080017 371.559814 571.853333 C 372.293213 573.919983 374.213135 575.800049 376.426514 577.559998 L 384.52002 585.840027 L 386.679932 583 L 387.493164 581.359985 L 387.813232 580.053345 C 387.893066 579.333374 387.746582 578.93335 387.386719 578.853333 C 388.439941 577.106689 389.41333 575.359985 390.279785 573.599976 C 391.013184 572.040039 391.52002 570.626709 391.800049 569.400024 C 392.226563 569.119995 392.693115 568.773315 393.199951 568.306641 C 393.800049 567.680054 394.41333 567 395.026611 566.293335 L 393.41333 568.813354 C 393.386719 569.440002 393.373291 570.040039 393.386719 570.599976 L 398.093262 564.82666 C 398.93335 564.306641 399.733154 563.320007 400.493164 561.906677 L 400.146484 561.640015 L 402.466553 558.666687 L 402.466553 558.666687 L 404.759766 555.76001 C 404.679932 555.213379 404.573486 554.706665 404.439941 554.226685 L 402.253418 557.546692 L 402.253418 557.546692 C 401.47998 558.200012 400.773438 559.106689 400.106689 560.280029 L 400.106689 560.280029 L 398.813232 561.599976 C 400.506592 559.386658 402.17334 557.106689 403.746582 554.666687 C 404.879883 552.880005 406.026611 551.080017 407.133301 549.333374 C 407.679932 548.573364 408.199951 547.840027 408.733154 547.106689 L 408.986572 548.733337 L 411.640137 545.746704 L 411.266602 545.626709 L 412.41333 544.320007 C 412.41333 544.320007 413.439941 542.773315 413.453369 542.76001 C 413.399902 542.386658 413.373291 542.013367 413.346436 541.613342 L 410.919922 544.266663 C 410.919922 544.266663 410.93335 544.23999 410.946533 544.17334 C 411.666504 543.266663 412.373291 542.34668 413.093262 541.426636 C 413.919922 540.400024 414.733154 539.373352 415.533203 538.306641 C 416.733154 536.746704 417.93335 535.17334 419.093262 533.546692 C 419.853271 532.466675 420.58667 531.373352 421.266602 530.23999 C 421.893066 529.133301 422.58667 528.119995 423.399902 527.146729 C 424.186768 526.426636 424.986572 525.693359 425.773438 524.986694 C 426.906738 523.959961 428.040039 522.959961 429.186768 521.840027 C 429.986572 521.053345 430.786621 520.186646 431.559814 519.226685 C 432.320068 518.226685 433 517.186646 433.613281 516.133301 C 433.786621 515.800049 433.986572 515.440002 434.159912 515.093323 L 434.333252 515.040039 C 435.040039 514.226685 435.58667 513.41333 435.986572 512.58667 C 436.746582 512.17334 437.439941 511.293335 438.040039 509.973358 L 437.773438 510.066681 L 437.146484 509.373352 L 437.41333 508.919983 C 437.41333 508.919983 437.65332 508.573364 437.893066 508.240021 C 438.146484 507.906677 438.399902 507.573364 438.399902 507.573364 C 438.399902 507.573364 438.666504 507.253326 438.93335 506.946686 C 439.186768 506.626678 439.439941 506.306671 439.439941 506.306671 C 440.626465 505.080017 441.840088 504.026672 443.053223 502.853333 C 443.93335 501.973358 444.813232 501.026672 445.666504 500.040009 C 446.573486 499 447.47998 497.920013 448.346436 496.800018 C 449.266602 495.640015 450.186768 494.466675 451.079834 493.280029 C 451.506592 492.693329 451.93335 492.106689 452.373291 491.493347 C 452.573486 491.213348 452.773438 490.93335 452.959717 490.65332 C 453.079834 490.453339 453.199951 490.253326 453.320068 490.053345 C 453.746582 489.240021 454.06665 488.440033 454.266602 487.65332 C 454.373291 486.559998 453.533203 486.266693 453.493164 485.306671 C 453.919922 485.573364 454.439941 485.546692 455.146484 484.973358 C 455.826416 484.253326 456.359863 483.519989 456.626465 482.773346 C 458.879883 481.333344 460.693115 479.226685 462.279785 476.82666 C 463.17334 475.400024 463.986572 473.973358 464.773438 472.533356 C 465.333252 471.58667 465.893066 470.640015 466.386719 469.693329 C 466.786621 468.959991 467.119873 468.240021 467.373291 467.519989 C 467.546631 467.800018 467.800049 467.973358 468.186768 468 C 469.133301 467.920013 470.119873 467.426666 471.146484 466.600006 C 471.733154 465.93335 472.226563 465.213348 472.58667 464.453339 C 473.320068 462.973358 474.41333 461.613373 475.17334 460.133331 C 475.52002 459.426666 475.813232 458.733337 476.026611 458.026672 C 476.213135 457.373352 476.386719 456.746704 476.533203 456.106689 C 476.866699 455.119995 477.466553 454.320007 478.293213 453.706696 C 479.186768 453.200012 480.106689 452.680023 480.986572 451.93335 C 481.266602 451.626678 481.559814 451.293335 481.826416 450.973358 C 482.093262 450.626678 482.359863 450.280029 482.626465 449.93335 L 482.893066 449.506683 C 483.119873 449.240021 483.306641 448.946686 483.439941 448.626678 C 484.06665 447.533356 484.719971 446.386658 485.346436 445.293335 C 486.359863 443.373352 487.386719 441.426666 488.426514 439.466675 C 488.973389 438.34668 489.533203 437.213348 490.079834 436.106689 C 490.453369 435.386658 490.893066 434.680054 491.359863 433.986694 L 492.840088 431.986694 L 493.306641 431.320007 L 493.306641 431.320007 C 492.866699 432.106689 492.426514 432.880005 492.040039 433.666687 C 491.640137 434.466675 491.266602 435.293335 490.973389 436.093353 C 490.119873 438.65332 488.679932 441.146698 486.986572 443.626678 C 486.466553 444.413361 485.986572 445.186676 485.546631 446 C 485.199951 446.600006 484.840088 447.186676 484.466553 447.76001 L 484.359863 447.840027 C 483.946533 448.320007 483.599854 448.82666 483.333252 449.360016 L 482.679932 450.186676 C 482.133301 450.840027 481.613281 451.519989 481.146484 452.226685 C 480.47998 453.293335 479.826416 454.360016 479.17334 455.413361 L 477.706787 457.466675 L 476.159912 459.493347 C 475.626465 460.17334 475.093262 460.866669 474.599854 461.573364 C 474.093262 462.293335 473.613281 463.026672 473.186768 463.773346 C 472.800049 464.546692 472.52002 465.293335 472.386719 466.026672 C 472.399902 466.186676 472.439941 466.333344 472.47998 466.480011 L 471.719971 467.426666 C 471.893066 467.559998 472.079834 467.693329 472.279785 467.800018 C 472.546631 467.65332 472.813232 467.480011 473.079834 467.280029 L 473.159912 467.34668 C 473.679932 467.493347 474.226563 467.533356 474.840088 467.453339 C 477.186768 469.453339 479.426514 465.93335 481.013184 463.400024 C 488.320068 451.76001 497.41333 440.866669 504.333252 429.306702 C 508.133301 422.93335 514.279785 417.58667 516.346436 410.733337 C 524.559814 399.093384 534.640137 388.693359 541.906738 376.440002 C 543.253418 375.573303 544.253418 374.440002 544.679932 372.866699 C 560.599854 350.919983 574.679932 327.93335 591.733154 306.600037 L 592.466553 305.720032 C 593.213135 304.839966 594.026367 304.066711 594.853271 303.333374 C 595.439941 302.746704 595.706787 302.146667 595.666504 301.546692 C 596.386719 296.813354 600.759766 293.853333 603.47998 290.106628 C 604.133301 289.573303 604.719971 288.960022 605.253418 288.266663 C 606.226563 286.826721 607.159912 285.360046 608.226563 283.960022 L 609.906738 281.826721 C 610.826416 280.706665 611.733154 279.560059 612.533203 278.360046 C 613.320068 277.280029 614.079834 276.200012 614.759766 275.080017 C 614.693115 275.293396 614.666504 275.533325 614.706787 275.826721 C 614.919922 276.039978 615.146484 276.226685 615.386719 276.386658 C 616.493164 275.320007 616.52002 274.626709 615.879883 274.160034 L 615.93335 274.306641 C 615.52002 274.333374 615.226563 274.453308 615.013184 274.65332 C 615.306641 274.160034 615.573242 273.65332 615.813232 273.146667 C 616.199951 272.493347 616.453369 271.866699 616.599854 271.253357 C 617.199951 271.106628 617.640137 270.613342 617.919922 269.720032 C 621.506592 264.853333 624.799805 259.680054 629.679932 256.213379 C 629.906738 255.533325 630.253418 254.866699 630.706787 254.200012 C 631.186523 253.573303 631.613281 252.919983 631.973389 252.23999 C 632.279785 251.226685 631.919922 250.52002 632.293213 249.480042 L 636.106689 243.960022 L 645.879883 231.573303 C 647.413086 229.680054 649.93335 228.053345 649.399902 225.600037 L 667.546631 202.706665 L 683.119873 182.960022 C 683.973389 184.506653 684.799805 186.053345 685.599854 187.626709 C 693.320068 202.573303 699.52002 218.373352 704.333252 234.666687 Z M 547.613281 704.82666 L 547.47998 704.920044 C 547.58667 704.840027 547.693115 704.746704 547.800049 704.666687 C 547.746582 704.720032 547.679932 704.773315 547.613281 704.82666 Z M 408.399902 793.813354 C 408 793.906677 407.599854 793.986694 407.186768 794.080017 C 405.17334 794.533325 403.186768 794.986694 401.226563 795.440002 C 399.253418 795.893311 397.320068 796.400024 395.359863 796.706665 C 391.466553 797.426636 387.679932 798.160034 384.013184 798.920044 C 383.853271 799.053345 383.359863 799.23999 382.613281 799.453369 C 382.466553 799.453369 382.346436 799.466675 382.199951 799.466675 C 381.679932 799.386658 380.373291 799.493347 378.533203 799.733337 C 377.546631 799.866699 376.506592 800.013306 375.386719 800.17334 C 374.186768 800.280029 372.919922 800.41333 371.58667 800.546631 C 384.026611 798.280029 398.466553 796.093323 411.693115 792.666687 C 409.866699 793.200012 408.640137 793.613342 408.399902 793.813354 Z M 175.306641 749.013306 C 170.293213 746.533325 165.213135 744 160.253418 741.106689 C 162.533203 742.226685 164.866699 743.559998 167.373291 744.786682 C 169.866699 746.040039 172.426514 747.333374 175 748.640015 C 180.226563 751.106689 185.506592 753.626648 190.466553 755.546631 C 185.399902 753.626648 180.386719 751.34668 175.306641 749.013306 Z M 28.266602 540.226685 L 27.986572 537.65332 C 28.040039 537.919983 28.093262 538.17334 28.133301 538.440002 C 28.306641 540.280029 28.466553 542.119995 28.719971 543.946655 C 28.546631 542.719971 28.373291 541.47998 28.266602 540.226685 Z M 113.640137 180.65332 C 115.17334 178.93335 116.800049 177.280029 118.439941 175.65332 C 121.800049 172.306641 125.053223 168.893372 128.426514 165.786682 C 130.840088 163.506653 133.133301 161.17334 135.613281 158.960022 C 137.17334 157.58667 138.733154 156.213379 140.293213 154.853333 L 140.919922 154.426697 C 140.23999 155.013367 139.599854 155.600037 138.986572 156.200012 C 138.746582 156.440002 138.719971 156.480042 138.813232 156.440002 L 136.599854 158.306641 C 134.213135 160.266663 132.159912 162.333374 130.213135 164.213379 C 127.759766 166.560059 125.226563 168.813354 122.893066 171.280029 C 121.493164 172.680054 120.093262 174.066711 118.666504 175.480042 C 117.773438 176.373352 116.893066 177.253357 116.013184 178.133362 C 115.159912 179.053345 114.306641 179.960022 113.453369 180.880005 C 112.666504 181.720032 111.893066 182.560059 111.119873 183.400024 Z M 145.773438 150.146729 C 147.466553 148.760071 149.133301 147.386658 150.773438 146.039978 L 154.226563 143.160034 C 155.386719 142.200012 156.58667 141.306641 157.773438 140.386658 C 159.306641 139.186646 160.866699 138 162.506592 136.746704 C 164.159912 135.506653 165.58667 134.453369 167.106689 133.34668 C 167.17334 133.280029 168.040039 132.866699 168.040039 132.866699 C 168.040039 132.866699 166.453369 133.880005 166.213135 134.039978 C 163.23999 136.17334 161 138.013367 160.373291 138.720032 C 160.666504 138.600037 161.093262 138.360046 161.65332 138.026733 L 155.52002 142.466675 C 155.52002 142.466675 154.853271 142.946716 154.226563 143.480042 C 153.599854 143.986694 152.959717 144.506653 152.959717 144.506653 L 150.386719 146.506653 L 145.279785 150.573303 C 144.58667 151.106689 143.93335 151.680054 143.279785 152.253357 C 144.093262 151.52002 144.93335 150.826721 145.773438 150.146729 Z M 263.599854 83.746704 C 266.23999 82.826721 268.840088 81.919983 271.47998 81.013367 C 274 80.106689 276.506592 79.360046 279 78.58667 C 280.199951 78.200012 281.373291 77.826721 282.533203 77.453369 C 282.52002 77.466675 282.506592 77.466675 282.493164 77.480042 C 281.706787 78.013367 281.026611 78.506653 280.439941 78.93335 C 278.640137 79.360046 276.58667 79.866699 274.17334 80.533325 C 271.359863 81.440002 268.533203 82.34668 265.640137 83.280029 C 260.626465 84.839966 255.866699 86.813354 251.119873 88.58667 C 255.199951 87 259.253418 85.253357 263.599854 83.746704 Z M 283.506592 77.693359 C 283.293213 77.826721 283.093262 77.973328 282.879883 78.106689 C 282.840088 78.119995 282.786621 78.133362 282.746582 78.160034 C 283 78 283.23999 77.853333 283.506592 77.693359 Z M 286.93335 76.013367 L 286.906738 76.320007 L 287.346436 76.17334 C 288.786621 75.866699 290.226563 75.546692 291.65332 75.133362 L 290.906738 75.426697 L 291.58667 75.306641 C 291.386719 75.426697 291.199951 75.560059 291 75.680054 C 289.946533 75.960022 288.893066 76.23999 287.840088 76.52002 C 286.693115 76.866699 285.613281 77.213379 284.573486 77.546692 C 285.359863 77.039978 286.146484 76.52002 286.93335 76.013367 Z M 290.399902 74.839966 C 291.226563 74.506653 291.840088 74.226685 292.186768 74.013367 C 292.320068 73.93335 292.52002 73.826721 292.733154 73.733337 L 294.186768 73.360046 L 294.559814 73.200012 C 294.800049 73.146729 295.040039 73.080017 295.279785 73.013367 C 294.573486 73.440002 293.879883 73.866699 293.199951 74.293396 L 288.493164 75.493408 C 289.146484 75.266663 289.773438 75.053345 290.399902 74.839966 Z M 302.359863 72.813354 C 302.306641 72.839966 302.266602 72.880005 302.213135 72.906677 C 301.879883 72.960022 301.533203 73.026733 301.159912 73.093384 L 300.826416 73.186646 L 300.893066 73.133362 C 301.399902 73.026733 301.866699 72.919983 302.359863 72.813354 Z M 303.559814 70.693359 L 306.199951 70.026733 L 306.359863 70 C 306.399902 69.986694 306.426514 69.986694 306.47998 69.986694 C 307.053223 69.880005 307.546631 69.760071 308.093262 69.65332 L 306.693115 70.400024 C 305.786621 70.893372 304.919922 71.373352 304.06665 71.839966 C 303.679932 71.93335 303.306641 72 302.919922 72.093384 C 301.786621 72.386658 300.853271 72.626709 300.146484 72.893372 L 300.146484 72.866699 L 300.693115 72.693359 C 300.279785 72.773315 299.840088 72.906677 299.41333 73 C 300.786621 72.226685 302.159912 71.453369 303.559814 70.693359 Z M 312.253418 69.626709 L 312.719971 69.333374 L 312.773438 69.306641 L 312.773438 69.306641 L 312.253418 69.626709 L 316.439941 67.813354 C 316.853271 67.733337 317.279785 67.65332 317.693115 67.573303 C 317.746582 67.560059 317.773438 67.560059 317.826416 67.546692 C 316.266602 68.320007 314.719971 69.093384 313.213135 69.880005 C 312.959717 69.973328 312.773438 70.053345 312.706787 70.106689 L 310.973389 70.333374 C 310.93335 70.333374 310.893066 70.34668 310.853271 70.360046 C 311.320068 70.119995 311.800049 69.853333 312.253418 69.626709 Z M 324.053223 60.413391 C 325.013184 60.200012 325.959717 60 326.893066 59.813354 C 325.986572 60.200012 325.06665 60.600037 324.159912 60.986694 C 324.106689 61.013367 324.040039 61.039978 323.986572 61.066711 C 323.199951 61.200012 322.426514 61.34668 321.65332 61.493408 C 322.453369 61.119995 323.253418 60.773315 324.053223 60.413391 Z M 328.386719 59.506653 C 327.800049 59.773315 327.199951 60.013367 326.613281 60.293396 C 326.23999 60.466675 325.879883 60.640015 325.506592 60.800049 C 325.466553 60.813354 325.41333 60.813354 325.373291 60.826721 C 326.306641 60.400024 327.253418 59.973328 328.186768 59.546692 C 328.253418 59.533325 328.320068 59.52002 328.386719 59.506653 Z M 328.426514 49.400024 C 328.146484 49.466675 327.879883 49.533386 327.599854 49.600037 C 327.23999 49.640015 326.893066 49.680054 326.52002 49.720032 C 327.146484 49.613342 327.773438 49.506653 328.426514 49.400024 Z M 373.973389 43.266663 C 376.52002 42.65332 379 42.026733 381.52002 41.560059 C 380.946533 41.746704 380.773438 41.866699 380.986572 41.893372 C 378.879883 42.293396 376.826416 42.866699 374.733154 43.360046 C 374.359863 43.440002 373.946533 43.52002 373.533203 43.600037 C 373.253418 43.613342 372.986572 43.626709 372.693115 43.640015 C 372.640137 43.640015 372.559814 43.640015 372.506592 43.640015 C 372.986572 43.52002 373.47998 43.400024 373.973389 43.266663 Z M 385.23999 41.360046 L 385.47998 41.320007 L 378.893066 42.693359 L 382.466553 41.906677 C 383.41333 41.720032 384.320068 41.546692 385.23999 41.360046 Z M 396.093262 41.853333 C 398.399902 41.440002 400.65332 41.013367 402.893066 40.720032 L 406.013184 40.280029 L 405 40.453369 C 403.41333 40.746704 402.626465 40.946716 402.47998 41.080017 C 400.093262 41.266663 397.58667 41.706665 394.946533 42.093384 L 392.386719 42.480042 Z M 399.106689 38.773315 L 399.279785 38.640015 C 400.106689 38.52002 400.946533 38.480042 401.786621 38.400024 C 404.906738 38.106689 408.119873 37.813354 411.626465 37.493408 C 414.813232 37.23999 418.013184 36.973328 421.266602 36.706665 L 420.439941 36.786682 L 413.893066 37.413391 C 412.613281 37.52002 411.399902 37.613342 410.213135 37.720032 C 409.06665 37.840027 407.946533 37.973328 406.826416 38.093384 C 404.599854 38.333374 402.41333 38.560059 400.146484 38.813354 C 399.159912 38.960022 398.159912 39.106689 397.159912 39.266663 Z M 12.439941 581.280029 L 12.439941 581.280029 L 12.439941 581.280029 Z M 747.65332 25.866699 C 747.293213 26.213379 746.959717 26.666687 746.573242 26.600037 C 746.893066 26.093384 747.279785 26.013367 747.65332 25.866699 Z M 777.906738 31.373352 L 775.17334 34.866699 C 774.079834 35.533386 773.293213 36.413391 772.799805 37.506653 C 772.426514 37.573303 772.026367 37.706665 771.599854 37.93335 L 763.293213 48.066711 C 761.906738 49.119995 761.199951 47.960022 759.866699 48.813354 L 758.146484 50.333374 L 757.293213 51.600037 C 757.253418 51.733337 757.213135 51.840027 757.17334 51.960022 C 755.053223 54.453369 753.146484 57.373352 750.253418 58.306641 L 749.679932 59.426697 C 749.053223 59.720032 748.413086 60.013367 747.799805 60.306641 C 743.026367 64.34668 739.840088 70.533325 734.759766 74.17334 C 734.053223 74.720032 733.373291 75.320007 732.706787 75.986694 C 731.826416 77 731.133301 78.080017 730.466553 79.186646 C 730.013184 79.853333 729.546631 80.493408 729.06665 81.146729 C 728.493164 81.786682 727.879883 82.373352 727.293213 82.973328 C 727.226563 82.680054 727.079834 82.480042 726.813232 82.360046 L 728.133301 80.706665 C 728.773438 80.493408 729.333252 80.039978 729.840088 79.34668 C 730.333252 78.666687 730.599854 78 730.65332 77.34668 L 730.759766 77.293396 C 730.879883 77.133362 730.866699 76.906677 730.746582 76.613342 C 730.613281 76.333374 730.279785 76.360046 729.733154 76.680054 C 730.23999 76.053345 730.746582 75.413391 731.226563 74.773315 C 731.826416 74.026733 732.426514 73.280029 732.986572 72.52002 L 735.733154 69.093384 C 736.359863 68.320007 736.973389 67.52002 737.533203 66.693359 C 738.733154 64.986694 739.773438 63.253357 740.079834 61.480042 L 740.06665 61.386658 L 740.58667 61.440002 L 741.506592 60.466675 C 742.106689 59.760071 742.533203 59.013367 742.813232 58.23999 L 745.266602 54.280029 C 745 54.200012 744.746582 54.093384 744.506592 53.960022 C 744.053223 54.306641 743.599854 54.693359 743.17334 55.119995 C 742.866699 55.039978 742.626465 54.866699 742.439941 54.600037 C 742.893066 54.266663 743.333252 53.919983 743.786621 53.573303 C 744.853271 52.533386 745.573242 51.226746 746.493164 50.080017 C 747.119873 49.293396 747.626465 48.480042 748.026367 47.626709 C 748.06665 46.960022 747.946533 46.426697 747.666504 46.013367 C 747.879883 45.680054 747.973389 45.306641 747.973389 44.919983 C 747.706787 44.773315 747.439941 44.626709 747.186523 44.453369 C 746.65332 44.893372 746.119873 45.373352 745.613281 45.893372 C 740.719971 48.039978 738.733154 53.946716 734.906738 57.480042 L 734.946533 57.746704 L 734.93335 57.760071 L 734.93335 57.760071 L 734.906738 57.480042 L 732.426514 58.440002 C 731.666504 58.973328 731.226563 59.640015 731.093262 60.426697 L 730.986572 60.253357 L 730.853271 60.34668 L 730.946533 60.186646 C 731.253418 59.413391 731.52002 58.65332 731.746582 57.906677 C 735.386719 53.533325 737.426514 48.880066 739.199951 44.200012 C 739.853271 43.813354 740.373291 43.253357 740.746582 42.533386 L 740.826416 42.58667 C 741.506592 41.960022 741.986572 41.253357 742.293213 40.453369 L 743.333252 38.480042 C 749.93335 31.813354 755.746582 24.666687 759.47998 16.280029 C 759.359863 15.560059 758.906738 15.280029 758.133301 15.440002 C 754.053223 17.560059 751.826416 22.560059 748.266602 25.493408 L 748.253418 25.493408 C 748.306641 25.440002 748.359863 25.373352 748.413086 25.293396 C 749.466553 24.333374 750.320068 23.186707 751.053223 21.946716 C 753.213135 18.306641 756.386719 15.106689 758.199951 11.293396 C 759.399902 8.253357 762.866699 6.026733 763.559814 2.800049 C 763.279785 2.626709 763 2.440002 762.733154 2.266663 C 755.426514 8.52002 750.146484 18.706665 741.533203 22.426697 C 738.06665 24.186707 735.359863 27.840027 732.293213 30.600037 C 732.733154 29 733.973389 27.23999 734.399902 25.65332 L 735.06665 24.733337 C 735.52002 24.119995 735.959717 23.493408 736.373291 22.866699 C 737 21.893372 737.58667 20.893372 738.013184 19.880066 C 738.413086 18.813354 738.613281 17.813354 738.613281 16.893372 C 738.546631 16.320007 738.386719 15.813354 738.079834 15.440002 C 737.759766 15.200012 737.346436 15.093384 736.879883 15.106689 C 737.266602 14.293396 737.58667 13.466675 737.826416 12.65332 C 738.06665 11.720032 738.079834 10.93335 737.853271 10.266663 L 736.973389 9.919983 C 736.133301 10.23999 735.306641 10.720032 734.493164 11.400024 C 731.65332 13.906677 729.879883 17.320007 727.426514 20.146729 C 726.106689 21.680054 725.053223 23.426697 723.58667 24.786682 C 725.373291 22.919983 726.840088 20.826721 728.320068 18.746704 C 728.853271 17.840027 729.213135 16.946716 729.413086 16.066711 C 728.693115 13.773315 726.559814 15.546692 724.640137 16.760071 C 724.626465 16.506653 724.599854 16.266663 724.546631 16.026733 L 724.47998 15.946716 L 725.026367 15.306641 C 725.333252 14.693359 725.666504 14.080017 726.013184 13.466675 L 726.013184 13.466675 L 726.013184 13.466675 L 727.399902 11.546692 C 727.17334 11.373352 726.973389 11.186707 726.773438 10.973328 L 725.346436 12.893372 L 723.320068 15.066711 C 723.013184 14.986694 722.693115 14.973328 722.333252 15 C 723.65332 14.200012 724.626465 12.973328 725.306641 11.360046 L 725.346436 10.226746 C 723.119873 8.773315 727.079834 5.013367 726.759766 2.853333 L 726.786621 2.426697 C 726.119873 2.733337 725.493164 3.23999 724.93335 3.93335 L 722.52002 6.973328 L 720.919922 9.013367 C 720.386719 9.706665 720.026367 10.426697 719.813232 11.17334 L 718.466553 13.106689 C 718.306641 13.306641 718.226563 13.58667 718.253418 13.946716 C 718.266602 14.026733 718.279785 14.080017 718.320068 14.133362 L 718.279785 14.160034 C 717.199951 15.013367 716.186523 16 715.186523 17.053345 C 714.226563 18.026733 713.23999 18.93335 712.293213 19.919983 C 711.679932 20.640015 711.333252 21.373352 711.199951 22.133362 C 705.279785 27.560059 698.853271 32.280029 694.386719 39.773315 C 692.17334 44.680054 687.439941 48.23999 685.093262 53.066711 C 681.266602 55.493408 678.706787 59.546692 675.786621 63.146729 C 670.58667 69.533325 666 76.613342 659.466553 81.466675 C 658.213135 82.306641 657.306641 83.52002 656.493164 84.866699 C 655.58667 86.306641 654.666504 87.733337 653.706787 89.146729 L 649.640137 93.893372 L 648.640137 95.866699 L 644.853271 100.119995 C 641.159912 96.973328 637.413086 93.919983 633.559814 91 C 627.959717 86.693359 622.17334 82.626709 616.266602 78.746704 C 612.199951 76.066711 608.266602 73.826721 605.159912 72.013367 C 601.973389 70.320007 599.559814 69.160034 598.399902 68.813354 C 604.813232 72.839966 614.573242 78.826721 622.559814 84.493408 L 624.719971 86.080017 C 613.866699 78.946716 602.93335 71.853333 591.52002 65.493408 L 586.346436 63.146729 C 586.266602 63.066711 586.186523 62.986694 586.079834 62.906677 C 576.266602 57.573303 565 52.613342 553.159912 48.386658 C 541.159912 43.986694 528.800049 40.200012 516.359863 37.23999 C 503.906738 34.306641 491.399902 32.226746 479.17334 31.066711 C 474.719971 30.65332 470.893066 30.306641 466.813232 29.919983 C 462.719971 29.466675 458.599854 29.306641 454.453369 29.106689 C 451.613281 28.93335 448.773438 28.986694 445.919922 28.93335 L 441.679932 28.880066 L 437.453369 28.986694 C 435.293213 29.053345 433.159912 29.133362 431.040039 29.200012 C 430.506592 29.213379 429.866699 29.23999 429 29.266663 L 429.759766 29.093384 L 422.573486 29.600037 L 423.053223 29.533386 C 420.159912 29.760071 419.399902 29.919983 420.719971 29.946716 C 419.719971 30.026733 418.719971 30.160034 417.706787 30.253357 C 413.773438 30.680054 409.813232 30.986694 406.040039 31.613342 C 405.159912 31.760071 404.333252 31.893372 403.533203 32.013367 C 403.559814 31.960022 402.959717 32 401.666504 32.119995 C 400.226563 32.306641 398.773438 32.480042 397.346436 32.746704 C 395.986572 32.880066 394.119873 33.119995 391.65332 33.506653 C 390.320068 33.786682 388.973389 34.013367 387.640137 34.320007 C 374.893066 37.17334 361.279785 40.306641 348.693115 44.773315 C 347.439941 44.906677 346.186768 45.026733 344.893066 45.160034 C 348.386719 43.93335 348.453369 43.160034 344.879883 42.813354 C 341.293213 42.400024 334.106689 42.65332 323.133301 43.640015 C 318.47998 44.17334 314.23999 44.720032 310.186768 45.320007 C 306.159912 46 302.359863 46.786682 298.52002 47.613342 C 294.666504 48.373352 290.879883 49.52002 286.840088 50.626709 C 284.813232 51.213379 282.733154 51.786682 280.573486 52.466675 C 278.47998 53.160034 276.253418 53.919983 273.879883 54.706665 C 253.453369 61.133362 233.546631 69.093384 214.359863 78.493408 C 212.17334 79.493408 210.026611 80.613342 207.853271 81.666687 L 201.47998 84.826721 C 197.946533 86.546692 194.666504 88.360046 191.466553 90.080017 C 188.253418 91.773315 185.23999 93.600037 182.279785 95.413391 C 179.320068 97.23999 176.346436 98.946716 173.493164 100.866699 C 170.573486 102.773315 167.666504 104.680054 164.719971 106.613342 C 160.733154 109.200012 156.866699 111.946716 152.93335 114.613342 C 140.986572 123.080017 131.186768 131.506653 119.52002 141.333374 C 110.746582 149.386658 102.186768 157.666687 94.23999 166.546692 C 71.813232 191.213379 52.706787 219.146667 38.919922 249.733337 C 38.333252 250.799988 37.773438 251.893372 37.253418 253 C 36.773438 254.119995 36.320068 255.253357 35.893066 256.400024 C 29.626465 270.973328 24.373291 286.119995 20.266602 301.080017 C 14.706787 321.760071 10.386719 343.386658 7.640137 364.826721 C 4.879883 386.266663 3.373291 407.480042 2.93335 427.400024 C 2.613281 431.333374 2.253418 432.960022 1.973389 437.546692 C 1.439941 447.040009 1.293213 455.720001 1.439941 463.76001 C 1.17334 465.840027 1.133301 470.866669 1.226563 476.746704 L 1.373291 490.733337 C 1.533203 495.413361 1.613281 500.080017 1.826416 504.746704 L 2.053223 507.293335 C 2.053223 507.293335 2.253418 508.373352 2.253418 508.386658 C 2.386719 508.733337 2.466553 508.386658 2.52002 507.386658 C 2.746582 510.65332 2.986572 513.719971 3.226563 516.493347 C 3.493164 518.893311 3.773438 520.640015 4 521.733337 C 4.06665 523.053345 4.133301 524.41333 4.199951 525.866699 C 4.320068 527.693359 4.41333 529.546692 4.573486 531.41333 C 4.386719 529.719971 4.253418 528.013367 4.093262 526.306641 C 3.973389 526.040039 3.853271 525.840027 3.746582 525.706665 C 4.026611 530.453369 4.559814 535.200012 5.026611 539.946655 C 5.186768 542.266663 5.386719 544.666687 5.840088 547.146729 L 5.853271 546.41333 L 6.826416 553.466675 L 6.826416 553.466675 C 7.146484 555.786621 7.41333 558.106689 7.840088 560.426636 C 7.973389 560.493347 8.079834 560.493347 8.17334 560.400024 C 7.706787 558.080017 7.426514 555.746704 7.053223 553.41333 L 7.053223 553.41333 C 6.813232 551.213379 6.52002 549.026672 6.159912 546.853333 L 6.159912 546.853333 C 6.013184 545.573364 5.853271 544.280029 5.746582 542.986694 C 6.373291 548.253296 7.17334 553.440002 7.93335 558.493347 C 8.613281 562.146729 9.293213 565.773315 9.986572 569.453369 C 10.279785 571.133301 10.613281 572.82666 11 574.52002 L 10.58667 574.160034 L 12.17334 582.013367 L 12.106689 581.226685 L 12.813232 584.640015 C 12.813232 584.640015 12.973389 585.466675 13.213135 586.293335 C 13.439941 587.119995 13.65332 587.946655 13.65332 587.946655 C 13.773438 588.093323 13.893066 588.253296 14.013184 588.466675 C 13.399902 586.080017 12.906738 583.680054 12.439941 581.280029 C 12.439941 581.280029 12.453369 581.333374 12.47998 581.41333 C 12.93335 583.626709 13.386719 585.840027 14 588.040039 C 14.640137 590.533325 15.266602 593.013367 15.906738 595.506714 C 16.786621 599.23999 18.026611 602.880005 19.133301 606.533325 C 19.919922 608.919983 20.559814 611.280029 21.439941 613.533325 C 22.253418 615.666687 23.06665 617.880005 23.906738 620.280029 C 24.65332 622.400024 25.253418 624.533325 26.106689 626.65332 C 27.279785 629.666687 28.439941 632.613342 29.613281 635.640015 C 30.41333 637.786621 31.41333 639.919983 32.466553 642.106689 C 33.546631 644.266663 34.573486 646.359985 35.599854 648.440002 C 35.93335 649.080017 36.253418 649.693359 36.573486 650.333374 L 36.719971 650.680054 C 37.679932 652.559998 38.640137 654.186646 39.47998 655.626709 C 40.23999 657.213379 41.293213 659.133301 42.640137 661.359985 L 42.399902 660.853333 L 42.559814 660.599976 C 42.733154 660.880005 42.893066 661.17334 43.06665 661.466675 C 43.093262 661.506714 43.466553 662.17334 43.866699 662.893311 C 44.253418 663.626709 44.719971 664.320007 44.719971 664.320007 C 44.719971 664.320007 46.41333 667.053345 46.453369 667.133301 C 48.23999 670.093323 49.853271 672.946655 51.773438 675.733337 C 53.159912 677.813354 54.559814 679.986694 56.06665 682.093323 C 57.706787 684.293335 59.386719 686.533325 61.053223 688.76001 C 62.800049 691.119995 64.746582 693.320007 66.58667 695.58667 C 68.426514 697.853333 70.373291 700 72.333252 702.106689 C 74.306641 704.200012 76.053223 706.160034 77.786621 707.733337 C 79.959717 709.720032 79.47998 708.893311 81.213135 710.41333 C 81.23999 710.65332 81.93335 711.52002 83.813232 713.52002 C 86.053223 715.720032 88.159912 717.65332 89.919922 719.226685 C 92.693115 722.106689 95.893066 724.799988 99.106689 727.693359 C 102.386719 730.47998 105.866699 733.280029 109.453369 736.040039 C 113.679932 739.146667 117.813232 742.200012 122.06665 744.959961 C 123.47998 745.920044 124.893066 746.880005 126.306641 747.82666 C 127.746582 748.719971 129.17334 749.599976 130.58667 750.47998 C 132.773438 751.813354 134.826416 753.133301 136.813232 754.23999 C 136.466553 754.133301 136.47998 754.23999 137.013184 754.666687 C 138.679932 755.866699 141.279785 757.573364 144.733154 759.706665 C 147.159912 761.080017 149.546631 762.34668 151.853271 763.546631 C 154.079834 764.76001 156.439941 765.93335 158.813232 767.080017 C 161.186768 768.23999 163.533203 769.453369 165.853271 770.493347 C 168.026611 771.440002 170.093262 772.333374 172.146484 773.226685 C 173.946533 773.986694 175.706787 774.719971 177.466553 775.34668 C 180.320068 776.453369 183.17334 777.679993 186.053223 778.946655 C 188.773438 780.119995 191.546631 781.320007 194.840088 782.666687 C 196.06665 783.160034 197.359863 783.58667 198.599854 784.040039 C 199.866699 784.47998 201.186768 784.946655 202.47998 785.400024 L 203.959717 785.906677 C 204.973389 786.253357 205.973389 786.613342 206.986572 786.920044 C 210.800049 788.053345 214.546631 789.226685 218.386719 790.320007 C 221.65332 791.200012 224.93335 792.06665 228.199951 792.93335 L 238.026611 795.213318 C 241.773438 796.040039 245.47998 796.706665 249.23999 797.466675 C 251.679932 797.959961 254.213135 798.34668 256.773438 798.813354 C 259.320068 799.266663 261.853271 799.773315 264.41333 800.119995 C 265.253418 800.253357 266.079834 800.373352 266.919922 800.493347 L 266.906738 800.493347 C 264.186768 800.119995 261.439941 799.76001 258.826416 799.293335 C 256.133301 798.853333 253.47998 798.426636 250.919922 798.013306 C 247.013184 797.320007 242.866699 796.533325 238.573486 795.626648 C 234.320068 794.58667 229.840088 793.65332 225.333252 792.359985 C 222.52002 791.599976 219.800049 790.853333 217.026611 790.106689 C 214.973389 789.47998 212.93335 788.853333 210.893066 788.226685 C 210.759766 788.186646 210.65332 788.146667 210.52002 788.106689 C 208.626465 787.47998 206.800049 786.973328 205.079834 786.373352 C 204.040039 786 203 785.640015 201.959717 785.266663 C 199.453369 784.359985 196.906738 783.546631 194.426514 782.58667 C 190.786621 781.200012 187.133301 779.920044 183.533203 778.426636 C 181.119873 777.41333 178.693115 776.400024 176.266602 775.386658 C 173.813232 774.34668 171.41333 773.160034 168.986572 772.06665 C 166.52002 770.946655 164.053223 769.799988 161.65332 768.559998 C 159.186768 767.34668 156.746582 766.133301 154.333252 764.93335 C 151.986572 763.706665 149.853271 762.613342 148 761.706665 C 147.693115 761.573364 147.399902 761.453369 147.119873 761.333374 C 146.013184 760.719971 144.879883 760.133301 143.786621 759.466675 C 143.759766 759.52002 143.786621 759.599976 143.840088 759.706665 C 144.58667 760.213318 145.41333 760.679993 146.266602 761.17334 C 146.266602 761.186646 146.253418 761.200012 146.266602 761.213318 C 146.759766 761.640015 147.559814 762.226685 148.719971 763 C 148.346436 763.266663 151.026611 765 154.879883 767.106689 C 158.786621 769.119995 163.773438 771.706665 168.06665 773.573364 C 207.226563 791.506714 250.93335 802.840027 292.759766 805.65332 C 304.279785 806.426636 316.320068 807 328.106689 806.746704 C 331.053223 806.76001 333.973389 806.559998 336.879883 806.453369 C 339.773438 806.359985 342.640137 806.200012 345.453369 805.946655 C 348.279785 805.693359 351.06665 805.506714 353.773438 805.186646 C 356.41333 804.799988 359.053223 804.426636 361.706787 804.040039 L 370 803.040039 C 372.759766 802.693359 375.533203 802.440002 378.266602 801.893311 C 383.759766 800.920044 389.253418 799.93335 394.746582 798.959961 C 397.506592 798.546631 400.213135 797.853333 402.93335 797.213318 L 411.079834 795.293335 L 419.23999 793.373352 C 421.93335 792.640015 424.58667 791.799988 427.266602 791.026672 C 448.800049 785.093323 469.559814 776.786682 489.373291 767.253357 C 493.693115 765.333374 497.93335 763.306641 502.040039 761.119995 C 506.693115 758.640015 511.279785 756.040039 515.893066 753.493347 C 518.186768 752.200012 520.52002 750.973328 522.786621 749.626648 L 529.47998 745.440002 L 536.17334 741.266663 C 538.386719 739.853333 540.666504 738.533325 542.800049 736.986694 L 555.719971 727.973328 L 558.946533 725.706665 L 562.053223 723.293335 L 568.279785 718.466675 C 572.413086 715.253357 576.613281 712.106689 580.52002 708.599976 L 592.453369 698.34668 L 603.879883 687.506714 C 618.840088 672.82666 633.119873 657.320007 645.746582 640.440002 C 647.359863 638.34668 649 636.293335 650.573242 634.186646 L 655.119873 627.719971 C 658.119873 623.386658 661.306641 619.17334 664.06665 614.666687 C 666.893066 610.213379 669.813232 605.813354 672.573242 601.306641 C 675.23999 596.746704 677.919922 592.17334 680.58667 587.599976 C 681.186523 586.58667 681.786621 585.559998 682.320068 584.506714 C 684.026367 581.386658 685.666504 578.359985 687.306641 575.34668 C 688.52002 573.080017 689.413086 571.306641 689.946533 570.053345 C 692.52002 564.106689 695.493164 557.640015 698.626465 551.040039 C 700.079834 547.693359 701.559814 544.293335 703.026367 540.919983 C 704.47998 537.52002 706.013184 534.186646 707.213135 530.800049 C 708.159912 528.466675 709.119873 526.013367 710.079834 523.47998 L 712.879883 515.906677 C 713.719971 513.34668 714.573242 510.786652 715.413086 508.213348 C 716.306641 505.559998 717.213135 502.866669 718.093262 500.213348 C 719.506592 495.959991 720.679932 491.600006 721.93335 487.306671 C 723.079834 483.360016 724.23999 479.426666 725.119873 475.506683 C 724.986572 476.133331 724.866699 476.76001 724.773438 477.400024 C 724.813232 477.533356 724.893066 477.559998 725 477.493347 C 726.199951 472.959991 726.52002 471.226685 726.279785 471.293335 L 726.253418 471.533356 C 725.959717 472.333344 725.706787 473.160004 725.47998 474 C 725.879883 472.306671 726.279785 470.640015 726.666504 468.959991 C 727.199951 466.706696 727.65332 464.720001 728.013184 463 C 728.506592 461.573364 728.893066 459.546692 729.386719 456.880035 C 730.346436 452.306671 731.306641 447.733337 732.253418 443.160004 C 733.053223 438.546692 733.853271 433.960022 734.640137 429.400024 C 735.52002 424.840027 736.093262 420.266663 736.773438 415.773376 C 737.413086 411.253357 738.253418 406.813354 738.746582 402.400024 C 738.893066 400.293396 739.093262 398.026733 739.320068 395.58667 C 739.546631 393.160034 739.773438 390.786682 740 388.426697 C 740.17334 385.373291 739.986572 384.333374 740.119873 381.119995 L 740.759766 370.786682 C 741.013184 367.360046 741 363.906677 741.133301 360.453308 C 741.813232 344.23999 741.666504 327.960022 740.666504 311.706665 C 740.17334 304.17334 739.733154 295.386658 738.573242 290.533325 C 736.906738 275.533325 734.466553 260.58667 731.026367 245.826721 C 727.506592 231.080017 723.026367 216.546692 717.439941 202.400024 C 713.279785 191.413391 708.026367 180.866699 702.506592 170.480042 L 698.453369 163.506653 L 699.666504 161.973328 C 701.439941 159.400024 702.679932 156.973328 701.58667 155.146729 C 699.47998 155.813354 697.813232 157.733337 696.119873 159.560059 C 696.026367 159.386658 695.93335 159.213379 695.826416 159.053345 L 695.493164 158.546692 C 697.199951 156.119995 699.666504 154.280029 702.06665 152.400024 L 702.293213 150.23999 L 702.613281 150.360046 C 705.919922 148.386658 708.333252 145.266663 710.493164 141.813354 C 715.439941 135.226685 721.253418 129.106689 724.599854 121.666687 C 725.453369 118.919983 728.186523 117.720032 729.599854 115.440002 L 731.293213 113.266663 C 731.853271 112.546692 732.386719 111.813354 732.906738 111.066711 C 733.279785 110.466675 733.640137 109.866699 733.959717 109.266663 C 734.119873 109.17334 734.293213 109.053345 734.52002 108.866699 L 734.719971 109.333374 L 735.879883 107.306641 L 735.879883 107.506653 C 736.279785 106.626709 736.17334 106.213379 735.573242 106.280029 C 735.733154 106 735.893066 105.706665 736.053223 105.426697 C 736.746582 104.34668 737.439941 103.266663 738.013184 102.160034 C 738.146484 101.880005 738.23999 101.613342 738.320068 101.34668 C 738.453369 101.466675 738.706787 101.426697 739.093262 101.186646 L 739.946533 100.080017 C 740.493164 99.946716 741.06665 99.626709 741.640137 99.053345 L 742.186523 97.813354 C 743.559814 93.440002 747.840088 91 750.093262 87.213379 C 754.026367 80.373352 759.786621 74.760071 764.266602 68.266663 C 764.786621 67.160034 764.799805 66.360046 764.293213 65.853333 C 763.506592 66.039978 762.773438 66.400024 762.093262 66.853333 C 762.346436 66.400024 762.640137 65.893372 762.919922 65.400024 C 764.23999 62.080017 768.93335 59.706665 768.573242 55.919983 C 767.906738 55.813354 767.17334 56.066711 766.346436 56.666687 C 765.93335 57.23999 765.453369 57.733337 764.919922 58.119995 C 764.013184 61.720032 761.666504 64.893372 759.013184 67.973328 C 759.359863 68.400024 759.693115 68.600037 760.013184 68.640015 C 758.106689 70.58667 756.413086 73.053345 754.346436 74.58667 C 752.946533 75.400024 751.573242 76 750.17334 76.760071 C 749.786621 76.986694 749.413086 77.253357 749.040039 77.533325 L 748.47998 77.066711 C 747.813232 77.34668 747.186523 77.813354 746.58667 78.453369 C 746.159912 79.119995 745.919922 79.746704 745.826416 80.373352 C 745.52002 80.52002 745.306641 80.493408 745.133301 80.306641 C 745.17334 79.893372 745.346436 79.426697 745.599854 78.960022 C 746.119873 78.119995 746.746582 77.293396 747.346436 76.453369 L 747.599854 76.093384 L 747.799805 76.133362 C 748.199951 75.573303 748.626465 75 749.053223 74.440002 C 749.186523 74.280029 749.226563 74.039978 749.17334 73.706665 C 749.17334 73.693359 749.159912 73.693359 749.146484 73.680054 C 749.359863 73.306641 749.546631 72.93335 749.733154 72.560059 C 749.840088 72.306641 749.959717 72.053345 750.079834 71.800049 L 750.119873 71.800049 L 751.013184 70.493408 L 751.040039 69.666687 L 751.079834 69.573303 C 751.373291 68.919983 751.640137 68.280029 751.840088 67.640015 C 751.853271 67.626709 751.959717 66.773315 751.959717 66.773315 L 752.640137 65.919983 C 753.093262 65.34668 753.453369 64.760071 753.733154 64.133362 C 756.493164 59.480042 759.773438 55.23999 763.706787 51.52002 C 767.346436 47.800049 769.959717 42.746704 774.346436 39.986694 C 777.986572 35.013367 783.453369 31.026733 784.946533 24.906677 C 781.719971 25.133362 780.386719 29.493408 777.906738 31.373352"/>
</svg>
