<?xml version="1.0" encoding="UTF-8"?>
<!-- Generated by Pixelmator Pro 3.4.3 -->
<svg width="845" height="783" viewBox="0 0 845 783" xmlns="http://www.w3.org/2000/svg">
    <path id="path20-copy" fill="#fe5257" stroke="none" d="M 819.93335 563.453369 L 819.786621 563.853516 C 821.053223 560.159912 822.493408 556.506836 823.453369 552.706787 C 822.893311 554.76001 822.34668 556.82666 821.599854 558.813232 C 821.040039 560.373535 820.493408 561.906738 819.93335 563.453369 Z M 817.800049 516.280029 C 817.226563 519.693359 816.373291 523.053467 815.679932 526.453369 C 814.893311 529.82666 814.306641 533.253418 813.386719 536.58667 C 812.466553 539.906738 811.533203 543.213379 810.613281 546.506836 C 810.146484 548.159912 809.693359 549.800049 809.23999 551.440186 C 808.786621 553.080078 808.159912 554.65332 807.626709 556.240234 C 806.546631 559.426514 805.466553 562.573486 804.399902 565.706787 C 800.373291 575.65332 795.773193 586.026611 790.23999 596.133301 L 788.253418 599.986816 C 787.560059 601.253418 786.773193 602.466797 786.026611 603.720215 C 784.533203 606.213379 783.040039 608.706787 781.533203 611.199951 C 779.973145 613.65332 778.279785 616.026855 776.65332 618.439941 C 775.026611 620.853516 773.426758 623.266602 771.599854 625.533447 C 759.279785 642.026855 744.76001 657.199951 728.813232 670.41333 C 712.773315 683.52002 695.386719 694.65332 677.65332 703.600098 C 674.439941 705.306641 671.039917 706.866699 667.58667 708.506592 C 667.226685 708.679932 666.866577 708.853516 666.506592 709.026855 C 666.773315 708.866699 667.039917 708.693359 667.319946 708.52002 C 671.52002 705.706787 675.58667 702.746582 679.719971 699.853516 C 680.76001 699.120117 681.773315 698.400146 682.773315 697.693359 C 683.719971 696.93335 684.666626 696.186768 685.599976 695.439941 C 687.439941 693.959961 689.226685 692.52002 690.973267 691.106689 C 693.986694 688.679932 697.053345 686.306641 699.879883 683.640137 C 703.866577 680.106689 708.173218 676.546631 711.399902 673.400146 C 714.599976 670.199951 716.973267 667.720215 717.546509 666.813232 C 714.773315 669.493408 712.106567 672.053467 709.386719 674.65332 C 706.533325 677.186768 703.65332 679.773438 700.773315 682.426758 L 699.359985 683.546631 L 696.693359 685.813232 C 695.786621 686.560059 694.839966 687.253418 693.906616 687.973389 C 689.76001 691.146729 685.599976 694.506592 681.186646 697.800049 C 677.853394 700.17334 674.613281 702.466797 671.493286 704.693359 C 669.933228 705.786865 668.453369 706.93335 666.920044 707.920166 C 665.399902 708.906738 663.920044 709.879883 662.466675 710.840088 C 662.253296 710.973389 662.06665 711.106689 661.879883 711.226807 C 660.599976 711.786865 659.319946 712.34668 658.039917 712.920166 C 660.839966 711.160156 663.65332 709.386719 666.479858 707.613281 C 670.693359 704.813232 674.773315 701.813232 678.906616 698.93335 L 681.986694 696.746582 L 684.933228 694.41333 C 686.893311 692.853516 688.839966 691.293457 690.786621 689.746582 C 692.719971 688.17334 694.58667 686.720215 696.306641 685.23999 C 697.959961 683.720215 699.546509 682.280029 701.06665 680.879883 C 704.773315 677.386719 703.413208 678.280029 706.279907 675.506592 C 706.58667 675.360107 708.213257 674.320068 711.599976 670.959961 C 715.493286 667.146729 719 663.640137 721.866699 660.693359 C 724.23999 658.120117 726.639893 655.52002 729.079834 652.879883 C 731.493408 650.17334 734.106689 647.546631 736.359863 644.533447 C 740.986572 638.613281 746.040039 632.693359 750.320068 626.053467 C 752.853271 622.253418 755.52002 618.58667 757.866699 614.76001 C 760.133301 610.906738 762.399902 607.093506 764.65332 603.280029 L 766.906494 599.426514 C 767.58667 598.106934 768.266602 596.800049 768.946533 595.47998 C 770.293213 592.866699 771.626709 590.253418 772.946533 587.679932 C 773.946533 585.693359 774.986572 583.773438 775.879883 581.853516 C 776.719971 579.93335 777.533203 578.053467 778.333252 576.226563 C 778.146484 576.82666 778.279785 576.746582 778.853271 575.706787 C 779.666504 574.133301 780.666504 572.120117 781.82666 569.706787 C 783.013184 567.293213 784.373291 564.47998 785.613281 561.186768 C 787.386719 556.65332 789.06665 552.280029 790.639893 548.040039 C 792.106689 543.879883 793.399902 539.47998 794.839844 535.120117 C 795.533203 532.946777 796.23999 530.746582 796.93335 528.58667 C 797.573242 526.400146 798.093262 524.199951 798.666504 522.053467 C 799.693359 518 800.65332 514.186768 801.58667 510.493164 C 802.386719 507.186768 802.893311 503.906738 803.52002 500.733398 C 804.47998 495.493408 805.813232 490.253418 806.639893 484.840088 C 807.533203 479.773438 808.599854 474.600098 809.47998 468.493408 C 809.733398 466.199951 810 463.840088 810.253418 461.573486 C 810.506592 459.240234 810.773193 456.813232 811.026611 454.466797 C 811.120117 453.546631 811.213135 452.653564 811.320068 451.733398 C 811.560059 449.880127 811.573242 448.026611 811.679932 446.199951 C 811.853271 442.746582 812.040039 439.306885 812.213135 435.880127 L 812.47998 430.720215 C 812.47998 428.986816 812.493408 427.253418 812.493408 425.52002 C 812.493408 422.573486 812.506592 419.626709 812.506592 416.679932 C 812.493408 413.733398 812.560059 410.800049 812.359863 407.866699 C 812.053223 402 811.813232 396.133301 811.439941 390.306885 C 810.746582 383.653564 810.133301 377.120117 809.373291 370.493408 C 808.719971 366.173584 808.06665 361.786865 807.399902 357.306885 C 807.053223 355.080078 806.813232 352.840088 806.373291 350.626709 L 805.079834 344.013428 C 804.786621 342.560059 804.506592 341.120117 804.226563 339.679932 L 804.226563 339.693359 C 805.133301 344.386719 806.226563 349.093262 806.973145 353.666748 C 807.719971 358.386719 808.439941 363.053467 809.133301 367.440186 C 809.76001 370.853516 810.093262 374.400146 810.466553 378.040283 C 810.839844 381.679932 811.213135 385.41333 811.599854 389.199951 C 811.973145 393 812.026611 396.906738 812.253418 400.853516 C 812.386719 404.813232 812.719971 408.840088 812.693359 412.920166 C 812.666504 418 812.65332 422.93335 812.639893 427.906738 L 812.626709 430.679932 L 812.47998 433.466797 L 812.186768 439.053467 C 812.159912 439.293213 812.146484 439.47998 812.133301 439.733398 C 811.93335 443.186768 811.76001 446.47998 811.573242 449.666748 C 811.439941 451.573486 811.186768 453.466797 810.986572 455.386719 C 810.47998 460 809.986572 464.600098 809.47998 469.199951 C 808.546631 475.920166 807.439941 482.560059 806.426758 489.253418 C 805.493408 493.720215 804.546631 498.213379 803.613281 502.666748 C 803.120117 504.93335 802.666504 507.213379 802.146484 509.466797 C 801.546631 511.720215 800.946533 513.959961 800.34668 516.186768 C 799.079834 520.733398 797.986572 525.359863 796.599854 529.840088 C 795.133301 534.400146 793.693359 538.920166 792.266602 543.359863 C 791.919922 544.466797 791.58667 545.533447 791.253418 546.58667 C 790.879883 547.613281 790.52002 548.613281 790.159912 549.58667 C 789.466553 551.506836 788.813232 553.320068 788.186768 555.040039 C 788 555.626709 787.82666 556.146729 787.679932 556.613281 L 785.279785 562.813232 C 785.34668 562.82666 785.426758 562.76001 785.560059 562.613281 C 786.146484 561.146729 786.773193 559.626709 787.41333 558.040039 C 787.439941 558.026611 787.426758 558.06665 787.453369 558.040039 C 787.986572 557.026611 788.733398 555.47998 789.719971 553.266602 C 789.853271 553.506836 790.466553 552.34668 791.386719 550.253418 C 791.839844 549.186768 792.439941 547.920166 792.959961 546.426514 C 793.47998 544.893311 794.053223 543.226563 794.666504 541.440186 C 795.866699 537.786865 797.213135 533.679932 798.58667 529.47998 C 799.82666 525.253418 800.893311 520.893311 801.946533 516.959961 L 803.733398 510.159912 C 804.279785 507.893311 804.706543 505.573486 805.213135 503.280029 C 806.159912 498.679932 807.120117 494.080078 808.06665 489.466797 C 809.466553 480.146729 811.23999 470.853516 812.026611 461.41333 L 812.786621 454.359863 L 813.159912 450.840088 L 813.373291 447.293213 L 814.186768 433.106934 C 814.373291 430.746582 814.333252 428.373535 814.359863 426.013428 L 814.41333 418.906738 L 814.466553 411.800049 C 814.466553 409.440186 814.293213 407.080078 814.213135 404.720215 C 814.013184 399.986816 813.800049 395.266846 813.599854 390.546631 C 813.159912 385.853516 812.719971 381.146729 812.279785 376.466797 C 812.026611 374.120117 811.919922 371.76001 811.533203 369.440186 L 810.52002 362.466797 L 809.506592 355.493408 C 809.199951 353.41333 808.893311 351.320068 808.466553 349.253418 C 808.546631 349.320068 808.58667 349.266846 808.599854 349.080078 L 808.026611 347.026611 C 807.839844 346.040283 807.639893 345.053467 807.439941 344.06665 C 808.013184 346.186768 808.58667 348.306885 809.17334 350.440186 C 809.853271 352.773438 810.373291 354.946777 810.853271 356.959961 C 811.34668 358.906738 811.813232 360.720215 812.253418 362.440186 C 816.65332 382.34668 819.866699 402.213379 821.34668 422.626709 C 822.893311 443.013428 823.159912 463.93335 821.546631 485.880127 C 820.906494 492.47998 820.573242 499.293213 819.359863 506.053467 C 818.839844 509.440186 818.320068 512.853516 817.800049 516.280029 Z M 811.053223 579.800049 C 809.41333 583.546631 807.959961 587.293213 806.293213 590.853516 C 805.466553 592.47998 804.639893 594.106934 803.800049 595.746582 C 804.06665 595.199951 804.333252 594.65332 804.599854 594.120117 C 805.800049 591.613281 806.359863 590.320068 806.399902 590.013428 C 808.146484 586.226563 809.919922 582.173584 811.800049 577.920166 C 812.41333 576.546631 813.013184 575.173584 813.626709 573.800049 Z M 810.986572 586.359863 L 810.946533 586.706787 C 810.333252 588.040039 809.733398 589.359863 809.120117 590.693359 C 806.613281 595.333496 803.946533 600.266602 800.919922 605.853516 C 799.65332 608.293457 798.079834 610.58667 796.65332 613.013428 C 795.599854 614.693359 794.573242 616.41333 793.52002 618.120117 C 795.306641 615.160156 797.093262 612.186768 798.879883 609.213379 C 800.093262 607.320068 801.026611 605.41333 801.986572 603.613281 C 802.946533 601.813232 803.866699 600.06665 804.786621 598.34668 C 805.706543 596.640137 806.599854 594.946777 807.52002 593.240234 C 807.973145 592.386719 808.453369 591.533447 808.879883 590.65332 C 809.279785 589.746582 809.693359 588.840088 810.106689 587.920166 C 810.800049 586.320068 811.506592 584.706787 812.213135 583.093262 C 811.800049 584.186768 811.386719 585.280029 810.986572 586.359863 Z M 780.026611 499.786865 C 779.813232 500.840088 779.599854 501.893311 779.386719 502.946777 C 778.226563 507.626709 776.946533 512.320068 775.706543 517.06665 C 774.573242 521.840088 772.839844 526.466797 771.34668 531.199951 C 770.573242 533.560059 769.786621 535.920166 769 538.293213 C 768.146484 540.640137 767.186768 542.946777 766.266602 545.293213 C 771.093262 531.813232 776.47998 515.333496 780.026611 499.786865 Z M 377.479858 88.706787 C 378.546631 88.58667 379.65332 88.453369 380.799927 88.333496 C 380.293335 88.41333 379.82666 88.47998 379.346558 88.546631 C 378.719971 88.600098 378.119995 88.653564 377.479858 88.706787 Z M 304.639893 117.946777 C 307.160034 117.466797 309.693359 116.906738 312.226685 116.306885 L 310.893311 116.706787 C 312.320068 116.440186 313.733276 116.173584 315.160034 115.986816 C 314.733276 116.093262 314.320068 116.199951 314 116.280029 C 311.119995 116.946777 308.253296 117.600098 305.399902 118.253418 C 301.52002 119.173584 297.986694 120.013428 294.786621 120.840088 L 293.920044 121.226563 C 293.813232 121.240234 293.719971 121.253418 293.613281 121.280029 C 290.146606 122.080078 286.079956 123.06665 281.199951 124.306885 C 276.199951 125.493408 271.279907 127.146729 266.119995 128.706787 C 263.93335 129.386719 261.76001 130.06665 259.58667 130.746582 C 257.413208 131.41333 255.320068 132.253418 253.199951 133 C 248.959961 134.533447 244.773315 136.06665 240.599976 137.573486 C 244.199951 136.240234 247.799927 134.893311 251.426636 133.533447 C 255.06665 132.173584 258.746582 130.76001 262.599976 129.58667 C 267.253296 128.106934 271.839966 126.640137 276.493286 125.146729 C 281.013184 123.906738 285.426636 122.693359 289.82666 121.47998 C 294.093262 120.226563 298.160034 119.266846 302.026611 118.320068 C 302.733276 118.146729 303.320068 117.986816 303.986694 117.813232 L 303.853394 118.146729 Z M 647.133301 692.333496 C 644.466675 694 641.920044 695.800049 639.199951 697.360107 C 635.679932 699.373291 632.160034 701.386719 628.599976 703.426758 C 626.853394 704.466797 625.053345 705.386719 623.226685 706.280029 L 617.813232 709.026855 L 612.413208 711.76001 C 610.613281 712.666748 608.733276 713.426758 606.906616 714.280029 C 603.226685 715.93335 599.559937 717.573242 595.879883 719.226807 C 592.146606 720.733398 588.439941 722.226807 584.746582 723.720215 C 581.133301 725.266602 577.493286 726.506592 574 727.800049 C 571.466675 728.746582 568.906616 729.679932 566.306641 730.640137 C 563.706543 731.560059 561 732.373291 558.266602 733.266602 C 554.52002 734.400146 550.773315 735.720215 546.973267 736.720215 C 543.06665 737.786865 539.093262 738.879883 535.160034 739.946777 C 528.933228 741.546631 522.599976 742.986816 516.306641 744.466675 C 512.746582 745.200073 509.173218 745.93335 505.599976 746.666748 C 453.253296 750.893433 400.466675 748.866699 349.306641 739 C 348.813232 738.879883 348.386719 738.720215 347.853394 738.560059 C 321.346558 733.026855 294.973267 725.439941 269.973267 715.120117 C 242.226685 703.693359 215.920044 689.080078 191.946533 671.280029 C 168.58667 653.946777 147.52002 633.613281 129.23999 610.906738 L 124.773315 605.400146 L 122.533325 602.65332 L 120.493286 599.813232 C 117.799927 596.013428 115.026611 592.280029 112.400024 588.493164 L 107.466675 580.76001 C 105.853394 578.159912 104.093384 575.65332 102.666626 572.946777 L 98.173218 564.93335 L 95.93335 560.93335 L 93.906616 556.800049 C 89.06665 547.186768 84.773315 537.280029 80.920044 527.199951 L 76.853394 516.213379 C 75.599976 512.52002 74.493286 508.76001 73.293335 505.040283 C 71.466675 499.600098 70.173218 493.986816 68.719971 488.426514 C 67.160034 482.893311 66.173218 477.213379 64.973267 471.58667 C 64.599976 469.720215 64.160034 467.866699 63.82666 466 L 62.920044 460.359863 C 62.333252 456.600098 61.65332 452.853516 61.119995 449.106934 C 60.65332 445.333496 60.199951 441.58667 59.746582 437.840088 C 59.533325 435.973389 59.23999 434.120117 59.06665 432.253418 L 58.58667 426.679932 C 58.146606 421.013428 57.613281 415.359863 57.52002 409.666748 C 57.306641 403.986816 57.026611 398.306885 57.160034 392.613281 C 57.213257 372.706787 58.82666 352.280029 61.093384 334.493408 C 63.559937 317.959961 66.626709 301.47998 71.06665 285.359863 C 71.599976 283.333496 72.093384 281.306885 72.65332 279.293213 L 74.479858 273.293213 C 75.506592 270.040283 76.413208 266.746582 77.466675 263.506836 C 78.813232 261.600098 80.173218 259.693359 81.58667 257.840088 C 82.853394 256.133301 84.079956 254.47998 85.279907 252.866699 C 86.493286 251.293213 87.693359 249.76001 88.853394 248.253418 C 91.213257 244.986816 93.813232 241.893311 96.293335 238.720215 C 97.119995 237.840088 98.053345 236.866699 99.146606 235.706787 C 109.58667 224.440186 121.813232 212.333496 135.706665 200.82666 C 143.359985 194.359863 151.266602 188.280029 159.413208 182.453369 C 163.253296 179.640137 167.026611 177.106934 170.719971 174.573486 C 174.06665 172.293213 176.52002 170.706787 178.173218 169.493408 C 180.279907 168.133301 182.466675 166.906738 184.613281 165.613281 L 184.506592 165.400146 C 182.426636 166.653564 180.306641 167.840088 178.266602 169.159912 C 178.146606 169.146729 178.346558 168.866699 180.76001 167.333496 C 183.026611 165.946777 185.399902 164.506836 187.82666 163.040283 C 190.320068 161.626709 192.853394 160.186768 195.373291 158.76001 C 199.279907 156.666748 203.320068 154.506836 207.253296 152.546631 C 209.65332 151.359863 212.013184 150.199951 214.346558 149.053467 C 213.639893 149.400146 212.986694 149.76001 212.373291 150.093262 C 210.813232 151.106934 212.413208 150.52002 215.186646 149.453369 C 216.973267 148.773438 218.946533 148.013428 221.373291 147.026611 C 223.973267 145.920166 227.173218 144.813232 230.839966 143.34668 C 234.613281 141.880127 238.453369 140.213379 242.559937 138.706787 C 244.599976 137.973389 246.613281 137.253418 248.639893 136.52002 C 254.133301 134.533447 259.599976 132.47998 265.213257 130.82666 C 270.813232 129.133301 276.320068 127.199951 282.013184 125.786865 C 283.733276 125.240234 286.093262 124.546631 288.866577 123.76001 C 291.65332 123.013428 294.839966 122.026611 298.306641 121.280029 C 301.76001 120.493408 305.426636 119.653564 309.093262 118.800049 C 310.93335 118.400146 312.746582 117.946777 314.573242 117.573486 C 316.386719 117.226563 318.186646 116.880127 319.93335 116.546631 C 333.813232 113.679932 344.399902 112.093262 337.506592 112.253418 C 335.533325 112.47998 332.733276 112.746582 329.053345 113.453369 L 328.439941 113.560059 L 328.58667 113.506836 C 332.893311 112.666748 336.920044 112.133301 340.52002 111.426514 C 344.160034 110.82666 347.679932 110.240234 351.093262 109.679932 C 357.906616 108.82666 363.93335 108.06665 369.226685 107.41333 C 374.533325 106.880127 379.119995 106.41333 383.039917 106.026611 C 390.879883 105.173584 396.119995 104.906738 399.266602 104.573486 C 405.559937 103.973389 403.546631 103.82666 397.773315 103.720215 C 394.959961 103.973389 392.253296 104.226563 389.559937 104.466797 C 386.879883 104.773438 384.213257 105.093262 381.466675 105.41333 C 375.946533 106.06665 369.973267 106.626709 362.58667 107.600098 C 357.920044 108.226563 354.093262 108.786865 351.133301 109.266846 C 350.266602 109.453369 349.839966 109.573486 349.65332 109.653564 L 346.613281 109.973389 C 341.893311 110.666748 337.106567 111.41333 332.293335 112.213379 C 330.279907 112.640137 328.639893 113 327.346558 113.306885 C 327.346558 113.306885 327.359985 113.293213 327.359985 113.280029 L 328.346558 113.053467 C 325.253296 113.573486 322.106567 114.146729 318.920044 114.786865 C 319.506592 114.653564 320.093262 114.52002 320.679932 114.386719 C 318.986694 114.640137 317.320068 114.906738 315.65332 115.159912 C 312.65332 115.679932 309.719971 116.453369 306.76001 117.093262 C 307.973267 116.76001 309.106567 116.440186 310.160034 116.159912 C 311.65332 115.706787 312.773315 115.320068 313.399902 115.053467 C 313.666626 114.959961 314.026611 114.840088 314.399902 114.720215 L 317 114.226563 L 317.666626 114.053467 C 320.466675 113.506836 323.213257 112.959961 325.93335 112.440186 C 327.146606 112.199951 328.386719 111.93335 329.693359 111.626709 C 330.719971 111.386719 330.58667 111.359863 329.346558 111.533447 L 332.039917 111.040283 C 334.173218 110.679932 336.293335 110.306885 338.413208 109.93335 L 338.693359 109.893311 C 338.786621 109.880127 338.82666 109.880127 338.920044 109.866699 C 342.813232 109.34668 346.253296 108.786865 349.333252 108.199951 C 352.506592 107.693359 355.706543 107.359863 358.839966 106.920166 C 371.053345 105.306885 378.199951 104.359863 385.839966 103.359863 C 398.493286 101.720215 409.573242 100.373535 423.413208 99.253418 C 430.333252 98.613281 437.959961 98.280029 446.799927 97.786865 C 455.639893 97.493408 465.719971 97.106934 477.573242 97.120117 C 485.439941 97.053467 490.039917 97.040283 492.58667 96.946777 C 495.119995 96.853516 495.599976 96.706787 495.213257 96.533447 C 494.453369 96.186768 490.253296 95.733398 492.293335 95.466797 C 494.599976 95.173584 490.853394 94.813232 484.466675 94.52002 C 478.093262 94.320068 469.079956 93.986816 460.906616 93.973389 C 457.320068 93.946777 451.133301 93.946777 445.773315 94.06665 C 440.426636 94.226563 435.920044 94.426514 435.679932 94.58667 C 435.053345 95.013428 431.959961 95.373535 427.213257 95.706787 C 422.466675 96.120117 416.079956 96.52002 408.839966 96.920166 C 401.626709 97.493408 393.559937 97.973389 385.479858 98.720215 C 377.413208 99.533447 369.306641 100.186768 362.026611 101.253418 L 357.359985 101.82666 C 357.359985 101.82666 352.719971 102.440186 352.333252 102.493408 C 350.879883 102.573486 351.906616 102.359863 354.93335 101.93335 C 357.466675 101.560059 359.52002 101.213379 361.013184 100.946777 C 393.346558 96.120117 422.320068 94.653564 414.573242 93.34668 C 411.199951 92.813232 410.119995 91.720215 426.173218 90.120117 C 434.973267 89.386719 426.799927 88.82666 447.466675 88.199951 C 466.599976 87.866699 480.466675 88.58667 480.959961 89.226563 C 481.119995 89.440186 483.426636 89.546631 487.013184 89.653564 C 490.599976 89.773438 495.453369 89.880127 500.693359 89.986816 C 509.879883 90.159912 518.253296 90.373535 516.266602 90.026611 C 511.133301 89.199951 520.773315 88.76001 524.06665 88.146729 C 525.706543 87.840088 525.773315 87.493408 521.58667 87.040283 C 517.399902 86.613281 509 85.93335 493.666626 85.426514 C 485.613281 85.080078 478.199951 84.866699 482.906616 84.533447 C 490.839966 84.013428 494.813232 83.853516 491.626587 83.613281 C 490.039917 83.52002 486.65332 83.373535 481.079956 83.333496 C 475.506592 83.293213 467.76001 83.133301 457.386719 83.266846 C 454.106567 83.213379 450.719971 83.159912 447.173218 83.106934 C 443.533325 83.146729 439.746582 83.173584 435.813232 83.213379 C 427.853394 83.253418 419.119995 83.679932 409.639893 84.120117 C 415.786621 82.973389 415.986694 82.199951 409.946533 81.76001 C 406.920044 81.493408 402.333252 81.546631 396.160034 81.600098 C 393.06665 81.666748 389.58667 81.679932 385.693359 81.866699 C 381.706543 82.080078 377.413208 82.320068 372.799927 82.573486 C 370.773315 82.706787 368.813232 82.82666 366.906616 82.946777 C 364.973267 83.120117 363.093262 83.306885 361.266602 83.466797 C 357.493286 83.840088 353.93335 84.199951 350.506592 84.533447 C 343.533325 85.293213 336.920044 86.386719 330.253296 87.373535 C 323.58667 88.47998 316.920044 89.906738 309.82666 91.333496 C 306.279907 92.080078 302.65332 93.053467 298.879883 93.973389 C 295.106567 94.946777 291.160034 95.82666 287.053345 97.013428 C 251.266602 106.613281 216.146606 119.52002 183.413208 137.866699 C 179.719971 139.93335 176 141.946777 172.386719 144.146729 L 167.039917 147.320068 L 161.773315 150.640137 C 150.079956 157.866699 139.959961 165.186768 130.453369 172.733398 C 123.266602 178.440186 116.439941 184.333496 109.65332 190.58667 L 111.479858 187.34668 C 112.479858 185.52002 113.639893 183.800049 114.719971 182.026611 C 116.93335 178.506836 119.079956 174.946777 121.333252 171.466797 L 128.400024 161.226563 L 130.173218 158.666748 L 132.053345 156.199951 L 135.82666 151.266846 C 139.879883 145.720215 144.373291 140.679932 148.65332 135.653564 C 150.733276 133.080078 153.039917 130.786865 155.253296 128.453369 C 157.466675 126.133301 159.666626 123.840088 161.82666 121.573486 C 164.079956 119.41333 166.359985 117.333496 168.559937 115.266846 C 170.799927 113.240234 172.893311 111.133301 175.160034 109.266846 C 177.399902 107.426514 179.613281 105.600098 181.799927 103.800049 C 184 102.053467 186.039917 100.213379 188.23999 98.693359 C 186.879883 99.693359 185.639893 100.720215 184.493286 101.733398 C 183.333252 102.733398 182.226685 103.679932 181.160034 104.600098 C 179.06665 106.426514 177.133301 108.133301 175.253296 109.773438 C 171.65332 113.146729 168.533325 116.426514 164.813232 120.013428 C 174.399902 111.600098 191.76001 96.026611 208.119995 84.959961 C 212.039917 81.920166 218.093262 78.400146 223.453369 75.013428 C 226.106567 73.266846 228.773315 71.880127 230.93335 70.600098 C 233.106567 69.320068 234.82666 68.253418 235.786621 67.546631 C 233.306641 68.82666 230.053345 70.573486 226.626709 72.426514 C 223.253296 74.359863 219.813232 76.560059 216.719971 78.386719 L 218.479858 77.266846 C 229.679932 69.893311 241.693359 63.679932 253.839966 57.733398 L 263.133301 53.626709 L 267.799927 51.58667 L 272.546631 49.76001 L 282.053345 46.093262 L 291.746582 42.880127 L 296.58667 41.266846 L 301.493286 39.866699 L 311.333252 37.093262 C 314.639893 36.266846 317.959961 35.533447 321.279907 34.746582 L 326.253296 33.58667 C 327.906616 33.199951 329.599976 32.93335 331.266602 32.613281 L 341.306641 30.720215 C 344.666626 30.146729 348.053345 29.746582 351.413208 29.240234 C 358.133301 28.133301 364.920044 27.666748 371.679932 26.93335 C 375.479858 26.546631 379.306641 26.426514 383.133301 26.146729 L 388.893311 25.800049 L 394.666626 25.693359 C 398.52002 25.666748 402.373291 25.493408 406.23999 25.573486 C 410.106567 25.679932 413.973267 25.786865 417.853394 25.893311 C 419.786621 25.920166 421.719971 26.053467 423.65332 26.199951 L 429.466675 26.613281 L 435.279907 27.026611 C 437.213257 27.186768 439.146606 27.453369 441.079956 27.666748 C 444.946533 28.133301 448.82666 28.506836 452.693359 29.040283 L 464.253296 30.866699 C 495.013184 36.173584 525.213257 45.293213 553.626587 57.786865 C 577.119995 67.813232 599.573242 80.653564 620.533325 95.693359 C 641.466675 110.706787 660.986694 128.146729 678.733276 147.240234 C 682.52002 151.52002 686.333252 155.840088 690.279907 160.306885 L 678.253296 147.013428 L 679.093262 147.76001 C 676.413208 144.920166 673.626587 142.173584 670.893311 139.386719 C 668.160034 136.58667 665.439941 133.786865 662.533325 131.173584 C 661.279907 130.199951 662.026611 131.093262 664.506592 133.573486 C 669.426636 138.600098 674.133301 143.41333 678.933228 148.320068 C 679.266602 148.693359 679.573242 149.013428 679.853394 149.280029 C 681.533325 151.293213 683.786621 153.893311 686.76001 157.199951 C 690.346558 161.040283 693.546509 165.240234 696.906616 169.266846 C 698.559937 171.306885 700.279907 173.293213 701.879883 175.359863 C 703.453369 177.440186 705.026611 179.52002 706.599976 181.600098 L 709.746582 185.466797 L 707.52002 182.159912 L 708.506592 183.266846 L 703.920044 177.133301 C 706.573242 180.613281 709.186646 184.053467 711.773315 187.440186 C 722.133301 201.666748 732.040039 216.693359 740.813232 232.720215 C 749.47998 248.773438 757.41333 265.58667 764.040039 283.133301 C 765.866699 287.986816 767.453369 292.893311 769.199951 297.786865 C 770.533203 301.386719 771.546631 305.06665 772.626709 308.733398 C 773.693359 312.400146 774.773193 316.06665 775.853271 319.746582 C 777.093262 324.733398 778.320068 329.640137 779.533203 334.493408 C 784.946533 356.973389 788.306641 380.493408 788.93335 405.506836 C 789.013184 407.266846 789.079834 409 789.146484 410.746582 C 789.17334 412.493408 789.133301 414.226563 789.133301 415.959961 C 789.079834 414.720215 789.040039 413.320068 789.026611 411.800049 C 788.986572 410.293213 788.853271 408.653564 788.773193 406.93335 C 788.639893 403.466797 788.47998 399.693359 788.320068 395.82666 C 788.266602 391.946777 787.746582 388.013428 787.466553 384.253418 C 787.120117 380.493408 786.786621 376.920166 786.426758 373.800049 C 786.34668 373.786865 786.23999 373.693359 786.133301 373.52002 L 787.159912 385.466797 C 787.320068 387.58667 787.47998 389.746582 787.639893 391.959961 C 787.76001 394.186768 787.786621 396.493408 787.866699 398.840088 C 787.959961 401.253418 788.040039 403.679932 788.133301 406.093262 C 788.199951 408.52002 788.41333 410.946777 788.333252 413.386719 C 788.333252 416.613281 788.320068 420.013428 788.320068 423.320068 C 788.293213 426.640137 788.386719 429.893311 788.199951 432.76001 C 788 435.013428 787.800049 437.986816 787.613281 441.746582 L 787.58667 445.613281 L 788.026611 441.240234 L 788.053223 442.626709 L 788.733398 431.199951 C 788.813232 430.813232 788.906494 430.506836 788.986572 430.199951 C 788.639893 435.373535 788.306641 440.386719 787.973145 445.333496 C 787.906494 446.426514 787.82666 447.52002 787.746582 448.613281 C 787.626709 449.720215 787.493408 450.813232 787.359863 451.920166 C 787.106689 454.146729 786.853271 456.373535 786.599854 458.613281 C 786.359863 460.946777 786.106689 463.293213 785.853271 465.613281 C 785.626709 467.946777 785.159912 470.226563 784.853271 472.47998 C 784.120117 477.133301 783.47998 481.786865 782.746582 486.159912 L 782.426758 487.773438 C 782.533203 487.199951 782.626709 486.613281 782.679932 486.040283 C 782.773193 485.199951 782.493408 486.026611 781.879883 488.506836 C 780.893311 492.640137 779.866699 497.133301 778.82666 501.82666 C 777.693359 506.506836 776.266602 511.306885 774.986572 516.213379 C 773.813232 521.040039 772.133301 525.693359 770.639893 530.41333 C 769.879883 532.746582 769.120117 535.080078 768.373291 537.400146 C 767.613281 539.720215 766.65332 541.959961 765.813232 544.240234 C 764.52002 547.666748 763.253418 551 762.040039 554.213379 C 760.800049 557.41333 759.399902 560.359863 758.226563 563.199951 C 756.866699 566.453369 756.013184 568.65332 755.613281 569.906738 C 755.639893 569.973389 755.773193 569.800049 755.959961 569.506836 L 754.800049 572.106934 L 753.506592 574.626709 C 752.65332 576.293213 751.800049 577.946777 750.959961 579.58667 C 739.06665 602.959961 724.359863 624.893311 704.82666 645.400146 C 701.293335 648.906738 697.76001 652.41333 694.213257 655.93335 C 690.599976 659.280029 686.853394 662.466797 683.186646 665.773438 C 681.013184 667.786865 678.613281 669.546631 676.306641 671.400146 C 674 673.23999 671.679932 675.06665 669.373291 676.893311 C 664.666626 680.453369 659.799927 683.746582 655.093262 687.17334 C 652.439941 688.959961 649.76001 690.626709 647.133301 692.333496 Z M 523.079956 767.17334 C 521.746582 767.280029 520.346558 767.386719 518.879883 767.506714 L 520.306641 767.213379 C 521.106567 767.040039 521.906616 766.853394 522.706543 766.666748 C 524.213257 766.533325 525.706543 766.400024 527.213257 766.253418 C 525.839966 766.560059 524.466675 766.880005 523.079956 767.17334 Z M 515.559937 767.746704 C 516.813232 767.493408 518.06665 767.226685 519.319946 766.973389 C 519.373291 766.960083 519.413208 766.960083 519.466675 766.960083 C 518.306641 767.213379 517.160034 767.466675 515.986694 767.720093 C 515.839966 767.733398 515.706543 767.746704 515.559937 767.746704 Z M 273.52002 741.079956 C 272.479858 740.786865 271.399902 740.466797 270.320068 740.160156 C 270.320068 740.093506 270 739.920166 269.333252 739.640137 C 266.946533 738.773438 263.399902 737.600098 258.82666 736.17334 C 257.799927 735.840088 256.733276 735.58667 255.719971 735.186768 C 256.399902 735.34668 255.906616 735.080078 254.026611 734.293457 C 250.746582 733 247.06665 731.613281 242.973267 730.133301 C 239.773315 729.040039 237.639893 728.41333 236.546631 728.093506 C 236.160034 728.06665 236.773315 728.506592 238.506592 729.23999 L 241.06665 730.226807 C 240.546631 730.080078 240.039917 729.920166 239.573242 729.786865 C 238.946533 729.65332 239.133301 729.82666 239.946533 730.213379 L 237.079956 729.080078 C 235.226685 728.360107 233.386719 727.58667 231.546631 726.840088 C 231.546631 726.853516 231.493286 726.840088 231.479858 726.853516 L 229.906616 726.17334 L 225.93335 724.453369 C 226 724.47998 225.986694 724.453369 226.039917 724.453369 L 231.546631 726.840088 C 234.253296 727.879883 234.466675 727.840088 231.719971 726.52002 C 228.253296 724.920166 224.413208 723.226807 220.186646 721.453369 C 220.186646 721.453369 220.373291 721.560059 220.58667 721.679932 C 219.973267 721.386719 219.373291 721.106689 218.693359 720.800049 C 211.719971 717.306641 205.52002 714.106689 200.799927 712.026855 C 200.719971 712.080078 200.920044 712.266602 201.413208 712.600098 C 200.839966 712.41333 201.306641 712.720215 202.306641 713.280029 L 200.493286 712.373291 C 198.866577 711.626709 197.373291 710.706787 195.866577 709.840088 C 194.359985 708.959961 192.866577 708.080078 191.373291 707.199951 C 187.026611 704.560059 183.733276 702.573242 180.106567 700.226807 L 179.920044 700.106689 C 179.893311 700.040039 179.866577 699.959961 179.786621 699.853516 L 179.279907 699.493408 C 180.439941 700.280029 181.666626 700.973389 182.879883 701.65332 C 184.093262 702.320068 185.293335 703 186.479858 703.666748 C 188.626709 704.82666 190.479858 705.82666 192.119995 706.720215 C 193.853394 707.786865 196.146606 709.146729 199.039917 710.813232 C 204.946533 713.693359 210.533325 716.400146 215.106567 718.533447 C 216.213257 719.026855 217.253296 719.546631 218.266602 719.973389 C 219.279907 720.360107 220.253296 720.733398 221.160034 721.080078 C 222.946533 721.76001 224.426636 722.293457 225.493286 722.640137 C 226.039917 722.733398 225.320068 722.266602 223.226685 721.226807 C 221.546631 720.439941 219.65332 719.666748 217.746582 718.746582 C 215.866577 717.786865 213.920044 716.786865 212 715.813232 C 208.173218 713.853516 204.479858 711.959961 201.746582 710.466797 C 200.866577 710.013428 199.959961 709.613281 199.119995 709.093506 C 197.946533 708.320068 196.639893 707.52002 195.23999 706.720215 C 194.639893 706.253418 193.373291 705.41333 191.226685 704.080078 L 191.399902 704.17334 C 188.82666 702.560059 185.82666 700.786865 182.65332 698.920166 C 179.546631 696.946777 176.373291 694.76001 173.199951 692.679932 C 168.893311 689.746582 164.719971 687.23999 161.266602 684.666748 C 158.320068 682.493408 155.359985 680.34668 152.52002 678.026855 L 148.226685 674.613281 C 146.799927 673.466797 145.426636 672.23999 144.026611 671.053467 C 141.439941 668.920166 138.82666 666.746582 136.293335 664.41333 L 135.626709 663.813232 C 134.946533 663.186768 134.266602 662.560059 133.573242 661.920166 C 130.199951 658.879883 127.106567 655.640137 123.82666 652.493408 C 120.813232 649.306641 117.733276 646.23999 114.813232 642.986816 C 111.986694 639.800049 109.106567 636.733398 106.426636 633.466797 C 105.093384 631.879883 103.76001 630.293457 102.426636 628.720215 C 101.119995 627.133301 99.879883 625.506592 98.599976 623.920166 C 97.346558 622.34668 96.133301 620.82666 94.946533 619.34668 C 93.82666 617.866699 92.733276 616.426758 91.679932 615.026855 L 91.413208 614.720215 C 89.813232 612.47998 88.146606 610.160156 86.533325 607.706787 C 84.920044 605.253418 83.146606 602.800049 81.466675 600.159912 C 82.333252 601.52002 83.266602 602.82666 84.160034 604.080078 C 85.599976 605.93335 86.026611 606.293457 85.413208 605.160156 C 84.386719 603.546631 83.320068 602 82.346558 600.359863 C 81.053345 598.34668 79.773315 596.320068 78.493286 594.293213 C 75.839966 590.186768 73.573242 586.186768 71.253296 582.506836 L 65.853394 572.840088 L 60.76001 563 C 59.160034 559.879883 59 559.82666 60.079956 562.466797 C 61.746582 566 63.626709 569.853516 65.82666 574.106934 C 66.746582 575.786865 67.666626 577.453369 68.58667 579.133301 C 65.666626 574.053467 63.013306 568.786865 60.320068 563.533447 C 58.439941 559.52002 56.479858 555.546631 54.706665 551.52002 C 53.413208 548.546631 52.133301 545.613281 50.866577 542.693359 C 51.293335 543.693359 51.746582 544.626709 52.146606 545.466797 C 52.693359 546.386719 52.613281 545.853516 51.893311 543.879883 C 51.106567 541.973389 50.426636 540.013428 49.679932 538.080078 C 48.879883 535.973389 48.013306 533.879883 47.253296 531.746582 C 45.76001 527.426514 44.160034 523.41333 42.93335 519.58667 C 40.639893 512.65332 38.58667 505.640137 36.773315 498.573486 C 35.946533 494.920166 34.946533 491.306885 34.253296 487.640137 C 34.119995 487.466797 34 487.34668 33.879883 487.253418 C 34.213257 489.226563 34.599976 491.199951 35.053345 493.146729 L 36.333252 497.840088 C 36.386719 498.226563 36.479858 498.746582 36.639893 499.546631 C 37.346558 502.840088 38.386719 506.506836 39.453369 510.613281 C 40.320068 513.706787 41.346558 516.800049 42.306641 519.906738 C 41.920044 518.706787 41.533325 517.52002 41.133301 516.306885 L 39.706665 511.866699 L 38.439941 507.373535 C 37.599976 504.386719 36.679932 501.426514 35.986694 498.440186 C 35.053345 494.560059 34.013306 490.986816 33.320068 487.640137 C 33.133301 486.853516 32.959961 486.133301 32.786743 485.41333 L 32.439941 483.093262 L 31.693359 479.466797 L 31.079956 475.840088 C 30.373291 472.266846 29.879883 470.053467 29.58667 469.266846 C 29.533325 469.34668 29.52002 469.693359 29.546631 470.253418 C 29.173218 468.52002 28.959961 466.76001 28.666626 465.026611 C 28.93335 467.120117 29.199951 469.226563 29.58667 471.306885 C 29.013306 468.52002 28.666626 465.466797 28.213257 462.359863 C 27.986694 460.600098 27.706665 458.853516 27.52002 457.120117 C 27.346558 455.400146 27.173218 453.706787 27.013306 452.040283 C 26.386719 446.880127 26.173218 441.453369 25.839966 435.893311 C 25.786743 432 25.719971 428.026611 25.666626 424.159912 C 25.786743 420.106934 25.799927 416.106934 25.946533 412.34668 C 26.146606 408.733398 26.266602 405.613281 26.333252 403.226563 C 26.320068 402.840088 26.320068 402.533447 26.320068 402.186768 C 26.58667 400.040283 26.893311 397.76001 27.213257 395.306885 C 27.413208 393.693359 27.559937 392.053467 27.813232 390.440186 C 28.079956 388.813232 28.346558 387.186768 28.599976 385.546631 C 28.693359 385.106934 28.786743 384.613281 28.893311 384.040283 C 29.533325 380.053467 30.413208 376.093262 31.093384 372.080078 L 30.813232 373.320068 C 31.320068 370.533447 31.986694 367.82666 32.613281 365.106934 C 33.479858 361.080078 34.58667 357.106934 35.626709 353.240234 C 35.639893 353.186768 35.65332 353.146729 35.666626 353.093262 C 35.573242 354.120117 35.493286 355.133301 35.400024 356.146729 L 34.853394 362.253418 C 34.706665 364.280029 34.65332 366.320068 34.533325 368.34668 C 34.333252 372.426514 34.133301 376.47998 33.946533 380.533447 C 33.893311 384.58667 33.839966 388.626709 33.799927 392.653564 C 33.773315 394.666748 33.746582 396.666748 33.719971 398.679932 C 33.733276 400.679932 33.82666 402.679932 33.866577 404.679932 C 33.973267 408.653564 34.079956 412.613281 34.173218 416.573486 C 34.373291 420.506836 34.666626 424.426514 34.893311 428.306885 C 35.226685 431.986816 35.533325 435.959961 36.133301 440.213379 C 36.666626 444.47998 37.186646 448.653564 37.693359 452.733398 C 38.626709 458 39.146606 459.733398 40.160034 465.293213 C 41.039917 471.280029 42.479858 477.159912 43.719971 483.080078 C 44.866577 489.013428 46.599976 494.82666 48.106567 500.679932 C 55.426636 528.226563 66.199951 554.920166 80.160034 579.879883 C 81.813232 582.746582 83.346558 585.840088 85.186646 588.76001 C 87.026611 591.693359 88.853394 594.613281 90.599976 597.400146 C 91.493286 598.800049 92.359985 600.159912 93.199951 601.47998 C 94.039917 602.786865 94.986694 603.973389 95.82666 605.146729 C 97.546631 607.453369 99.119995 609.52002 100.493286 611.199951 C 116.226685 632.41333 133.866577 652.133301 153.546631 669.76001 C 173.320068 687.266602 195.039917 702.506592 218.026611 715.41333 L 224.666626 719.17334 C 226.866577 720.453369 229.199951 721.466797 231.466675 722.626709 L 245.133301 729.386719 L 259.133301 735.41333 C 261.479858 736.386719 263.786621 737.47998 266.173218 738.360107 L 273.306641 741 L 273.599976 741.106689 C 273.573242 741.093384 273.546631 741.093384 273.52002 741.079956 Z M 78.173218 261.400146 C 79.146606 260.013428 80.119995 258.640137 81.106567 257.320068 C 84.106567 253.053467 87.333252 248.986816 90.546631 244.840088 C 92.65332 242.280029 94.813232 239.613281 97.173218 236.853516 C 99.599976 234.106934 101.706665 231.733398 103.773315 229.400146 C 103.866577 229.320068 105.119995 228.173584 105.119995 228.173584 C 105.119995 228.173584 104.373291 228.946777 103.65332 229.679932 C 102.946533 230.400146 102.320068 231.106934 102.506592 230.893311 C 100.426636 233.266846 98.573242 235.386719 97.039917 237.133301 C 95.613281 238.880127 94.613281 240.213379 94.173218 240.893311 C 94.573242 240.52002 95.173218 239.906738 95.93335 239.106934 C 93.079956 242.440186 90.213257 245.746582 87.506592 249.199951 C 87.506592 249.199951 86.626709 250.320068 85.746582 251.453369 C 84.853394 252.560059 84.013306 253.706787 84.013306 253.706787 L 80.58667 258.226563 C 79.719971 259.34668 78.906616 260.506836 78.093384 261.653564 C 78.119995 261.573486 78.146606 261.47998 78.173218 261.400146 Z M 424.866577 25.040283 L 425.146606 25.080078 C 424.920044 25.06665 424.666626 25.040283 424.439941 25.026611 C 424.573242 25.026611 424.706543 25.040283 424.866577 25.040283 Z M 688.479858 124.333496 C 688.986694 124.853516 689.479858 125.373535 689.973267 125.906738 C 695.039917 130.959961 699.626587 136.306885 704.253296 141.41333 C 705.399902 142.693359 706.546509 143.973389 707.693359 145.226563 C 708.773315 146.533447 709.866577 147.82666 710.933228 149.120117 C 713.093262 151.666748 715.213257 154.186768 717.333252 156.693359 C 717.613281 156.866699 718.253296 157.506836 719.173218 158.493408 C 719.319946 158.706787 719.426636 158.853516 719.58667 159.093262 C 720.41333 160.613281 724.679932 166.626709 730.293213 174.240234 C 717.106567 156.613281 700.920044 136.986816 684.013184 120.253418 C 686.399902 122.560059 688.039917 124.080078 688.479858 124.333496 Z M 797.93335 304.199951 C 799.17334 307.706787 800.493408 311.213379 801.76001 314.720215 L 798.34668 305.426514 C 797.986572 304.41333 797.613281 303.41333 797.23999 302.400146 C 797.466553 303 797.706543 303.600098 797.93335 304.199951 Z M 803.226563 318.959961 C 803.533203 319.920166 803.839844 320.866699 804.146484 321.82666 C 803.386719 319.47998 802.613281 317.146729 801.786621 314.813232 C 802.279785 316.199951 802.773193 317.573486 803.226563 318.959961 Z M 786.813232 263.266846 C 787.866699 265.626709 789.053223 268.359863 789.34668 269.240234 C 788.06665 266.41333 787.506592 264.906738 786.813232 263.266846 Z M 835.186768 375.720215 C 833.93335 369.453369 833.133301 366.120117 832.786621 365.693359 C 833.439941 369.080078 833.959961 372.959961 834.706543 377.093262 C 834.159912 374.306885 833.573242 371.333496 832.986572 368.386719 C 830.773193 359.47998 828.560059 348.706787 825.58667 338.58667 C 824.879883 336.040283 824.186768 333.533447 823.506592 331.080078 C 822.800049 328.640137 821.973145 326.293213 821.23999 324.040283 C 819.733398 319.52002 818.306641 315.386719 816.986572 311.93335 C 817.386719 313.693359 818.34668 317.080078 819.879883 322.093262 C 821.026611 325.733398 822.23999 329.146729 823.079834 332.47998 C 828.613281 349.733398 833.439941 370.386719 836.786621 391.920166 C 837.026611 392.493408 837.093262 392.213379 837.040039 391.34668 C 838.013184 398.533447 839.266602 406.06665 839.853271 413.533447 C 840.199951 417.253418 840.546631 420.946777 840.893311 424.546631 C 841.133301 428.133301 841.23999 431.640137 841.386719 434.973389 C 841.47998 439 841.719971 442.786865 841.639893 446.560059 C 841.573242 450.333496 841.493408 454.093262 841.426758 457.986816 C 841.373291 460.240234 841.41333 462.573486 841.293213 464.973389 L 841.093262 464.880127 C 840.839844 468.266846 840.599854 472.320068 840.373291 477.026611 C 840.293213 479.093262 840.226563 481 840.159912 482.773438 C 840.040039 484.493408 839.93335 486.080078 839.813232 487.573486 C 839.613281 489.226563 839.506592 489.800049 839.466553 489.560059 C 839.613281 487.600098 839.800049 485.080078 840 482.426514 C 840.213135 477.133301 840.453369 471.573486 840.679932 466.080078 L 840.773193 463.679932 C 840.786621 463.533447 840.800049 463.41333 840.82666 463.253418 C 840.800049 459.493408 840.773193 455.733398 840.746582 451.959961 C 840.746582 450.840088 840.706543 449.679932 840.626709 448.493408 C 840.626709 448.453369 840.626709 448.440186 840.613281 448.400146 C 840.599854 446.173584 840.560059 443.973389 840.386719 441.813232 C 840.279785 440.34668 840.186768 438.920166 840.093262 437.466797 L 840.093262 437.293213 C 839.93335 434.493408 839.773193 431.679932 839.613281 428.880127 L 839.279785 425.359863 L 839.226563 424.866699 C 838.813232 421.186768 838.399902 417.653564 838 414.253418 C 838 414.226563 837.47998 410.266846 837.47998 410.266846 C 837.266602 408.333496 837.146484 406.400146 836.82666 404.47998 C 836.253418 400.653564 835.706543 397.013428 835.17334 393.493408 C 830.65332 365.240234 823.800049 337.359863 814.453369 310.34668 C 805.493408 284.199951 793.120117 257.080078 781.65332 233.693359 C 766.786621 204.466797 749.120117 174.506836 731.866699 149.34668 C 737.65332 159.41333 750.133301 178.266846 758.013184 192.186768 C 760.053223 195.546631 761.946533 199.013428 763.919922 202.426514 C 765.853271 205.866699 767.879883 209.240234 769.733398 212.720215 C 772.639893 218.426514 775.693359 223.906738 778.58667 229.359863 C 779.186768 230.706787 779.986572 232.41333 781.013184 234.546631 C 791.573242 255.266846 801.120117 276.52002 809.333252 298.306885 C 812.279785 306.76001 811.079834 304.52002 813.666504 312.026611 C 814.946533 315.82666 816.079834 319.666748 817.279785 323.493408 C 818.120117 326.053467 818.959961 328.613281 819.786621 331.173584 C 819.986572 331.82666 820.17334 332.426514 820.359863 333.06665 C 822.639893 341.440186 825.213135 350.026611 826.93335 358.320068 C 827.839844 362.453369 828.853271 366.440186 829.52002 370.280029 C 830.186768 374.120117 830.800049 377.746582 831.306641 381.080078 L 832.573242 387.47998 C 832.959961 390.746582 833.34668 394.013428 833.733398 397.306885 C 834.013184 399.333496 834.279785 401.359863 834.560059 403.400146 L 834.973145 406.47998 L 835.266602 409.58667 C 835.666504 413.746582 836.06665 417.93335 836.466553 422.146729 L 836.773193 425.320068 L 836.946533 428.506836 C 837.06665 430.640137 837.17334 432.773438 837.279785 434.906738 L 837.626709 441.320068 L 837.786621 444.533447 L 837.813232 447.746582 C 837.82666 452.026611 837.853271 456.306885 837.866699 460.560059 L 837.879883 463.76001 L 837.733398 466.93335 C 837.626709 469.040283 837.52002 471.146729 837.426758 473.240234 C 837.320068 475.333496 837.213135 477.426514 837.106689 479.506836 L 836.946533 482.600098 C 836.866699 483.626709 836.733398 484.653564 836.626709 485.679932 C 836.17334 489.733398 835.733398 493.746582 835.293213 497.733398 C 835.17334 498.893311 835.040039 500.053467 834.919922 501.213379 C 834.773193 502.373535 834.546631 503.533447 834.359863 504.706787 C 833.973145 507.06665 833.58667 509.466797 833.186768 511.93335 C 832.919922 513.679932 832.65332 515.400146 832.386719 517.120117 C 832.120117 518.82666 831.879883 520.546631 831.493408 522.213379 C 830.786621 525.573486 830.093262 528.906738 829.386719 532.253418 C 828.946533 534.333496 828.506592 536.400146 828.06665 538.466797 C 827.506592 540.506836 826.946533 542.546631 826.373291 544.613281 C 825.093262 549.013428 823.959961 553.320068 822.58667 557.573486 C 822.879883 556.573486 822.906494 556.226563 822.733398 556.546631 L 825.76001 545.746582 C 826.613281 542.893311 827.879883 539.333496 828.706543 534.879883 C 829.639893 530.506836 830.34668 526.946777 830.866699 524.080078 L 830.986572 523.533447 C 831.213135 522.533447 831.359863 521.613281 831.453369 520.800049 C 831.546631 520.026611 831.213135 521.226563 830.493408 524.306885 C 831.506592 520.133301 832.013184 515.853516 832.693359 511.613281 C 833.439941 506.626709 834.373291 501.640137 834.733398 496.600098 C 835.106689 492.746582 835.493408 488.893311 835.879883 485.026611 C 836.106689 483.106934 836.17334 481.173584 836.253418 479.240234 L 836.52002 473.440186 C 836.639893 470.800049 836.746582 468.146729 836.866699 465.493408 C 836.906494 464.973389 836.906494 464.453369 836.919922 463.920166 C 836.919922 464.293213 836.93335 464.653564 836.919922 465.013428 C 837.026611 464.373535 837.106689 464.106934 837.186768 464.213379 C 837.213135 460.52002 837.23999 456.840088 837.266602 453.173584 C 837.293213 448.706787 837.34668 444.253418 836.959961 439.840088 L 836.946533 441.106934 C 836.893311 440.146729 836.813232 439.186768 836.706543 438.213379 C 836.58667 437.240234 836.573242 438.133301 836.65332 440.93335 C 836.959961 444.93335 836.853271 448.959961 836.906494 452.973389 C 836.906494 455.853516 836.93335 458.733398 836.93335 461.613281 C 836.919922 460.266846 836.893311 458.920166 836.893311 457.573486 C 836.866699 454.813232 836.839844 452.06665 836.82666 449.386719 C 836.813232 446.693359 836.773193 444.06665 836.560059 441.52002 C 836.23999 436.440186 835.906494 431.693359 835.573242 427.52002 C 835.560059 427.400146 835.546631 427.293213 835.533203 427.173584 L 835.573242 425.666748 L 834.906494 418.640137 C 834.41333 413.786865 834.013184 409.320068 833.41333 405.213379 L 831.573242 393.106934 C 831.266602 391.080078 831 389.053467 830.639893 387.053467 L 829.466553 381.040283 C 829.493408 381.546631 829.47998 381.93335 829.453369 382.199951 C 829.973145 385.106934 830.546631 388.106934 830.919922 391.266846 C 830.946533 391.973389 830.866699 392.013428 830.719971 391.560059 C 830.506592 390.106934 830.34668 388.653564 830.120117 387.213379 C 829.866699 385.786865 829.613281 384.373535 829.373291 382.973389 C 828.65332 379.106934 827.93335 375.280029 827.213135 371.453369 C 826.879883 369.533447 826.439941 367.640137 825.973145 365.746582 L 824.639893 360.06665 C 823.426758 354.93335 822.333252 349.973389 820.893311 345.320068 C 820.013184 342.546631 819.399902 340.813232 819.06665 340.106934 C 818.506592 338.106934 817.973145 336.333496 817.466553 334.800049 C 817.466553 335.093262 817.439941 335.333496 817.399902 335.493408 C 818.34668 338.986816 819.293213 342.573486 820.279785 346.240234 C 820.666504 347.76001 821.040039 349.293213 821.426758 350.82666 C 821.76001 352.41333 822.106689 353.986816 822.439941 355.58667 C 823.159912 358.82666 823.879883 362.080078 824.613281 365.400146 C 825.426758 368.720215 826.013184 372.133301 826.666504 375.58667 C 827.320068 379.026611 827.986572 382.506836 828.639893 386 C 829.839844 393.026611 830.800049 400.146729 831.839844 407.186768 C 832.506592 414.253418 833.34668 421.226563 833.76001 427.986816 L 833.866699 428.93335 L 833.866699 429.040283 L 833.866699 429.040283 L 833.76001 427.986816 L 834.026611 440.053467 C 834.293213 444.76001 834.226563 448.93335 834.373291 452.613281 L 834.320068 452.280029 C 834.306641 452.546631 834.306641 452.82666 834.306641 453.106934 C 834.293213 452.773438 834.293213 452.440186 834.293213 452.106934 C 834.23999 450.026611 834.199951 447.973389 834.159912 445.959961 C 834.120117 443.946777 833.893311 441.986816 833.773193 440.080078 C 832.47998 410.146729 828.040039 384.533447 821.959961 360.146729 C 821.159912 356.533447 820.41333 352.613281 819.213135 348.560059 L 819.226563 348.506836 C 817.986572 343.880127 816.76001 339.533447 815.533203 335.400146 C 815.040039 333.546631 814.453369 331.706787 813.82666 329.893311 L 812 324.41333 C 797.266602 277.600098 775.546631 233.706787 751.053223 193.546631 C 749.613281 191.440186 749.65332 191.786865 751.17334 194.613281 C 761.986572 213.880127 775.65332 238.320068 785.34668 260.013428 L 785.373291 260.080078 C 785.199951 259.679932 785.013184 259.293213 784.786621 258.840088 C 783.213135 255.47998 781.626709 252.106934 780.026611 248.720215 C 778.426758 245.333496 776.639893 242.026611 774.93335 238.679932 C 764.773193 219 753.186768 198.426514 741.573242 180.040283 C 732.746582 166.106934 721.746582 148.640137 712.679932 135.840088 C 712.719971 136.06665 712.733276 136.253418 712.719971 136.400146 C 726.466553 157.240234 741.226563 180.280029 754.386719 203.280029 C 767.599854 226.266846 779.106689 249.280029 787.373291 269.306885 C 789.17334 273.653564 791.053223 278.199951 793.013184 282.906738 C 794.906494 287.746582 796.866699 292.733398 798.853271 297.800049 C 800.706543 302.93335 802.58667 308.146729 804.439941 313.333496 C 805.41333 315.920166 806.199951 318.546631 807.013184 321.120117 C 807.82666 323.706787 808.639893 326.280029 809.426758 328.813232 C 808.120117 324.959961 806.599854 320.453369 805.06665 315.959961 C 803.373291 311.506836 801.693359 307.080078 800.253418 303.306885 C 799.546631 301.453369 798.919922 299.573486 798.17334 297.746582 C 796.679932 294.080078 795.17334 290.386719 793.706543 286.76001 C 791.47998 281.093262 788.893311 275.693359 786.599854 270.600098 C 785.226563 267.493408 783.893311 264.786865 782.65332 262.359863 C 779.253418 254.133301 775.639893 245.973389 771.786621 238.026611 C 762.866699 219.626709 752.533203 202.493408 742.320068 187.52002 L 734.079834 175.58667 C 731.293213 171.626709 728.293213 167.82666 725.41333 163.93335 C 725.093262 163.533447 724.800049 163.120117 724.493408 162.706787 C 719.06665 154.34668 713.559937 146.040283 708.639893 138.58667 C 704.106567 132.053467 699.666626 125.47998 695.06665 118.973389 C 685.986694 105.786865 676.693359 92.679932 667.399902 79.573486 L 655.58667 63.386719 L 660.06665 70.173584 C 671.879883 86.640137 683.639893 103.080078 695.106567 119.679932 L 696.319946 121.213379 C 704.933228 133.679932 713.373291 146.226563 721.573242 158.893311 C 721.386719 158.653564 721.199951 158.400146 721.013184 158.159912 L 716.399902 152.533447 L 711.786621 146.906738 L 709.466675 144.093262 L 707.053345 141.386719 L 697.333252 130.533447 C 694 127 690.573242 123.560059 687.199951 120.06665 C 683.866577 116.52002 680.279907 113.253418 676.746582 109.920166 C 673.199951 106.58667 669.719971 103.199951 665.986694 100.093262 C 651.52002 87.133301 635.839966 75.41333 619.559937 64.893311 C 603.253296 54.386719 586.253296 45.080078 568.746582 37.146729 C 565 35.41333 561.226685 33.773438 557.479858 32.133301 C 555.58667 31.333496 553.733276 30.47998 551.813232 29.773438 C 549.920044 29.080078 548.026611 28.386719 546.079956 27.679932 C 537.506592 24.253418 528.733276 21.440186 519.986694 18.58667 L 506.706543 14.786865 C 502.293335 13.52002 497.786621 12.573486 493.319946 11.453369 C 475.413208 7.306885 457.266602 4.280029 438.986694 2.560059 C 402.426636 -0.640137 365.426636 0.746582 329.373291 7.866699 L 322.613281 9.159912 C 320.359985 9.640137 318.133301 10.199951 315.906616 10.720215 L 309.199951 12.320068 L 305.839966 13.106934 L 302.533325 14.053467 L 289.279907 17.853516 L 276.199951 22.240234 C 258.879883 28.440186 241.986694 35.906738 225.719971 44.613281 L 213.65332 51.400146 C 209.706543 53.800049 205.82666 56.293213 201.906616 58.733398 L 198.959961 60.573486 C 198 61.213379 197.06665 61.893311 196.119995 62.546631 L 190.426636 66.52002 L 184.733276 70.493408 L 179.253296 74.746582 L 173.76001 78.986816 L 171.013184 81.120117 L 168.373291 83.386719 L 157.813232 92.440186 L 147.706543 102.053467 L 145.186646 104.453369 L 142.786621 107 L 138 112.06665 L 133.719971 116.58667 C 129.613281 121.333496 125.65332 125.920166 121.746582 130.440186 C 118.959961 134 116.893311 136.786865 115.52002 138.773438 C 113.893311 141.080078 112.106567 143.373535 110.439941 145.840088 C 108.773315 148.320068 107.093384 150.82666 105.386719 153.34668 C 103.706665 155.906738 101.82666 158.41333 100.213257 161.106934 C 98.546631 163.786865 96.866577 166.47998 95.173218 169.199951 C 88.400024 180.053467 82.133301 191.58667 76.613281 202.893311 C 76.106567 203.880127 75.599976 204.866699 75.079956 205.866699 C 74.613281 206.893311 74.133301 207.920166 73.666626 208.959961 C 72.719971 211.053467 71.76001 213.173584 70.786743 215.333496 L 67.920044 221.800049 C 67.026611 223.973389 66.186646 226.173584 65.320068 228.359863 L 62.733276 234.946777 C 61.866577 237.133301 60.973267 239.320068 60.226685 241.573486 C 59.253296 244.373535 58.266602 247.199951 57.279907 250.013428 C 51.839966 257.813232 46.559937 265.973389 41.226685 274.840088 C 36.026611 283.893311 31.306641 293.226563 26.946533 302.720215 C 22.719971 312.293213 18.839966 322.013428 15.52002 331.946777 C 10.893311 345.840088 7.279907 360.093262 4.757202 374.533447 C 2.253296 388.986816 0.83728 403.613281 0.489258 418.226563 C -0.205322 447.47998 3.299927 476.693359 10.573242 504.813232 C 11.386719 508.973389 12.65332 513.040039 13.866577 517.120117 C 21.733276 543.573486 32.639893 569.426514 46.160034 592.906738 C 55.373291 609.199951 66.053345 625 77.906616 639.986816 C 89.746582 654.986816 102.813232 669.160156 116.973267 682.013428 C 131.079956 694.866699 146.266602 706.65332 162.06665 716.426758 C 164.013184 717.693359 165.959961 718.959961 167.906616 720.226807 C 169.879883 721.439941 171.906616 722.533447 173.906616 723.693359 C 177.906616 725.959961 181.893311 728.226807 185.853394 730.47998 C 187.813232 731.640137 189.879883 732.58667 191.906616 733.58667 C 193.93335 734.58667 195.959961 735.573242 197.973267 736.560059 C 200 737.546631 202.013184 738.52002 204.013184 739.506592 C 206.026611 740.466797 208 741.493408 210.06665 742.293457 C 216.426636 745.200073 219 746.586792 226.466675 749.93335 C 230.346558 751.613281 234.266602 752.93335 238.053345 754.386719 C 241.853394 755.786743 245.559937 757.17334 249.213257 758.453491 C 256.639893 760.693359 263.746582 762.826782 270.599976 764.720093 C 274.106567 765.826782 282.733276 768.079956 292.866577 770.34668 L 304.973267 772.733398 C 309 773.520142 313.013184 774.41333 317.093262 774.93335 L 329.266602 776.733398 C 331.306641 777.026733 333.333252 777.360107 335.359985 777.613281 L 341.479858 778.226685 C 341.479858 778.226685 345.906616 778.586792 345.93335 778.586792 C 345.93335 778.586792 347.839966 778.626709 347.866577 778.626709 C 348.493286 778.586792 347.906616 778.426758 346.186646 778.146606 C 351.893311 778.666748 357.23999 779.213379 362.119995 779.280029 C 366.320068 779.426758 369.399902 779.466675 371.346558 779.440063 C 373.58667 779.600098 375.959961 779.773315 378.533325 779.973389 C 381.733276 780.053467 384.959961 780.120117 388.226685 780.200073 L 379.293335 780.133423 C 378.799927 780.226685 378.439941 780.306641 378.186646 780.400024 L 390.613281 780.640015 C 394.76001 780.680054 398.906616 780.880005 403.053345 780.773315 C 407.093262 780.760132 411.279907 780.666748 415.639893 780.47998 L 414.359985 780.386719 C 418.479858 780.266724 422.58667 780.266724 426.693359 779.93335 L 438.839966 779.160034 C 439 779.026733 439 778.920044 438.866577 778.813354 L 426.65332 779.693359 L 426.65332 779.693359 C 422.813232 779.946655 418.986694 779.960083 415.199951 780.133423 L 415.199951 780.133423 L 408.439941 780.226685 C 413.039917 780.106689 417.599976 779.986816 422.133301 779.866699 C 426.65332 779.600098 431.119995 779.266724 435.546631 778.946655 C 438.746582 778.706665 441.93335 778.466675 445.119995 778.226685 C 448.306641 777.880005 451.493286 777.520142 454.719971 777.160034 C 457.666626 776.853394 460.626709 776.533325 463.58667 776.213379 L 462.893311 776.626709 L 466.319946 776.293457 L 469.733276 775.839966 L 476.573242 774.920044 L 475.239868 775 L 481.160034 774.200073 C 481.160034 774.200073 486.959961 773.34668 486.973267 773.34668 C 487.239868 773.23999 487.559937 773.120117 487.933228 772.986816 L 475.386719 774.666748 C 475.386719 774.666748 475.479858 774.653442 475.613281 774.626709 C 479.479858 774.079956 483.346558 773.546631 487.213257 773 C 491.573242 772.306641 495.920044 771.506714 500.279907 770.760132 L 505.146606 769.906738 L 509.133301 769.079956 C 509.546509 769.053467 509.959961 769.013306 510.359985 768.973389 C 509.479858 769.200073 508.599976 769.41333 507.719971 769.626709 C 508.920044 769.440063 510.106567 769.266724 511.306641 769.079956 L 513.373291 768.653442 C 516.746582 768.253418 519.52002 767.866699 521.453369 767.533325 C 515.746582 768.786743 510.013184 769.960083 504.346558 771 C 496.319946 772.333374 488.599976 773.853394 481.026611 774.853394 C 473.466675 775.93335 466.160034 777.160034 458.959961 777.880005 C 454.573242 778.41333 451.359985 778.853394 449.199951 779.213379 L 450.613281 779.266724 C 447.82666 779.453491 444.413208 779.786743 440.320068 779.946655 C 435.346558 780.266724 430.413208 780.586792 425.493286 780.906738 C 423.493286 781.079956 421.626709 781.17334 419.879883 781.23999 C 418.173218 781.320068 416.573242 781.400024 415.06665 781.466675 L 415.373291 781.426758 C 411.173218 781.453491 407.186646 781.560059 403.413208 781.733398 C 402.666626 781.760132 401.959961 781.813354 401.320068 781.906738 C 400.666626 781.986816 401.533325 782.040039 403.920044 782.053467 L 402.279907 782.186768 L 412.413208 781.866699 C 412.706543 781.906738 413.133301 781.93335 413.82666 781.960083 C 416.186646 781.920044 418.546631 781.893433 420.906616 781.853394 C 423.160034 781.813354 425.399902 781.560059 427.639893 781.41333 C 431.893311 781.120117 437.58667 780.720093 442.320068 780.400024 C 447.039917 780.066772 450.693359 779.493408 450.76001 779.280029 L 451.959961 779.17334 C 451.786621 779.186768 451.573242 779.213379 451.386719 779.213379 C 455.959961 778.800049 460.52002 778.373413 465.079956 777.946655 C 469.639893 777.466675 474.173218 776.800049 478.706543 776.213379 C 487.799927 775.133423 496.813232 773.506714 505.82666 771.946655 C 515.546509 770.093384 525.199951 767.920044 534.773315 765.47998 C 535.319946 765.41333 535.879883 765.360107 536.439941 765.306641 C 539.666626 764.773315 542.906616 764.34668 546.106567 763.733398 C 546.306641 763.733398 546.506592 763.733398 546.719971 763.746704 C 565.853394 761.493408 586.719971 757.746704 607.879883 752.546631 C 610.559937 751.880005 613.253296 751.186768 615.933228 750.506714 L 624 748.306641 C 626.679932 747.573364 629.373291 746.706665 632.053345 745.906738 L 640.013184 743.23999 C 650.639893 739.720215 660.986694 735.41333 671.186646 730.946777 C 691.426636 721.640137 710.573242 710.400146 727.733398 697.58667 C 730.706543 695.466797 733.506592 693.160156 736.34668 690.920166 C 739.159912 688.679932 742.06665 686.533447 744.76001 684.146729 L 752.959961 677.120117 C 755.560059 674.626709 758.17334 672.146729 760.800049 669.640137 C 762.626709 667.959961 764.333252 666.133301 766.040039 664.320068 L 771.159912 658.906738 C 772.906494 657.146729 774.439941 655.199951 776.053223 653.333496 L 780.82666 647.693359 C 783.266602 644.76001 785.41333 641.693359 787.65332 638.786865 C 788.226563 638.053467 788.906494 637.186768 789.853271 635.973389 L 789.159912 637.093506 C 790.453369 635.453369 791.613281 633.693359 792.773193 631.946777 L 796.279785 626.720215 L 795.839844 627.439941 C 798.626709 623.213379 799.320068 622.026855 797.919922 623.879883 C 798.919922 622.426758 799.733398 620.866699 800.666504 619.34668 C 802.439941 616.373291 804.199951 613.400146 805.959961 610.439941 C 807.506592 607.386719 809.053223 604.359863 810.573242 601.359863 C 811.266602 599.946777 811.919922 598.640137 812.546631 597.386719 C 812.546631 597.47998 813.079834 596.560059 814.159912 594.546631 C 815.306641 592.280029 816.213135 589.906738 817.23999 587.600098 C 818.279785 585.426514 819.626709 582.453369 821.373291 578.466797 C 822.359863 576.280029 823.040039 573.986816 823.813232 571.733398 C 831.52002 549.893311 837.706543 525.82666 840.506592 502.400146 C 845.133301 460.573486 843.533203 417.199951 835.186768 375.720215"/>
    <g id="eraser-copy">
        <path id="path3" fill="#fe5257" stroke="none" d="M 691.553467 255.996521 C 677.969604 243.927063 654.635376 248.283997 637.704773 247.164917 C 627.877014 246.516663 618.418213 244.831787 608.590515 244.700073 C 604.082458 239.155518 598.253296 235.541687 588.634644 235.211426 C 579.358582 234.891663 569.804932 236.237366 560.432251 237.808044 C 556.409058 237.374084 552.410522 236.901428 548.506836 236.102112 C 538.846008 234.120422 529.728027 231.546692 519.798401 230.286987 C 512.941467 229.417358 506.147797 228.765564 499.31723 228.173523 C 497.794037 225.143005 494.689728 222.834534 491.212952 223.040039 C 484.450897 223.438843 478.497009 221.919189 471.706818 223.642639 C 464.219208 225.543518 456.842255 229.417358 449.895782 232.801025 C 435.70755 239.710632 421.060822 245.819153 406.96579 252.834167 C 393.179901 259.69812 378.255585 264.118347 364.754333 271.514618 C 351.228455 278.923157 338.88147 288.181702 325.251953 295.454987 C 298.33725 309.813568 272.416931 325.022522 246.774185 341.448853 C 222.884781 356.752655 199.901886 373.483002 176.404236 389.319092 C 175.926376 389.584381 175.452026 389.886566 174.989975 390.259003 C 174.533203 390.62616 174.076416 390.996857 173.619644 391.367554 C 170.202621 394.127563 170.596146 398.431763 172.764069 401.56601 C 170.692764 405.053284 168.937698 408.839264 167.354782 412.702545 C 165.727936 416.179321 164.115173 419.670166 162.228348 423.030975 C 157.51123 431.430389 153.345795 439.780609 149.377106 448.561279 C 145.656143 456.795532 140.719421 463.849243 138.669205 472.82663 C 137.209259 479.230316 133.813309 486.612518 134.387802 493.200653 C 135.253922 503.151367 141.629471 509.542725 151.632874 510.445709 C 157.307434 510.95874 162.272263 508.8013 167.598969 510.417603 C 175.761215 512.891235 183.798752 516.143127 192.047073 518.61853 C 207.373688 523.219604 222.731934 527.808472 238.065567 532.616943 C 254.815201 537.868103 272.009338 541.032166 288.787109 546.223633 C 297.892792 549.041626 306.720886 550.540161 316.058441 552.224976 C 324.580811 553.762207 332.367126 557.398865 341.267242 554.744263 C 348.43689 552.607971 354.185242 547.270691 360.460632 543.430298 C 368.420868 538.558594 376.516357 533.918823 384.697906 529.431824 C 385.655396 528.906494 386.618134 528.398804 387.577362 527.877014 C 393.45575 526.19397 399.327087 524.495117 405.038513 522.349976 C 422.151825 515.918274 439.681549 509.504059 456.404816 502.239532 C 476.1604 493.662689 495.093811 483.425598 513.624878 472.489349 C 530.525635 462.515808 548.661438 453.856323 565.124695 443.322357 C 581.18042 433.048401 596.682739 422.512665 612.406372 411.785461 C 620.320923 406.386719 628.60437 402.056152 636.539978 397.156342 C 643.110596 393.099823 651.573242 388.823639 657.086182 383.405609 C 663.871033 376.733154 666.026672 367.998138 668.473938 359.105072 C 671.03717 349.785065 673.649597 340.480865 676.395508 331.210022 C 679.208252 321.705597 682.440796 312.708862 686.757324 303.798157 C 689.018372 299.13028 691.667664 294.38681 692.81488 289.284973 C 693.271606 286.864075 693.517639 284.422058 693.615967 281.967773 C 693.85321 281.540894 694.185242 280.88031 694.645508 279.921021 C 698.710815 272.638977 698.127502 261.836243 691.553467 255.996521 Z M 305.795013 464.458832 C 304.52832 467.696716 301.771851 463.339752 307.007233 462.232941 C 306.534607 462.965515 306.090149 463.706879 305.795013 464.458832 Z M 331.017853 515.313843 C 329.15213 515.008179 327.293365 514.640991 325.431152 514.314209 C 329.157379 513.593994 332.76944 512.613647 336.309418 511.403198 C 334.538544 512.789307 332.655243 514.277344 331.017853 515.313843 Z"/>
        <path id="path4" fill="#fe5257" stroke="none" d="M 677.653381 270.212769 C 668.902649 271.273895 664.320801 275.133698 657.184509 279.50119 C 651.539795 282.953339 645.462952 285.477936 639.479187 288.290588 C 632.934937 291.366821 626.824707 295.163361 620.189087 298.039276 C 611.549011 301.784851 602.416992 304.920807 594.260071 309.673065 C 586.071411 314.44635 579.574646 321.940979 571.004883 325.974701 C 563.979248 329.281036 556.532043 331.761719 549.3396 334.658722 C 541.221252 337.929932 534.176331 343.268951 526.532349 347.495911 C 518.419312 351.984619 510.395813 356.54715 502.500641 361.418793 C 486.83844 371.088409 472.204041 383.681396 455.608978 391.747009 C 438.999908 399.819672 422.234436 405.792908 406.468567 415.75943 C 399.47464 420.181366 392.234711 424.945923 386.8237 431.289795 C 381.05426 438.055389 379.126984 445.602722 377.26828 454.093536 C 375.729279 461.11908 373.949615 468.012939 371.981964 474.836456 C 370.478088 478.652313 369.141174 482.599915 367.88327 486.586151 C 367.572296 487.45932 367.261353 488.337738 366.952148 489.216156 C 361.161652 503.063477 352.762207 517.253418 349.889771 531.808777 C 347.30722 544.893677 362.303558 554.668701 372.559937 545.006104 C 376.623535 541.17981 379.33432 536.313293 381.549652 531.142944 C 381.9151 531.246582 382.278748 531.35376 382.660004 531.431091 C 402.194214 535.424377 419.687012 521.11322 435.942963 512.093628 C 438.156616 510.865601 440.352661 509.605927 442.536407 508.330505 C 444.024414 507.896545 445.52301 507.483673 447.007507 507.032166 C 455.575623 504.435577 464.449371 502.43631 472.836487 499.302124 C 488.008514 493.634552 502.367126 489.073853 516.727478 481.168091 C 531.952209 472.787964 547.045166 463.850952 560.997925 453.45932 C 569.056519 447.456177 574.98584 440.954163 581.888428 433.847809 C 588.116394 427.435303 594.502502 421.600922 598.548462 413.470306 C 598.817261 412.929169 599.022827 412.391571 599.195007 411.852234 C 599.660522 411.528992 600.145386 411.235596 600.605713 410.900024 C 608.866394 408.607391 616.884521 405.221954 622.993042 399.496429 C 626.420654 396.279694 629.688354 392.644806 632.854126 388.825409 C 636.706848 386.502899 640.477051 384.060883 643.865967 381.121674 C 645.158997 379.995575 646.392273 378.799164 647.586914 377.562347 C 658.358093 369.920166 667.544617 361.116638 670.504822 351.501495 C 671.551941 349.883453 672.509399 348.230255 673.321045 346.527893 C 675.114746 342.763 674.589539 338.239136 672.228271 335.215607 C 673.625 332.973938 675.028748 330.739227 676.3797 328.467651 C 683.069763 317.230896 690.57666 305.108765 694.773743 292.67041 C 698.138062 282.675781 688.886597 268.849548 677.653381 270.212769 Z M 615.303406 346.80368 C 612.613708 347.93512 609.929199 349.082306 607.271118 350.291046 C 608.312988 349.484619 609.363525 348.688782 610.44574 347.926331 C 612.94574 346.164246 615.559875 344.681427 618.233826 343.330444 C 617.260498 344.495209 616.281921 345.647705 615.303406 346.80368 Z"/>
        <path id="path1" fill="#f9393e" stroke="none" d="M 360.058319 450.165253 C 359.988068 449.9263 359.896729 449.708466 359.817627 449.473053 C 359.638458 448.146637 359.371399 446.814941 358.991913 445.485046 C 352.375702 422.261505 325.53656 418.391174 305.245148 414.766815 C 292.817291 412.546204 280.779449 411.270721 268.147827 411.608002 C 265.818268 411.669495 263.55722 411.694122 261.304962 411.702911 C 256.471924 411.003662 250.835983 410.091919 247.260849 407.874725 C 241.213821 403.194519 234.775009 399.060699 227.958511 395.752594 C 217.596695 390.726318 207.804123 386.481781 196.128189 385.903809 C 186.48671 385.425964 174.524414 384.206696 166.189987 389.76355 C 162.274033 392.375977 159.793381 397.064972 159.468369 401.724121 C 152.969833 405.436249 149.071426 413.452728 148.739365 420.597748 C 148.438965 427.001404 149.688065 433.83371 150.729874 440.528992 C 150.20282 442.313995 149.663467 444.097137 149.08371 445.875031 C 144.540527 459.787415 133.511139 474.606293 133.999527 489.741394 C 134.166428 494.85733 137.297104 499.641174 141.548645 502.676971 C 144.192688 513.119629 152.370743 516.385559 162.180893 518.239014 C 161.694275 518.140625 161.991165 518.175781 162.560379 518.307495 C 162.994308 518.386597 163.424759 518.469177 163.862198 518.544739 C 163.336899 518.455139 162.945114 518.384888 162.649979 518.330383 C 163.166489 518.453369 163.853394 518.641357 164.376938 518.875 C 166.887451 519.99408 169.485825 521.136108 172.070114 522.06189 C 176.62735 523.695801 181.346191 524.714722 186.103714 525.568481 C 195.961288 527.339417 206.096481 528.114197 215.567551 531.573364 C 232.784531 537.862854 252.004288 542.62915 270.141815 545.311829 C 279.542664 546.701538 287.857758 550.302979 297.012604 552.817017 C 305.450653 555.130737 318.277344 558.236816 326.789185 555.982849 C 346.096771 550.870483 345.170898 523.465576 347.716583 506.420807 C 347.971283 505.841034 348.25592 505.27536 348.498383 504.692078 C 352.570709 495.417755 355.114594 486.189148 357.700684 476.443939 C 360.13916 467.239899 362.860474 459.757568 360.058319 450.165253 Z"/>
        <path id="path2" fill="#f9393e" stroke="none" d="M 510.011078 251.021179 C 490.900269 254.807129 472.734619 261.829224 454.707703 269.069153 C 455.278717 268.510437 455.865448 267.993896 456.432922 267.422974 C 460.914642 262.911438 456.418884 254.483887 450.067932 256.490173 C 429.788818 262.88501 409.133728 267.18396 389.102295 274.627686 C 370.822449 281.421387 352.804352 289.472961 335.427521 298.302795 C 326.176056 303.002319 316.622375 306.927094 307.300598 311.454437 C 299.653107 315.170197 292.811981 320.134979 285.417511 324.291626 C 275.589783 329.815155 265.644318 334.894135 256.020416 340.78833 C 249.492004 344.785126 239.230362 350.357788 231.426498 351.046448 C 221.240372 351.945953 220.860901 367.392029 231.426498 367.209351 C 238.894791 367.081055 246.233093 364.307068 253.487045 362.718903 C 264.25116 360.362976 274.8396 354.574188 285.08548 350.526459 C 294.315857 346.879242 303.129883 342.645264 312.188141 338.646698 C 322.325043 334.173828 333.133118 331.271515 343.343781 326.851349 C 345.348358 325.98172 347.370483 325.136658 349.38205 324.279358 C 343.247162 328.334106 337.107056 332.374847 330.898407 336.294312 C 321.727722 342.084839 312.377869 347.604797 303.280975 353.511261 C 293.328491 359.976471 283.479706 369.862152 270.834045 370.181915 C 264.400513 370.343536 264.384705 380.04303 270.834045 380.187073 C 279.361694 380.38031 287.520416 376.824493 295.043213 373.077179 C 305.615845 367.810181 316.362396 362.982422 327.026337 357.901642 C 348.482544 347.680328 369.019958 336.130951 390.024628 325.071686 C 410.268646 314.412994 431.549133 306.35437 452.625885 297.580719 C 463.324982 293.127197 473.92926 288.490906 484.194397 283.102661 C 495.27829 277.284058 504.666809 269.582092 514.761597 262.278931 C 520.386963 258.204834 517.080627 249.622742 510.011078 251.021179 Z"/>
        <path id="path5" fill="#000000" stroke="none" d="M 330.796692 578.997559 C 327.496674 578.95752 324.036133 578.431396 320.348358 577.261292 C 309.940948 573.956726 299.121613 572.095764 288.82486 568.422241 C 279.09906 564.955994 269.705902 560.519348 259.734161 557.761108 C 250.465149 555.197876 240.750549 554.275513 231.666 551.02887 C 227.449631 549.523315 224.95993 546.717041 221.207352 544.828491 C 219.828232 544.134583 214.873093 543.906555 212.313385 543.054504 C 207.719269 541.527832 205.425934 537.952637 200.55426 536.905579 C 196.025162 535.934021 192.165207 534.813232 187.824081 533.096802 C 178.983719 529.597229 170.741547 527.734863 161.50589 525.78125 C 152.405518 523.859253 146.153595 517.537109 137.685699 514.406494 C 130.41243 511.715027 124.224884 508.664856 119.602676 502.338531 C 117.589355 499.583801 118.733994 496.708893 120.954613 495.046967 C 121.154884 493.994629 121.634094 492.921112 122.508995 491.9039 C 127.347298 486.274994 127.870567 476.274689 130.28093 469.373871 C 133.525787 460.094299 136.728378 450.847382 139.583221 441.436096 C 143.016052 430.118652 146.448868 418.80722 149.688446 407.431763 C 152.599503 397.210571 157.669067 385.917206 157.402039 375.235748 C 157.268509 369.854523 161.418716 364.301941 166.676895 363.051147 C 172.477936 361.675507 177.949631 360.235962 183.109451 357.15271 C 186.98674 354.837219 189.635864 351.503357 193.221542 348.780304 C 201.348648 342.608551 211.623947 339.513275 220.177963 333.689362 C 228.923431 327.735443 237.425583 321.469635 246.060364 315.355865 C 255.754547 308.491882 265.386414 303.987946 276.111816 299.081116 C 284.312683 295.330322 290.972565 289.231049 299.18399 285.373016 C 307.894348 281.281403 316.348114 276.721771 325.032104 272.587921 C 343.47522 263.809021 361.277893 253.779785 379.54541 244.677612 C 396.164948 236.395935 413.299927 228.506897 429.378387 219.237854 C 436.788696 214.96344 441.768829 207.445251 450.189331 204.846924 C 458.595764 202.253845 467.489746 204.020203 476.136932 203.937622 C 515.224609 203.554626 553.612915 210.366638 591.885498 217.302612 C 612.168152 220.977905 632.404297 224.678711 652.458496 229.487183 C 672.888733 234.387024 694.130676 232.445435 714.67511 236.96405 C 719.357056 237.99176 723.236633 242.231567 724.461243 246.750122 C 731.312866 272.088867 713.698486 301.439911 702.809631 323.268463 C 695.987854 336.948883 689.590271 350.656891 682.352112 364.142303 C 675.505737 376.900421 672.646545 390.983368 663.280884 402.202454 C 661.374634 404.482819 659.213806 405.568573 657.059875 405.788177 C 653.31958 408.924133 649.562683 410.713135 645.088013 413.086578 C 640.349854 415.598877 636.498047 419.227875 632.093628 422.261902 C 623.281372 428.328247 613.754761 433.242859 604.97937 439.43222 C 585.564636 453.126709 565.728455 465.675171 545.308838 477.818329 C 508.787842 499.541504 474.511566 523.767395 435.225342 540.371216 C 415.374939 548.758301 395.080048 555.820618 374.679779 562.705627 C 358.860992 568.045044 346.696777 579.190308 330.796692 578.997559 Z M 327.07373 551.492126 C 327.801056 548.551147 328.766327 545.609436 330.408966 542.30304 C 333.630951 535.818604 336.106018 529.641968 338.108826 522.665649 C 342.609802 506.99646 348.266022 491.813385 352.564972 476.054626 C 354.908539 467.479584 358.067719 459.144318 361.187866 450.831055 C 362.863892 446.370453 364.599823 441.927704 366.156403 437.424896 C 366.456818 436.562286 366.755005 435.701996 367.05542 434.841125 C 363.213257 434.235016 358.668213 433.284912 357.763397 433.142609 C 350.641235 432.023529 343.527191 430.777618 336.777496 428.17749 C 324.395355 423.405945 311.659088 416.621368 298.532043 414.843414 C 282.293671 412.64212 266.026123 409.372284 250.184814 405.122498 C 233.554657 400.660126 216.502625 398.558594 199.826828 394.37561 C 192.760849 392.602966 186.132446 390.133057 178.957565 389.022766 C 172.332581 410.204834 164.867218 431.35556 156.726074 451.901611 C 152.769699 461.885681 147.814774 470.885132 142.990524 480.412415 C 140.62056 485.09082 138.894913 490.120636 136.199951 494.542572 C 141.656662 495.16095 147.102509 496.094635 151.95311 498.097412 C 156.148422 499.82962 159.58754 502.755371 163.990173 504.002716 C 168.963745 505.411682 174.311584 505.334595 179.362457 506.483551 C 189.256912 508.73584 198.240448 513.020142 208.243835 514.852539 C 212.704391 515.669434 215.260254 517.61438 219.093658 519.68042 C 222.227844 521.370483 225.171555 520.653564 229.226334 522.171509 C 232.69606 523.469849 234.927872 526.24231 238.058548 527.870972 C 241.793579 529.815796 247.147827 530.196533 251.258804 530.962524 C 259.436829 532.483948 267.454407 533.953125 275.370667 536.57959 C 285.883545 540.068665 296.03479 544.570313 306.911316 546.873535 C 311.313904 547.806458 315.807373 548.312378 320.183655 549.364685 C 322.478058 549.916321 324.767029 550.840332 327.07373 551.492126 Z M 354.078186 541.307983 C 355.733093 540.354004 357.380554 539.499634 359.002106 538.844299 C 367.197754 535.536133 375.737396 533.240417 384.05072 530.262573 C 403.382813 523.335449 423.283813 516.450134 441.758575 507.430603 C 446.514313 505.108002 451.219238 502.668671 455.881866 500.145905 C 457.029114 493.38559 459.814697 487.807556 462.792542 481.702576 C 465.870483 475.392059 466.816833 468.852081 468.893402 462.198975 C 473.287262 448.109192 480.193329 433.853546 486.537231 420.501648 C 489.984161 413.247711 494.524872 406.770813 498.49881 399.83139 C 502.274261 393.241516 502.602386 386.843872 504.441833 379.669006 C 505.650513 374.946655 508.009613 370.537079 510.60791 366.194214 C 493.180237 376.331085 475.934784 386.761353 458.129395 396.286865 C 451.116089 400.037659 445.273895 405.400574 438.395874 409.346436 C 431.433594 413.339752 423.803406 416.149231 416.589874 419.654114 C 410.713257 422.510742 405.186981 425.874268 398.91861 427.813782 C 395.568298 428.850372 392.289612 430.548096 388.981506 432.030853 C 388.51416 435.762421 387.157837 439.473755 385.982544 442.897827 C 382.435486 453.238525 378.221649 463.341034 374.895966 473.762512 C 372.125458 482.441254 370.536743 491.405365 367.817169 500.087585 C 365.2276 508.351715 361.838104 516.342896 359.348663 524.638672 C 357.649811 530.299133 356.179321 535.879395 354.078186 541.307983 Z M 482.265259 484.849091 C 503.891785 471.599091 524.992615 457.289032 546.564697 444.31842 C 563.967773 433.851227 580.240967 422.068909 597.018738 410.684662 C 604.891052 405.343903 613.475281 401.120178 621.017334 395.322662 C 627.656433 390.220825 635.406677 387.478729 641.989563 382.499817 C 643.839478 381.09964 645.734192 380.354126 647.592896 380.108215 C 653.632935 358.889252 665.669006 340.324921 674.748291 319.998413 C 680.138306 307.928986 686.823303 296.491486 691.427917 284.075989 C 692.780701 280.425262 694.504395 276.365936 695.885193 272.189911 C 694.28479 273.421478 692.636597 274.520844 690.992188 275.353577 C 685.338684 278.217163 678.744568 278.535736 672.867981 280.967194 C 665.559509 283.992493 659.320374 288.404541 652.252625 291.8479 C 645.803284 294.989166 639.034607 297.433929 632.618652 300.662964 C 618.057983 307.990753 602.345093 313.932434 588.615417 322.764069 C 574.752258 331.681732 560.611511 339.152893 545.936768 346.656311 C 539.339844 350.031219 532.844788 353.568207 526.395386 357.176727 C 525.961487 358.227356 525.545715 359.281311 525.053772 360.330109 C 521.757996 367.341583 517.265076 374.347748 515.782349 382.005707 C 514.619263 388.014099 515.022278 394.094086 513.047607 399.954926 C 510.763733 406.729218 506.51767 412.844238 503.522247 419.304108 C 496.647766 434.135223 491.104736 451.356079 486.914673 467.167542 C 485.324738 473.156555 484.366455 479.076141 482.265259 484.849091 Z M 384.822754 419.084503 C 386.607697 417.881073 388.561279 417.028778 390.532471 416.092407 C 397.955109 412.566467 404.445648 407.916321 411.508087 403.712219 C 419.253967 399.104065 427.488647 395.20871 434.624878 389.674713 C 440.215118 385.338867 445.539612 381.290985 451.774597 377.894989 C 471.88501 366.944702 491.203369 354.757202 510.844666 343.063721 C 506.805695 342.427734 502.822144 341.577271 499.092407 340.507385 C 490.501495 338.042542 483.181854 332.939453 474.160492 331.774689 C 457.563782 329.631348 441.987091 323.654907 425.425507 320.70871 C 415.973755 319.029175 406.60437 316.921539 397.178925 315.122528 C 388.1875 313.406128 379.143402 313.330048 370.088684 312.144135 C 361.733185 311.049652 353.24765 308.961914 345.057251 306.897644 C 339.842987 305.581818 335.849579 302.743042 331.812378 299.860016 C 325.006439 303.299927 318.200409 306.73999 311.389191 310.174561 C 302.884369 314.463013 295.918457 320.643494 287.085175 324.37677 C 278.480225 328.011658 270.800079 331.700928 263.041962 336.969696 C 247.9104 347.243652 233.715073 359.161133 216.925064 366.58197 C 211.615936 368.925537 207.416016 372.502533 202.987061 375.87738 C 203.594925 376.010895 204.206421 376.148956 204.812531 376.275421 C 223.633423 380.228302 242.428528 382.771759 261.161591 387.344849 C 270.690643 389.670837 280.342896 391.548889 289.994934 393.27417 C 298.058746 394.714722 306.291473 394.354645 313.928345 397.518707 C 328.016388 403.356659 343.119324 410.00708 358.168304 412.637085 C 366.223358 414.044281 378.324219 413.151703 384.822754 419.084503 Z M 544.46814 416.689453 C 543.396973 416.7323 542.274414 416.304138 541.489746 415.629181 C 536.161316 411.043854 540.165222 403.948761 542.289246 398.760834 C 544.931519 392.304504 546.587402 386.18988 551.255249 380.787598 C 555.807251 375.52063 563.071289 383.090332 558.814453 388.346802 C 552.523254 396.117218 553.112854 407.872833 546.69165 415.629181 C 546.105164 416.33783 545.30127 416.656128 544.46814 416.689453 Z M 576.067139 401.951965 C 575.909241 401.956421 575.750061 401.955627 575.590149 401.948517 C 572.301636 401.802216 568.678223 399.236053 568.284912 395.562836 C 567.448608 387.744995 571.220459 380.524323 571.729919 373.015686 C 568.098511 370.403259 570.801636 363.86441 576.001953 364.667297 C 582.127991 365.612457 583.122437 372.139923 582.953796 377.517548 C 582.75177 383.986237 581.859253 390.866028 580.977356 397.281921 C 580.53418 400.498596 578.435303 401.884918 576.067139 401.951965 Z M 587.863953 393.603577 C 586.372131 393.612823 585.406921 392.456909 584.576782 391.283997 C 582.770813 388.734863 583.157532 386.426178 584.127258 383.532654 C 585.715454 378.790955 589.146301 374.304413 589.483582 369.241241 C 589.84375 363.856537 597.837158 362.261383 599.225037 367.920166 C 600.651611 373.737 598.151917 378.467865 595.261902 383.306183 C 593.919739 385.551392 593.278137 388.151642 591.978149 390.330078 C 591.271851 391.514221 590.305664 393.132874 588.536499 393.524658 C 588.300659 393.576904 588.077087 393.602234 587.863953 393.603577 Z M 526.944397 333.709961 C 532.645325 330.477386 538.378113 327.295807 544.210815 324.26355 C 559.804382 316.153992 573.682007 305.436676 589.14386 297.279694 C 603.809875 289.540833 618.958923 282.031189 634.169556 275.432495 C 645.179626 270.657471 655.340088 263.433655 666.571472 259.020508 C 657.381531 258.147339 648.200928 257.041931 639.093506 254.865173 C 616.558594 249.47699 593.533936 246.408142 571.002502 241.08844 C 553.125061 236.86499 534.594055 235.022583 516.310791 233.23761 C 505.565979 232.188782 495.39975 230.15564 484.519623 230.183716 C 479.793732 230.197815 475.056915 230.425537 470.334564 230.211182 C 466.961426 230.06012 461.648743 228.316772 458.551422 229.500916 C 455.417206 230.700806 452.446594 234.74115 449.760406 236.837036 C 446.02182 239.753418 442.150879 242.180359 437.92923 244.344788 C 430.51886 248.144775 423.335266 251.762329 416.184967 256.049011 C 399.56012 266.015503 381.492493 274.56839 364.22113 283.400024 C 358.251404 286.4534 352.270935 289.479553 346.295959 292.51358 C 356.220276 294.101807 366.102051 296.293335 376.035156 297.163025 C 393.591125 298.700256 410.581879 301.465027 427.923523 304.722198 C 444.904999 307.912567 460.668304 314.500214 477.591797 317.188171 C 485.896393 318.505798 492.695221 322.548737 500.362 325.732147 C 508.847534 329.252838 518.030212 331.405029 526.944397 333.709961 Z"/>
    </g>
</svg>
