<?xml version="1.0" encoding="UTF-8"?>
<!-- Generated by Pixelmator Pro 3.4.3 -->
<svg width="742" height="780" viewBox="0 0 742 780" xmlns="http://www.w3.org/2000/svg">
    <path id="path160-copy" fill="#fe5257" stroke="none" d="M 237.65332 101.133301 C 236.466553 102.426514 235.800049 103.040283 235.06665 103.733398 C 236.079834 102.679932 237.226563 101.440186 237.65332 101.133301 Z M 269.079834 79.41333 C 266.386719 81.506836 263.773438 83.693359 261.199951 85.93335 C 261.573486 85.613281 261.93335 85.293213 262.306641 84.973389 L 265.640137 82.106934 C 266.786621 81.213379 267.93335 80.320068 269.079834 79.41333 Z M 717.053223 326.06665 C 716.759766 332.746582 716.679932 339.426514 716.053223 346.080078 C 715.719971 350.47998 715.453369 354.893311 715.06665 359.266846 C 714.613281 363.626709 714.199951 367.973389 713.853271 372.266846 C 713.58667 375.546631 713.106689 378.786865 712.679932 382.040283 L 711.373291 391.800049 C 710.52002 397.47998 709.373291 403.186768 708.439941 408.786865 C 707.466553 414.386719 706.23999 419.76001 705.413086 424.866699 C 701.17334 443.653564 695.946533 462.213379 689.559814 480.34668 C 683.040039 498.440186 675.466553 516.106934 666.840088 533.253418 C 663.093262 540.266602 659.626465 547.159912 655.746582 553.293213 C 653.879883 556.34668 652.053223 559.34668 650.23999 562.293213 C 648.346436 565.120117 646.466553 567.773438 644.666504 570.306885 C 646.840088 567.026611 648.493164 564.41333 649.93335 561.93335 C 651.279785 559.426514 652.599854 556.986816 653.973389 554.440186 C 651.679932 557.400146 649.06665 561.93335 645.879883 566.693359 C 642.746582 571.493164 639.666504 576.920166 636.253418 581.52002 C 634.679932 583.920166 632.293213 587.186768 630.17334 590.186768 C 629.640137 590.946777 629.119873 591.666748 628.640137 592.359863 C 628.133301 593.026611 627.666504 593.65332 627.213135 594.253418 C 626.346436 595.426514 625.706787 596.400146 625.399902 597.040039 C 626.466553 595.82666 627.853271 594.186768 629.253418 592.440186 C 630.599854 590.640137 631.986572 588.773438 633.253418 587.053467 L 632.573242 588.053467 L 629.253418 592.853516 L 625.693115 597.466797 L 618.533203 606.720215 C 617.359863 608.293457 616.079834 609.76001 614.786621 611.23999 L 610.93335 615.679932 C 608.346436 618.613281 605.826416 621.626709 603.17334 624.52002 L 594.986572 633.013428 C 592.253418 635.82666 589.58667 638.720215 586.65332 641.34668 C 580.879883 646.666748 575.359863 652.253418 569.279785 657.199951 C 565.946533 660.106689 562.613281 663.013428 559.279785 665.906738 L 548.733154 674.093506 L 543.439941 678.199951 C 541.626465 679.506592 539.773438 680.76001 537.93335 682.040039 C 534.253418 684.58667 530.559814 687.133301 526.866699 689.679932 C 511.706787 699.280029 496.213135 708.52002 480.06665 716.106689 C 453.813232 729.226807 425.573486 739.160156 396.493164 745.440063 C 394.893066 745.800049 393.293213 746.160034 391.693115 746.520142 C 390.053223 746.800049 388.399902 747.079956 386.733154 747.360107 C 388.399902 747.040039 390.079834 746.760132 391.746582 746.41333 L 396.706787 745.186768 L 396.119873 745.453491 L 409.119873 742.253418 C 409.959717 741.893433 409.279785 741.920044 407.306641 742.280029 C 403.41333 743.093384 399.613281 744.013306 395.840088 745 C 395.573486 745.066772 395.333252 745.146606 395.119873 745.226685 C 393.640137 745.453491 391.746582 745.973389 389.23999 746.360107 C 383.333252 747.400024 377.399902 748.41333 371.573486 749.520142 C 370.666504 749.773315 369.733154 749.93335 368.800049 750.106689 C 369.559814 750.066772 370.320068 750.093384 371.079834 750.013306 C 370.800049 750.106689 370.533203 750.200073 370.266602 750.266724 C 371.706787 750.053467 373.133301 749.773315 374.573486 749.533325 C 373.346436 749.760132 372.119873 749.986816 370.906738 750.213379 C 369.693115 750.41333 368.47998 750.546631 367.279785 750.706665 C 362.253418 751.386719 357.23999 752.066772 352.213135 752.733398 C 349.679932 753.120117 347.119873 753.280029 344.559814 753.493408 C 342 753.680054 339.439941 753.960083 336.840088 754.040039 C 326.47998 754.640015 315.919922 754.546631 305.253418 754.079956 C 302.306641 753.906738 299.359863 753.720093 296.41333 753.546631 C 292.053223 753.106689 287.733154 752.786743 283.386719 752.23999 C 280.47998 751.906738 277.626465 751.573364 274.773438 751.253418 C 261.65332 749.720093 248.293213 747.266724 234.493164 743.520142 C 232.546631 743.066772 230.640137 742.466675 228.733154 741.946655 C 234.306641 743.106689 245.17334 746.17334 252.266602 747.386719 C 252.293213 747.320068 252.373291 747.23999 252.493164 747.186768 L 245.813232 745.640015 C 243.466553 745.093384 241.013184 744.360107 238.41333 743.680054 C 235.746582 742.973389 233.040039 742.333374 230.359863 741.560059 C 226.813232 740.626709 222.840088 739.560059 219.693115 738.640137 C 218.47998 738.186768 216.866699 737.65332 214.800049 737.040039 L 212.640137 736.560059 L 214.973389 737.493408 L 214.186768 737.360107 L 220.426514 739.320068 C 220.613281 739.453369 220.759766 739.573242 220.906738 739.693359 C 218.119873 738.773438 215.386719 737.866699 212.693115 736.973389 C 210.320068 736.120117 207.919922 735.253418 205.52002 734.386719 C 202.973389 733.533447 200.466553 732.533447 198.026611 731.626709 C 195.52002 730.679932 192.973389 729.813232 190.640137 728.840088 L 189.759766 728.493408 C 190.079834 728.600098 190.399902 728.693359 190.733154 728.773438 C 191.213135 728.879883 190.786621 728.600098 189.47998 727.946777 C 187.146484 726.866699 184.813232 725.800049 182.399902 724.679932 C 179.893066 723.493408 177.320068 722.280029 174.719971 721.053467 C 172.186768 719.786865 169.666504 718.52002 167.146484 717.253418 C 164.613281 716.026855 162.199951 714.626709 159.746582 713.34668 C 156.026611 711.41333 152.613281 709.386719 149.52002 707.720215 C 147.733154 706.786865 146.506592 706.213379 145.813232 705.920166 C 145.759766 705.959961 145.840088 706.06665 145.986572 706.213379 C 144.146484 705.06665 142.333252 703.93335 140.52002 702.813232 C 127.826416 694.866699 115.640137 685.986816 103.879883 674.920166 C 101.853271 672.946777 99.719971 671.06665 97.733154 669.026855 C 95.773438 667.026855 93.826416 665.040039 91.866699 663.026855 C 89.613281 660.533447 87.373291 658.053467 85.133301 655.573242 C 83.013184 653.026855 80.893066 650.493408 78.773438 647.946777 C 76.58667 645.080078 74.346436 642.386719 72.279785 639.546631 C 70.959717 637.679932 69.65332 635.82666 68.333252 633.946777 C 67.013184 632.093506 65.906738 630.120117 64.666504 628.213379 C 63.47998 626.293457 62.253418 624.41333 61.199951 622.400146 L 57.93335 616.466797 L 56.293213 613.52002 C 55.773438 612.533447 55.306641 611.52002 54.800049 610.52002 C 53.826416 608.560059 52.866699 606.65332 51.919922 604.76001 C 50.493164 602.106934 49.293213 599.240234 48.026611 596.280029 C 47.186768 594.253418 46.320068 592.213379 45.47998 590.173584 C 44.706787 588.040039 43.93335 585.853516 43.159912 583.706787 C 42.559814 582.013428 41.946533 580.306885 41.346436 578.600098 C 40.746582 576.893311 40.279785 575.120117 39.733154 573.386719 C 39 571 38.266602 568.600098 37.546631 566.213379 C 36.23999 561.293213 34.919922 556.426514 33.719971 551.626709 C 32.93335 548.146729 32.146484 544.693359 31.346436 541.186768 C 30.853271 538.853516 30.47998 536.466797 30.040039 534.093262 L 28.826416 527.053467 C 28.506592 524.693359 28.186768 522.320068 27.866699 519.946777 L 27.466553 517.013428 C 27.786621 518.47998 27.906738 518.373535 27.800049 516.640137 C 27.546631 514.34668 27.359863 511.853516 27.013184 509.199951 L 27.013184 509.199951 C 26.93335 507.653564 26.813232 505.866699 26.640137 503.840088 C 26.266602 500.040283 26.119873 496.280029 25.800049 492.706787 C 25.506592 489.253418 25.226563 485.93335 24.946533 482.440186 C 24.93335 482.159912 24.893066 481.93335 24.853271 481.733398 C 24.826416 480.240234 24.733154 478.58667 24.599854 476.773438 C 24.506592 475.93335 24.426514 475.453369 24.373291 475.320068 L 24.359863 474.546631 C 24.333252 472.373535 24.306641 470.133301 24.279785 467.893311 C 24.23999 465.493408 24.186768 463.080078 24.146484 460.653564 C 24.106689 456.920166 24.06665 453.199951 24.026611 449.466797 C 23.986572 447.080078 23.959717 444.813232 23.93335 442.573486 C 23.879883 441.373535 23.840088 440.226563 23.800049 439.080078 C 23.800049 438.266846 23.800049 437.453369 23.800049 436.613281 L 23.693115 436.400146 C 23.679932 435.866699 23.666504 435.34668 23.640137 434.800049 C 23.640137 434.159912 23.626465 433.506836 23.626465 432.853516 C 23.693115 432.840088 23.773438 432.640137 23.853271 432.213379 C 24.013184 430.746582 24.146484 428.560059 24.23999 425.76001 L 24.266602 423.853516 C 24.346436 424.266846 24.439941 423.946777 24.546631 422.76001 C 24.679932 420.693359 24.813232 418.400146 24.866699 415.840088 C 24.853271 413.853516 24.786621 412.560059 24.679932 411.880127 C 24.559814 411.666748 24.41333 412.093262 24.253418 413.186768 L 24.159912 414.786865 L 24.093262 413.880127 C 24.013184 413.506836 23.919922 413.640137 23.813232 414.173584 L 23.946533 412.359863 L 23.959717 408.866699 C 23.946533 408.866699 23.93335 408.840088 23.919922 408.82666 L 23.959717 407.82666 L 24.079834 405.306885 C 24.093262 405.34668 24.106689 405.333496 24.119873 405.359863 L 23.959717 408.866699 C 24 410.560059 24.119873 410.679932 24.320068 408.906738 C 24.52002 406.679932 24.65332 404.226563 24.733154 401.546631 C 24.733154 401.546631 24.706787 401.666748 24.679932 401.813232 C 24.719971 401.41333 24.759766 401.026611 24.800049 400.600098 C 25.079834 396.040283 25.373291 391.986816 25.306641 388.959961 C 25.226563 388.920166 25.133301 389.080078 25.040039 389.41333 C 24.973389 389.06665 24.879883 389.386719 24.800049 390.040283 L 24.853271 388.866699 C 24.946533 386.786865 25.093262 384.76001 25.279785 382.76001 C 25.573486 379.813232 25.879883 377.58667 26.17334 375.080078 L 26.199951 374.946777 C 26.23999 374.920166 26.293213 374.880127 26.346436 374.813232 L 26.386719 374.453369 C 26.306641 376.093262 26.226563 377.706787 26.133301 379.306885 C 26.079834 380.773438 26.053223 382.013428 26.053223 383.053467 C 25.906738 384.240234 25.759766 385.786865 25.666504 387.746582 C 25.52002 391.573486 25.386719 395.199951 25.373291 398.159912 C 25.399902 401.013428 25.453369 403.400146 25.599854 404.706787 C 25.733154 405.040283 25.879883 404.546631 26.06665 403.186768 C 26.386719 398.82666 26.666504 392.76001 27.119873 389.133301 L 27.213135 387.400146 C 27.346436 386.573486 27.426514 385.693359 27.493164 384.746582 C 27.626465 384.306885 27.786621 383.440186 27.973389 381.959961 L 27.973389 382.080078 C 28.439941 378.560059 28.706787 373.93335 29.146484 369.533447 C 29.439941 366.493408 29.626465 363.679932 29.813232 361.133301 C 30.306641 356.880127 30.719971 352.600098 31.266602 348.34668 C 31.493164 346.386719 31.719971 344.41333 31.946533 342.426514 L 32 341.906738 C 32.079834 341.373535 32.159912 340.840088 32.226563 340.293213 C 32.559814 337.666748 33.026611 335.106934 33.41333 332.47998 C 33.826416 329.959961 34.146484 327.453369 34.613281 324.959961 C 35.053223 322.533447 35.47998 320.146729 35.906738 317.720215 C 36.293213 315.34668 36.786621 313.026611 37.23999 310.706787 C 37.693115 308.41333 38.093262 306.280029 38.426514 304.306885 L 38.453369 304.06665 C 39.23999 300.986816 40.093262 297.720215 40.919922 294.199951 C 40.719971 295.106934 40.533203 296 40.333252 296.893311 C 40.159912 298.226563 40.226563 298.573486 40.546631 297.880127 L 41.439941 294.720215 C 41.759766 293.373535 42.079834 292.040283 42.466553 290.720215 C 43.199951 288 43.853271 285.440186 44.439941 283.013428 C 45.506592 278.893311 46.800049 274.866699 47.973389 270.786865 C 48.439941 268.82666 48.359863 268.733398 47.733154 270.240234 C 47 272.359863 46.213135 274.706787 45.386719 277.306885 C 45.053223 278.373535 44.733154 279.41333 44.41333 280.453369 C 45.373291 277.226563 46.346436 274 47.320068 270.746582 C 48.053223 268.320068 48.93335 265.946777 49.719971 263.546631 C 50.306641 261.786865 50.893066 260.053467 51.466553 258.320068 C 51.306641 258.893311 51.146484 259.453369 50.986572 260 C 50.919922 260.613281 51.133301 260.386719 51.65332 259.293213 C 52.053223 258.173584 52.533203 257.093262 52.973389 255.986816 L 54.386719 252.373535 C 55.320068 249.93335 56.119873 247.58667 57.013184 245.466797 L 59.426514 239.693359 L 60.640137 236.800049 L 61.959717 233.986816 L 64.733154 228.226563 C 64.693115 228.080078 64.640137 227.959961 64.573486 227.853516 L 62.986572 230.893311 L 61.919922 233.453369 C 61.800049 233.640137 61.640137 233.893311 61.41333 234.293213 C 60.466553 235.973389 59.546631 237.946777 58.559814 240.159912 C 57.826416 241.866699 57.093262 243.560059 56.346436 245.266846 L 57.17334 243.266846 C 58.559814 239.986816 59.840088 236.626709 61.373291 233.506836 C 62.320068 231.440186 63.186768 229.506836 63.959717 227.720215 C 64.133301 227.293213 64.293213 226.906738 64.453369 226.506836 L 65.133301 225.34668 C 65.786621 224.106934 66.439941 222.853516 67.093262 221.613281 C 67.973389 219.733398 68.466553 218.533447 68.559814 218.040283 C 68.47998 218.040283 68.320068 218.186768 68.119873 218.440186 L 69.41333 215.693359 L 67.706787 218.906738 C 68.466553 217.400146 69.253418 215.853516 70.040039 214.280029 C 71.013184 212.47998 72.053223 210.76001 72.973389 209.093262 C 74.466553 206.52002 75.893066 203.76001 77.65332 201.080078 C 78.866699 199.199951 80.106689 197.293213 81.320068 195.426514 C 82.559814 193.453369 83.800049 191.52002 85.053223 189.746582 C 86.213135 188.013428 87.199951 186.506836 87.906738 185.333496 C 88 185.146729 88.093262 184.973389 88.186768 184.800049 C 88.959717 183.786865 89.759766 182.733398 90.613281 181.613281 C 91.786621 180.146729 92.973389 178.666748 94.159912 177.186768 C 94.346436 176.986816 94.546631 176.76001 94.759766 176.52002 C 96.279785 174.76001 97.679932 172.893311 99.119873 171.026611 L 98.613281 171.560059 C 99.666504 170.320068 100.706787 169.093262 101.746582 167.866699 C 103.279785 166.053467 104.786621 164.240234 106.293213 162.453369 C 109.826416 158.359863 113.41333 154.386719 111.93335 155.359863 C 113.359863 152.199951 127.853271 139.34668 130.146484 136.359863 C 133.06665 133.533447 136.17334 130.893311 139.23999 128.226563 L 140.813232 126.600098 L 140.786621 126.613281 C 141.826416 125.773438 142.919922 124.893311 144.119873 123.906738 L 149.853271 119.34668 C 151.773438 117.82666 153.493164 116.306885 155.226563 115 L 160.599854 110.573486 C 161.159912 110.240234 161.813232 109.813232 162.599854 109.280029 C 166.23999 106.786865 170.226563 104.333496 174.266602 101.626709 C 178.359863 99 182.706787 96.41333 187.093262 93.640137 C 189.573486 92.199951 192.053223 90.746582 194.533203 89.306885 C 197 87.840088 199.47998 86.386719 202.013184 85.040283 C 204.373291 83.720215 206.640137 82.453369 208.919922 81.173584 C 210.919922 79.973389 212.41333 79.213379 213.399902 78.560059 L 217.266602 76.640137 L 217.17334 76.426514 L 213.426514 78.280029 C 213.333252 78.226563 213.453369 78.06665 214.893066 77.280029 C 217.573486 75.880127 220.559814 74.280029 223.573486 72.866699 C 225.893066 71.813232 228.279785 70.706787 230.573486 69.653564 C 231.973389 69.013428 233.346436 68.373535 234.706787 67.746582 C 234.320068 67.946777 233.946533 68.146729 233.559814 68.34668 C 232.693115 68.986816 233.65332 68.773438 235.293213 68.266846 C 236.359863 67.959961 237.533203 67.613281 238.959717 67.146729 C 240.506592 66.626709 242.320068 65.973389 244.439941 65.173584 C 246.599854 64.320068 248.826416 63.453369 251.199951 62.626709 C 252.359863 62.186768 253.506592 61.76001 254.65332 61.333496 C 260.879883 58.893311 267.253418 56.906738 273.573486 54.746582 C 274.373291 54.440186 275.426514 54.080078 276.65332 53.679932 C 276.573486 53.76001 276.52002 53.82666 276.493164 53.880127 C 276.666504 53.773438 276.853271 53.653564 277.013184 53.560059 C 277.386719 53.440186 277.759766 53.320068 278.146484 53.199951 C 278.093262 53.240234 278.040039 53.266846 277.986572 53.306885 C 275.733154 54.920166 273.426514 56.546631 271.013184 58.280029 C 268.599854 60.053467 266.093262 61.893311 263.640137 63.693359 C 261.266602 65.58667 258.946533 67.440186 256.826416 69.199951 C 254.706787 70.946777 252.906738 72.720215 251.399902 74.240234 C 252.293213 73.693359 253.906738 72.440186 256.253418 70.546631 C 257.959717 69.173584 259.599854 67.880127 261.17334 66.679932 C 266.493164 62.106934 272.733154 57.359863 279.506592 52.76001 C 281.426514 52.173584 283.573486 51.533447 285.813232 50.893311 C 273.866699 58.693359 262.466553 67.293213 251.58667 76.493408 C 239.439941 86.773438 227.800049 99.41333 218.013184 110.800049 C 206.093262 125.466797 194.840088 142.280029 187.719971 158.440186 C 191.266602 152.746582 197.040039 141.026611 202.399902 133.493408 C 203.58667 131.560059 204.906738 129.706787 206.186768 127.840088 C 207.493164 125.973389 208.719971 124.06665 210.106689 122.253418 C 212.439941 119.400146 214.52002 116.440186 216.719971 113.653564 C 217.306641 113.026611 218.040039 112.226563 218.93335 111.199951 C 227.386719 100.82666 236.599854 91.080078 246.453369 82.026611 C 250.320068 78.626709 249.47998 79.853516 253.026611 76.986816 L 258.346436 72.58667 L 261.946533 69.666748 C 262.23999 69.41333 262.52002 69.173584 262.813232 68.93335 C 263.786621 68.146729 264.759766 67.373535 265.746582 66.58667 L 268.773438 64.333496 C 270.813232 62.853516 272.786621 61.320068 274.786621 59.946777 C 278.826416 57.226563 282.599854 54.640137 286.026611 52.813232 L 289.133301 50.733398 C 290 50.226563 290.866699 49.746582 291.746582 49.266846 C 292.813232 48.986816 293.879883 48.706787 294.919922 48.453369 C 295.746582 48.226563 296.546631 48.013428 297.333252 47.813232 L 292.693115 50.613281 C 290.719971 51.853516 288.773438 53.159912 286.813232 54.440186 C 287.106689 54.34668 287.320068 54.280029 287.47998 54.266846 C 288.946533 53.373535 290.439941 52.453369 291.959717 51.52002 C 292.346436 51.373535 292.399902 51.426514 292.213135 51.653564 C 290.786621 52.52002 289.359863 53.386719 287.959717 54.226563 C 284.119873 56.546631 280.533203 59.173584 276.866699 61.706787 C 274.386719 63.41333 272.119873 65.240234 269.906738 66.920166 C 268.640137 68 267.866699 68.720215 267.599854 69.093262 C 266.679932 69.853516 265.879883 70.546631 265.199951 71.173584 C 265.386719 71.133301 265.533203 71.120117 265.65332 71.133301 C 267.266602 69.866699 268.973389 68.600098 270.733154 67.34668 C 280.533203 60.640137 292.333252 52.546631 304.053223 46.013428 C 304.106689 46 304.159912 45.986816 304.213135 45.973389 C 305.666504 45.533447 306.293213 45.213379 305.719971 45.080078 C 306.47998 44.666748 307.226563 44.293213 307.986572 43.893311 C 308.893066 43.679932 309.800049 43.466797 310.679932 43.253418 C 298.333252 49.786865 287.879883 56.693359 278.146484 64.013428 C 276.346436 65.133301 274.559814 66.533447 272.640137 67.986816 L 272.599854 67.986816 C 270.373291 69.573486 268.320068 71.133301 266.47998 72.746582 L 261.41333 76.946777 C 239.733154 94.533447 221.106689 115.47998 207.279785 138.253418 C 206.65332 139.546631 206.866699 139.47998 207.959717 138.013428 C 215.093262 127.800049 224.359863 114.946777 233.640137 105.159912 L 233.666504 105.133301 C 233.506592 105.320068 233.346436 105.506836 233.159912 105.720215 C 230.386719 108.853516 227.493164 112.013428 224.919922 115.386719 C 217.119873 125.186768 209.373291 136.06665 203.399902 146.76001 C 202.320068 148.813232 201.040039 150.920166 199.853271 153.159912 C 198.679932 155.386719 197.466553 157.679932 196.253418 159.959961 C 194 164.58667 191.759766 169.173584 190.293213 173.320068 C 190.426514 173.253418 190.546631 173.199951 190.65332 173.173584 C 196.386719 160.453369 203.626465 146.880127 212.093262 134.600098 C 220.493164 122.280029 229.879883 111.159912 238.706787 102.693359 C 246.133301 95.386719 255.879883 86.093262 265.333252 78.666748 C 263.599854 80.106934 261.626465 81.986816 259.58667 83.773438 C 258.58667 84.679932 257.58667 85.573486 256.613281 86.453369 C 255.706787 87.333496 254.840088 88.186768 254.013184 89 C 253.186768 89.76001 252.373291 90.533447 251.559814 91.280029 C 249.893066 92.786865 248.306641 94.373535 246.773438 95.946777 C 244.346436 98.373535 241.986572 100.786865 239.93335 103.173584 C 237.826416 105.560059 236.079834 107.560059 234.826416 109.306885 C 234.106689 110.306885 233.640137 111.026611 233.546631 111.34668 C 233.65332 111.386719 234.053223 111.093262 234.719971 110.47998 C 233.079834 112.493408 231.453369 114.373535 230.053223 116.226563 C 228.533203 118.293213 227.466553 119.82666 226.906738 120.786865 L 227.613281 120.306885 C 229.146484 118.679932 230.759766 116.653564 232.840088 114.41333 C 240 106.240234 247.573486 98.186768 255.706787 90.82666 C 257.17334 89.440186 258.693115 88.093262 260.23999 86.76001 C 257.493164 89.186768 254.800049 91.666748 252.159912 94.159912 C 249.973389 96.253418 248.159912 98.266846 246.533203 100 C 245.306641 101.600098 246.146484 101.026611 247.840088 99.533447 C 249.546631 98.040283 252.093262 95.573486 254.493164 93.573486 C 254.159912 93.959961 253.826416 94.333496 253.493164 94.693359 C 253.47998 94.733398 253.47998 94.733398 253.466553 94.76001 C 252.866699 95.320068 252.253418 95.853516 251.679932 96.440186 C 250.293213 97.853516 248.906738 99.280029 247.506592 100.720215 L 247.506592 100.720215 L 247.506592 100.720215 C 245.853271 102.333496 244.293213 104 242.733154 105.693359 C 242.800049 105.746582 242.826416 105.82666 242.800049 105.973389 C 244.373291 104.280029 245.93335 102.58667 247.599854 100.973389 C 249.679932 99 251.65332 96.920166 253.800049 95.013428 C 254.119873 94.813232 254.573486 94.506836 255.146484 94.080078 C 251.919922 96.76001 248.759766 100.06665 245.386719 103.58667 L 243.706787 105.653564 C 244.23999 105.666748 241.719971 108.440186 238.879883 111.746582 C 236.079834 115.093262 232.853271 118.893311 231.706787 120.76001 L 231.119873 121.600098 C 232.41333 120.186768 233.800049 118.41333 235.533203 116.506836 C 237.986572 113.693359 240.399902 110.840088 243 108.159912 C 244.719971 106.359863 246.346436 104.47998 248.146484 102.76001 C 249.946533 100.959961 251.533203 99.320068 252.93335 97.813232 C 254.546631 96.240234 256.226563 94.720215 257.866699 93.173584 C 258.426514 92.653564 258.959717 92.106934 259.47998 91.546631 C 259.599854 91.41333 259.65332 91.333496 259.666504 91.306885 L 259.773438 91.213379 C 262.773438 88.733398 265.853271 86.06665 269.106689 83.466797 C 272.199951 81.06665 275.186768 78.653564 278.41333 76.386719 C 280.613281 74.773438 282.386719 73.306885 283.93335 72.146729 C 293.373291 65.613281 303.146484 59.906738 313.373291 54.58667 C 323.613281 49.266846 334.346436 44.373535 345.959717 39.800049 C 355.373291 35.959961 365.773438 32.840088 376.06665 30.253418 C 378.386719 30.093262 380.800049 29.93335 383.41333 29.866699 C 401.346436 29.560059 389.47998 28.679932 391.800049 28.06665 C 392.946533 27.773438 391.439941 27.533447 388.599854 27.333496 C 389.320068 27.173584 390.053223 27.013428 390.759766 26.853516 C 402.93335 24.986816 416.599854 23.240234 429.986572 22.733398 C 453.746582 21.800049 478.226563 23.800049 500.41333 28.920166 C 502.426514 29.426514 504.52002 29.920166 506.65332 30.400146 C 508.773438 30.853516 510.946533 31.34668 513.119873 31.893311 L 520.266602 33.679932 L 527.386719 35.693359 C 533.146484 37.47998 538.866699 39.373535 544.506592 41.506836 C 546.47998 42.186768 548.466553 42.853516 550.413086 43.626709 C 556.613281 46.106934 562.733154 48.786865 568.746582 51.679932 L 568.159912 51.266846 L 574.013184 54.226563 C 606.893066 70.600098 636.719971 93.266846 659.47998 121.47998 C 659.626465 121.733398 659.746582 121.959961 659.893066 122.226563 C 669.079834 133.986816 677.359863 146.866699 684.293213 160.333496 C 692.013184 175.293213 698.213135 191.080078 703.026367 207.386719 C 707.706787 223.266846 711.079834 239.613281 713.333252 256.213379 C 713.759766 258.880127 714.06665 261.58667 714.346436 264.280029 C 714.65332 266.959961 714.959717 269.640137 715.279785 272.320068 C 715.573242 275.866699 715.879883 279.41333 716.17334 282.959961 C 716.47998 286.493408 716.58667 290.06665 716.799805 293.626709 C 716.986572 296.746582 717.013184 299.880127 717.079834 303.026611 C 717.119873 306.159912 717.23999 309.293213 717.186523 312.440186 C 717.146484 316.973389 717.266602 321.52002 717.053223 326.06665 Z M 546.320068 677.546631 L 546.17334 677.640137 C 546.279785 677.546631 546.386719 677.466797 546.493164 677.386719 C 546.439941 677.426758 546.373291 677.493408 546.320068 677.546631 Z M 407.093262 766.533325 C 406.693115 766.613281 406.293213 766.693359 405.879883 766.786743 C 403.866699 767.253418 401.879883 767.706665 399.919922 768.160034 C 397.946533 768.600098 396.013184 769.120117 394.053223 769.426758 C 390.159912 770.133423 386.373291 770.866699 382.706787 771.626709 C 382.546631 771.773315 382.053223 771.960083 381.306641 772.160034 C 381.159912 772.17334 381.053223 772.17334 380.893066 772.186768 C 380.386719 772.106689 379.079834 772.213379 377.226563 772.440063 C 376.23999 772.586792 375.199951 772.720093 374.079834 772.880005 C 372.879883 773 371.613281 773.120117 370.279785 773.253418 C 382.719971 770.986816 397.159912 768.813354 410.386719 765.373413 C 408.559814 765.920044 407.346436 766.320068 407.093262 766.533325 Z M 174 721.733398 C 168.986572 719.23999 163.906738 716.706787 158.946533 713.82666 C 161.226563 714.946777 163.573486 716.280029 166.06665 717.493408 C 168.559814 718.746582 171.119873 720.040039 173.706787 721.34668 C 178.93335 723.813232 184.199951 726.333496 189.17334 728.253418 C 184.106689 726.34668 179.079834 724.06665 174 721.733398 Z M 26.959717 512.946777 L 26.693115 510.359863 C 26.733154 510.626709 26.786621 510.893311 26.840088 511.146729 C 27 512.986816 27.159912 514.840088 27.41333 516.666748 C 27.23999 515.426514 27.079834 514.199951 26.959717 512.946777 Z M 112.333252 153.359863 C 113.866699 151.653564 115.506592 149.986816 117.133301 148.373535 C 120.493164 145.013428 123.746582 141.613281 127.119873 138.493408 C 129.533203 136.213379 131.826416 133.880127 134.306641 131.666748 C 135.866699 130.306885 137.426514 128.93335 138.986572 127.560059 L 139.613281 127.146729 C 138.93335 127.720215 138.293213 128.306885 137.679932 128.920166 C 137.439941 129.146729 137.426514 129.199951 137.506592 129.159912 L 135.293213 131.013428 C 132.906738 132.973389 130.853271 135.040283 128.906738 136.920166 C 126.466553 139.280029 123.919922 141.533447 121.58667 144 C 120.186768 145.400146 118.786621 146.786865 117.359863 148.186768 C 116.47998 149.080078 115.58667 149.959961 114.706787 150.840088 C 113.853271 151.76001 113 152.679932 112.146484 153.58667 C 111.359863 154.440186 110.58667 155.280029 109.813232 156.120117 Z M 144.466553 122.866699 C 146.159912 121.466797 147.826416 120.106934 149.466553 118.746582 L 152.919922 115.866699 C 154.079834 114.920166 155.279785 114.026611 156.466553 113.093262 C 158.013184 111.906738 159.559814 110.706787 161.199951 109.453369 C 162.853271 108.226563 164.279785 107.173584 165.800049 106.053467 C 165.879883 106 166.733154 105.573486 166.733154 105.573486 C 166.733154 105.573486 165.146484 106.600098 164.906738 106.746582 C 161.93335 108.880127 159.693115 110.733398 159.06665 111.440186 C 159.359863 111.306885 159.800049 111.06665 160.346436 110.733398 L 154.213135 115.173584 C 154.213135 115.173584 153.559814 115.653564 152.93335 116.186768 C 152.293213 116.706787 151.65332 117.226563 151.65332 117.226563 L 149.079834 119.226563 L 143.973389 123.293213 C 143.279785 123.82666 142.626465 124.386719 141.973389 124.959961 C 142.786621 124.226563 143.626465 123.546631 144.466553 122.866699 Z M 262.293213 56.453369 C 264.93335 55.546631 267.533203 54.640137 270.17334 53.720215 C 272.693115 52.813232 275.199951 52.06665 277.693115 51.306885 C 278.893066 50.920166 280.079834 50.533447 281.226563 50.159912 C 281.213135 50.173584 281.199951 50.186768 281.186768 50.199951 C 280.399902 50.733398 279.719971 51.213379 279.133301 51.640137 C 277.333252 52.06665 275.279785 52.573486 272.879883 53.253418 C 270.053223 54.159912 267.23999 55.06665 264.333252 56 C 259.320068 57.560059 254.559814 59.533447 249.813232 61.293213 C 253.893066 59.706787 257.946533 57.973389 262.293213 56.453369 Z M 282.199951 50.41333 C 281.986572 50.533447 281.786621 50.679932 281.573486 50.82666 C 281.533203 50.840088 281.47998 50.853516 281.439941 50.866699 C 281.693115 50.706787 281.93335 50.560059 282.199951 50.41333 Z M 285.640137 48.733398 L 285.599854 49.040283 L 286.040039 48.880127 C 287.47998 48.58667 288.919922 48.253418 290.346436 47.853516 L 289.613281 48.146729 L 290.279785 48.026611 C 290.093262 48.146729 289.893066 48.280029 289.693115 48.400146 C 288.640137 48.679932 287.58667 48.946777 286.533203 49.226563 C 285.386719 49.58667 284.306641 49.93335 283.266602 50.266846 C 284.053223 49.746582 284.840088 49.240234 285.640137 48.733398 Z M 289.093262 47.560059 C 289.919922 47.226563 290.546631 46.946777 290.879883 46.733398 C 291.026611 46.640137 291.213135 46.546631 291.426514 46.440186 L 292.879883 46.06665 L 293.253418 45.920166 C 293.493164 45.853516 293.733154 45.786865 293.973389 45.720215 C 293.266602 46.159912 292.573486 46.58667 291.893066 47.013428 L 287.186768 48.213379 C 287.840088 47.986816 288.466553 47.773438 289.093262 47.560059 Z M 301.053223 45.533447 C 301 45.560059 300.959717 45.58667 300.906738 45.613281 C 300.573486 45.679932 300.23999 45.746582 299.866699 45.813232 L 299.52002 45.893311 L 299.58667 45.853516 C 300.106689 45.746582 300.559814 45.640137 301.053223 45.533447 Z M 302.253418 43.41333 L 304.893066 42.746582 L 305.053223 42.706787 C 305.093262 42.706787 305.119873 42.706787 305.17334 42.693359 C 305.746582 42.58667 306.253418 42.47998 306.786621 42.373535 L 305.386719 43.120117 C 304.47998 43.613281 303.613281 44.080078 302.759766 44.560059 C 302.373291 44.640137 302 44.720215 301.613281 44.800049 C 300.47998 45.093262 299.546631 45.34668 298.840088 45.600098 L 298.840088 45.58667 L 299.386719 45.400146 C 298.973389 45.493408 298.533203 45.613281 298.106689 45.706787 C 299.47998 44.93335 300.853271 44.173584 302.253418 43.41333 Z M 310.959717 42.333496 L 311.41333 42.040283 L 311.466553 42.013428 L 311.466553 42.013428 L 310.959717 42.333496 L 315.133301 40.52002 C 315.559814 40.440186 315.973389 40.359863 316.386719 40.280029 C 316.439941 40.280029 316.47998 40.266846 316.52002 40.253418 C 314.959717 41.026611 313.41333 41.813232 311.919922 42.58667 C 311.65332 42.679932 311.47998 42.76001 311.399902 42.813232 L 309.666504 43.040283 C 309.626465 43.053467 309.599854 43.053467 309.559814 43.06665 C 310.026611 42.82666 310.493164 42.573486 310.959717 42.333496 Z M 322.746582 33.120117 C 323.706787 32.920166 324.65332 32.720215 325.58667 32.52002 C 324.679932 32.920166 323.773438 33.306885 322.853271 33.706787 C 322.800049 33.720215 322.733154 33.76001 322.679932 33.773438 C 321.893066 33.920166 321.119873 34.06665 320.346436 34.213379 C 321.146484 33.840088 321.946533 33.493408 322.746582 33.120117 Z M 327.079834 32.213379 C 326.493164 32.47998 325.893066 32.733398 325.306641 33.013428 C 324.93335 33.173584 324.573486 33.34668 324.199951 33.52002 C 324.159912 33.52002 324.106689 33.533447 324.06665 33.533447 C 325 33.106934 325.946533 32.679932 326.893066 32.253418 C 326.959717 32.240234 327.013184 32.226563 327.079834 32.213379 Z M 327.119873 22.106934 C 326.840088 22.173584 326.573486 22.240234 326.293213 22.306885 C 325.93335 22.359863 325.58667 22.400146 325.213135 22.440186 C 325.840088 22.333496 326.47998 22.226563 327.119873 22.106934 Z M 372.666504 15.973389 C 375.213135 15.373535 377.693115 14.733398 380.213135 14.280029 C 379.65332 14.466797 379.466553 14.573486 379.693115 14.600098 C 377.58667 15 375.52002 15.573486 373.439941 16.080078 C 373.053223 16.146729 372.65332 16.226563 372.226563 16.320068 C 371.946533 16.333496 371.679932 16.34668 371.399902 16.34668 C 371.333252 16.34668 371.266602 16.34668 371.199951 16.34668 C 371.693115 16.226563 372.17334 16.106934 372.666504 15.973389 Z M 383.93335 14.080078 L 384.17334 14.040283 L 377.58667 15.41333 L 381.159912 14.613281 C 382.106689 14.426514 383.013184 14.253418 383.93335 14.080078 Z M 394.786621 14.560059 C 397.093262 14.146729 399.359863 13.733398 401.599854 13.440186 L 404.706787 13 L 403.693115 13.159912 C 402.106689 13.453369 401.320068 13.666748 401.17334 13.786865 C 398.786621 13.986816 396.279785 14.41333 393.640137 14.813232 L 391.093262 15.199951 Z M 397.800049 11.47998 L 397.973389 11.34668 C 398.800049 11.240234 399.640137 11.199951 400.47998 11.106934 C 403.599854 10.82666 406.813232 10.533447 410.320068 10.213379 C 413.506592 9.946777 416.706787 9.693359 419.973389 9.426514 L 419.133301 9.493408 L 412.58667 10.120117 C 411.306641 10.226563 410.093262 10.333496 408.919922 10.426514 C 407.759766 10.560059 406.640137 10.679932 405.52002 10.813232 C 403.293213 11.040283 401.106689 11.280029 398.840088 11.52002 C 397.853271 11.666748 396.853271 11.82666 395.853271 11.973389 Z M 11.133301 553.986816 L 11.133301 553.986816 Z M 739.373291 284.41333 C 738.866699 276.893311 738.426514 268.093262 737.266602 263.240234 C 735.599854 248.240234 733.159912 233.293213 729.719971 218.533447 C 726.213135 203.800049 721.719971 189.253418 716.146484 175.106934 C 711.973389 164.133301 706.719971 153.573486 701.199951 143.199951 L 696.759766 135.573486 C 696.013184 134.306885 695.293213 133.013428 694.52002 131.76001 L 692.106689 128.06665 L 687.266602 120.679932 L 682.053223 113.52002 C 667.799805 94.693359 650.973389 77.920166 632.266602 63.706787 C 626.65332 59.41333 620.866699 55.333496 614.973389 51.466797 C 610.893066 48.786865 606.959717 46.546631 603.853271 44.720215 C 600.666504 43.040283 598.253418 41.866699 597.093262 41.52002 C 603.506592 45.546631 613.266602 51.546631 621.253418 57.213379 L 623.413086 58.800049 C 612.559814 51.666748 601.626465 44.560059 590.213135 38.213379 L 585.040039 35.853516 C 584.959717 35.773438 584.879883 35.706787 584.773438 35.613281 C 574.959717 30.280029 563.706787 25.333496 551.853271 21.093262 C 539.866699 16.706787 527.493164 12.920166 515.053223 9.946777 C 502.613281 7.026611 490.093262 4.93335 477.879883 3.786865 C 473.41333 3.373535 469.58667 3.013428 465.506592 2.640137 C 461.41333 2.173584 457.293213 2.013428 453.146484 1.82666 C 450.306641 1.653564 447.466553 1.706787 444.613281 1.640137 L 440.373291 1.58667 L 436.146484 1.693359 C 433.986572 1.773438 431.853271 1.840088 429.746582 1.920166 C 429.199951 1.93335 428.559814 1.946777 427.706787 1.973389 L 428.453369 1.813232 L 421.266602 2.306885 L 421.746582 2.253418 C 418.866699 2.47998 418.093262 2.626709 419.41333 2.666748 C 418.41333 2.746582 417.41333 2.866699 416.399902 2.973389 C 412.466553 3.400146 408.52002 3.693359 404.733154 4.333496 C 403.853271 4.466797 403.040039 4.600098 402.226563 4.733398 C 402.266602 4.679932 401.65332 4.706787 400.359863 4.82666 C 398.919922 5.026611 397.47998 5.199951 396.040039 5.466797 C 394.679932 5.58667 392.813232 5.840088 390.359863 6.226563 C 389.013184 6.493408 387.666504 6.720215 386.333252 7.026611 C 373.58667 9.880127 359.986572 13.013428 347.386719 17.493408 C 346.133301 17.613281 344.879883 17.746582 343.58667 17.880127 C 347.079834 16.653564 347.146484 15.880127 343.573486 15.52002 C 339.986572 15.106934 332.800049 15.359863 321.826416 16.34668 C 317.17334 16.893311 312.93335 17.440186 308.879883 18.026611 C 304.866699 18.720215 301.053223 19.506836 297.213135 20.320068 C 293.373291 21.093262 289.573486 22.226563 285.533203 23.34668 C 283.506592 23.920166 281.426514 24.506836 279.279785 25.173584 C 277.17334 25.880127 274.946533 26.626709 272.58667 27.426514 C 252.159912 33.853516 232.23999 41.800049 213.06665 51.199951 C 210.866699 52.199951 208.719971 53.333496 206.546631 54.386719 L 200.17334 57.546631 C 196.640137 59.266846 193.359863 61.080078 190.159912 62.800049 C 186.946533 64.47998 183.93335 66.306885 180.973389 68.120117 C 178.026611 69.959961 175.053223 71.653564 172.186768 73.58667 C 169.266602 75.493408 166.359863 77.400146 163.41333 79.320068 C 159.439941 81.920166 155.559814 84.666748 151.626465 87.333496 C 139.679932 95.800049 129.879883 104.226563 118.213135 114.040283 C 109.453369 122.093262 100.879883 130.386719 92.93335 139.266846 C 70.506592 163.920166 51.399902 191.866699 37.613281 222.440186 C 37.040039 223.52002 36.466553 224.600098 35.946533 225.706787 C 35.466553 226.82666 35.013184 227.973389 34.58667 229.120117 C 28.320068 243.679932 23.06665 258.840088 18.973389 273.786865 C 13.399902 294.47998 9.079834 316.106934 6.333252 337.546631 C 3.573486 358.986816 2.06665 380.199951 1.626465 400.120117 C 1.306641 404.053467 0.959717 405.666748 0.666504 410.266846 C 0.133301 419.746582 -0.013428 428.426514 0.133301 436.466797 C -0.120117 438.546631 -0.173584 443.573486 -0.080078 449.453369 L 0.079834 463.453369 C 0.226563 468.120117 0.306641 472.786865 0.52002 477.466797 L 0.746582 480 C 0.746582 480 0.946533 481.080078 0.959717 481.093262 C 1.079834 481.440186 1.159912 481.106934 1.213135 480.106934 C 1.439941 483.359863 1.679932 486.426514 1.93335 489.213379 C 2.186768 491.600098 2.466553 493.34668 2.693115 494.453369 C 2.759766 495.773438 2.826416 497.133301 2.893066 498.58667 C 3.013184 500.41333 3.106689 502.266846 3.266602 504.133301 C 3.079834 502.426514 2.946533 500.720215 2.786621 499.026611 C 2.666504 498.76001 2.546631 498.560059 2.439941 498.426514 C 2.719971 503.173584 3.253418 507.906738 3.719971 512.65332 C 3.879883 514.973389 4.079834 517.386719 4.533203 519.866699 L 4.559814 519.120117 L 5.52002 526.173584 L 5.52002 526.173584 C 5.853271 528.493164 6.106689 530.82666 6.533203 533.133301 C 6.666504 533.213379 6.773438 533.199951 6.879883 533.106934 C 6.41333 530.800049 6.119873 528.453369 5.759766 526.133301 L 5.759766 526.133301 C 5.506592 523.920166 5.213135 521.733398 4.866699 519.573486 L 4.866699 519.573486 C 4.706787 518.280029 4.546631 517 4.439941 515.706787 C 5.06665 520.959961 5.866699 526.146729 6.626465 531.199951 C 7.306641 534.866699 8 538.47998 8.693115 542.159912 C 8.973389 543.853516 9.320068 545.546631 9.693115 547.226563 L 9.279785 546.879883 L 10.866699 554.720215 L 10.813232 553.946777 L 11.506592 557.34668 C 11.506592 557.34668 11.679932 558.186768 11.906738 559 C 12.133301 559.82666 12.346436 560.65332 12.346436 560.65332 C 12.466553 560.800049 12.58667 560.973389 12.706787 561.173584 C 12.093262 558.800049 11.599854 556.386719 11.133301 553.986816 C 11.133301 553.986816 11.146484 554.040039 11.17334 554.120117 C 11.640137 556.333496 12.093262 558.560059 12.693115 560.746582 C 13.333252 563.240234 13.973389 565.733398 14.599854 568.226563 C 15.47998 571.959961 16.733154 575.600098 17.826416 579.240234 C 18.613281 581.640137 19.253418 584 20.133301 586.253418 C 20.946533 588.373535 21.759766 590.58667 22.613281 592.986816 C 23.346436 595.120117 23.946533 597.240234 24.813232 599.373535 C 25.986572 602.373535 27.133301 605.333496 28.306641 608.34668 C 29.106689 610.493408 30.106689 612.640137 31.17334 614.82666 C 32.23999 616.986816 33.266602 619.080078 34.293213 621.146729 C 34.626465 621.800049 34.946533 622.41333 35.266602 623.040039 L 35.41333 623.386719 C 36.373291 625.280029 37.333252 626.906738 38.17334 628.333496 C 38.946533 629.93335 40 631.840088 41.333252 634.080078 L 41.106689 633.560059 L 41.266602 633.306641 C 41.426514 633.600098 41.58667 633.879883 41.759766 634.17334 C 41.786621 634.213379 42.159912 634.893311 42.559814 635.613281 C 42.946533 636.333496 43.41333 637.026855 43.41333 637.026855 C 43.41333 637.026855 45.106689 639.773438 45.146484 639.840088 C 46.93335 642.813232 48.546631 645.65332 50.466553 648.453369 C 51.853271 650.52002 53.253418 652.693359 54.759766 654.813232 C 56.41333 657.013428 58.079834 659.23999 59.746582 661.466797 C 61.493164 663.82666 63.439941 666.026855 65.279785 668.293457 C 67.119873 670.573242 69.06665 672.720215 71.026611 674.813232 C 73 676.906738 74.746582 678.879883 76.493164 680.453369 C 78.65332 682.439941 78.17334 681.613281 79.906738 683.133301 C 79.946533 683.360107 80.626465 684.226807 82.506592 686.23999 C 84.759766 688.426758 86.853271 690.373291 88.613281 691.946777 C 91.399902 694.82666 94.599854 697.506592 97.800049 700.41333 C 101.093262 703.199951 104.559814 705.986816 108.146484 708.746582 C 112.386719 711.866699 116.506592 714.920166 120.759766 717.679932 C 122.17334 718.640137 123.599854 719.58667 125 720.533447 C 126.439941 721.426758 127.866699 722.320068 129.279785 723.199951 C 131.466553 724.533447 133.52002 725.853516 135.52002 726.946777 C 135.159912 726.840088 135.186768 726.959961 135.719971 727.373291 C 137.373291 728.58667 139.973389 730.280029 143.426514 732.426758 C 145.866699 733.786865 148.23999 735.053467 150.546631 736.266602 C 152.773438 737.466797 155.133301 738.640137 157.506592 739.800049 C 159.879883 740.946655 162.226563 742.17334 164.546631 743.213379 C 166.719971 744.146606 168.786621 745.040039 170.840088 745.93335 C 172.640137 746.706665 174.399902 747.426758 176.159912 748.066772 C 179.013184 749.160034 181.866699 750.400024 184.746582 751.666748 C 187.466553 752.826782 190.253418 754.026733 193.533203 755.373413 C 194.759766 755.880005 196.053223 756.306641 197.293213 756.746704 C 198.559814 757.200073 199.893066 757.666748 201.17334 758.106689 L 202.666504 758.613281 C 203.679932 758.973389 204.666504 759.333374 205.679932 759.626709 C 209.493164 760.773315 213.23999 761.946655 217.079834 763.040039 C 220.359863 763.906738 223.626465 764.773315 226.893066 765.640015 L 236.719971 767.920044 C 240.466553 768.760132 244.186768 769.41333 247.93335 770.17334 C 250.386719 770.680054 252.906738 771.053467 255.466553 771.533325 C 258.013184 771.986816 260.546631 772.493408 263.106689 772.839966 C 263.946533 772.960083 264.773438 773.093384 265.613281 773.213379 L 265.599854 773.213379 C 262.879883 772.826782 260.133301 772.47998 257.52002 772 C 254.840088 771.573364 252.17334 771.146606 249.613281 770.733398 C 245.706787 770.026733 241.559814 769.23999 237.266602 768.333374 C 233.013184 767.306641 228.533203 766.373413 224.026611 765.079956 C 221.226563 764.306641 218.493164 763.573364 215.719971 762.813354 C 213.666504 762.186768 211.626465 761.573364 209.58667 760.946655 C 209.453369 760.906738 209.346436 760.866699 209.213135 760.813354 C 207.333252 760.200073 205.493164 759.680054 203.773438 759.079956 C 202.733154 758.720093 201.693115 758.34668 200.65332 757.986816 C 198.146484 757.079956 195.613281 756.253418 193.119873 755.306641 C 189.493164 753.906738 185.826416 752.626709 182.226563 751.146606 C 179.813232 750.133423 177.386719 749.106689 174.973389 748.093384 C 172.506592 747.066772 170.106689 745.880005 167.679932 744.786743 C 165.226563 743.653442 162.746582 742.506714 160.346436 741.280029 C 157.893066 740.053467 155.453369 738.840088 153.040039 737.640137 C 150.679932 736.41333 148.546631 735.320068 146.693115 734.426758 C 146.386719 734.293457 146.093262 734.17334 145.813232 734.053467 C 144.706787 733.426758 143.573486 732.840088 142.493164 732.17334 C 142.453369 732.23999 142.47998 732.320068 142.533203 732.426758 C 143.279785 732.920166 144.106689 733.400146 144.959717 733.893311 C 144.959717 733.906738 144.946533 733.906738 144.959717 733.920166 C 145.466553 734.360107 146.266602 734.946777 147.426514 735.720215 C 147.053223 735.986816 149.719971 737.720215 153.573486 739.82666 C 157.47998 741.839966 162.466553 744.426758 166.773438 746.280029 C 205.919922 764.213379 249.626465 775.546631 291.453369 778.373413 C 302.973389 779.146606 315.013184 779.720093 326.800049 779.466675 C 329.746582 779.47998 332.666504 779.266724 335.573486 779.17334 C 338.466553 779.066772 341.333252 778.920044 344.159912 778.653442 C 346.973389 778.41333 349.759766 778.226685 352.47998 777.893433 C 355.106689 777.520142 357.746582 777.133423 360.41333 776.746704 L 368.693115 775.746704 C 371.453369 775.400024 374.23999 775.160034 376.973389 774.600098 C 382.453369 773.626709 387.946533 772.653442 393.439941 771.680054 C 396.199951 771.253418 398.906738 770.573364 401.626465 769.93335 L 409.773438 768.013306 L 417.93335 766.079956 C 420.626465 765.34668 423.293213 764.520142 425.959717 763.733398 C 447.493164 757.800049 468.253418 749.506714 488.06665 739.959961 C 492.386719 738.040039 496.626465 736.026855 500.733154 733.840088 C 505.386719 731.360107 509.973389 728.746582 514.58667 726.213379 C 516.879883 724.920166 519.213135 723.679932 521.47998 722.333496 L 528.17334 718.160156 L 534.866699 713.973389 C 537.093262 712.560059 539.373291 711.253418 541.493164 709.693359 L 554.413086 700.679932 L 557.640137 698.41333 L 560.746582 696.013428 L 566.973389 691.186768 C 571.106689 687.959961 575.306641 684.813232 579.226563 681.306641 L 591.146484 671.053467 L 602.573242 660.226807 C 617.533203 645.533447 631.813232 630.040039 644.439941 613.146729 C 646.053223 611.06665 647.693115 609.013428 649.266602 606.893311 L 653.826416 600.440186 C 656.813232 596.106934 660 591.879883 662.759766 587.386719 C 665.58667 582.93335 668.506592 578.533447 671.266602 574.026611 C 673.93335 569.453369 676.613281 564.879883 679.279785 560.306885 C 679.893066 559.293213 680.47998 558.280029 681.026367 557.226563 C 682.719971 554.106934 684.359863 551.080078 686 548.053467 C 687.226563 545.786865 688.106689 544.026611 688.640137 542.76001 C 691.213135 536.82666 694.186523 530.34668 697.333252 523.746582 C 698.773438 520.41333 700.253418 517.013428 701.719971 513.626709 C 703.17334 510.240234 704.706787 506.906738 705.919922 503.52002 C 706.853271 501.173584 707.813232 498.733398 708.773438 496.199951 L 711.573242 488.626709 C 712.413086 486.06665 713.266602 483.506836 714.106689 480.93335 C 715 478.280029 715.906738 475.58667 716.799805 472.93335 C 718.213135 468.679932 719.373291 464.306885 720.626465 460.026611 C 721.773438 456.080078 722.93335 452.133301 723.813232 448.226563 C 723.679932 448.840088 723.559814 449.466797 723.466553 450.106934 C 723.52002 450.240234 723.58667 450.280029 723.693115 450.213379 C 724.893066 445.666748 725.213135 443.946777 724.973389 444 L 724.946533 444.240234 C 724.65332 445.053467 724.399902 445.880127 724.17334 446.720215 C 724.573242 445.026611 724.973389 443.34668 725.359863 441.679932 C 725.893066 439.426514 726.346436 437.440186 726.706787 435.706787 C 727.213135 434.280029 727.599854 432.253418 728.079834 429.58667 C 729.040039 425.026611 730 420.440186 730.946533 415.866699 C 731.746582 411.266846 732.546631 406.679932 733.333252 402.106934 C 734.213135 397.560059 734.786621 392.986816 735.47998 388.47998 C 736.106689 383.973389 736.946533 379.533447 737.439941 375.106934 C 737.58667 373.013428 737.786621 370.746582 738.026367 368.293213 C 738.253418 365.866699 738.466553 363.493408 738.693115 361.133301 C 738.866699 358.093262 738.679932 357.053467 738.813232 353.82666 L 739.453369 343.506836 C 739.706787 340.06665 739.693115 336.613281 739.826416 333.173584 C 740.52002 316.959961 740.359863 300.679932 739.373291 284.41333"/>
    <g id="eraser-copy">
        <path id="path3" fill="#fe5257" stroke="none" d="M 639.553467 254.996521 C 625.969604 242.927063 602.635376 247.283997 585.704773 246.164917 C 575.877014 245.516663 566.418213 243.831787 556.590515 243.700073 C 552.082458 238.155518 546.253296 234.541687 536.634644 234.211426 C 527.358582 233.891663 517.804932 235.237366 508.43222 236.808044 C 504.409058 236.374084 500.410492 235.901428 496.506836 235.102112 C 486.845978 233.120422 477.727997 230.546692 467.798431 229.286987 C 460.941467 228.417358 454.147797 227.765564 447.31723 227.173523 C 445.794037 224.143005 442.689728 221.834534 439.212952 222.040039 C 432.450897 222.438843 426.497009 220.919189 419.706818 222.642639 C 412.219208 224.543518 404.842255 228.417358 397.895782 231.801025 C 383.70755 238.710632 369.060822 244.819153 354.96579 251.834167 C 341.179901 258.69812 326.255585 263.118347 312.754333 270.514618 C 299.228455 277.923157 286.88147 287.181702 273.251953 294.454987 C 246.337265 308.813568 220.416946 324.022522 194.774185 340.448853 C 170.884781 355.752655 147.901886 372.483002 124.404236 388.319092 C 123.926376 388.584381 123.452019 388.886566 122.989975 389.259003 C 122.533203 389.62616 122.076408 389.996857 121.619644 390.367554 C 118.202621 393.127563 118.596146 397.431763 120.764069 400.56601 C 118.692757 404.053284 116.937698 407.839264 115.35479 411.702545 C 113.727943 415.179321 112.115173 418.670166 110.228348 422.030975 C 105.51123 430.430389 101.345802 438.780609 97.377106 447.561279 C 93.656143 455.795532 88.719414 462.849243 86.669205 471.82663 C 85.209259 478.230316 81.813301 485.612518 82.38781 492.200653 C 83.253922 502.151367 89.629471 508.542725 99.632874 509.445709 C 105.307442 509.95874 110.272255 507.8013 115.598976 509.417603 C 123.761215 511.891205 131.798752 515.143127 140.047073 517.61853 C 155.373688 522.219604 170.731934 526.808472 186.065567 531.616943 C 202.815201 536.868103 220.009338 540.032166 236.787109 545.223633 C 245.892792 548.041626 254.720871 549.540161 264.058441 551.224976 C 272.580811 552.762207 280.367126 556.398865 289.267242 553.744263 C 296.43689 551.607971 302.185242 546.270691 308.460632 542.430298 C 316.420868 537.558594 324.516357 532.918823 332.697906 528.431824 C 333.655396 527.906494 334.618134 527.398804 335.577362 526.877014 C 341.45575 525.19397 347.327087 523.495117 353.038513 521.349976 C 370.151825 514.918274 387.681549 508.504059 404.404816 501.239532 C 424.1604 492.662689 443.093811 482.425598 461.624908 471.489349 C 478.525635 461.515808 496.661407 452.856323 513.124695 442.322357 C 529.18042 432.048401 544.682739 421.512665 560.406372 410.785461 C 568.320923 405.386719 576.60437 401.056152 584.539978 396.156342 C 591.110596 392.099823 599.573242 387.823639 605.086182 382.405609 C 611.871033 375.733154 614.026672 366.998138 616.473938 358.105072 C 619.03717 348.785065 621.649597 339.480865 624.395508 330.210022 C 627.208252 320.705597 630.440796 311.708862 634.757324 302.798157 C 637.018372 298.13028 639.667664 293.38681 640.81488 288.284973 C 641.271606 285.864075 641.517639 283.422058 641.615967 280.967773 C 641.85321 280.540894 642.185242 279.88031 642.645508 278.921021 C 646.710815 271.638977 646.127502 260.836243 639.553467 254.996521 Z M 253.795013 463.458832 C 252.52832 466.696716 249.771851 462.339752 255.007233 461.232941 C 254.534622 461.965515 254.090164 462.706879 253.795013 463.458832 Z M 279.017853 514.313843 C 277.15213 514.008179 275.293365 513.640991 273.431152 513.314209 C 277.157379 512.593994 280.76944 511.613647 284.309418 510.403198 C 282.538544 511.789337 280.655243 513.277344 279.017853 514.313843 Z"/>
        <path id="path4" fill="#fe5257" stroke="none" d="M 625.653381 269.212769 C 616.902649 270.273895 612.320801 274.133698 605.184509 278.50119 C 599.539795 281.953339 593.462952 284.477936 587.479187 287.290588 C 580.934937 290.366821 574.824707 294.163361 568.189087 297.039276 C 559.549011 300.784851 550.416992 303.920807 542.260071 308.673065 C 534.071411 313.44635 527.574646 320.940979 519.004883 324.974701 C 511.979248 328.281036 504.532043 330.761719 497.3396 333.658722 C 489.221252 336.929932 482.176331 342.268951 474.532318 346.495911 C 466.419312 350.984619 458.395813 355.54715 450.500641 360.418793 C 434.83844 370.088409 420.204041 382.681396 403.608978 390.747009 C 386.999908 398.819672 370.234436 404.792908 354.468567 414.75943 C 347.47464 419.181366 340.234711 423.945923 334.8237 430.289795 C 329.05426 437.055389 327.126984 444.602722 325.26828 453.093536 C 323.729279 460.11908 321.949615 467.012939 319.981964 473.836456 C 318.478088 477.652313 317.141174 481.599915 315.88327 485.586151 C 315.572296 486.45932 315.261353 487.337738 314.952148 488.216156 C 309.161652 502.063477 300.762207 516.253418 297.889771 530.808777 C 295.30722 543.893677 310.303558 553.668701 320.559937 544.006104 C 324.623535 540.17981 327.33432 535.313293 329.549652 530.142944 C 329.9151 530.246582 330.278748 530.35376 330.660004 530.431091 C 350.194214 534.424377 367.687012 520.11322 383.942963 511.093628 C 386.156616 509.865601 388.352661 508.605927 390.536407 507.330505 C 392.024414 506.896545 393.52301 506.483673 395.007507 506.032166 C 403.575623 503.435577 412.449371 501.43631 420.836487 498.302124 C 436.008514 492.634552 450.367126 488.073853 464.727448 480.168091 C 479.952209 471.787964 495.045166 462.850952 508.997894 452.45932 C 517.056519 446.456177 522.98584 439.954163 529.888428 432.847809 C 536.116394 426.435303 542.502502 420.600922 546.548462 412.470306 C 546.817261 411.929169 547.022827 411.391571 547.195007 410.852234 C 547.660522 410.528992 548.145386 410.235596 548.605713 409.900024 C 556.866394 407.607391 564.884521 404.221954 570.993042 398.496429 C 574.420654 395.279694 577.688354 391.644806 580.854126 387.825409 C 584.706848 385.502899 588.477051 383.060883 591.865967 380.121674 C 593.158997 378.995575 594.392273 377.799164 595.586914 376.562347 C 606.358093 368.920166 615.544617 360.116638 618.504822 350.501495 C 619.551941 348.883453 620.509399 347.230255 621.321045 345.527893 C 623.114746 341.763 622.589539 337.239136 620.228271 334.215607 C 621.625 331.973938 623.028748 329.739227 624.3797 327.467651 C 631.069763 316.230896 638.57666 304.108765 642.773743 291.67041 C 646.138062 281.675781 636.886597 267.849548 625.653381 269.212769 Z M 563.303406 345.80368 C 560.613708 346.93512 557.929199 348.082306 555.271118 349.291046 C 556.312988 348.484619 557.363525 347.688782 558.44574 346.926331 C 560.94574 345.164246 563.559875 343.681427 566.233826 342.330444 C 565.260498 343.495209 564.281921 344.647705 563.303406 345.80368 Z"/>
        <path id="path1" fill="#f9393e" stroke="none" d="M 308.058319 449.165253 C 307.988068 448.9263 307.896729 448.708466 307.817627 448.473053 C 307.638458 447.146637 307.371399 445.814941 306.991913 444.485046 C 300.375702 421.261505 273.53656 417.391174 253.245148 413.766815 C 240.817291 411.546204 228.779465 410.270721 216.147827 410.608002 C 213.818253 410.669495 211.557236 410.694122 209.304947 410.702911 C 204.471924 410.003662 198.835983 409.091919 195.260849 406.874725 C 189.213821 402.194519 182.775009 398.060699 175.958511 394.752594 C 165.596695 389.726318 155.804123 385.481781 144.128189 384.903809 C 134.48671 384.425964 122.524414 383.206696 114.189987 388.76355 C 110.274025 391.375977 107.793373 396.064972 107.468361 400.724121 C 100.969826 404.436249 97.071426 412.452728 96.739365 419.597748 C 96.438965 426.001404 97.688072 432.83371 98.729874 439.528992 C 98.20282 441.313995 97.66346 443.097137 97.083702 444.875031 C 92.540535 458.787415 81.511131 473.606293 81.999535 488.741394 C 82.166435 493.85733 85.297112 498.641174 89.548645 501.676971 C 92.192688 512.119629 100.370743 515.385559 110.180901 517.239014 C 109.694267 517.140625 109.991158 517.175781 110.560379 517.307495 C 110.994308 517.386597 111.424751 517.469177 111.86219 517.544739 C 111.336906 517.455139 110.945114 517.384888 110.649971 517.330383 C 111.166489 517.453369 111.853401 517.641357 112.376938 517.875 C 114.887459 518.99408 117.485825 520.136108 120.070114 521.06189 C 124.627357 522.695801 129.346191 523.714722 134.103714 524.568542 C 143.961288 526.339417 154.096481 527.114197 163.567551 530.573364 C 180.784531 536.862854 200.004288 541.62915 218.141815 544.311829 C 227.542664 545.701538 235.857758 549.302979 245.012619 551.817017 C 253.450653 554.130737 266.277344 557.236816 274.789185 554.982849 C 294.096771 549.870483 293.170898 522.465576 295.716583 505.420807 C 295.971283 504.841034 296.25592 504.27536 296.498383 503.692078 C 300.570709 494.417755 303.114594 485.189148 305.700684 475.443939 C 308.13916 466.239899 310.860474 458.757568 308.058319 449.165253 Z"/>
        <path id="path2" fill="#f9393e" stroke="none" d="M 458.011078 250.021179 C 438.900269 253.807129 420.734619 260.829224 402.707703 268.069122 C 403.278717 267.510437 403.865448 266.993896 404.432922 266.422974 C 408.914642 261.911438 404.418884 253.483887 398.067932 255.490173 C 377.788818 261.88501 357.133728 266.18396 337.102295 273.627686 C 318.822449 280.421387 300.804352 288.472961 283.427521 297.302795 C 274.176056 302.002319 264.622375 305.927094 255.300613 310.454437 C 247.653122 314.170197 240.811981 319.134979 233.417496 323.291626 C 223.589783 328.815155 213.644333 333.894135 204.020401 339.78833 C 197.492004 343.785126 187.230362 349.357788 179.426498 350.046448 C 169.240372 350.945953 168.860901 366.392029 179.426498 366.209351 C 186.894791 366.081055 194.233093 363.307068 201.487045 361.718903 C 212.25116 359.362976 222.839615 353.574188 233.085464 349.526459 C 242.315872 345.879242 251.129898 341.645264 260.188141 337.646698 C 270.325043 333.173828 281.133118 330.271515 291.343781 325.851349 C 293.348358 324.98172 295.370483 324.136658 297.38205 323.279358 C 291.247162 327.334106 285.107056 331.374847 278.898407 335.294312 C 269.727722 341.084839 260.377869 346.604797 251.280975 352.511261 C 241.328506 358.976471 231.479721 368.862152 218.83403 369.181915 C 212.400513 369.343536 212.384689 379.04303 218.83403 379.187073 C 227.361679 379.38031 235.520416 375.824493 243.043198 372.077179 C 253.615829 366.810181 264.362396 361.982422 275.026337 356.901642 C 296.482544 346.680328 317.019958 335.130951 338.024628 324.071686 C 358.268646 313.412994 379.549133 305.35437 400.625885 296.580719 C 411.324982 292.127197 421.92926 287.490906 432.194397 282.102661 C 443.27829 276.284058 452.666809 268.582092 462.761566 261.278931 C 468.386963 257.204834 465.080597 248.622742 458.011078 250.021179 Z"/>
        <path id="path5" fill="#000000" stroke="none" d="M 278.796692 577.997559 C 275.496674 577.95752 272.036133 577.431396 268.348358 576.261292 C 257.940948 572.956726 247.121597 571.095764 236.824844 567.422241 C 227.099075 563.955994 217.705902 559.519348 207.734161 556.761108 C 198.465149 554.197876 188.750549 553.275513 179.666 550.02887 C 175.449631 548.523315 172.95993 545.717041 169.207352 543.828491 C 167.828232 543.134583 162.873093 542.906555 160.313385 542.054504 C 155.719269 540.527832 153.425934 536.952637 148.55426 535.905579 C 144.025162 534.934021 140.165207 533.813232 135.824081 532.096802 C 126.983719 528.597229 118.741547 526.734863 109.505898 524.78125 C 100.405518 522.859253 94.153595 516.537109 85.685707 513.406494 C 78.412437 510.715027 72.224884 507.664856 67.602676 501.338531 C 65.589355 498.583801 66.733994 495.708893 68.954613 494.046967 C 69.154884 492.994629 69.634094 491.921112 70.508995 490.9039 C 75.347298 485.274994 75.870567 475.274689 78.28093 468.373871 C 81.525787 459.094299 84.728378 449.847382 87.583221 440.436096 C 91.016052 429.118652 94.448868 417.80722 97.688446 406.431763 C 100.599503 396.210571 105.669067 384.917206 105.402046 374.235748 C 105.268517 368.854523 109.418709 363.301941 114.676888 362.051147 C 120.477936 360.675507 125.949638 359.235962 131.109451 356.15271 C 134.98674 353.837219 137.635864 350.503357 141.221542 347.780304 C 149.348648 341.608551 159.623947 338.513275 168.177963 332.689362 C 176.923431 326.735443 185.425583 320.469635 194.060364 314.355865 C 203.754547 307.491882 213.386414 302.987946 224.111832 298.081116 C 232.312683 294.330322 238.97258 288.231049 247.18399 284.373016 C 255.894348 280.281403 264.348114 275.721771 273.032104 271.587921 C 291.47522 262.809021 309.277893 252.779785 327.54541 243.677612 C 344.164948 235.395935 361.299927 227.506897 377.378387 218.237854 C 384.788696 213.96344 389.768829 206.445251 398.189331 203.846924 C 406.595764 201.253845 415.489746 203.020203 424.136932 202.937622 C 463.224609 202.554626 501.612946 209.366638 539.885498 216.302612 C 560.168152 219.977905 580.404297 223.678711 600.458496 228.487183 C 620.888733 233.387024 642.130676 231.445435 662.67511 235.96405 C 667.357056 236.99176 671.236633 241.231567 672.461243 245.750122 C 679.312866 271.088867 661.698486 300.439911 650.809631 322.268463 C 643.987854 335.948883 637.590271 349.656891 630.352112 363.142303 C 623.505737 375.900421 620.646545 389.983368 611.280884 401.202454 C 609.374634 403.482819 607.213806 404.568573 605.059875 404.788177 C 601.31958 407.924133 597.562683 409.713135 593.088013 412.086578 C 588.349854 414.598877 584.498047 418.227875 580.093628 421.261902 C 571.281372 427.328247 561.754761 432.242859 552.97937 438.43222 C 533.564636 452.126709 513.728455 464.675171 493.308807 476.818329 C 456.787842 498.541504 422.511566 522.767395 383.225342 539.371216 C 363.374939 547.758301 343.080048 554.820618 322.679779 561.705627 C 306.860992 567.045044 294.696777 578.190308 278.796692 577.997559 Z M 275.07373 550.492126 C 275.801056 547.551147 276.766327 544.609436 278.408966 541.30304 C 281.630951 534.818604 284.106018 528.641968 286.108826 521.665649 C 290.609802 505.99646 296.266022 490.813385 300.564972 475.054626 C 302.908539 466.479584 306.067719 458.144318 309.187866 449.831055 C 310.863892 445.370453 312.599823 440.927704 314.156403 436.424896 C 314.456818 435.562286 314.755005 434.701996 315.05542 433.841125 C 311.213257 433.235016 306.668213 432.284912 305.763397 432.142609 C 298.641235 431.023529 291.527191 429.777618 284.777496 427.17749 C 272.395355 422.405945 259.659088 415.621368 246.532043 413.843414 C 230.293671 411.64212 214.026138 408.372284 198.184814 404.122498 C 181.554657 399.660126 164.502625 397.558594 147.826828 393.37561 C 140.760849 391.602966 134.132446 389.133057 126.957565 388.022766 C 120.332573 409.204834 112.867226 430.35556 104.726074 450.901611 C 100.769699 460.885681 95.814774 469.885132 90.990517 479.412415 C 88.62056 484.09082 86.894913 489.120636 84.199944 493.542572 C 89.656662 494.16095 95.102501 495.094635 99.953117 497.097412 C 104.148422 498.82962 107.587532 501.755371 111.990166 503.002716 C 116.963745 504.411682 122.311584 504.334595 127.362457 505.483551 C 137.256912 507.73584 146.240448 512.020142 156.243835 513.852539 C 160.704391 514.669434 163.260254 516.61438 167.093658 518.68042 C 170.227844 520.370483 173.171555 519.653564 177.226334 521.171509 C 180.69606 522.469849 182.927872 525.24231 186.058548 526.870972 C 189.793579 528.815796 195.147827 529.196533 199.258804 529.962524 C 207.436829 531.483948 215.454422 532.953125 223.370667 535.57959 C 233.88353 539.068665 244.034775 543.570313 254.911316 545.873535 C 259.313904 546.806458 263.807373 547.312378 268.183655 548.364685 C 270.478058 548.916321 272.767029 549.840332 275.07373 550.492126 Z M 302.078186 540.307983 C 303.733093 539.354004 305.380554 538.499634 307.002106 537.844299 C 315.197754 534.536133 323.737396 532.240417 332.05072 529.262573 C 351.382813 522.335449 371.283813 515.450134 389.758575 506.430603 C 394.514313 504.108002 399.219238 501.668671 403.881866 499.145905 C 405.029114 492.38559 407.814697 486.807556 410.792542 480.702576 C 413.870483 474.392059 414.816833 467.852081 416.893402 461.198975 C 421.287262 447.109192 428.193329 432.853546 434.537231 419.501648 C 437.984161 412.247711 442.524872 405.770813 446.49881 398.83139 C 450.274261 392.241516 450.602386 385.843872 452.441833 378.669006 C 453.650513 373.946655 456.009613 369.537079 458.60791 365.194214 C 441.180237 375.331085 423.934784 385.761353 406.129395 395.286865 C 399.116089 399.037659 393.273895 404.400574 386.395874 408.346436 C 379.433594 412.339752 371.803406 415.149231 364.589874 418.654114 C 358.713257 421.510742 353.186981 424.874268 346.91861 426.813782 C 343.568298 427.850372 340.289612 429.548096 336.981506 431.030853 C 336.51416 434.762421 335.157837 438.473755 333.982544 441.897827 C 330.435486 452.238525 326.221649 462.341034 322.895966 472.762512 C 320.125458 481.441254 318.536743 490.405365 315.817169 499.087585 C 313.2276 507.351715 309.838104 515.342896 307.348663 523.638672 C 305.649811 529.299133 304.179321 534.879395 302.078186 540.307983 Z M 430.265259 483.849091 C 451.891785 470.599091 472.992615 456.289032 494.564667 443.31842 C 511.967804 432.851227 528.240967 421.068909 545.018738 409.684662 C 552.891052 404.343903 561.475281 400.120178 569.017334 394.322662 C 575.656433 389.220825 583.406677 386.478729 589.989563 381.499817 C 591.839478 380.09964 593.734192 379.354126 595.592896 379.108215 C 601.632935 357.889252 613.669006 339.324921 622.748291 318.998413 C 628.138306 306.928986 634.823303 295.491486 639.427917 283.075989 C 640.780701 279.425262 642.504395 275.365936 643.885193 271.189911 C 642.28479 272.421478 640.636597 273.520844 638.992188 274.353577 C 633.338684 277.217163 626.744568 277.535736 620.867981 279.967194 C 613.559509 282.992493 607.320374 287.404541 600.252625 290.8479 C 593.803284 293.989166 587.034607 296.433929 580.618652 299.662964 C 566.057983 306.990753 550.345093 312.932434 536.615417 321.764069 C 522.752258 330.681732 508.611481 338.152893 493.936737 345.656311 C 487.339813 349.031219 480.844757 352.568207 474.395386 356.176727 C 473.961487 357.227356 473.545715 358.281311 473.053741 359.330109 C 469.757965 366.341583 465.265106 373.347748 463.782349 381.005707 C 462.619293 387.014099 463.022247 393.094086 461.047577 398.954926 C 458.763733 405.729218 454.51767 411.844238 451.522247 418.304108 C 444.647766 433.135223 439.104736 450.356079 434.914673 466.167542 C 433.324738 472.156555 432.366455 478.076141 430.265259 483.849091 Z M 332.822754 418.084503 C 334.607697 416.881073 336.561279 416.028778 338.532471 415.092407 C 345.955109 411.566467 352.445648 406.916321 359.508087 402.712219 C 367.253967 398.104065 375.488647 394.20871 382.624878 388.674713 C 388.215118 384.338867 393.539612 380.290985 399.774597 376.894989 C 419.88501 365.944702 439.203369 353.757202 458.844666 342.063721 C 454.805695 341.427734 450.822144 340.577271 447.092407 339.507385 C 438.501495 337.042542 431.181854 331.939453 422.160492 330.774689 C 405.563782 328.631348 389.987091 322.654907 373.425507 319.70871 C 363.973755 318.029175 354.60437 315.921539 345.178925 314.122528 C 336.1875 312.406128 327.143402 312.330048 318.088684 311.144135 C 309.733185 310.049652 301.24765 307.961914 293.057251 305.897644 C 287.842987 304.581818 283.849579 301.743042 279.812378 298.860016 C 273.006439 302.299927 266.200409 305.73999 259.389191 309.174561 C 250.884384 313.463013 243.918472 319.643494 235.085175 323.37677 C 226.480225 327.011658 218.800079 330.700928 211.041946 335.969696 C 195.9104 346.243652 181.715073 358.161133 164.925064 365.58197 C 159.615936 367.925537 155.416016 371.502533 150.987061 374.87738 C 151.594925 375.010895 152.206421 375.148956 152.812531 375.275421 C 171.633423 379.228302 190.428528 381.771759 209.161591 386.344849 C 218.690628 388.670837 228.342896 390.548889 237.994934 392.27417 C 246.058746 393.714722 254.291458 393.354645 261.928345 396.518707 C 276.016388 402.356659 291.119324 409.00708 306.168304 411.637085 C 314.223358 413.044281 326.324219 412.151703 332.822754 418.084503 Z M 492.46814 415.689453 C 491.396973 415.7323 490.274414 415.304138 489.489746 414.629181 C 484.161285 410.043854 488.165222 402.948761 490.289246 397.760834 C 492.931519 391.304504 494.587402 385.18988 499.25528 379.787598 C 503.807251 374.52063 511.071289 382.090332 506.814453 387.346802 C 500.523254 395.117218 501.112854 406.872833 494.69162 414.629181 C 494.105164 415.33783 493.301239 415.656128 492.46814 415.689453 Z M 524.067139 400.951965 C 523.909241 400.956421 523.750061 400.955627 523.590149 400.948517 C 520.301636 400.802216 516.678223 398.236053 516.284912 394.562836 C 515.448608 386.744995 519.220459 379.524323 519.729919 372.015686 C 516.098511 369.403259 518.801636 362.86441 524.001953 363.667297 C 530.127991 364.612457 531.122437 371.139923 530.953796 376.517548 C 530.75177 382.986237 529.859253 389.866028 528.977356 396.281921 C 528.53418 399.498596 526.435303 400.884918 524.067139 400.951965 Z M 535.863953 392.603577 C 534.372131 392.612823 533.406921 391.456909 532.576782 390.283997 C 530.770813 387.734863 531.157532 385.426178 532.127258 382.532654 C 533.715454 377.790955 537.146301 373.304413 537.483582 368.241241 C 537.84375 362.856537 545.837158 361.261383 547.225037 366.920166 C 548.651611 372.737 546.151917 377.467865 543.261902 382.306183 C 541.919739 384.551392 541.278137 387.151642 539.978149 389.330078 C 539.271851 390.514221 538.305664 392.132874 536.536499 392.524658 C 536.300659 392.576904 536.077087 392.602234 535.863953 392.603577 Z M 474.944397 332.709961 C 480.645325 329.477386 486.378082 326.295807 492.210785 323.26355 C 507.804382 315.153992 521.682007 304.436676 537.14386 296.279694 C 551.809875 288.540833 566.958923 281.031189 582.169556 274.432495 C 593.179626 269.65744 603.340088 262.433655 614.571472 258.020508 C 605.381531 257.147339 596.200928 256.041931 587.093506 253.865173 C 564.558594 248.47699 541.533936 245.408142 519.002502 240.08844 C 501.125061 235.86499 482.594086 234.022583 464.31076 232.23761 C 453.565979 231.188782 443.39975 229.15564 432.519623 229.183716 C 427.793732 229.197815 423.056915 229.425537 418.334564 229.211182 C 414.961426 229.06012 409.648743 227.316772 406.551422 228.500916 C 403.417206 229.700806 400.446594 233.74115 397.760406 235.837036 C 394.02182 238.753418 390.150879 241.180359 385.92923 243.344788 C 378.51886 247.144775 371.335266 250.762329 364.184967 255.049011 C 347.56012 265.015503 329.492493 273.56839 312.22113 282.400024 C 306.251404 285.4534 300.270935 288.479553 294.295959 291.51358 C 304.220276 293.101807 314.102051 295.293335 324.035156 296.163025 C 341.591125 297.700256 358.581879 300.465027 375.923523 303.722198 C 392.904999 306.912567 408.668304 313.500214 425.591797 316.188171 C 433.896393 317.505798 440.695221 321.548737 448.362 324.732147 C 456.847534 328.252838 466.030212 330.405029 474.944397 332.709961 Z"/>
    </g>
</svg>
