<svg id="Capa_1" enable-background="new 0 0 512.016 512.016" height="512" viewBox="0 0 512.016 512.016" width="512" xmlns="http://www.w3.org/2000/svg"><path d="m95.165 471.719c4.307 22.411 27.448 35.654 48.884 28.223 62.113-21.533 67.203-20.157 85.926-45.035l-138.772-80.12c-13.222 25.698-6.85 40.551 3.962 96.932z" fill="#dcaee7"/><g><path d="m91.203 374.788 138.772 80.12c1.798-2.792-10.276 17.9 182.787-316.428l-138.918-80.204s-183.826 318.815-182.641 316.512z" fill="#fff398"/><path d="m388.106 20.777c-38.271-22.095-87.371-9.076-109.561 29.357l-4.701 8.142c20.646 11.92 118.124 68.199 138.918 80.204l4.701-8.142c22.272-38.577 8.798-87.532-29.357-109.561z" fill="#dcaee7"/><g><path d="m435.134 66.89c-6.278-23.431-21.423-42.877-42.028-54.772-43.1-24.886-98.24-10.253-123.221 33.017-10.803 18.71-176.662 305.985-185.779 321.778-9.609 16.644-12.379 35.846-8.999 53.431 10.624 53.815 9.811 54.42 12.755 61.822 9.314 23.422 35.442 35.553 59.462 27.225l51.246-17.766c16.13-5.591 30.309-16.565 39.813-31.304.002-.003.003-.005.005-.008 1.671-2.596-11.086 19.393 183.035-316.832 1.564-4.1 25.244-33.553 13.711-76.591zm-26.046 57.923-121.572-70.19c18.753-31.877 59.382-44.113 92.848-26.681 35.574 18.526 48.112 62.632 28.724 96.871zm-268.314 365.681c-15.707 5.444-32.644-4.306-35.788-20.663-8.545-47.813-14.887-60.38-8.841-80.644l118.889 68.641c-13.416 14.193-25.653 15.778-74.26 32.666zm85.614-49.204-121.598-70.204 172.714-299.15 121.598 70.204z"/><path d="m250.329 196.779c-4.784-2.762-10.9-1.123-13.66 3.66l-81.553 141.254c-2.762 4.783-1.123 10.899 3.66 13.66 4.775 2.756 10.895 1.13 13.66-3.66l81.553-141.254c2.762-4.783 1.123-10.899-3.66-13.66z"/><path d="m263.844 183.383c5.522 0 10-4.49 10-10.013s-4.478-10-10-10-10 4.477-10 10v.025c0 5.523 4.477 9.988 10 9.988z"/><path d="m277.759 149.27c4.766 2.751 10.89 1.138 13.66-3.661l7.814-13.536c2.762-4.783 1.123-10.899-3.66-13.66-4.784-2.762-10.9-1.122-13.66 3.661l-7.814 13.536c-2.762 4.783-1.123 10.899 3.66 13.66z"/><path d="m349.816 149.73c-4.784-2.761-10.9-1.123-13.66 3.66l-126.797 219.62c-2.762 4.783-1.123 10.899 3.66 13.66 4.775 2.756 10.895 1.13 13.66-3.66l126.797-219.62c2.762-4.782 1.124-10.898-3.66-13.66z"/></g></g></svg>