<?xml version="1.0" encoding="UTF-8"?>
<!-- Generated by Pixelmator Pro 3.4.3 -->
<svg width="350" height="216" viewBox="0 0 350 216" xmlns="http://www.w3.org/2000/svg">
    <g id="Eraser-copy">
        <path id="Path" fill="#b0e28a" stroke="none" d="M 26.436005 180.408997 C 26.501007 180.42099 26.587006 180.438995 26.703003 180.459991 C 26.686005 180.455994 26.667999 180.450989 26.651993 180.447998 C 26.580002 180.434998 26.507996 180.423004 26.436005 180.408997 Z"/>
        <path id="path1" fill="#b0e28a" stroke="none" d="M 139.067993 141.664001 C 139.028015 141.527985 138.976013 141.403992 138.931 141.269989 C 138.82901 140.514984 138.677002 139.756989 138.460999 139 C 134.695007 125.781013 119.417999 123.578011 107.868011 121.514992 C 100.794006 120.251015 93.942001 119.525002 86.751999 119.716988 C 85.425995 119.751991 84.139008 119.765999 82.856995 119.771004 C 80.106003 119.372993 76.897995 118.854012 74.863007 117.591988 C 71.421005 114.927986 67.755997 112.574989 63.876007 110.691994 C 57.977997 107.831001 52.404007 105.414986 45.757996 105.086006 C 40.270004 104.814003 33.460999 104.120003 28.716995 107.282997 C 26.488007 108.769997 25.076004 111.439003 24.891006 114.091011 C 21.192001 116.203987 18.973007 120.767006 18.783997 124.833992 C 18.613007 128.479004 19.324005 132.367981 19.917007 136.178986 C 19.617004 137.195007 19.309998 138.209991 18.979996 139.221985 C 16.393997 147.140991 10.115997 155.575989 10.393997 164.190979 C 10.488998 167.102997 12.270996 169.825989 14.690994 171.553986 C 16.195999 177.497986 20.850998 179.356995 26.434998 180.411987 C 26.158005 180.355988 26.326996 180.376007 26.651001 180.450989 C 26.897995 180.496002 27.143005 180.542999 27.391998 180.585999 C 27.093002 180.535004 26.869995 180.494995 26.701996 180.463989 C 26.996002 180.533997 27.386993 180.640991 27.684998 180.773987 C 29.113998 181.41098 30.593002 182.061005 32.063995 182.587982 C 34.658005 183.518005 37.343994 184.097992 40.052002 184.583984 C 45.662994 185.59198 51.432007 186.03299 56.822998 188.001984 C 66.623001 191.582001 77.563004 194.294983 87.886993 195.821991 C 93.238007 196.613007 97.971008 198.662994 103.182007 200.093994 C 107.984985 201.41098 115.286011 203.178986 120.131012 201.895996 C 131.121002 198.985992 130.593994 183.386993 132.042999 173.684998 C 132.187988 173.35498 132.350006 173.03299 132.488007 172.700989 C 134.806 167.421997 136.253998 162.169006 137.726013 156.621979 C 139.114014 151.382996 140.662994 147.123993 139.067993 141.664001 Z"/>
        <path id="path2" fill="#b0e28a" stroke="none" d="M 224.421997 28.309998 C 213.544006 30.464996 203.20401 34.462006 192.942993 38.583008 C 193.268005 38.264984 193.60199 37.970978 193.924988 37.645996 C 196.476013 35.078003 193.916992 30.281006 190.302002 31.423004 C 178.759003 35.062988 167.002014 37.509979 155.600006 41.746979 C 145.195007 45.613983 134.938995 50.196991 125.048004 55.222992 C 119.782013 57.89798 114.343994 60.131989 109.037994 62.708984 C 104.684998 64.824005 100.790985 67.649994 96.582001 70.015991 C 90.988007 73.160004 85.326996 76.050995 79.848999 79.406006 C 76.132996 81.681 70.292007 84.852997 65.850006 85.244995 C 60.052002 85.756989 59.835999 94.548988 65.850006 94.445015 C 70.100998 94.371986 74.278 92.793007 78.406998 91.889015 C 84.533997 90.548012 90.561005 87.253006 96.393005 84.949005 C 101.647003 82.872986 106.664001 80.462982 111.820007 78.186981 C 117.589996 75.640991 123.742004 73.988983 129.553986 71.472992 C 130.695007 70.977997 131.846008 70.496979 132.990997 70.009003 C 129.498993 72.316986 126.003998 74.617004 122.470001 76.847992 C 117.25 80.143982 111.928009 83.28598 106.75 86.64798 C 101.084991 90.328011 95.479004 95.954994 88.281006 96.137001 C 84.619003 96.229012 84.610001 101.750008 88.281006 101.832008 C 93.134995 101.941994 97.778992 99.918007 102.061005 97.785011 C 108.07901 94.786995 114.196014 92.039009 120.265991 89.147011 C 132.479004 83.328979 144.169006 76.755005 156.125 70.459991 C 167.64801 64.393005 179.760986 59.806 191.757996 54.811981 C 197.847992 52.277008 203.884003 49.638 209.72699 46.570984 C 216.036011 43.259003 221.380005 38.875 227.126007 34.717987 C 230.328003 32.398987 228.446014 27.514008 224.421997 28.309998 Z"/>
        <path id="path3" fill="#7ac943" stroke="none" d="M 327.756989 31.141998 C 320.024994 24.272003 306.743011 26.751984 297.105988 26.11499 C 291.511993 25.746002 286.127991 24.786987 280.533997 24.712006 C 277.967987 21.556 274.649994 19.498993 269.174988 19.311005 C 263.894989 19.128998 258.457001 19.894989 253.122009 20.789001 C 250.832001 20.541992 248.556 20.27298 246.334015 19.817993 C 240.834991 18.690002 235.644989 17.225006 229.993011 16.507996 C 226.089996 16.013 222.222992 15.641998 218.334991 15.304993 C 217.467987 13.579987 215.700989 12.265991 213.721985 12.382996 C 209.872986 12.609985 206.484009 11.744995 202.618988 12.725983 C 198.356995 13.807983 194.15799 16.013 190.20401 17.938995 C 182.127991 21.871979 173.790985 25.348999 165.768005 29.34198 C 157.92099 33.248993 149.425995 35.764984 141.740997 39.975006 C 134.041992 44.191986 127.014008 49.462006 119.256012 53.60199 C 103.936005 61.774994 89.182007 70.432007 74.585999 79.781982 C 60.988007 88.492989 47.906006 98.015999 34.531006 107.030006 C 34.259003 107.181007 33.988998 107.353004 33.725998 107.56501 C 33.466003 107.773994 33.205994 107.984993 32.945999 108.195992 C 31.001007 109.767006 31.225006 112.216988 32.459 114.001015 C 31.279999 115.986 30.281006 118.140999 29.380005 120.340004 C 28.453995 122.319008 27.535995 124.306007 26.462006 126.219002 C 23.776993 131 21.406006 135.752991 19.147003 140.751007 C 17.029007 145.437988 14.218994 149.453003 13.052002 154.562988 C 12.220993 158.208008 10.287994 162.410004 10.615005 166.160004 C 11.108002 171.824005 14.737 175.462006 20.431 175.975983 C 23.660995 176.268005 26.487 175.039978 29.518997 175.959991 C 34.164993 177.367981 38.740005 179.218994 43.434998 180.627991 C 52.158997 183.246979 60.901001 185.858978 69.628998 188.595978 C 79.162994 191.584991 88.949997 193.385986 98.5 196.341003 C 103.683014 197.945007 108.708008 198.798004 114.02301 199.756989 C 118.873993 200.631989 123.306 202.701996 128.372009 201.190979 C 132.453003 199.975006 135.725006 196.936981 139.296997 194.751007 C 143.828003 191.977997 148.436005 189.337006 153.092987 186.78299 C 153.638 186.483978 154.186005 186.195007 154.731995 185.89798 C 158.078003 184.940002 161.420013 183.972992 164.67099 182.751984 C 174.411987 179.091003 184.390015 175.440002 193.908997 171.304993 C 205.153992 166.423004 215.931 160.595978 226.479004 154.371002 C 236.098999 148.694 246.421997 143.764984 255.792999 137.768982 C 264.932007 131.92099 273.756012 125.923988 282.705994 119.818001 C 287.210999 116.745003 291.925995 114.280006 296.442993 111.491005 C 300.183014 109.182014 305 106.747993 308.138 103.664009 C 312 99.866005 313.22699 94.89399 314.619995 89.832008 C 316.07901 84.527008 317.56601 79.230988 319.128998 73.953979 C 320.730011 68.544006 322.570007 63.423004 325.027008 58.350983 C 326.313995 55.694 327.821991 52.993988 328.475006 50.089996 C 328.734985 48.712006 328.875 47.321991 328.931 45.924988 C 329.06601 45.682007 329.255005 45.306 329.516998 44.759979 C 331.830994 40.61499 331.498993 34.466003 327.756989 31.141998 Z M 108.181 149.799988 C 107.459991 151.643005 105.890991 149.162994 108.871002 148.53299 C 108.60199 148.949982 108.348999 149.371979 108.181 149.799988 Z M 122.537994 178.746979 C 121.476013 178.572998 120.417999 178.363983 119.358002 178.177979 C 121.479004 177.768005 123.535004 177.209991 125.549988 176.520996 C 124.541992 177.309998 123.470001 178.156982 122.537994 178.746979 Z"/>
        <path id="path4" fill="#569922" stroke="none" d="M 319.845001 39.233978 C 314.864014 39.837982 312.256012 42.035004 308.194 44.520996 C 304.980988 46.485992 301.522003 47.923004 298.115997 49.523987 C 294.390991 51.274994 290.912994 53.436005 287.135986 55.072998 C 282.217987 57.204987 277.019989 58.98999 272.377014 61.695007 C 267.716003 64.411987 264.018005 68.677979 259.140015 70.973999 C 255.140991 72.855988 250.902008 74.268005 246.808014 75.916992 C 242.187012 77.778992 238.177002 80.817993 233.825989 83.223999 C 229.208008 85.778992 224.640991 88.376015 220.147003 91.148994 C 211.231995 96.652992 202.902008 103.820992 193.455994 108.411995 C 184.002014 113.006996 174.459015 116.40699 165.484985 122.079994 C 161.503998 124.596992 157.382996 127.308998 154.303009 130.919983 C 151.019012 134.770996 149.921997 139.066986 148.864014 143.899994 C 147.988007 147.898987 146.975006 151.822998 145.855011 155.707001 C 144.998993 157.878998 144.238007 160.126007 143.522003 162.394989 C 143.345001 162.891998 143.167999 163.391998 142.992004 163.891998 C 139.696014 171.773987 134.915009 179.850983 133.279999 188.135986 C 131.809998 195.583984 140.346008 201.14798 146.18399 195.64798 C 148.497009 193.470001 150.040009 190.699982 151.300995 187.756989 C 151.509003 187.815979 151.716003 187.876984 151.933014 187.92099 C 163.052002 190.194 173.009003 182.048004 182.261993 176.914001 C 183.522003 176.214996 184.772003 175.497986 186.015015 174.772003 C 186.862 174.524994 187.714996 174.289978 188.559998 174.03299 C 193.437012 172.554993 198.488007 171.416992 203.261993 169.632996 C 211.89801 166.406982 220.071014 163.811005 228.244995 159.311005 C 236.911011 154.540985 245.502014 149.453979 253.444 143.539001 C 258.031006 140.121979 261.406006 136.42099 265.334991 132.376007 C 268.880005 128.725983 272.515015 125.405006 274.817993 120.777016 C 274.971008 120.469002 275.088013 120.163002 275.186005 119.855995 C 275.450989 119.672005 275.72699 119.505013 275.989014 119.314003 C 280.69101 118.00901 285.255005 116.082008 288.731995 112.823006 C 290.683014 110.992012 292.542999 108.923012 294.345001 106.749001 C 296.537994 105.42701 298.68399 104.036995 300.613007 102.363991 C 301.348999 101.723 302.050995 101.042 302.730988 100.33799 C 308.862 95.988014 314.091003 90.976997 315.776001 85.503998 C 316.372009 84.583008 316.916992 83.641998 317.378998 82.673004 C 318.399994 80.529999 318.101013 77.954987 316.756989 76.233978 C 317.552002 74.958008 318.351013 73.686005 319.119995 72.393005 C 322.928009 65.996979 327.200989 59.096985 329.589996 52.016998 C 331.505005 46.328003 326.239014 38.458008 319.845001 39.233978 Z M 284.355011 82.829987 C 282.824005 83.473999 281.29599 84.126984 279.78299 84.815002 C 280.376007 84.355988 280.973999 83.902985 281.589996 83.468994 C 283.013 82.466003 284.501007 81.621979 286.02301 80.852997 C 285.468994 81.515991 284.911987 82.171997 284.355011 82.829987 Z"/>
        <path id="path5" fill="#000000" stroke="none" d="M 122.412109 214.996094 C 120.533714 214.973328 118.56395 214.673828 116.464844 214.007813 C 110.540886 212.126831 104.382454 211.067566 98.521484 208.976563 C 92.985512 207.003571 87.638863 204.47821 81.962891 202.908203 C 76.686913 201.449188 71.15731 200.924164 65.986328 199.076172 C 63.586346 198.219177 62.169193 196.621857 60.033203 195.546875 C 59.248199 195.151886 56.427704 195.022095 54.970703 194.537109 C 52.355709 193.668121 51.050327 191.633118 48.277344 191.037109 C 45.699352 190.4841 43.502247 189.84613 41.03125 188.869141 C 35.999264 186.877136 31.307768 185.817078 26.050781 184.705078 C 20.87079 183.611084 17.312162 180.012482 12.492188 178.230469 C 8.3522 176.698486 4.830207 174.962326 2.199219 171.361328 C 1.053226 169.793335 1.704762 168.156921 2.96875 167.210938 C 3.082748 166.611938 3.355516 166.000885 3.853516 165.421875 C 6.607505 162.21788 6.905354 156.52565 8.277344 152.597656 C 10.124338 147.315674 11.947271 142.052277 13.572266 136.695313 C 15.526255 130.253357 17.48023 123.814827 19.324219 117.339844 C 20.981211 111.521873 23.866837 105.093636 23.714844 99.013672 C 23.63884 95.950653 26.001156 92.7901 28.994141 92.078125 C 32.296131 91.295105 35.410656 90.475708 38.347656 88.720703 C 40.55463 87.40271 42.062527 85.505066 44.103516 83.955078 C 48.729511 80.442078 54.578274 78.680237 59.447266 75.365234 C 64.42524 71.976227 69.264717 68.409698 74.179688 64.929688 C 79.69767 61.022675 85.180183 58.459015 91.285156 55.666016 C 95.953133 53.531036 99.74398 50.059296 104.417969 47.863281 C 109.375954 45.534302 114.187889 42.938934 119.130859 40.585938 C 129.628799 35.588928 139.762192 29.880219 150.160156 24.699219 C 159.620102 19.985229 169.373428 15.494751 178.525391 10.21875 C 182.743378 7.785736 185.578094 3.506348 190.371094 2.027344 C 195.156097 0.551361 200.218597 1.556793 205.140625 1.509766 C 227.389572 1.291779 249.240433 5.169189 271.025391 9.117188 C 282.570404 11.209198 294.088928 13.315735 305.503906 16.052734 C 317.132904 18.841736 329.223969 17.736603 340.917969 20.308594 C 343.582977 20.893585 345.79126 23.306915 346.488281 25.878906 C 350.388275 40.301865 340.362061 57.008652 334.164063 69.433594 C 330.281067 77.220566 326.639526 85.023254 322.519531 92.699219 C 318.622528 99.96122 316.995056 107.977318 311.664063 114.363281 C 310.579041 115.661285 309.34906 116.279297 308.123047 116.404297 C 305.994049 118.189301 303.855591 119.207611 301.308594 120.558594 C 298.611603 121.988617 296.419128 124.05426 293.912109 125.78125 C 288.896118 129.234253 283.473511 132.031677 278.478516 135.554688 C 267.427521 143.34967 256.136658 150.49234 244.513672 157.404297 C 223.725723 169.769257 204.215469 183.558777 181.853516 193.009766 C 170.55455 197.783737 159.002579 201.803665 147.390625 205.722656 C 138.386475 208.761871 131.462524 215.105804 122.412109 214.996094 Z M 120.292969 199.339844 C 120.70697 197.665833 121.256409 195.991394 122.191406 194.109375 C 124.025391 190.418411 125.434204 186.902634 126.574219 182.931641 C 129.1362 174.012665 132.355743 165.370361 134.802734 156.400391 C 136.136719 151.519409 137.934937 146.774933 139.710938 142.042969 C 140.664948 139.503967 141.653046 136.975128 142.539063 134.412109 C 142.710052 133.921112 142.879791 133.431427 143.050781 132.941406 C 140.8638 132.596405 138.276733 132.055603 137.761719 131.974609 C 133.707733 131.337616 129.658386 130.628448 125.816406 129.148438 C 118.768425 126.432434 111.518867 122.570618 104.046875 121.558594 C 94.803902 120.305603 85.544319 118.444397 76.527344 116.025391 C 67.061363 113.485382 57.355247 112.289185 47.863281 109.908203 C 43.84129 108.8992 40.068363 107.493317 35.984375 106.861328 C 32.21339 118.918289 27.964069 130.957413 23.330078 142.652344 C 21.078085 148.335327 18.257715 153.45787 15.511719 158.880859 C 14.162723 161.543839 13.180475 164.406845 11.646484 166.923828 C 14.752479 167.275818 17.852285 167.807281 20.613281 168.947266 C 23.001276 169.933258 24.958838 171.598602 27.464844 172.308594 C 30.295832 173.110596 33.339855 173.066711 36.214844 173.720703 C 41.846821 175.002716 46.960308 177.441376 52.654297 178.484375 C 55.193272 178.949371 56.648083 180.056427 58.830078 181.232422 C 60.614075 182.194427 62.289654 181.786377 64.597656 182.650391 C 66.572647 183.389404 67.843002 184.967529 69.625 185.894531 C 71.751007 187.001556 74.798676 187.218292 77.138672 187.654297 C 81.793648 188.520294 86.357307 189.356567 90.863281 190.851563 C 96.847267 192.837555 102.62542 195.399933 108.816406 196.710938 C 111.322388 197.241943 113.880096 197.529907 116.371094 198.128906 C 117.677094 198.442902 118.97998 198.968842 120.292969 199.339844 Z M 135.664063 193.542969 C 136.606049 192.999969 137.543793 192.513641 138.466797 192.140625 C 143.131805 190.257629 147.992615 188.950867 152.724609 187.255859 C 163.728561 183.312881 175.05632 179.393753 185.572266 174.259766 C 188.279266 172.937744 190.957336 171.549255 193.611328 170.113281 C 194.264343 166.265274 195.849915 163.090225 197.544922 159.615234 C 199.296906 156.023239 199.835571 152.300644 201.017578 148.513672 C 203.518585 140.493683 207.449554 132.379272 211.060547 124.779297 C 213.022552 120.650322 215.607147 116.963631 217.869141 113.013672 C 220.018158 109.262665 220.204926 105.621101 221.251953 101.537109 C 221.939941 98.849121 223.282745 96.339172 224.761719 93.867188 C 214.841782 99.637154 205.025558 105.57412 194.890625 110.996094 C 190.898621 113.131073 187.573212 116.183685 183.658203 118.429688 C 179.695221 120.702698 175.352081 122.30188 171.246094 124.296875 C 167.901093 125.922882 164.755493 127.837433 161.1875 128.941406 C 159.280487 129.531433 157.414246 130.497803 155.53125 131.341797 C 155.265228 133.46582 154.493195 135.578339 153.824219 137.527344 C 151.805206 143.41333 149.406677 149.163727 147.513672 155.095703 C 145.936676 160.03569 145.032379 165.138107 143.484375 170.080078 C 142.010376 174.784073 140.081055 179.332718 138.664063 184.054688 C 137.697052 187.276688 136.860046 190.452988 135.664063 193.542969 Z M 208.628906 161.40625 C 220.938858 153.864258 232.94957 145.718903 245.228516 138.335938 C 255.134476 132.37796 264.397278 125.671394 273.947266 119.191406 C 278.428253 116.151428 283.314423 113.747253 287.607422 110.447266 C 291.386414 107.543274 295.797913 105.982452 299.544922 103.148438 C 300.5979 102.35144 301.676392 101.927094 302.734375 101.787109 C 306.172394 89.709152 313.023407 79.142227 318.191406 67.572266 C 321.25943 60.702271 325.064545 54.191986 327.685547 47.125 C 328.455536 45.046997 329.436676 42.736389 330.222656 40.359375 C 329.311676 41.060394 328.373505 41.686157 327.4375 42.160156 C 324.219513 43.790131 320.466095 43.971466 317.121094 45.355469 C 312.96109 47.077484 309.409729 49.588837 305.386719 51.548828 C 301.715729 53.336853 297.862946 54.728424 294.210938 56.566406 C 285.922943 60.737427 276.979065 64.119476 269.164063 69.146484 C 261.273071 74.222473 253.224045 78.475098 244.871094 82.746094 C 241.116089 84.667114 237.419067 86.680389 233.748047 88.734375 C 233.501068 89.332397 233.264404 89.932312 232.984375 90.529297 C 231.108398 94.520271 228.551025 98.508232 227.707031 102.867188 C 227.045013 106.287201 227.274384 109.747955 226.150391 113.083984 C 224.850403 116.939949 222.433533 120.420654 220.728516 124.097656 C 216.815521 132.539612 213.6604 142.341827 211.275391 151.341797 C 210.370392 154.750778 209.824921 158.120255 208.628906 161.40625 Z M 153.164063 123.972656 C 154.180054 123.287659 155.292053 122.802521 156.414063 122.269531 C 160.639069 120.262543 164.333527 117.615662 168.353516 115.222656 C 172.762512 112.59967 177.449738 110.382416 181.511719 107.232422 C 184.693726 104.764435 187.724457 102.460358 191.273438 100.527344 C 202.720413 94.294365 213.716537 87.357178 224.896484 80.701172 C 222.597473 80.339172 220.330017 79.855072 218.207031 79.246094 C 213.317017 77.843079 209.150635 74.938385 204.015625 74.275391 C 194.56868 73.055389 185.702347 69.653564 176.275391 67.976563 C 170.895386 67.020569 165.562286 65.820892 160.197266 64.796875 C 155.079285 63.819885 149.931335 63.776581 144.777344 63.101563 C 140.021332 62.478577 135.191315 61.290222 130.529297 60.115234 C 127.56131 59.366241 125.288239 57.750397 122.990234 56.109375 C 119.116264 58.067383 115.242226 60.025482 111.365234 61.980469 C 106.524254 64.421478 102.559212 67.939453 97.53125 70.064453 C 92.633263 72.133453 88.261681 74.233398 83.845703 77.232422 C 75.232735 83.080414 67.152672 89.863914 57.595703 94.087891 C 54.573711 95.421875 52.183094 97.457916 49.662109 99.378906 C 50.008102 99.454895 50.356171 99.533478 50.701172 99.605469 C 61.414135 101.855469 72.112419 103.303223 82.775391 105.90625 C 88.199379 107.230225 93.693504 108.299225 99.1875 109.28125 C 103.777473 110.101227 108.463585 109.896271 112.810547 111.697266 C 120.829536 115.020264 129.426224 118.805725 137.992188 120.302734 C 142.577179 121.103729 149.465057 120.595673 153.164063 123.972656 Z M 244.035156 122.609375 C 243.425446 122.633766 242.786469 122.390053 242.339844 122.005859 C 239.306854 119.395874 241.585907 115.3573 242.794922 112.404297 C 244.29892 108.729309 245.241455 105.24884 247.898438 102.173828 C 250.489441 99.175842 254.624176 103.484558 252.201172 106.476563 C 248.620178 110.899544 248.95578 117.590904 245.300781 122.005859 C 244.966965 122.409233 244.509369 122.590401 244.035156 122.609375 Z M 262.021484 114.220703 C 261.93161 114.223244 261.841003 114.222801 261.75 114.21875 C 259.878143 114.135475 257.815674 112.674797 257.591797 110.583984 C 257.115784 106.134018 259.262726 102.023972 259.552734 97.75 C 257.485718 96.263 259.024353 92.541046 261.984375 92.998047 C 265.471375 93.536041 266.037415 97.251526 265.941406 100.3125 C 265.826416 103.994507 265.31839 107.910522 264.816406 111.5625 C 264.564148 113.39344 263.369476 114.182541 262.021484 114.220703 Z M 268.736328 109.46875 C 267.887146 109.474014 267.337738 108.816063 266.865234 108.148438 C 265.83725 106.697449 266.057373 105.383331 266.609375 103.736328 C 267.513367 101.037323 269.466217 98.483551 269.658203 95.601563 C 269.86322 92.53656 274.413116 91.628601 275.203125 94.849609 C 276.015106 98.160583 274.592285 100.853424 272.947266 103.607422 C 272.183289 104.885406 271.818115 106.365479 271.078125 107.605469 C 270.676117 108.27948 270.12616 109.200836 269.119141 109.423828 C 268.984894 109.453575 268.857635 109.467995 268.736328 109.46875 Z M 234.060547 75.376953 C 237.305542 73.536957 240.568665 71.725983 243.888672 70 C 252.764633 65.384003 260.663849 59.28363 269.464844 54.640625 C 277.812836 50.235626 286.43576 45.96109 295.09375 42.205078 C 301.360748 39.487091 307.144135 35.375275 313.537109 32.863281 C 308.306122 32.366272 303.080475 31.737061 297.896484 30.498047 C 285.069489 27.431061 271.963684 25.684235 259.138672 22.65625 C 248.962723 20.252228 238.41478 19.203522 228.007813 18.1875 C 221.891815 17.590515 216.105133 16.433228 209.912109 16.449219 C 207.222107 16.457245 204.525879 16.586853 201.837891 16.464844 C 199.917877 16.378845 196.89386 15.386536 195.130859 16.060547 C 193.346832 16.74353 191.655945 19.043335 190.126953 20.236328 C 187.998932 21.896332 185.795563 23.277771 183.392578 24.509766 C 179.174561 26.67276 175.085602 28.731873 171.015625 31.171875 C 161.552658 36.844879 151.268448 41.713226 141.4375 46.740234 C 138.03949 48.478241 134.635376 50.200745 131.234375 51.927734 C 136.883362 52.831757 142.508118 54.079193 148.162109 54.574219 C 158.155075 55.449219 167.826309 57.022949 177.697266 58.876953 C 187.363235 60.692932 196.3358 64.442657 205.96875 65.972656 C 210.69577 66.722656 214.565704 69.023926 218.929688 70.835938 C 223.759705 72.839935 228.986542 74.064972 234.060547 75.376953 Z"/>
    </g>
</svg>
