<?xml version="1.0" encoding="UTF-8"?>
<!-- Generated by Pixelmator Pro 3.4.3 -->
<svg width="456" height="426" viewBox="0 0 456 426" xmlns="http://www.w3.org/2000/svg">
    <g id="Group">
        <path id="Path" fill="#ba3838" stroke="none" d="M 360.878998 164.080994 C 360.747009 163.592987 360.682007 163.093994 360.559998 162.606995 C 360.463989 162.031006 360.268005 161.487 359.973999 160.975006 C 359.324005 159.466003 359.346008 159.483002 360.039001 161.027008 C 360.220001 160.742004 358.747986 157.743011 358.661987 157.494995 C 358.449005 157.131012 358.221008 156.772003 357.984985 156.425995 C 357.558014 155.799011 357.102997 155.187012 356.622009 154.600006 C 355.595001 151.549011 353.572998 148.768005 351.112 145.85199 C 347.170013 141.183014 344.691986 136.023987 340.044006 131.781006 C 335.513 127.643982 330.878998 123.661987 326.253998 119.677002 C 323.235992 115.652008 320.199005 111.643005 316.967987 107.790009 C 315.863007 106.471985 314.574005 105.794983 313.264008 105.600983 C 312.772003 104.656006 312.269989 103.716003 311.779999 102.770996 C 307.014008 93.57901 302.589996 86.169983 292.536011 82.165009 C 288.964996 80.742004 284.143005 82.429993 281.596008 85.057007 C 279.464996 87.253998 278.311005 89.760986 276.67099 92.256989 C 274.342987 95.796997 270.90799 98.191986 267.774994 101.178986 C 261.561005 107.104004 255.85199 113.401001 249.580002 119.279999 C 243.824005 124.675995 237.572006 129.839996 231.419998 134.755005 C 225.110001 139.796997 218.985992 145.102997 212.684006 150.10199 C 205.095993 156.121002 197.979996 162.691986 190.427994 168.747009 C 186.533005 171.871002 183.141998 174.830994 179.886002 178.583008 C 177.541 181.285004 174.117996 182.863007 171.255997 185.128998 C 157.507004 196.019989 143.919006 207.411011 131.177994 219.484009 C 123.792007 226.480988 115.872002 233.072998 107.834999 239.309998 C 100.155998 245.268005 92.768997 253.235992 83.698997 257.14798 C 82.560997 257.527008 81.406998 258.005005 80.222 258.609985 C 80.253998 258.665985 80.288002 258.721985 80.32 258.777985 C 72.054001 264.316986 76.486 279.095978 87.474998 275.815979 C 95.655998 273.375 102.652 281.884979 104.869003 290.315002 C 104.747002 290.962982 104.626999 291.617981 104.514 292.274994 C 103.454002 297.037994 102.348 301.798004 102.580002 306.856995 C 102.585999 306.855988 102.592003 306.855988 102.598999 306.854004 C 102.531998 312.078003 108.023003 314.440002 112.046997 312.770996 C 112.450996 312.901001 112.867996 312.994995 113.353996 313.020996 C 113.563004 313.031982 114.625999 312.828003 115.190002 312.656006 C 115.912003 312.796997 117.074997 312.950989 117.254997 312.959991 C 118.633003 313.020996 119.869003 312.604004 121.190002 312.352997 C 128.481003 310.971985 133.546997 310.889984 138.013 317.484985 C 141.345001 322.406006 143.542999 332.259003 142.475006 338.005005 C 141.973007 340.712006 140.942001 343.475983 139.914001 346.010986 C 138.548996 349.377991 138.289993 351.701996 137.794006 355.265991 C 136.582001 363.973999 148.957993 368.070984 151.408997 359.018982 C 152.139008 357.110992 152.406006 356.277008 153.406998 354.802002 C 154.955994 352.518982 156.714005 351.126007 157.876007 348.542999 C 160.179001 346.096985 162.746002 343.873993 165.082001 341.80899 C 171.559006 336.084991 178.283997 330.587982 184.623993 324.717987 C 197.524002 312.778992 210.072998 300.488007 222.822006 288.350983 C 237.330994 274.537994 252.753998 261.703979 267.559998 248.209991 C 274.246002 242.115997 281.390991 236.51001 288.015015 230.368988 C 294.252991 224.587006 300.940002 219.496002 307.234985 213.803986 C 314.589996 207.154999 323.200989 202.110992 329.304993 194.165009 C 330.740997 192.29599 332.200989 190.445007 333.641998 188.582001 C 336.567993 185.944 339.437012 183.229004 342.424988 180.671997 C 344.808014 178.631989 347.399994 176.463989 349.747009 174.079987 C 350.016998 174.187012 350.279999 174.307007 350.559998 174.403015 C 356.742004 176.523987 362.472992 169.955994 360.878998 164.080994 Z M 123.294998 297.040985 C 122.373001 297.263 121.472 297.542999 120.577003 297.84198 C 120.737999 295.468994 120.646004 293.001984 120.426003 290.656006 C 122.439003 292.431 124.522995 294.34198 126.052002 296.242004 C 126.119003 296.324982 126.177994 296.414001 126.244003 296.498993 C 125.270996 296.630981 124.291 296.800995 123.294998 297.040985 Z M 171.194 290.824005 C 171.367996 290.415985 171.242996 290.388 170.951996 290.578003 C 170.766006 290.384003 170.572006 290.199005 170.388 290.005005 C 169.289993 288.846985 168.216003 287.665985 167.154007 286.475006 C 167.751007 286.261993 168.341995 286.039001 168.921005 285.798004 C 171.847 284.583984 174.632004 283.053986 177.311005 281.325989 C 175.309998 284.516998 173.302002 287.709991 171.25 290.880981 C 171.231995 290.860992 171.212997 290.84198 171.194 290.824005 Z"/>
        <path id="path1" fill="#ba3838" stroke="none" d="M 358.661987 157.493988 C 358.701996 157.561005 358.751007 157.625 358.787994 157.692993 C 358.675995 157.48999 358.645996 157.446014 358.661987 157.493988 Z"/>
    </g>
    <path id="path2" fill="#821e1e" stroke="none" d="M 339.207001 144.112 C 339.141998 140.84201 338.368011 137.553986 337.657013 134.158997 C 335.636993 124.518005 321.97699 124.350983 317.989014 132.196014 C 317.872009 132.261993 317.769989 132.316986 317.632996 132.399994 C 317.015015 132.654999 316.42099 132.954987 315.846985 133.298004 C 313.864014 134.501007 312.410004 135.951996 310.864014 137.615997 C 308.240997 140.438995 305.68399 142.625 302.699005 145.052002 C 296.158997 150.368011 290.786011 156.661987 284.859985 162.546997 C 278.729004 168.635986 271.319 173.785004 264.808014 179.498993 C 257.416992 185.985992 249.089005 191.666016 241.449005 197.924011 C 226.412994 210.238007 210.794998 222.154999 196.375 235.186005 C 190.009995 240.937012 183.835007 246.94101 177.451004 252.582001 C 175.505997 254.299988 173.699005 256.210999 171.953995 258.201996 C 167.707001 260.820984 163.427994 263.381989 159.057999 265.790985 C 150.845001 270.319 143.679001 277.187988 136.264008 282.917999 C 127.628998 289.587006 119.144997 296.46698 110.306 302.859985 C 104.706001 307.113007 107.615997 318.647003 115.640999 315.514984 C 117.620003 314.742004 119.549004 313.847992 121.453003 312.893982 C 122.746002 317.71698 127.507004 321.608002 133.867004 320.386993 C 133.916 320.384003 133.947998 320.380981 133.994995 320.376984 C 134.602005 320.877991 135.307999 321.289978 135.837997 321.850006 C 137.343002 323.438995 137.783997 324.772003 138.020004 327.020996 C 138.475998 331.391998 138.378998 336.563995 137.473007 341.014984 C 136.423004 343.304993 135.645996 345.734985 135.332001 348.453003 C 134.112 359.007996 148.802994 360.658997 153.695999 353.425995 C 154.917999 351.618988 155.927002 349.623993 156.738998 347.506989 C 157.264008 346.871002 157.802002 346.255981 158.246994 345.667999 C 160.408005 342.807007 162.539993 339.916992 164.662003 337.026001 C 169.097 330.987 173.358002 324.820984 177.789001 318.777985 C 180.046005 315.699982 182.337006 312.652008 184.630005 309.604004 C 191.095993 305.279999 197.214996 299.40799 202.921005 294.212982 C 216.115005 282.200989 230.889008 271.505005 245.181 260.834991 C 259.347992 250.257996 272.437012 238.332001 286.381012 227.485992 C 296.848999 229.522003 303.266998 220.467987 309.394989 213.457001 C 316.412994 205.425995 323.25 197.184998 329.826996 188.785004 C 330.444 188.294006 331.037994 187.751007 331.61499 187.135986 C 332.813995 185.856995 333.774994 184.362 334.748993 182.908997 C 334.786011 182.85199 334.815002 182.811005 334.848999 182.759003 C 340.882996 176.312988 348.779999 170.031006 351.338989 161.838013 C 354.425995 151.959991 347.467987 144.938995 339.207001 144.112 Z"/>
    <path id="path3" fill="#d96f6f" stroke="none" d="M 263.623993 126.859985 C 255.865997 130.595001 249.462997 136.652008 242.783997 142.006989 C 235.962997 147.476013 228.835999 152.531006 221.835007 157.763 C 208.201004 167.955994 195.214996 178.955994 181.916 189.572998 C 169.013 199.873993 156.358994 211.464996 144.899002 223.356995 C 139.317993 229.148987 134.033005 235.201996 128.567001 241.097992 C 122.599998 247.536011 115.760002 252.958008 109.737999 259.286987 C 106.019997 263.195007 111.638 268.722992 115.624001 265.173004 C 121.888 259.592987 129.014999 254.954987 135.404007 249.47699 C 141.794006 243.997986 147.751999 238.096008 153.912003 232.369995 C 160.072006 226.644012 166.720001 221.533997 173.072998 216.036011 C 179.397003 210.562988 185.309006 204.730988 191.895996 199.553009 C 205.494995 188.864014 218.912003 177.954987 232.619995 167.398987 C 245.692001 157.333008 261.44101 147.360992 268.819 132.056 C 270.501007 128.565002 267.117004 125.178009 263.623993 126.859985 Z"/>
    <path id="path4" fill="#e5e0ac" stroke="none" d="M 137.658997 323.100983 C 135.927002 317.196991 128.080994 314.78598 123.552994 318.458008 C 122.072998 317.725983 120.400002 317.105988 118.462997 316.625 C 114.342003 315.602997 110.375999 313.992004 106.066002 314.134003 C 103.186996 314.229004 100.588997 315.217987 98.046997 316.388 C 98.317001 314.955994 98.584999 313.518982 98.865997 312.063995 C 99.696999 307.744995 101.808998 303.264008 101.474998 298.834991 C 101.135002 294.319 98.871002 291.139008 95.550003 289.595001 C 95.559998 287.184998 95.073997 284.772003 93.761002 282.371979 C 89.514999 274.613983 77.344002 273.362 69.935997 276.789001 C 65.869003 278.67099 61.570999 281.829987 59.000999 285.513 C 56.089001 289.687988 55.855999 293.513 54.474998 298.181 C 52.93 303.402008 49.042 307.993988 47.077999 313.126984 C 45.355999 317.630981 44.404999 322.384979 42.446999 326.812988 C 38.376999 336.013 33.277 344.563995 29.963001 354.097992 C 28.599998 358.019989 27.365002 361.990997 25.922001 365.867981 C 25.593 366.751984 25.315001 367.630005 25.051001 368.510986 C 22.586 370.966003 21.841999 373.858978 22.281 376.617004 C 22.164 376.940979 22.08 377.265991 22.025999 377.59198 C 21.955 377.671997 21.878 377.744995 21.808001 377.828003 C 16.941999 383.528992 17.566 395.552979 26.834999 396.869995 C 36.657001 398.265991 46.124001 393.311005 54.909 389.328003 C 63.57 385.401001 72.526001 382.803986 81.685997 380.356995 C 90.389999 378.031982 96.911003 371.602997 105.278 368.60199 C 108.325996 367.509003 110.893997 366.061981 113.207001 364.375 C 115.347 364.64798 117.706001 364.238983 120.137001 362.888 C 122.285004 361.692993 124.658005 359.862 126.785995 357.84198 C 140.059006 354.343994 140.867996 334.039978 137.658997 323.100983 Z"/>
    <path id="path5" fill="#bfb975" stroke="none" d="M 135.184006 336.743988 C 131.042007 338.328003 126.679001 338.812988 122.524002 340.434998 C 118.362999 342.059998 114.237 343.723999 110.038002 345.248993 C 104.449997 347.278992 98.785004 349.201996 93.167999 351.234985 C 97.569 348.47699 101.968002 345.722992 106.269997 342.790985 C 108.999001 340.932007 111.789001 339.470001 113.848 336.835999 C 116.061996 334.001984 117.352997 330.47699 118.693001 327.167999 C 119.725998 324.615997 116.661003 321.824982 114.202003 322.677002 C 107.399002 325.03598 100.646004 327.031006 94.528 330.973999 C 87.943001 335.21698 81.424004 339.462982 74.936996 343.846985 C 68.653 348.093994 62.833 352.569 56.832001 357.195984 C 54.183998 359.237 51.568001 361.423004 48.867001 363.384003 C 45.98 365.47998 42.855999 366.731995 40.224998 369.220001 C 36.429001 372.809998 37.893002 377.536987 41.125 379.962982 C 39.595001 380.625 38.040001 381.171997 36.456001 381.563995 C 30.113998 383.134003 32.057999 391.781006 37.910999 392.320984 C 46.782001 393.138 56.578999 388.542999 64.309998 384.687988 C 68.746002 382.47699 73.348 380.980988 77.842003 378.942993 C 82.088997 377.018005 85.796997 374.713989 90.181 372.992981 C 107.348 366.252991 128.641998 357.707001 138.399002 340.928986 C 139.557999 338.936005 137.595001 335.822998 135.184006 336.743988 Z"/>
    <g id="g1">
        <path id="path6" fill="#e5e4d3" stroke="none" d="M 62.045998 297.505005 C 60.314003 302.740997 56.615002 307.122986 54.16 312.054993 C 51.916 316.565979 49.360001 320.912994 47.113998 325.419006 C 42.451 334.773987 39.379002 344.246002 32.578999 352.43399 C 29.310001 356.371002 34.888 362.070007 38.257999 358.113983 C 45.912998 349.127991 49.431999 338.957001 54.912998 328.733002 C 60.307999 318.669006 65.341003 309.703979 65.343002 297.951996 C 65.346001 296.010986 62.632004 295.734985 62.045998 297.505005 Z"/>
        <path id="path7" fill="#e5e4d3" stroke="none" d="M 76.974998 303.766998 C 76.903999 302.134979 74.716003 301.440002 73.846001 302.919983 C 72.098 305.889984 69.224998 308.121002 67.289001 311.015991 C 65.289001 314.007996 63.415001 317.075989 61.477997 320.108978 C 57.615002 326.15799 56.368 332.535004 53.667 339.023987 C 53.021 340.574982 55.034 341.591003 56.242001 341.002991 C 62.402 337.998993 65.663002 329.037994 69.502998 323.645996 C 73.212997 318.438995 77.263 310.312988 76.974998 303.766998 Z"/>
    </g>
    <path id="path8" fill="#808080" stroke="none" d="M 400.210999 135.928009 C 400.190002 129.38501 397.278015 121.996002 394.627991 117.477997 C 392.108002 113.179993 388.644012 108.862 385.123993 105.325989 C 384.901001 105.10199 384.673004 104.891998 384.445007 104.684998 C 382.376007 101.641998 380.178986 98.695007 377.51001 96.003998 C 374.867004 93.339996 372.718994 90.242004 370.049011 87.619995 C 369.385986 86.970001 368.682007 86.371002 367.954987 85.800995 C 363.417999 79.425995 357.492004 70.299988 349.647003 67.848999 C 348.802002 67.584991 347.962006 67.393982 347.123993 67.247009 C 343.320007 62.009003 339.359009 56.903992 334.424988 52.631012 C 327.118011 46.303986 318.251007 43.195007 308.928009 47.29599 C 306.248993 48.475006 303.428986 49.722992 300.752014 51.195984 C 301.263 52.734985 301.11499 54.595001 300.089996 55.859009 C 298.205994 58.182983 295.798004 59.709991 293.286011 61.269989 C 292.484985 61.768005 291.542999 61.863007 290.643005 61.677002 C 290.290009 61.833008 289.925995 61.964996 289.561005 62.09201 C 289.195007 62.917999 288.867004 63.777008 288.622986 64.699005 C 286.980988 70.904999 289.730988 75.033997 292.890015 79.957001 C 292.977997 80.093994 293.037994 80.187988 293.097992 80.281006 C 293.799988 81.725006 294.147003 83.187012 295.170013 84.484985 C 296.537994 86.225006 298.527008 87.234009 300.144989 88.468994 C 304.587006 91.860992 311.105988 95.212006 315.320007 99.701996 C 316.06601 101.100006 316.871002 102.56601 317.813995 103.813995 C 318.95401 105.869995 320.475006 107.757996 322.148987 109.22699 C 326.085999 112.679993 329.897003 116.26001 333.920013 119.570007 C 334.127991 119.898987 334.346008 120.218994 334.549011 120.553009 C 334.834015 121.022003 335.126007 121.471008 335.414001 121.928986 C 338.029999 128.307007 343.191986 133.341003 349.239014 137.049988 C 351.725006 138.575012 354.160004 138.908997 356.328003 138.428986 C 357.852997 140.151001 359.411987 141.842987 361.037994 143.519012 C 363.639008 146.199005 363.47699 149.539001 365.515015 152.73999 C 368.852997 157.984009 374.735992 160.144989 380.677002 158.59201 C 384.950989 157.473999 386.981995 154.205994 387.178009 150.753998 C 388.410004 151.229004 389.710999 151.488007 390.98999 151.47699 C 396.513 151.431 402.092987 146.450012 401.787994 140.729004 C 401.694 138.953003 401.132996 137.299988 400.210999 135.928009 Z"/>
    <g id="g2">
        <path id="path9" fill="#999999" stroke="none" d="M 389.928986 124.299011 C 388.963013 120.480988 389.089996 116.40799 387.796997 112.675995 C 386.618011 109.274994 384.153015 106.233002 382.106995 103.294006 C 377.02301 95.988983 369.947998 89.100006 363.444 83.027008 C 357.22699 77.223999 349.843994 71.971008 342.479004 67.794006 C 334.95401 63.524994 327.462006 58.450012 319.5 55.087006 C 315.787994 53.519012 312.664001 58.346008 316.257996 60.63501 C 319.942993 62.983002 322.460999 66.541992 325.862 69.216003 C 329.321014 71.936005 333.078003 74.26001 336.320007 77.255005 C 342.441986 82.910004 348.768005 88.89801 354.46701 94.970001 C 360.325989 101.210999 366.059998 107.694 371.562012 114.244995 C 376.128998 119.68399 379.222992 125.419006 385.979004 128.25 C 388.359009 129.25 390.466003 126.423004 389.928986 124.299011 Z"/>
        <path id="path10" fill="#999999" stroke="none" d="M 362.326996 127.26001 C 358.480988 118.187988 352.871002 110.924011 346.928009 103.069 C 342.01001 96.567993 336.712006 90.253998 329.928986 85.626007 C 327.604004 84.037994 324.846008 87.631012 326.92099 89.524994 C 333.688995 95.705994 337.653992 104.785004 342.154999 112.636993 C 346.635986 120.454987 351.326996 125.937012 359.028992 130.556 C 361.300995 131.920013 363.196991 129.313995 362.326996 127.26001 Z"/>
    </g>
    <path id="path11" fill="#eaa9a9" stroke="none" d="M 443.970001 55.333008 C 443.519012 52.152008 442.674988 49.061005 441.660004 46.428009 C 439.609009 41.114014 436.403015 36.769989 432.466003 32.688995 C 430.789001 30.950989 428.837006 28.799988 426.60199 27.330994 C 424.131012 24.149994 421.79599 20.825012 419.010986 17.946014 C 409.825989 8.45401 397.764008 8.252014 385.398987 8.648987 C 379.466003 8.839996 373.424011 8.987 368.062988 11.893005 C 363.821991 14.191986 359.419006 16.095001 355.196991 18.51001 C 345 24.341003 333.290985 27.062012 326.322998 37.238007 C 324.445007 39.980011 324.59201 44.278992 326.322998 47.036011 C 329.25 51.697998 332.889008 52.786987 337.507996 53.339996 C 340.658997 54.684998 343.653992 55.209991 345.941986 57.075989 C 347.753998 58.550995 349.743988 59.618011 351.558014 60.960999 C 353.14801 62.136993 354.298004 64.316986 355.658997 65.766998 C 360.85199 71.303986 367.856995 80.234985 376.204987 79.826996 C 377.540985 81.34201 378.85199 82.855011 379.899994 84.470001 C 383.312988 89.730011 386.617004 96.011993 392.451996 98.945007 C 392.493011 98.964996 392.53299 98.980988 392.574005 99 C 393.794006 100.980011 394.928009 103.005005 395.949005 105.087006 C 394.484009 109.540985 395.928009 115.811005 401.462006 116.681 C 407.567993 117.640991 413.411987 117.511993 418.42099 113.445007 C 423.071991 109.667999 425.388 104.104004 428.75 99.29599 C 430.36499 96.985992 431.653015 94.43399 433.315002 92.171997 C 435.005005 89.869995 437.265991 88.023987 438.846985 85.605011 C 440.369995 83.27301 441.667999 80.431 442.380005 77.483002 C 443.524994 75.598999 444.558014 73.696991 445.528015 71.549988 C 448.233002 65.549011 448.643005 59.29599 443.970001 55.333008 Z"/>
    <path id="path12" fill="#d96f6f" stroke="none" d="M 434.740997 39.096985 C 429.230988 34.411987 420.885986 37.487 420.545013 44.977997 C 420.484985 46.29599 420.614014 47.601013 420.828003 48.89801 C 419.298004 50.281006 417.894989 51.813995 416.338989 53.161987 C 411.822998 57.076996 408.381989 61.872986 403.884003 65.757996 C 400.477997 68.699005 396.947998 74.118011 392.483002 75.419006 C 391.403015 74.325989 390.291992 73.298004 389.167999 72.404999 C 383.101013 67.583984 375.13501 64.010986 368.152008 60.634003 C 365.936005 59.562012 362.457001 60.79599 362.733002 63.743988 C 363.453003 71.458008 372.992004 76.096985 378.122009 80.768982 C 384.816986 86.868011 386.565002 98.087982 393.906006 103.394989 C 394.264008 103.652985 394.618988 103.881012 394.972992 104.093994 C 394.640015 105.768005 395.084015 107.527985 396.404999 108.936005 C 402.063995 114.96701 410.687988 111.427002 415.916992 106.76001 C 418.912994 104.085999 421.795013 101.023987 424.296997 97.889984 C 426.855011 94.686005 428.110992 90.764984 430.873993 87.809998 C 442.339996 75.540985 449.751007 51.859985 434.740997 39.096985 Z"/>
    <path id="path13" fill="#f2f2f2" stroke="none" d="M 393.752014 24.402985 C 385.214996 18.641998 373.980988 22.210999 366.257996 27.632996 C 360.390991 31.751007 348.181 40.604004 352.816986 48.992004 C 354.199005 51.493988 357.037994 52.286011 359.480988 51.572998 C 359.454987 51.606995 359.429993 51.639984 359.404999 51.674011 C 362.213013 51.270996 364.388 48.838013 366.446014 47.057983 C 369.372986 44.527008 372.510986 42.32901 375.720001 40.162994 C 379.088013 37.889984 382.787994 36.279999 386.292999 34.285004 C 389.509003 32.455994 391.428009 30.222992 394.195007 27.843994 C 395.332001 26.86499 394.834015 25.132996 393.752014 24.402985 Z"/>
    <path id="path14" fill="#000000" stroke="none" d="M 205.462006 313.942993 C 214.615997 304.855988 224.802994 296.799988 234.218994 287.964996 C 244.115997 278.679993 254.389008 269.996979 264.776001 261.278992 C 269.561005 257.263 273.976013 252.337006 279.15799 248.871002 C 284.210999 245.48999 289.515991 243.093994 294.226013 239.151001 C 304.175995 230.819 314.806 223.256012 324.411011 214.519989 C 333.513 206.240997 342.997009 197.842987 350.994995 188.47699 C 355.070007 183.705994 358.255005 178.306 362.216003 173.467987 C 364.919006 170.166016 368.670013 167.348999 370.681 163.513 C 373.903992 166.263 376.665009 168.526001 382.240997 167.457001 C 386.959015 166.550995 390.752991 163.174011 393.539001 159.265015 C 404.110992 159.815002 410.191986 151.533997 410.894012 140.225006 C 411.088013 137.105988 410.989014 132.263 409.946991 127.957001 C 414.644989 125.756012 417.910004 120.386993 421.277008 116.661987 C 424.708008 112.865997 428.549011 109.436005 432.138 105.789001 C 436.145996 101.717987 439.199005 97.022003 443.023987 92.833984 C 450.065002 85.127991 455.276001 78.531982 455.598999 67.562012 C 455.903015 57.220001 452.825989 47.332001 449.069 37.825012 C 445.657013 29.192993 440.562012 23.187012 432.93399 17.927002 C 426.002991 13.14801 418.544006 7.062012 410.755005 3.876007 C 392.695007 -3.512024 372.222992 0.412994 355.377991 9.302002 C 350.265015 12 346.010986 15.437012 341.325012 18.731995 C 336.802002 21.911987 332.411011 23.057007 328.821014 27.615997 C 325.89801 31.326996 322.434998 34.571991 319.592987 38.368988 C 318.506012 39.820984 317.234985 41.38501 316.681 43.144012 C 309.002014 42.208984 301.47699 43.627991 297.735992 50.667999 C 296.904999 52.233002 296.873993 54.037994 296.204987 55.593994 C 295.278015 57.756989 295.537994 57.648987 293.42099 58.920013 C 291.045013 60.347992 288.737 62.307983 287.216003 64.635986 C 285.22699 67.679993 284.627991 71.52301 285.088989 75.203003 C 284.201996 75.304993 283.296997 75.497986 282.369995 75.804993 C 272.35199 79.125 265.096985 89.748993 257.962006 96.932983 C 248.669998 106.290009 238.524994 114.333008 228.416 122.756012 C 223.651993 126.725006 219.410004 131.166016 214.858994 135.358002 C 210.434006 139.43399 205.244995 141.843994 200.429993 145.307007 C 196.468994 148.157013 193.281006 151.963013 189.608994 155.158997 C 184.666 159.463989 179.468994 163.471008 174.470001 167.709991 C 163.069 177.376007 152.753998 188.28299 141.457001 198.097015 C 130.363998 207.734985 119.057999 217.128998 108.174004 227.005005 C 102.872002 231.81601 97.691002 236.753998 92.665001 241.852997 C 87.594002 246.996002 82.973 253.372009 77.059998 257.550995 C 71.821999 261.251984 67.998001 265.039001 63.447998 269.542999 C 61.808998 271.164978 60.470001 272.428986 59.200996 274.365997 C 58.674999 275.169983 58.117001 276.195007 57.498001 277.222992 C 56.393002 277.317993 55.285999 277.953003 54.855999 279.119995 C 54.709999 279.514008 54.521999 279.880005 54.348999 280.255981 C 52.219002 281.983978 50.213001 283.803986 48.402 285.682007 C 47.405998 286.714996 47.687 288.190002 48.525002 289.044006 C 47.421001 290.630005 46.412998 292.281006 45.735001 294.141998 C 43.491001 300.302002 40.172001 305.846985 38.009998 312.063995 C 33.103001 326.177979 27.953999 339.899994 22.091 353.643005 C 19.156 360.522003 17.131001 367.740997 14.202 374.623993 C 11.610001 380.717987 8.576 386.299988 7.585 392.886993 C 6.206 402.074005 -1.943 412.802979 1.46 422.428986 C 2.319 424.855988 5.053 426.29599 7.445 424.863983 C 12.959999 421.561981 17.775 417.506989 23.079 413.912994 C 23.665001 413.514984 24.26 413.131989 24.861 412.752991 C 34.334999 409.372986 43.612999 404.768005 45.363998 404.223999 C 48.874001 403.134003 51.937 401.843994 55.265999 400.345978 C 58.132999 399.054993 61.218002 398.605988 64.095001 397.296997 C 70.995003 394.154999 78.109001 391.843994 85.378998 389.571991 C 93.004997 387.187988 100.070999 384.828979 107.036003 380.828003 C 110.904999 378.60498 114.717003 376.322998 118.766998 374.432983 C 122.25 372.807983 125.990997 371.617981 129.334 369.729004 C 130.839005 372.412994 134.578003 374.208008 137.365005 372.139008 C 139.856003 370.290985 141.783005 367.705994 144.893997 367.121002 C 145.343994 367.03598 145.733994 366.893005 146.097 366.725006 C 147.595993 367.125 149.292999 366.867004 150.723999 365.574982 C 159.934998 357.251007 168.341995 348.10199 177.604004 339.790985 C 187.054001 331.317993 196.453003 322.884979 205.462006 313.942993 Z M 329.19101 41.122986 C 332.73999 38.484009 334.917999 35.20401 338.125 32.316986 C 340.242004 30.410004 343.118011 29.98999 345.513 28.575989 C 347.835999 27.204987 349.772003 25.187012 351.983002 23.652985 C 356.483002 20.531006 361.497009 17.838989 366.598999 15.846008 C 371.63501 13.880005 376.960999 12.563995 382.252014 11.497009 C 388.105011 10.317993 392.354004 10.600006 398.131989 11.826996 C 402.723999 12.803009 406.695007 13.446014 410.710999 16.048004 C 414.665009 18.610992 418.412994 21.471008 422.397003 24.006989 C 426.311005 26.497986 430.332001 28.957001 433.519012 32.381989 C 437.230011 36.372986 438.94101 41.447998 440.721985 46.502991 C 444.315002 56.699005 447.845001 70.326996 440.480011 79.733002 C 437.419006 83.641998 433.591003 86.865997 430.546997 90.860992 C 426.773987 95.813995 422.131989 100.005005 417.69101 104.347992 C 414.020996 107.937012 410.760986 111.872009 407.453003 115.763 C 406.993988 115.113983 406.513 114.454987 406.040009 113.757996 C 403.368011 109.828003 400.631989 105.967987 397.666992 102.251984 C 391.506989 94.527985 384.855011 87.272003 377.328003 80.860992 C 370.367004 74.932983 363.936005 68.488007 357.071014 62.47699 C 350.38501 56.621002 341.996002 52.29599 334.015015 48.467987 C 331.425995 47.22699 328.188995 45.911011 324.699005 44.868011 C 326.114014 43.546997 327.602997 42.303986 329.19101 41.122986 Z M 296.26001 68.92099 C 297.710999 67.596008 299.141998 66.763 300.460999 65.960999 C 303.888 69.921997 306.606995 74.070984 311.498993 76.575989 C 314.730011 78.230988 317.186005 79.434998 319.859009 82.014984 C 321.781006 83.868988 323.72699 85.803009 325.967987 87.281006 C 331.126007 90.682983 336.712006 92.807983 340.996002 97.46701 C 343.993988 100.727997 346.209991 103.90799 350.84201 104.675995 C 351.410004 104.768982 351.813995 104.02301 351.253998 103.697998 C 347.036987 101.242004 345.018005 95.916992 341.756012 92.415009 C 337.75 88.11499 332.730988 84.738983 328.588989 80.540985 C 325.178009 77.083984 322.528015 73.488983 318.027008 71.381989 C 312.989014 69.023987 308.696991 65.990997 304.134003 62.997986 C 304.888 62.037994 305.515015 60.820007 305.960999 59.109009 C 306.812012 55.84201 306.700989 53.40799 310.490997 52.475006 C 313.472992 51.740997 317.020996 52.147003 319.983002 52.733002 C 326.903015 54.098999 333.347992 57.733002 339.449005 61.134003 C 352.304993 68.302002 361.519012 80.519989 371.734985 90.928986 C 377.136993 96.432983 382.058014 102.371002 386.855988 108.402008 C 390.04599 112.411011 392.674011 117.337982 396.049011 121.386993 C 395.522003 122.47699 395.463013 123.756989 396.260986 124.794006 C 399.080994 128.463989 399.695007 132.445007 399.667999 137 C 399.647003 140.425995 399.393005 150.440002 393.562012 147.890015 C 393.355988 147.799988 393.135986 147.723999 392.915009 147.647003 C 392.813995 147.359985 392.681 147.072998 392.479004 146.782013 C 389.002014 141.768005 384.420013 137.291016 380.696014 132.394012 C 378.709991 129.782013 376.657013 127.174988 374.368011 124.820984 C 370.782013 121.13501 366.165009 118.687988 362.678986 114.893005 C 362.079987 114.23999 361.152008 115.196991 361.716003 115.855988 C 365.460999 120.248993 367.463989 125.830994 370.76001 130.592987 C 372.729004 133.434998 374.466003 136.359009 376.221008 139.330994 C 378.324005 142.894989 381.079987 148.269989 384.98999 150.816986 C 383.027008 153.596008 380.898987 156.678009 377.394012 156.713989 C 375.428986 156.734985 373.739014 156.088013 371.971008 155.625 C 370.675995 147.515015 361.851013 140.970001 355.872009 136.492004 C 351.346985 133.102997 348.541992 128.653992 344.515015 124.80899 C 339.774994 120.28299 335.244995 116.377991 331.863007 110.665009 C 329.351013 106.421997 326.748993 103.337982 322.753998 100.419006 C 317.623993 96.669006 313.024994 92.277008 307.993011 88.394989 C 303.359985 84.820007 298.550995 79.397003 293.023987 76.720001 C 293.584015 73.855011 294.027008 70.958008 296.26001 68.92099 Z M 85.561996 264.837006 C 90.037003 261.582001 93.950996 257.320007 97.867996 253.434998 C 115.848999 235.60199 135.645996 219.992004 154.727005 203.394012 C 164.048004 195.285004 172.610001 186.32901 182.011002 178.329987 C 186.444 174.558014 191.042999 170.985992 195.537994 167.290009 C 199.757004 163.821014 203.475006 159.47699 207.862 156.272003 C 212.005005 153.244995 216.667999 151.14801 220.720993 147.899994 C 225.311996 144.221008 229.255997 139.859985 233.660995 135.973999 C 243.227997 127.53299 253.652008 120.223999 262.899994 111.395996 C 270.338013 104.296997 277.127014 95.391998 285.669006 89.580994 C 293.341003 84.362 306.269989 101.848999 311.291992 106.388 C 315.028015 109.764008 318.553009 111.941986 321.140991 116.294983 C 318.848999 118.083984 316.67099 120.046997 314.47699 121.911011 C 311.127014 124.756989 308.222992 128.588013 304.722992 131.166992 C 302.77301 132.605011 300.242004 133.203003 298.203003 134.528992 C 296.373993 135.718994 294.782013 137.21701 293.212006 138.720001 C 289.571991 142.20401 286.256989 145.960999 282.352997 149.165009 C 275.19101 155.039001 268.011993 161.807007 261.812988 168.722992 C 254.632996 176.733002 246.774994 183.079987 238.679993 190.138 C 222.837006 203.953003 208.132996 218.970001 193.009003 233.515015 C 189.565002 236.826996 185.923004 239.976013 182.363998 243.166016 C 178.419998 246.699005 174.106003 249.144012 169.934006 252.278015 C 166.227005 255.062012 163.718002 258.526001 159.682007 260.980988 C 155.673004 263.417999 152.238007 266.735992 148.563004 269.644989 C 138.998993 277.217987 129.046005 284.302979 119.735001 292.194 C 115.079002 296.139008 110.524002 300.23999 106.219002 304.567993 C 106.134003 304.652985 106.047997 304.75 105.961998 304.841003 C 106.660004 302.973999 107.198997 301.063995 107.457001 299.108002 C 108.660004 289.98999 105.377998 281.28299 98.110001 275.80899 C 92.519997 271.597992 86.988998 268.243988 80.806 267.936981 C 82.405998 266.962982 84.003998 265.970978 85.561996 264.837006 Z M 24.462999 381.332001 C 24.375999 381.445007 24.289 381.55899 24.201 381.67099 C 24.809999 379.617004 25.643999 377.723999 26.964001 376.386993 C 27.146999 376.199982 27.257999 375.996979 27.339001 375.789001 C 27.521999 375.854004 27.703999 375.919006 27.886002 375.985992 C 26.388 377.651001 25.441999 379.423981 24.462999 381.332001 Z M 35.061001 387.367981 C 35.556999 386.713989 36.040001 386.049988 36.487999 385.358978 C 36.77 386.320984 37.006001 387.528992 37.263 388.826996 C 36.549999 388.207001 35.814999 387.725006 35.061001 387.367981 Z M 129.785995 352.868988 C 129.223007 353.197998 128.710999 353.619995 128.306 354.15799 C 128.903 353.367981 125.378006 354.636993 124.494003 354.867981 C 122.732002 355.333008 120.924004 355.731995 119.198997 356.320007 C 113.75 358.177979 109.300003 362.028992 104.387001 364.902985 C 92.844002 371.656982 80.567001 376.298004 68.657997 382.216003 C 62.628998 385.212006 56.511002 387.977997 50.390999 390.742004 C 50.794998 383.748993 48.612999 376.338989 43.323002 371.618988 C 39.735001 368.415985 33.688999 366.695984 28.310001 367.278992 C 30.341999 361.72998 32.485001 356.296997 34.848 350.84198 C 40.341999 338.16098 43.535999 324.80899 48.051998 311.798981 C 49.063 308.889008 50.632 306.291992 51.778 303.450989 C 53.035 300.332001 53.250999 296.902985 54.678001 293.845978 C 56.007999 290.996002 57.519001 288.600006 58.657001 286.001984 C 59.636002 285.613983 60.608002 285.208008 61.556999 284.72998 C 65.160004 282.914001 68.669998 280.96698 72.350998 279.303986 C 76.903999 277.247986 80.511002 276.02298 85.216003 278.509979 C 88.425003 280.205994 92.795998 282.990997 94.983002 285.904999 C 105.988998 300.565979 82.861 311.582001 86.460999 325.505981 C 87.217003 328.432007 91.286003 330.53299 93.961998 328.557007 C 97.634003 325.84198 101.084 322.406006 105.475998 320.881989 C 109.547997 319.468994 114.893997 318.700989 119.209999 318.265991 C 126.479996 317.531982 136.817993 321.988007 136.815002 330.457001 C 136.807999 338.531982 132.393997 345.518005 129.785995 352.868988 Z M 144.587006 356.987 C 142.789993 356.432007 141.276001 356.368988 139.929993 356.65799 C 141.126007 351.600006 143.873993 346.557983 145.417007 342.014984 C 148.041 334.289001 148.593002 326.289978 143.388 319.5 C 137.697998 312.078003 128.565994 307.733002 119.205002 308.40799 C 115.599998 308.667999 111.536003 309.178986 107.721001 309.972992 C 109.330002 308.440979 110.841003 306.906982 112.251999 305.720001 C 121.152 298.21698 129.968002 290.78598 139.317993 283.833008 C 147.957001 277.40799 156.313995 270.470978 165.330994 264.66098 C 168.975998 262.311981 171.289001 258.59198 174.953995 256.265991 C 179.149994 253.60199 183.007996 250.845001 186.748993 247.550995 C 194.565994 240.665009 201.740005 233.338013 209.182999 226.067993 C 216.863007 218.565002 225.348999 211.881989 233.156006 204.487 C 241.520004 196.565002 251.144989 189.972992 259.397003 182.009003 C 262.789001 178.734985 265.480988 174.803986 268.877991 171.542999 C 273.101013 167.488007 278.407013 164.897003 283.110992 161.5 C 287.257996 158.506989 291.43399 155.717987 295.161011 152.178009 C 299.584015 147.97699 303.084015 144.716003 308.51001 141.895996 C 312.817993 139.65799 315.622986 136.019989 319.257996 132.920013 C 322.095001 130.5 325.11499 128.287994 327.80899 125.763 C 328.95401 127.089996 330.138 128.389008 331.39801 129.631012 C 335.104004 133.28299 338.282013 136.942993 341.644989 140.901001 C 345.205994 145.091003 350.145996 147.803009 354.128998 151.570007 C 355.231995 152.613007 359.13501 155.84201 359.059998 157.533997 C 359.003998 158.82901 355.127991 161.686005 354.281006 162.615997 C 350.368988 166.908997 347.411987 171.933014 343.839996 176.487 C 336.402008 185.967987 327.062012 193.958008 318.450989 202.337006 C 309.398987 211.145996 299.248993 218.61499 289.587006 226.718994 C 280.912994 233.993011 271.194 239.160004 262.733002 246.756012 C 251.915009 256.464996 240.449997 265.359985 229.800995 275.276001 C 219.746994 284.638 209.028 293.404999 199.173004 302.949005 C 189.513 312.304993 179.796005 321.462982 169.781998 330.445007 C 160.737 338.553986 151.128006 346.67099 144.587006 356.987 Z"/>
    <path id="path15" fill="#000000" stroke="none" d="M 236.203995 250.28299 C 237.268997 252.873993 239.903 258.565979 243.550003 255.778015 C 247.139999 253.033997 242.406998 246.138 241.503006 243.071014 C 240.130005 238.417999 239.386002 234.244995 235.429001 230.997009 C 232.528 228.615997 228.490005 232.420013 231.229996 235.196014 C 234.787003 238.802002 234.317001 245.696991 236.203995 250.28299 Z"/>
    <path id="path16" fill="#000000" stroke="none" d="M 247.335999 236.867004 C 247.863998 239.375 248.416 241.622009 250.339005 243.457001 C 252.815002 245.820007 257.55899 242.591003 255.303986 239.626007 C 253.644989 237.444 253.48999 234.972015 252.449005 232.502991 C 251.300995 229.78299 249.682999 227.141998 247.718994 224.937988 C 245.350006 222.279999 241.692993 226.118988 243.863007 228.794006 C 245.722 231.080994 246.735001 234.019989 247.335999 236.867004 Z"/>
    <path id="path17" fill="#000000" stroke="none" d="M 254.878998 224.067993 C 255.598999 226.234009 256.60199 228.229004 257.109985 230.476013 C 257.753998 233.332001 261.93399 232.557007 262.050995 229.807007 C 262.167999 227.056 261.470001 223.579987 260.606995 220.972015 C 259.70401 218.243011 258.302002 216.096008 255.98999 214.376007 C 253.343994 212.40799 249.938004 216.812012 252.450989 218.963013 C 254.071014 220.351013 254.239014 222.14801 254.878998 224.067993 Z"/>
    <path id="path18" fill="#000000" stroke="none" d="M 265.299988 213.019989 C 265.625 214.731995 265.84201 216.752991 267.735992 217.411011 C 268.346985 217.622986 269.066986 217.373993 269.511993 216.94101 C 271.036987 215.460999 270.140015 212.76001 269.634003 211.011993 C 269.158997 209.372986 267.937012 207.234009 266.096985 206.835999 C 265.102997 206.619995 264.066986 207.479004 264.390991 208.541992 C 264.837006 210.006012 265.011993 211.501007 265.299988 213.019989 Z"/>
    <path id="path19" fill="#000000" stroke="none" d="M 294.630005 185.718994 C 294.644012 185.757996 294.665985 185.812012 294.700989 185.886993 C 294.550995 185.566986 294.907013 186.493011 294.937988 186.591003 C 295.242004 187.59201 295.442993 188.625 295.627991 189.653015 C 295.958008 191.489014 295.911011 193.899994 297.355988 195.263 C 298.71701 196.546997 301.493011 196.567993 302.377014 194.615997 C 303.428986 192.292999 302.569 189.718994 302.027008 187.118988 C 301.583008 184.988007 300.989014 182.351013 299.256989 180.875 C 295.992004 178.09201 291.233002 182.768005 294.506989 185.625 C 294.56601 185.677002 294.602997 185.703003 294.630005 185.718994 Z"/>
    <path id="path20" fill="#000000" stroke="none" d="M 310.510986 183.329987 C 311.328003 184.007996 312.34201 184.053009 313.161987 183.329987 C 314.783997 181.898987 314.904999 179.203003 314.648987 177.187988 C 314.346985 174.816986 313.135986 172.819 311.565002 171.062012 C 308.859985 168.036011 304.47699 172.477997 307.125 175.502014 C 309.076996 177.733002 308.227997 181.437012 310.510986 183.329987 Z"/>
    <path id="path21" fill="#000000" stroke="none" d="M 184.593994 294.544983 C 184.561996 294.483978 184.529999 294.423004 184.498001 294.363007 C 184.190994 293.117981 183.647995 292.002991 183.199997 290.641998 C 182.712997 289.160004 182.274994 287.539001 181.358002 286.256989 C 180.320007 284.804993 178.473007 284.108978 176.830002 285.069 C 175.416 285.895996 174.572998 288.152985 175.641998 289.596985 C 177.772995 292.473999 177.582001 297.860992 182.283997 298.804993 C 184.625 299.274994 186.268005 296.679993 184.720993 294.834991 C 184.681 294.744995 184.649994 294.669983 184.593994 294.544983 Z"/>
    <path id="path22" fill="#000000" stroke="none" d="M 196.830002 277.445984 C 196.593002 276.912994 196.376007 276.371002 196.057007 275.880005 C 194.720993 273.825989 192.483994 273.048981 190.125 273.68399 C 188.539993 274.110992 187.412003 275.938995 187.932007 277.54599 C 188.376007 278.915985 189.494995 279.722992 190.811996 279.800995 C 190.949997 280.16098 191.085999 280.52298 191.233994 280.876007 C 191.740997 282.078979 192.716003 282.792999 193.959 283.123993 C 194.822998 283.35498 195.679993 283.165985 196.378006 282.627991 C 197.126999 282.049988 197.354996 281.356995 197.470993 280.447998 C 197.343994 281.428986 197.408997 280.983002 197.453995 280.751007 C 197.572006 280.149994 197.662994 279.484985 197.468994 278.884003 C 197.311005 278.389984 197.042999 277.923981 196.830002 277.445984 Z"/>
    <path id="path23" fill="#000000" stroke="none" d="M 384.751007 45.779999 C 389.515991 42.32901 397.14801 35.471008 393.459015 28.881989 C 392.713989 27.550995 390.417999 27.390015 389.717987 28.881989 C 387.830994 32.906006 386.613007 36.191986 383.181 39.270996 C 380.511993 41.665985 374.363007 46.970001 370.484985 44.401001 C 365.756012 41.269012 372.436005 32.143005 376.632996 31.848999 C 379.02301 31.682007 379.049011 27.946991 376.632996 28.101013 C 368.782013 28.601013 360.031006 41.496002 366.89801 47.946991 C 372.243011 52.964996 379.833008 49.342987 384.751007 45.779999 Z"/>
    <path id="path24" fill="#000000" stroke="none" d="M 226.246994 186.449005 C 232.386993 181.746002 238.320999 176.809998 243.770004 171.312012 C 248.869995 166.165009 254.385986 160.980011 257.358002 154.277008 C 258.123993 152.549011 255.852997 150.225006 254.453003 152.035004 C 247.365997 161.207001 238.666 169.571014 229.710999 176.902008 C 225.472 180.372009 221.266006 184.131012 216.593994 187.016998 C 215.141998 187.912994 212.313995 190.019012 210.496994 190.157013 C 207.382996 190.394012 210.580002 187.61499 211.427994 186.136993 C 217.067001 176.300995 225.585007 167.674988 233.225006 159.354004 C 240.501999 151.427002 247.699005 142.854004 257.68399 138.299011 C 259.265015 137.576996 257.888 135.325989 256.333008 135.987 C 243.565994 141.419006 234.197006 153.239014 225.154999 163.32901 C 220.404999 168.630005 215.436005 174.002014 211.412994 179.88501 C 209.328003 182.932007 203.128998 187.98999 204.423004 192.406006 C 206.998993 201.201996 223.399002 188.631012 226.246994 186.449005 Z"/>
    <path id="path25" fill="#000000" stroke="none" d="M 143.656006 243.26001 C 147.414001 245.649994 151.919998 244.308014 155.143005 241.600006 C 158.656006 238.647003 158.865005 232.653015 154.475006 230.31601 C 153.488007 229.791016 152.153 230.226013 151.863998 231.377991 C 151.419006 233.153992 152.343994 235.473999 151.192001 236.983002 C 149.970001 238.587006 147.279999 239.987 145.477997 238.674988 C 143.069 236.921997 141.940002 231.855011 144.626999 229.855988 C 146.677994 228.32901 144.718994 224.838989 142.587006 226.367004 C 137.128006 230.279999 138.151993 239.757996 143.656006 243.26001 Z"/>
    <g id="g3"/>
    <g id="g4"/>
    <g id="g5"/>
    <g id="g6"/>
    <g id="g7"/>
    <g id="g8"/>
    <g id="g9"/>
    <g id="g10"/>
    <g id="g11"/>
    <g id="g12"/>
    <g id="g13"/>
    <g id="g14"/>
    <g id="g15"/>
    <g id="g16"/>
    <g id="g17"/>
</svg>
