<?xml version="1.0" encoding="UTF-8" standalone="no"?>
<!DOCTYPE svg PUBLIC "-//W3C//DTD SVG 1.1//EN" "http://www.w3.org/Graphics/SVG/1.1/DTD/svg11.dtd">
<svg width="100%" height="100%" viewBox="0 0 286 60" version="1.1" xmlns="http://www.w3.org/2000/svg" xmlns:xlink="http://www.w3.org/1999/xlink" xml:space="preserve" xmlns:serif="http://www.serif.com/" style="fill-rule:evenodd;clip-rule:evenodd;stroke-linejoin:round;stroke-miterlimit:2;">
    <g transform="matrix(1.33333,0,0,-1.33333,284.426,42.7845)">
        <g id="g10">
            <g id="g1834">
                <path id="path1836" d="M0,0C-10.203,1.104 -13.42,17.102 -24.614,16.154C-32.174,15.514 -35.078,6.775 -40.646,2.155C-44.615,7.785 -46.29,17.176 -54.656,17.214C-62.656,17.249 -67.41,8.366 -73.095,3.352C-76.103,6.791 -79.171,10.454 -81.428,14.22C-82.7,16.342 -83.214,19.886 -85.256,21.528C-87.061,22.978 -87.987,23.096 -90.292,23.088C-99.936,23.057 -104.936,10.117 -110.401,2.395C-113.469,7.813 -115.7,13.612 -119.021,18.926C-119.626,19.895 -123.65,19.706 -124.479,19.074C-128.479,16.022 -141.794,-1.721 -145.271,-0.225C-151.323,2.378 -152.796,16.186 -156.731,21.161C-157.288,21.867 -161.545,21.875 -162.088,21.161C-164.016,18.629 -177.478,1.585 -178.242,1.854C-182.214,3.248 -183.895,15.648 -187.563,19.241C-188.397,20.057 -192.019,19.867 -192.921,19.241C-198.737,15.206 -205.594,2.79 -212.633,1.179C-215.009,0.635 -210.502,0.215 -209.931,0.251C-209.626,0.27 -209.321,0.288 -209.017,0.307C-205.176,0.545 -208.511,1.501 -210.494,1.378C-204.624,1.742 -206.206,0.768 -201.511,5.56C-197.95,9.195 -194.756,12.982 -190.937,16.28C-187.271,9.862 -186.773,-0.612 -178.822,-1.483C-175.838,-1.81 -173.955,-0.946 -171.785,0.781C-170.098,2.123 -169.459,4.381 -168.307,6.068C-165.702,9.883 -162.769,13.393 -159.87,16.959C-156.428,9.284 -154.15,-2.846 -145.557,-3.56C-136.3,-4.329 -129.038,8.135 -122.604,15.393C-119.575,9.727 -117.243,3.785 -113.537,-1.576C-112.973,-2.392 -108.863,-2.18 -108.178,-1.576C-105.359,0.915 -95.248,21.206 -90.527,20.737C-88.937,20.579 -86.733,13.75 -85.863,12.42C-83.209,8.366 -79.612,4.36 -76.386,0.702C-75.569,-0.227 -72,0.214 -71.03,0.702C-66.669,2.894 -59.266,15.148 -54.388,14.224C-49.676,13.332 -47.678,2.863 -44.126,-0.296C-43.223,-1.098 -40.112,-0.867 -39.049,-0.428C-35.041,1.224 -33.26,3.545 -30.522,6.732C-29.236,8.228 -27.927,10.923 -26.1,11.892C-22.303,13.903 -25.308,13.781 -20.992,11.844C-13.434,8.451 -11.722,0.006 -2.804,-0.959C-1.647,-1.084 3.424,-0.371 0,0" style="fill:rgb(35,31,32);fill-rule:nonzero;"/>
            </g>
        </g>
    </g>
</svg>
