<?xml version="1.0" encoding="UTF-8"?>
<!-- Generated by Pixelmator Pro 3.4.3 -->
<svg width="582" height="585" viewBox="0 0 582 585" xmlns="http://www.w3.org/2000/svg">
    <path id="path600-copy" fill="#48aa55" stroke="none" d="M 520.559814 80.946655 C 520.306641 81.146606 520.093262 81.360107 519.893066 81.600098 L 519.813232 81.640015 L 521.213135 79.920044 Z M 516.666504 86.106689 C 515.679932 86.573364 514.693115 87.133423 513.706787 87.920044 C 512.906738 88.613281 512.159912 89.386719 511.466553 90.213379 L 511.58667 89.960083 C 512.013184 89.373291 512.453369 88.800049 512.906738 88.23999 C 513.986572 86.920044 515.293213 86.280029 516.466553 85.23999 C 516.706787 85.013306 516.946533 84.773315 517.186523 84.546631 L 517.226563 85.41333 L 517.47998 85.706665 Z M 509.640137 80.893433 C 509.453369 81.186768 509.266602 81.493408 509.06665 81.773315 C 509.106689 81.666748 509.146484 81.546631 509.186523 81.440063 C 509.279785 80.826782 509.17334 80.400024 508.906738 80.120117 C 509.58667 79.653442 510.266602 79.106689 510.93335 78.506714 L 511.58667 77.920044 C 511.333252 78.253418 511.079834 78.586792 510.840088 78.920044 C 510.399902 79.573364 509.986572 80.226685 509.640137 80.893433 Z M 314.506592 393.17334 C 312.640137 395.079956 311.093262 397.133423 310.23999 399.506714 C 310.52002 399.813354 310.679932 400.146606 310.733154 400.506714 C 310.65332 400.506714 310.58667 400.506714 310.506592 400.493408 C 309.386719 400.013306 308.106689 400.733398 306.759766 401.920044 C 308 397.706665 311.893066 394.786743 314.506592 391.253418 C 314.41333 391.960083 314.47998 392.533325 314.826416 392.93335 Z M 290.986572 424.920044 C 291.053223 424.586792 291.213135 424.293335 291.453369 424.06665 Z M 286.786621 301.440063 L 286.866699 301.320068 L 286.866699 301.426758 Z M 200.306641 411.800049 C 201.506592 408.306641 205.266602 405.706665 206.93335 402.386719 C 205.466553 405.946655 203.17334 409.040039 200.306641 411.800049 Z M 205.826416 543.17334 L 205.826416 543.17334 L 205.826416 543.17334 Z M 176.226563 451.973389 L 176.079834 452.160034 C 176.079834 452.040039 176.079834 451.920044 176.079834 451.786743 L 176.439941 451.666748 C 176.359863 451.76001 176.293213 451.853394 176.226563 451.973389 Z M 124.040039 414.853394 C 123.506592 414.293335 122.973389 413.720093 122.41333 413.17334 C 121.293213 412.026733 120.119873 410.946655 118.879883 410 C 117.959717 409.333374 117.026611 408.653442 116.119873 407.986694 C 115.573486 407.533325 115.053223 407.079956 114.506592 406.626709 L 114.559814 406.226685 C 114.773438 406.440063 115.040039 406.586792 115.386719 406.666748 C 115.533203 406.693359 115.599854 406.640015 115.640137 406.560059 L 116.213135 407.360107 C 116.906738 408.146606 117.65332 408.786743 118.493164 409.253418 L 121.106689 411.506714 C 121.533203 412.026733 121.973389 412.533325 122.439941 413.013306 C 123.013184 413.640015 123.58667 414.253418 124.17334 414.880005 L 124.959717 415.733398 Z M 112.693115 405 C 112.106689 404.506714 111.533203 404.053467 110.919922 403.666748 C 110.040039 403.093384 109.17334 402.533325 108.293213 401.973389 C 107.733154 401.626709 107.186768 401.23999 106.626465 400.786743 C 106.159912 400.23999 105.666504 399.853394 105.093262 399.599976 C 105.06665 399.573364 105.213135 399 105.213135 399 C 105.213135 399 105.613281 399.773315 105.533203 399.693359 C 106.453369 400.520142 107.373291 400.986694 108.159912 400.679932 C 108.266602 400.440063 108.320068 400.160034 108.320068 399.866699 L 109.893066 401.880005 L 110.746582 402.599976 L 111.386719 403.493408 L 112.893066 405.106689 L 113.52002 405.720093 C 113.23999 405.47998 112.973389 405.23999 112.693115 405 Z M 79.17334 373.813354 C 78.439941 373.213257 77.733154 372.626709 77 372.013306 C 76.333252 371.41333 75.666504 370.839966 74.973389 370.293335 C 74.293213 369.76001 73.613281 369.306641 72.906738 368.920044 C 72.759766 368.866699 72.626465 368.839966 72.47998 368.786743 L 73.266602 368.106689 L 73.106689 368.040039 C 73 367.466675 72.733154 367.026733 72.320068 366.746704 L 72.746582 366.706665 L 72.693115 365.613281 C 72.813232 365.626709 72.919922 365.640015 73.013184 365.626709 C 73.41333 366.040039 73.826416 366.426758 74.253418 366.800049 C 74.840088 367.280029 75.453369 367.666748 76.079834 367.946655 L 76.559814 367.733398 L 76.52002 367.853394 C 76.666504 368.653442 76.946533 369.493408 77.439941 370.360107 C 77.973389 371.200073 78.573486 372.013306 79.23999 372.800049 C 80.399902 374.120117 81.626465 375.333374 82.906738 376.466675 C 81.65332 375.626709 80.386719 374.786743 79.17334 373.813354 Z M 17.23999 399.866699 C 17.373291 399.880005 17.506592 399.866699 17.640137 399.866699 C 17.679932 399.986694 17.733154 400.093384 17.786621 400.200073 C 17.599854 400.106689 17.426514 399.986694 17.23999 399.866699 Z M 542.573242 24.773315 C 542.213135 25.120117 541.879883 25.573364 541.493164 25.506714 C 541.813232 25 542.199951 24.920044 542.573242 24.773315 Z M 572.826416 30.280029 L 570.093262 33.773315 C 569 34.440063 568.199951 35.320068 567.719971 36.41333 C 567.346436 36.47998 566.946533 36.613281 566.52002 36.839966 L 558.199951 46.973389 C 556.813232 48.026733 556.119873 46.866699 554.786621 47.720093 L 553.06665 49.23999 L 552.213135 50.493408 C 552.17334 50.640015 552.133301 50.746704 552.093262 50.866699 C 549.973389 53.360107 548.06665 56.280029 545.17334 57.213379 L 544.599854 58.320068 C 543.959717 58.626709 543.320068 58.920044 542.719971 59.213379 C 537.946533 63.23999 534.759766 69.440063 529.679932 73.079956 C 528.973389 73.626709 528.293213 74.226685 527.613281 74.893433 C 526.746582 75.906738 526.053223 76.973389 525.373291 78.093384 C 524.93335 78.76001 524.466553 79.400024 523.986572 80.053467 C 523.413086 80.693359 522.799805 81.280029 522.199951 81.880005 C 522.146484 81.586792 521.986572 81.386719 521.733154 81.266724 L 523.053223 79.613281 C 523.679932 79.400024 524.253418 78.946655 524.759766 78.253418 C 525.253418 77.573364 525.506592 76.906738 525.573242 76.253418 L 525.679932 76.200073 C 525.799805 76.040039 525.786621 75.813354 525.65332 75.520142 C 525.533203 75.23999 525.199951 75.266724 524.640137 75.586792 C 525.146484 74.960083 525.65332 74.320068 526.146484 73.679932 C 526.733154 72.93335 527.333252 72.186768 527.906738 71.426758 L 530.65332 68 C 531.266602 67.213379 531.879883 66.426758 532.453369 65.600098 C 533.640137 63.893433 534.693115 62.160034 535 60.386719 L 534.986572 60.293457 L 535.506592 60.34668 L 536.426514 59.373291 C 537.026367 58.666748 537.453369 57.920044 537.733154 57.146606 L 540.186523 53.186768 C 539.919922 53.106689 539.666504 52.986816 539.426514 52.866699 C 538.959717 53.213379 538.52002 53.600098 538.093262 54.026733 C 537.773438 53.946655 537.546631 53.773315 537.359863 53.506714 C 537.799805 53.17334 538.253418 52.826782 538.706787 52.47998 C 539.773438 51.440063 540.493164 50.133423 541.413086 48.986816 C 542.026367 48.200073 542.533203 47.386719 542.946533 46.533325 C 542.986572 45.866699 542.866699 45.320068 542.58667 44.920044 C 542.799805 44.586792 542.893066 44.213379 542.879883 43.813354 C 542.613281 43.679932 542.359863 43.533325 542.106689 43.360107 C 541.573242 43.800049 541.040039 44.280029 540.533203 44.800049 C 535.640137 46.946655 533.640137 52.853394 529.813232 56.386719 L 529.866699 56.653442 L 529.853271 56.653442 L 529.853271 56.653442 L 529.813232 56.386719 L 527.346436 57.34668 C 526.58667 57.880005 526.146484 58.546631 526.013184 59.333374 L 525.906738 59.160034 L 525.773438 59.253418 L 525.866699 59.093384 C 526.17334 58.320068 526.439941 57.560059 526.65332 56.813354 C 530.306641 52.440063 532.333252 47.786743 534.106689 43.093384 C 534.773438 42.720093 535.279785 42.160034 535.666504 41.440063 L 535.746582 41.493408 C 536.426514 40.880005 536.906738 40.160034 537.213135 39.360107 L 538.253418 37.386719 C 544.840088 30.720093 550.666504 23.573364 554.399902 15.186768 C 554.279785 14.466675 553.826416 14.186768 553.053223 14.34668 C 548.973389 16.466675 546.746582 21.466675 543.17334 24.400024 L 543.159912 24.400024 C 543.226563 24.34668 543.279785 24.280029 543.333252 24.200073 C 544.386719 23.23999 545.23999 22.093384 545.973389 20.853394 C 548.133301 17.213379 551.293213 14.013306 553.119873 10.200073 C 554.306641 7.160034 557.786621 4.93335 558.47998 1.706665 C 558.186523 1.533325 557.919922 1.34668 557.640137 1.160034 C 550.346436 7.426758 545.053223 17.613281 536.439941 21.333374 C 532.986572 23.093384 530.279785 26.746704 527.213135 29.506714 C 527.65332 27.906738 528.893066 26.146606 529.320068 24.560059 L 529.986572 23.640015 C 530.426514 23.026733 530.879883 22.400024 531.279785 21.773315 C 531.919922 20.800049 532.506592 19.800049 532.93335 18.786743 C 533.333252 17.720093 533.52002 16.720093 533.533203 15.800049 C 533.466553 15.213379 533.306641 14.720093 533 14.34668 C 532.666504 14.106689 532.266602 14 531.799805 14.013306 C 532.17334 13.200073 532.506592 12.373291 532.746582 11.560059 C 532.986572 10.626709 533 9.826782 532.773438 9.17334 L 531.879883 8.826782 C 531.053223 9.146606 530.226563 9.626709 529.413086 10.306641 C 526.559814 12.813354 524.799805 16.226685 522.333252 19.053467 C 521.026367 20.586792 519.973389 22.333374 518.506592 23.693359 C 520.279785 21.826782 521.759766 19.733398 523.23999 17.653442 C 523.759766 16.746704 524.119873 15.853394 524.333252 14.973389 C 523.613281 12.666748 521.47998 14.453369 519.559814 15.666748 C 519.533203 15.41333 519.506592 15.17334 519.466553 14.946655 L 519.399902 14.853394 L 519.93335 14.213379 C 520.253418 13.600098 520.58667 12.986816 520.93335 12.373291 L 520.93335 12.373291 L 520.93335 12.373291 L 522.320068 10.453369 C 522.093262 10.280029 521.879883 10.093384 521.693115 9.880005 L 520.266602 11.800049 L 518.23999 13.973389 C 517.93335 13.893433 517.613281 13.880005 517.253418 13.906738 C 518.573242 13.106689 519.546631 11.880005 520.213135 10.266724 L 520.266602 9.133423 C 518.040039 7.679932 522 3.920044 521.679932 1.760132 L 521.706787 1.333374 C 521.040039 1.640015 520.413086 2.146606 519.853271 2.839966 L 517.426514 5.880005 L 515.840088 7.920044 C 515.306641 8.613281 514.93335 9.333374 514.719971 10.079956 L 513.386719 12 C 513.213135 12.213379 513.146484 12.493408 513.17334 12.853394 C 513.17334 12.93335 513.199951 12.986816 513.23999 13.040039 L 513.199951 13.06665 C 512.106689 13.920044 511.093262 14.906738 510.106689 15.960083 C 509.146484 16.93335 508.159912 17.839966 507.213135 18.826782 C 506.599854 19.546631 506.23999 20.280029 506.119873 21.040039 C 500.199951 26.466675 493.773438 31.186768 489.293213 38.679932 C 487.093262 43.586792 482.346436 47.146606 480.013184 51.973389 C 476.186523 54.400024 473.626465 58.453369 470.706787 62.053467 C 465.506592 68.440063 460.919922 75.520142 454.386719 80.373291 C 453.133301 81.213379 452.213135 82.426758 451.41333 83.773315 C 450.506592 85.213379 449.573486 86.640015 448.613281 88.053467 L 444.559814 92.800049 L 443.546631 94.773315 L 438.93335 99.946655 L 439.426514 100.013306 L 437.706787 101.546631 L 414.386719 131.773315 C 414.186768 131.746704 414 131.720093 413.800049 131.693359 C 410.026611 135.426758 407.106689 139.920044 403.706787 143.973389 L 392.800049 157.826782 L 382.159912 171.306641 C 381.013184 172.773315 379.826416 174.213379 378.866699 175.786743 C 377.52002 177.800049 376.133301 179.786743 374.693115 181.746704 L 370.599854 186.640015 L 367.879883 190.373291 C 366.41333 192.093384 364.893066 193.786743 363.346436 195.426758 C 361.373291 197.679932 359.306641 199.866699 358.040039 202.560059 L 354.17334 208.013306 C 351.719971 211.026733 348.879883 213.866699 347.853271 217.520142 L 323.800049 248.373291 C 320.47998 252.653442 316.986572 256.34668 312.733154 258.373291 C 314.706787 256.520142 314.679932 254.533325 315.546631 252.613281 C 311.373291 252.546631 309.959717 257.293457 307.613281 260.41333 C 306.986572 262.426758 303.52002 264.23999 304.706787 266.373291 C 305.93335 265.920044 307.159912 264.586792 308.386719 263.746704 L 308.186768 264.120117 C 302.719971 273.306641 295.23999 281.17334 289.053223 289.880005 C 283.133301 300.493408 274.453369 309.400024 267.466553 319.386719 C 262.466553 328.17334 256.053223 336.013306 249.306641 343.653442 C 248.47998 344.400024 247.666504 345.200073 246.906738 346.079956 L 248.800049 343.120117 L 249.013184 343.573364 L 251.493164 339.706665 C 251.266602 339.133423 250.773438 339.026733 250.026611 339.320068 C 248.906738 340.160034 248.146484 341.266724 247.573486 342.506714 C 247.52002 342.586792 247.52002 342.693359 247.573486 342.839966 C 246.986572 343.026733 246.439941 343.453369 245.906738 344.133423 C 244.640137 345.746704 243.279785 347.306641 242.226563 349.06665 L 242.159912 350.23999 L 243.226563 350.093384 L 243.386719 350.586792 L 244.333252 349.440063 C 243.866699 350.160034 243.426514 350.880005 243.026611 351.626709 C 240 357.973389 235.919922 363.839966 231.226563 369.453369 L 229.320068 371.813354 C 228.320068 372.946655 227.320068 374.040039 226.346436 375.186768 C 225.733154 375.973389 225.17334 376.786743 224.679932 377.640015 C 222.693115 381.826782 220.23999 385.800049 216.840088 389.333374 C 216.399902 389.866699 215.986572 390.400024 215.58667 390.946655 C 215.373291 388.306641 219.093262 386.320068 219.919922 383.839966 C 219.693115 383.653442 219.47998 383.453369 219.266602 383.253418 L 217.559814 384.893433 C 216.826416 385.360107 216.106689 385.906616 215.41333 386.546631 C 214.719971 387.200073 214.119873 387.93335 213.613281 388.76001 C 213.040039 389.893433 212.159912 391 211.826416 392.17334 C 211.359863 392.360107 210.946533 392.786743 210.599854 393.453369 L 210.679932 394.466675 L 211.719971 394.200073 L 211.866699 394.653442 L 213.226563 392.880005 C 213.466553 392.973389 213.693115 393.06665 213.919922 393.17334 C 213.23999 393.93335 212.506592 394.613281 211.773438 395.266724 C 211.146484 395.853394 210.533203 396.47998 209.973389 397.160034 C 209.399902 397.880005 208.866699 398.640015 208.41333 399.41333 C 207.946533 400.226685 207.52002 401.040039 207.146484 401.866699 C 207.106689 401.973389 207.06665 402.06665 207.026611 402.17334 C 207.040039 402.040039 207 401.866699 206.893066 401.626709 C 206.733154 401.306641 206.386719 401.23999 205.826416 401.426758 C 204.253418 402.306641 202.919922 403.746704 201.640137 405.266724 C 201.013184 406.013306 200.41333 406.76001 199.840088 407.546631 C 199.253418 408.320068 198.679932 409.093384 198.146484 409.893433 C 197.346436 411.093384 196.679932 412.306641 196.306641 413.546631 C 196.17334 414.333374 196.253418 414.973389 196.506592 415.506714 C 196.640137 415.626709 196.813232 415.706665 196.986572 415.76001 C 196.573486 416.386719 196.186768 417.026733 195.840088 417.666748 C 193.426514 422.333374 190.986572 427 187.359863 431.23999 C 186.746582 432.013306 186.133301 432.773315 185.559814 433.573364 C 184.959717 434.333374 184.359863 435.106689 183.800049 435.893433 L 182.746582 437.293335 L 182.253418 437.973389 L 182.17334 438.133423 C 182.079834 438.360107 182 438.599976 181.973389 438.893433 C 181.959717 439.226685 181.973389 439.613281 181.973389 440 C 181.946533 440.226685 181.906738 440.426758 181.866699 440.640015 L 181.599854 441.146606 C 181.47998 441.280029 181.373291 441.426758 181.279785 441.586792 C 181.159912 441.720093 181.053223 441.866699 180.973389 442.026733 C 180.866699 442.186768 180.773438 442.360107 180.719971 442.573364 C 180.65332 442.773315 180.613281 443.013306 180.599854 443.306641 C 180.58667 443.733398 180.533203 444.120117 180.426514 444.453369 L 180.119873 444.960083 C 179.986572 445.093384 179.853271 445.226685 179.746582 445.400024 C 179.533203 445.613281 179.333252 445.813354 179.146484 446.053467 C 179.013184 446.213257 178.879883 446.373291 178.759766 446.586792 C 178.506592 446.960083 178.293213 447.426758 178.133301 448.093384 C 178.013184 448.573364 177.893066 449.06665 177.746582 449.546631 L 177.399902 450.306641 C 177.159912 450.720093 176.879883 451.06665 176.613281 451.426758 L 176.453369 451.640015 C 176.426514 450.920044 176.320068 450.333374 176.119873 449.866699 C 175.919922 449.546631 175.786621 449.626709 175.706787 450.120117 L 175.706787 450.120117 C 175.573486 449.826782 175.439941 449.640015 175.306641 449.533325 C 174.866699 449.47998 174.559814 449.93335 174.346436 451.839966 C 174.333252 451.866699 174.320068 451.986694 174.333252 452.200073 C 174.23999 452.06665 174.159912 452.17334 174.079834 452.560059 C 174.053223 452.893433 174.040039 453.200073 174.053223 453.493408 L 174 453.453369 C 173.919922 453.400024 173.840088 453.360107 173.773438 453.360107 L 173.613281 453.053467 C 173.47998 452.813354 173.333252 452.613281 173.199951 452.466675 C 172.986572 452.23999 172.773438 452.079956 172.559814 452.06665 C 172.426514 452.079956 172.293213 452.186768 172.146484 452.400024 C 172.06665 452.586792 171.986572 452.786743 171.906738 453 C 171.866699 452.960083 171.813232 452.946655 171.759766 452.986694 L 171.719971 453.47998 L 171.599854 453.76001 C 171.546631 453.826782 171.506592 453.880005 171.453369 453.93335 C 171.466553 453.599976 171.47998 453.253418 171.466553 452.880005 C 171.41333 452.146606 171.306641 451.640015 171.159912 451.320068 L 171.040039 451.293335 C 171.093262 450.906616 171.106689 450.493408 171.079834 450.026733 C 170.986572 449.520142 170.879883 449.23999 170.733154 449.226685 C 170.58667 449.506714 170.439941 449.93335 170.333252 450.493408 C 170.253418 451.093384 170.199951 451.693359 170.199951 452.333374 L 170.293213 452.626709 C 170.253418 452.76001 170.213135 452.880005 170.17334 453.026733 C 170.093262 453.440063 170.053223 453.866699 170.053223 454.306641 L 169.959717 453.866699 L 169.65332 454.146606 L 169.626465 454.320068 L 169.546631 454.266724 L 169.373291 454.093384 L 169.399902 453.906616 L 169.65332 454.146606 C 169.840088 453.720093 169.919922 453.17334 169.866699 452.493408 C 169.773438 451.906616 169.640137 451.653442 169.426514 451.679932 C 169.426514 451.679932 169.426514 451.773315 169.426514 451.880005 C 169.41333 451.76001 169.399902 451.640015 169.386719 451.533325 C 169.146484 450.826782 168.893066 450.613281 168.493164 451.386719 C 168.426514 451.733398 168.359863 452.079956 168.320068 452.440063 C 168.213135 452.800049 168.186768 453.093384 168.186768 453.360107 L 168.093262 453.333374 C 167.919922 453.253418 167.786621 453.053467 167.65332 452.800049 C 167.52002 452.213257 167.506592 451.493408 167.453369 450.853394 L 167.439941 450.826782 L 167.58667 450.23999 L 167.58667 450.133423 C 167.719971 450.120117 167.866699 450.093384 168.013184 450.040039 C 168.159912 449.906616 168.306641 449.720093 168.439941 449.493408 C 168.453369 449.813354 168.533203 450.013306 168.666504 450.06665 C 168.986572 449.986694 169.293213 449.800049 169.573486 449.306641 C 169.853271 448.800049 170.106689 448.17334 170.306641 447.306641 C 170.41333 446.693359 170.47998 446.06665 170.506592 445.440063 C 170.399902 444.599976 170.053223 444.76001 170.106689 443.573364 L 170.026611 443.533325 C 170.053223 443.160034 170.053223 442.986694 170.013184 442.960083 C 170.079834 442.533325 170.133301 442.120117 170.146484 441.746704 L 170.159912 441.720093 C 170.226563 440.773315 170.040039 440.76001 169.879883 440.573364 C 169.786621 440.440063 169.640137 440.493408 169.426514 440.746704 L 168.973389 440.226685 C 168.840088 440.293335 168.719971 440.333374 168.58667 440.373291 C 168.58667 440.360107 168.573486 440.373291 168.559814 440.373291 L 168.52002 440.266724 C 168.439941 440.106689 168.346436 439.973389 168.253418 439.880005 C 168.159912 439.773315 168.053223 439.666748 167.946533 439.599976 C 167.853271 439.493408 167.759766 439.41333 167.640137 439.34668 C 167.533203 439.280029 167.41333 439.213257 167.279785 439.186768 C 167.133301 439.186768 166.959717 439.23999 166.733154 439.360107 L 166.666504 439.426758 C 166.719971 439.013306 166.693115 438.746704 166.546631 438.599976 C 166.613281 438.586792 166.693115 438.573364 166.773438 438.546631 C 167.119873 438.213257 167.439941 437.800049 167.733154 437.333374 L 167.93335 436.826782 L 167.866699 436.599976 C 167.773438 436.520142 167.613281 436.533325 167.373291 436.640015 L 166.65332 436.493408 C 166.279785 436.733398 165.93335 437.053467 165.65332 437.453369 C 165.506592 437.773315 165.453369 438.040039 165.493164 438.253418 C 165.52002 438.320068 165.559814 438.373291 165.599854 438.41333 C 165.386719 438.34668 165.213135 438.23999 165.040039 438.106689 L 164.853271 437.960083 C 164.559814 437.679932 164.266602 437.400024 163.973389 437.120117 C 163.506592 436.679932 163.040039 436.266724 162.573486 435.853394 C 162.786621 435.946655 163 436.026733 163.213135 436.079956 C 163.706787 435.880005 163.986572 435.493408 164.040039 434.880005 L 163.426514 433.786743 L 162.546631 432.786743 C 161.906738 432.146606 161.226563 431.626709 160.506592 431.213257 L 157.279785 428.34668 L 155.773438 426.720093 L 154.93335 427.400024 L 155.426514 428.546631 L 156.47998 428.866699 C 156.439941 429.013306 156.426514 429.160034 156.453369 429.360107 C 156.666504 430.06665 157.013184 430.76001 157.493164 431.466675 C 157.879883 431.973389 158.293213 432.453369 158.733154 432.906616 C 158.533203 432.76001 158.320068 432.613281 158.133301 432.453369 C 157.199951 431.666748 156.266602 430.853394 155.306641 430.106689 C 154.666504 429.640015 154.013184 429.23999 153.359863 428.946655 C 153.17334 428.893433 153.013184 428.839966 152.840088 428.800049 L 152.840088 428.17334 L 151.733154 427.226685 C 150.959717 426.973389 150.306641 426.986694 149.786621 427.253418 C 149.613281 427.426758 149.47998 427.640015 149.386719 427.880005 L 148.279785 427.506714 L 149.186768 428.360107 C 148.65332 428.093384 148.119873 427.76001 147.599854 427.400024 C 147.053223 426.973389 146.493164 426.560059 145.906738 426.213257 C 145.013184 425.640015 144.146484 425 143.306641 424.306641 C 142.733154 423.773315 142.159912 423.253418 141.58667 422.76001 C 140.973389 422.226685 140.346436 421.746704 139.693115 421.34668 C 139.026611 421 138.373291 420.773315 137.759766 420.706665 C 137.626465 420.706665 137.52002 420.746704 137.386719 420.773315 C 137.226563 420.34668 137.013184 419.93335 136.759766 419.506714 C 136.386719 418.973389 135.986572 418.466675 135.573486 417.960083 C 135.559814 417.839966 135.546631 417.720093 135.52002 417.599976 C 135.213135 416.800049 134.65332 416.226685 133.879883 415.853394 L 133.959717 416.120117 C 133.58667 415.706665 133.199951 415.320068 132.786621 414.960083 C 132.199951 414.400024 131.599854 413.853394 130.986572 413.360107 C 129.426514 412.293335 127.866699 411.266724 127.213135 412.679932 C 124.320068 413.880005 122.199951 406.893433 119.320068 407.866699 L 116.306641 405.053467 L 115.23999 405.013306 L 115.23999 405.026733 C 115.053223 404.599976 114.800049 404.186768 114.453369 403.76001 L 112.773438 401.960083 C 112.17334 401.386719 111.546631 400.920044 110.879883 400.533325 L 108.320068 399.733398 C 108.306641 399.440063 108.266602 399.120117 108.159912 398.773315 C 106.919922 395.866699 105.040039 393.079956 102.840088 390.34668 C 101.58667 388.866699 100.253418 387.466675 98.813232 386.160034 C 98.119873 385.546631 97.426514 385 96.679932 384.506714 C 95.959717 384.106689 95.333252 383.920044 94.733154 383.93335 L 93.746582 382.880005 L 93.119873 383.453369 L 94.093262 384.47998 C 93.866699 384.720093 93.58667 384.893433 93.026611 384.653442 C 92.119873 384.120117 91.266602 383.360107 90.439941 382.599976 C 89.840088 382 89.213135 381.373291 88.58667 380.800049 C 88.213135 380.440063 87.826416 380.093384 87.453369 379.773315 C 87.613281 379.826782 87.773438 379.866699 87.93335 379.906616 C 88.759766 379.626709 89.06665 378.880005 89.199951 377.973389 C 89.279785 377.386719 89.320068 376.786743 89.279785 376.133423 C 89.17334 375.47998 88.959717 374.786743 88.613281 374.06665 C 88.213135 373.373291 87.759766 372.693359 87.213135 372.053467 L 86.359863 371.133423 L 81.640137 366.306641 C 78.119873 365.800049 73.333252 355.493408 70.666504 361.586792 C 70.640137 362.133423 70.786621 362.720093 71.133301 363.373291 L 71.213135 363.47998 L 71.119873 363.520142 C 70.679932 362.786743 70.093262 362.266724 69.346436 362.013306 C 68.826416 361.520142 68.293213 361.093384 67.719971 360.720093 C 60.746582 352.893433 60.093262 352.599976 58.826416 356.786743 C 60.773438 357.93335 62.840088 358.360107 64.599854 360.613281 C 65.293213 361.186768 65.986572 361.546631 66.679932 361.679932 C 66.919922 361.679932 67.106689 361.613281 67.266602 361.520142 L 67.266602 362.333374 C 67.759766 363.120117 68.359863 363.813354 69.119873 364.386719 C 69.493164 364.573364 69.840088 364.679932 70.159912 364.720093 L 70.106689 364.773315 L 69.879883 364.720093 C 70.093262 365.34668 70.453369 365.839966 70.93335 366.253418 L 70.533203 366.160034 L 70.733154 367.293335 L 71.879883 368.599976 C 71.58667 368.533325 71.306641 368.493408 71.026611 368.493408 C 70.52002 368.546631 70.06665 368.666748 69.65332 368.880005 C 69.493164 368.960083 69.320068 369.026733 69.146484 369.079956 L 68.813232 368.706665 L 68.58667 368.733398 C 68.226563 368.333374 67.840088 367.960083 67.399902 367.640015 C 67.23999 367.466675 67 367.360107 66.666504 367.320068 C 66.41333 367.293335 66.293213 367.440063 66.306641 367.746704 L 66.013184 367.306641 L 64.879883 366.679932 L 64.853271 366.640015 L 64.853271 366.586792 C 64.573486 365.826782 64.079834 365.373291 63.41333 365.17334 C 62.973389 364.746704 62.533203 364.320068 62.06665 363.93335 C 60.293213 362.253418 58.640137 361.960083 56.986572 361.613281 C 50.800049 360.773315 45.053223 361.213257 37.573486 355.973389 C 32.613281 352.47998 33.06665 357.453369 30.946533 358.386719 C 28.546631 359.453369 30.199951 362.986694 31.533203 365.960083 C 32.106689 367.266724 34.333252 369.720093 35.186768 369.040039 C 39.773438 365.400024 43.773438 372.493408 47.973389 376.160034 L 48.559814 376.826782 C 48.559814 376.826782 49.213135 377.41333 49.279785 377.466675 C 49.213135 377.906616 48.879883 377.946655 48.359863 377.653442 C 47.866699 377.440063 47.399902 377.34668 46.973389 377.34668 C 40.866699 374.640015 35.559814 372.146606 32.386719 377.093384 C 31 379.253418 28.146484 382.200073 24 381.960083 C 21.719971 381.826782 20.626465 384.946655 17.866699 382.226685 C 15.320068 379.706665 14.93335 376.493408 16.559814 374.839966 C 17.599854 373.786743 16.52002 372.493408 15.199951 371.040039 C 14.040039 369.76001 12.640137 368.906616 12.226563 369.813354 C 10.079834 374.493408 -0.426514 371.786743 4.58667 382.826782 C 5.23999 384.280029 5.58667 385.866699 4.079834 386.06665 C -1 386.773315 -1 386.773315 4.040039 392.653442 C 4.613281 395.400024 6.053223 398.120117 8.359863 400.800049 C 2.41333 403.213257 0.293213 408.133423 1.23999 416.773315 C 2.053223 424.120117 4.879883 426.720093 11.186768 429.320068 L 27.840088 441.506714 L 29.41333 443.186768 L 30.946533 444.826782 C 33.533203 449.23999 37.733154 450.826782 41.133301 453.826782 L 44.226563 457.106689 C 47.17334 460.706665 51.733154 462 54.106689 466.386719 L 62.733154 473.76001 L 87.119873 494.146606 C 87.333252 495 87.840088 495.573364 88.693115 495.839966 C 90.58667 497.506714 92.453369 499.17334 94.346436 500.853394 L 95.759766 502.093384 L 96.119873 502.400024 L 96.693115 502.946655 L 97.893066 504.079956 C 99.466553 505.546631 101.053223 507.026733 102.666504 508.520142 C 111.466553 516.533325 119.986572 525.120117 128.439941 533.306641 C 136.866699 541.47998 145.226563 549.253418 153.013184 554.906616 C 154.373291 557.06665 154.826416 558.893433 156.506592 561.213257 C 160.013184 565.839966 163.399902 568.986694 166.47998 570.76001 C 167.199951 572.826782 169.133301 574.706665 171.346436 576.466675 L 179.439941 584.746704 L 181.599854 581.906616 L 182.41333 580.266724 L 182.733154 578.960083 C 182.813232 578.23999 182.666504 577.839966 182.293213 577.76001 C 183.359863 576.013306 184.333252 574.266724 185.199951 572.506714 C 185.93335 570.946655 186.439941 569.533325 186.719971 568.306641 C 187.146484 568.026733 187.613281 567.666748 188.119873 567.213257 C 188.719971 566.586792 189.333252 565.906616 189.946533 565.200073 L 188.333252 567.720093 C 188.306641 568.34668 188.293213 568.93335 188.306641 569.506714 L 193.013184 563.733398 C 193.840088 563.213257 194.65332 562.226685 195.41333 560.813354 L 195.06665 560.546631 L 197.386719 557.573364 L 197.386719 557.573364 L 199.679932 554.666748 C 199.599854 554.120117 199.493164 553.613281 199.359863 553.133423 L 197.159912 556.453369 L 197.159912 556.453369 C 196.399902 557.106689 195.693115 558.013306 195.026611 559.186768 L 195.026611 559.200073 L 193.719971 560.506714 C 195.426514 558.293335 197.093262 556.013306 198.666504 553.573364 C 199.800049 551.786743 200.946533 549.986694 202.040039 548.23999 C 202.599854 547.47998 203.119873 546.746704 203.65332 546.013306 L 203.906738 547.640015 L 206.559814 544.653442 L 206.17334 544.533325 L 207.320068 543.226685 C 207.320068 543.226685 208.359863 541.679932 208.373291 541.666748 C 208.320068 541.293335 208.293213 540.920044 208.266602 540.520142 L 205.826416 543.17334 C 205.826416 543.17334 205.840088 543.146606 205.866699 543.079956 C 206.58667 542.17334 207.293213 541.253418 208.013184 540.333374 C 208.826416 539.306641 209.640137 538.280029 210.439941 537.213257 C 211.65332 535.653442 212.853271 534.079956 214.013184 532.453369 C 214.773438 531.373291 215.493164 530.280029 216.186768 529.146606 C 216.813232 528.040039 217.506592 527.026733 218.320068 526.053467 C 219.106689 525.333374 219.906738 524.599976 220.693115 523.880005 C 221.826416 522.866699 222.959717 521.866699 224.106689 520.746704 C 224.906738 519.960083 225.693115 519.093384 226.47998 518.133423 C 227.226563 517.133423 227.919922 516.093384 228.533203 515.040039 C 228.706787 514.706665 228.893066 514.34668 229.079834 514 L 229.253418 513.946655 C 229.946533 513.133423 230.506592 512.320068 230.906738 511.493408 C 231.666504 511.079956 232.359863 510.200073 232.959717 508.880005 L 232.693115 508.986694 L 232.06665 508.280029 L 232.333252 507.826782 C 232.333252 507.826782 232.559814 507.47998 232.813232 507.146606 C 233.06665 506.813354 233.320068 506.47998 233.320068 506.47998 C 233.320068 506.47998 233.58667 506.160034 233.840088 505.853394 C 234.106689 505.533325 234.359863 505.213257 234.359863 505.213257 C 235.546631 503.986694 236.759766 502.93335 237.973389 501.76001 C 238.840088 500.880005 239.733154 499.93335 240.58667 498.946655 C 241.493164 497.906616 242.399902 496.826782 243.266602 495.706665 C 244.186768 494.546631 245.106689 493.373291 246 492.186768 C 246.426514 491.599976 246.853271 491.013306 247.293213 490.400024 C 247.493164 490.120117 247.679932 489.839966 247.879883 489.546631 C 248 489.360107 248.119873 489.160034 248.23999 488.960083 C 248.666504 488.146606 248.986572 487.34668 249.186768 486.560059 C 249.293213 485.466675 248.453369 485.17334 248.41333 484.213257 C 248.840088 484.47998 249.359863 484.440063 250.053223 483.880005 C 250.746582 483.160034 251.279785 482.426758 251.546631 481.679932 C 253.800049 480.23999 255.613281 478.133423 257.199951 475.733398 C 258.093262 474.306641 258.906738 472.880005 259.693115 471.440063 C 260.253418 470.493408 260.813232 469.546631 261.306641 468.599976 C 261.706787 467.866699 262.040039 467.146606 262.293213 466.426758 C 262.466553 466.706665 262.719971 466.880005 263.106689 466.906616 C 264.053223 466.826782 265.040039 466.333374 266.06665 465.506714 C 266.65332 464.839966 267.146484 464.120117 267.493164 463.360107 C 268.23999 461.880005 269.320068 460.520142 270.093262 459.040039 C 270.439941 458.333374 270.719971 457.640015 270.946533 456.93335 C 271.133301 456.280029 271.306641 455.653442 271.453369 455.013306 C 271.786621 454.026733 272.373291 453.226685 273.213135 452.613281 C 274.106689 452.106689 275.026611 451.586792 275.906738 450.839966 C 276.186768 450.533325 276.466553 450.200073 276.746582 449.880005 C 277.013184 449.533325 277.279785 449.186768 277.546631 448.839966 L 277.813232 448.41333 C 278.040039 448.146606 278.226563 447.853394 278.359863 447.533325 C 278.986572 446.440063 279.640137 445.293335 280.266602 444.200073 C 281.279785 442.280029 282.306641 440.333374 283.346436 438.373291 C 283.893066 437.253418 284.453369 436.120117 285 435.013306 C 285.373291 434.293335 285.813232 433.586792 286.266602 432.893433 L 287.759766 430.893433 L 288.226563 430.226685 L 288.226563 430.226685 C 287.786621 431 287.346436 431.786743 286.959717 432.573364 C 286.546631 433.373291 286.186768 434.200073 285.893066 435 C 285.040039 437.560059 283.599854 440.053467 281.906738 442.533325 C 281.386719 443.320068 280.906738 444.093384 280.453369 444.906616 C 280.119873 445.506714 279.759766 446.093384 279.386719 446.666748 L 279.279785 446.746704 C 278.866699 447.226685 278.52002 447.733398 278.253418 448.266724 L 277.599854 449.093384 C 277.040039 449.746704 276.533203 450.426758 276.053223 451.133423 C 275.399902 452.200073 274.733154 453.266724 274.093262 454.320068 L 272.626465 456.373291 L 271.079834 458.400024 C 270.546631 459.079956 270.013184 459.773315 269.52002 460.47998 C 269.013184 461.200073 268.533203 461.93335 268.106689 462.679932 C 267.719971 463.453369 267.439941 464.200073 267.306641 464.93335 C 267.320068 465.093384 267.346436 465.23999 267.399902 465.386719 L 266.640137 466.333374 C 266.813232 466.466675 267 466.599976 267.186768 466.706665 C 267.466553 466.560059 267.733154 466.386719 267.986572 466.186768 L 268.079834 466.253418 C 268.599854 466.400024 269.146484 466.440063 269.759766 466.360107 C 272.093262 468.360107 274.333252 464.839966 275.93335 462.306641 C 283.23999 450.666748 292.333252 439.773315 299.23999 428.213257 C 303.053223 421.839966 309.186768 416.493408 311.266602 409.640015 C 319.47998 398 329.559814 387.599976 336.813232 375.34668 C 338.17334 374.47998 339.17334 373.34668 339.58667 371.773315 C 355.52002 349.826782 369.599854 326.839966 386.640137 305.506714 L 387.373291 304.626709 C 388.133301 303.746704 388.946533 302.973389 389.773438 302.23999 C 390.359863 301.653442 390.626465 301.053467 390.58667 300.453369 C 391.306641 295.720093 395.679932 292.76001 398.399902 289.013306 C 399.053223 288.47998 399.640137 287.866699 400.17334 287.17334 C 401.146484 285.733398 402.079834 284.266724 403.146484 282.866699 L 404.826416 280.733398 C 405.746582 279.613281 406.65332 278.466675 407.453369 277.266724 C 408.226563 276.186768 408.986572 275.106689 409.666504 273.986816 C 409.599854 274.200073 409.58667 274.440063 409.626465 274.733398 C 409.826416 274.946655 410.06665 275.133423 410.306641 275.293457 C 411.41333 274.226685 411.439941 273.533325 410.786621 273.06665 L 410.840088 273.213379 C 410.439941 273.23999 410.146484 273.360107 409.93335 273.560059 C 410.226563 273.06665 410.493164 272.560059 410.733154 272.053467 C 411.106689 271.400024 411.373291 270.773315 411.52002 270.160034 C 412.106689 270.013306 412.559814 269.520142 412.840088 268.613281 C 416.426514 263.76001 419.706787 258.586792 424.58667 255.120117 C 424.826416 254.440063 425.17334 253.773315 425.626465 253.106689 C 426.106689 252.47998 426.533203 251.826782 426.879883 251.146606 C 427.199951 250.133423 426.840088 249.426758 427.199951 248.386719 L 431.013184 242.866699 L 440.786621 230.47998 C 442.333252 228.586792 444.853271 226.960083 444.320068 224.506714 L 462.466553 201.613281 L 490.373291 166.213379 L 494.573242 160.880005 C 496.359863 158.306641 497.599854 155.880005 496.506592 154.053467 C 493.706787 154.93335 491.693115 158.040039 489.346436 160.200073 C 489.146484 160.41333 488.946533 160.613281 488.746582 160.826782 C 490.026367 156.506714 493.58667 153.973389 496.986572 151.306641 L 497.199951 149.146606 L 497.52002 149.266724 C 500.826416 147.293457 503.253418 144.17334 505.413086 140.706665 C 510.346436 134.133423 516.159912 128.013306 519.506592 120.573364 C 520.373291 117.826782 523.106689 116.626709 524.52002 114.333374 L 526.213135 112.17334 C 526.773438 111.453369 527.306641 110.720093 527.826416 109.973389 C 528.199951 109.373291 528.546631 108.773315 528.879883 108.17334 C 529.026367 108.079956 529.213135 107.960083 529.426514 107.773315 L 529.626465 108.23999 L 530.799805 106.213379 L 530.799805 106.41333 C 531.199951 105.533325 531.093262 105.120117 530.47998 105.186768 C 530.65332 104.906738 530.813232 104.613281 530.973389 104.333374 C 531.666504 103.253418 532.359863 102.17334 532.93335 101.053467 C 533.06665 100.786743 533.159912 100.520142 533.23999 100.253418 C 533.359863 100.373291 533.613281 100.320068 534 100.093384 L 534.866699 98.986816 C 535.413086 98.853394 535.973389 98.533325 536.559814 97.960083 L 537.106689 96.720093 C 538.47998 92.34668 542.759766 89.906738 545.013184 86.120117 C 548.93335 79.280029 554.706787 73.666748 559.17334 67.17334 C 559.706787 66.079956 559.719971 65.266724 559.213135 64.746704 C 558.413086 64.946655 557.693115 65.306641 557.013184 65.76001 C 557.266602 65.306641 557.546631 64.800049 557.840088 64.306641 C 559.159912 60.986816 563.853271 58.613281 563.493164 54.826782 C 562.826416 54.720093 562.093262 54.973389 561.266602 55.573364 C 560.853271 56.146606 560.373291 56.640015 559.840088 57.026733 C 558.93335 60.626709 556.573242 63.800049 553.919922 66.880005 C 554.279785 67.306641 554.613281 67.506714 554.93335 67.546631 C 553.026367 69.493408 551.320068 71.946655 549.266602 73.493408 C 547.866699 74.306641 546.493164 74.906738 545.093262 75.666748 C 544.706787 75.893433 544.333252 76.160034 543.959717 76.440063 L 543.399902 75.973389 C 542.733154 76.253418 542.093262 76.720093 541.493164 77.360107 C 541.079834 78.026733 540.826416 78.653442 540.733154 79.280029 C 540.439941 79.426758 540.213135 79.400024 540.053223 79.213379 C 540.093262 78.800049 540.266602 78.333374 540.506592 77.866699 C 541.040039 77.026733 541.666504 76.200073 542.253418 75.360107 L 542.52002 75 L 542.706787 75.040039 C 543.119873 74.47998 543.546631 73.906738 543.973389 73.34668 C 544.106689 73.186768 544.146484 72.946655 544.093262 72.613281 C 544.079834 72.600098 544.079834 72.600098 544.06665 72.586792 C 544.279785 72.213379 544.466553 71.839966 544.65332 71.466675 C 544.759766 71.213379 544.879883 70.960083 544.986572 70.706665 L 545.040039 70.706665 L 545.93335 69.386719 L 545.946533 68.573364 L 545.986572 68.47998 C 546.293213 67.826782 546.559814 67.186768 546.759766 66.546631 C 546.759766 66.533325 546.879883 65.666748 546.879883 65.666748 L 547.546631 64.813354 C 548.013184 64.253418 548.373291 63.666748 548.65332 63.040039 C 551.413086 58.386719 554.693115 54.146606 558.626465 50.426758 C 562.266602 46.706665 564.879883 41.653442 569.266602 38.893433 C 572.893066 33.920044 578.373291 29.93335 579.866699 23.813354 C 576.626465 24.040039 575.306641 28.400024 572.826416 30.280029"/>
</svg>
