<?xml version="1.0" encoding="UTF-8"?>
<!-- Generated by Pixelmator Pro 3.4.3 -->
<svg width="528" height="539" viewBox="0 0 528 539" xmlns="http://www.w3.org/2000/svg">
    <path id="path246-copy" fill="#48aa55" stroke="none" d="M 519.983948 50.493408 C 518.554688 50.040039 517.596008 49.306641 516.895996 48.47998 L 516.77063 46.906738 C 517.819946 47.653442 518.76532 49.533325 520.042603 50.280029 Z M 510.590637 36.866699 C 510.211975 35.253418 509.969299 33.679932 510.07196 32.306641 C 510.654663 32.813354 511.155945 33.466675 511.518677 34.333374 C 511.390686 35.720093 511.063965 36.47998 510.590637 36.866699 Z M 500.015991 41.746704 C 500.029358 41.720093 500.049316 41.706665 500.062683 41.679932 L 500.113342 41.813354 C 500.081299 41.786743 500.047974 41.773315 500.015991 41.746704 Z M 495.774658 54.986816 C 494.223999 53.866699 491.613342 53.986816 490.955994 55.280029 C 490.135986 53.653442 489.490662 52.17334 489.426697 50.960083 Z M 461.559998 64.053467 C 461.618652 64.146606 461.662659 64.226685 461.747986 64.34668 C 458.133301 64.613281 459.498657 64.586792 461.559998 64.053467 Z M 457.506592 147.746704 C 458.281311 148.040039 459.182678 148.613281 460.162659 149.373291 C 459.493347 149.280029 458.589294 149.17334 457.362671 149.026733 C 457.358643 148.506714 457.41333 148.093384 457.506592 147.746704 Z M 435.630615 151.986816 C 432.155945 147.079956 429.323975 142.426758 428.247986 139.06665 C 431.27063 139.280029 434.586609 139.640015 437.138672 140.266724 C 442.422607 147.76001 448.625305 157.133423 453.332031 164.853394 C 447.833313 161.200073 441.405334 156.506714 435.630615 151.986816 Z M 444.080017 194.146606 L 444.202637 195.373291 C 443.133301 194.600098 442.023987 193.613281 440.919983 192.506714 C 442.029358 193.133423 443.107971 193.693359 444.080017 194.146606 Z M 420.905334 208.960083 L 422.310669 210.47998 L 419.766663 210.386719 C 420.354675 210 420.718689 209.520142 420.905334 208.960083 Z M 401.334595 231.946655 L 400.83728 231.626709 C 401.041321 231.653442 401.247986 231.679932 401.489319 231.733398 C 401.441345 231.813354 401.388 231.880005 401.334595 231.946655 Z M 379.832031 196.026733 C 378.687988 195.253418 377.890686 195.160034 378.335999 194.400024 C 378.790649 194.920044 379.298706 195.466675 379.878601 196.013306 C 379.862671 196.013306 379.847961 196.026733 379.832031 196.026733 Z M 371.693359 262.093384 C 371.830627 261.746704 371.963989 261.400024 372.080017 261.040039 C 372.580017 260.493408 373.465332 260.17334 374.902649 260.213379 C 376.157349 262.23999 374.544006 262.546631 371.693359 262.093384 Z M 365.160034 269.920044 C 363.986633 268.34668 362.969299 266.586792 362.062683 264.746704 C 364.22937 266.226685 366.607971 267.800049 369.313354 269.986816 C 366.832031 268.906738 365.674683 269.093384 365.160034 269.920044 Z M 353.252014 256.653442 C 353.26001 256.613281 353.261292 256.586792 353.267944 256.560059 C 353.297302 256.600098 353.328003 256.640015 353.357361 256.679932 C 353.322632 256.666748 353.286621 256.653442 353.252014 256.653442 Z M 333.230652 342.546631 C 327.850647 336.693359 331.398682 338.266724 334.334595 338.200073 C 334.778625 339.946655 336.901306 344.41333 333.230652 342.546631 Z M 326.605347 270.600098 C 327.701294 270.839966 329.00531 272.026733 330.460022 273.720093 C 329.469299 274.266724 327.626648 274.34668 326.650635 275.493408 Z M 326.405334 347.306641 C 325.096008 346.266724 324.394653 344.960083 325.193359 343.160034 C 325.425293 343.106689 325.630676 343.026733 325.841309 342.946655 C 326.685364 344.506714 326.902649 346.146606 326.405334 347.306641 Z M 312.969299 365.226685 L 312.803955 366.76001 C 312.44397 366.23999 312.113342 365.733398 311.819946 365.226685 C 312.177307 365.226685 312.555969 365.213257 312.969299 365.226685 Z M 292.746643 389.466675 C 293.757324 389.506714 295.116028 390.453369 296.546692 391.586792 Z M 255.602661 440.813354 C 255.725281 440.160034 255.952026 439.586792 256.282654 439.093384 C 256.718689 440.093384 256.647949 440.773315 255.602661 440.813354 Z M 229.129333 462.746704 C 229.03064 461.440063 229.029358 460.213257 229.247986 459.17334 L 231.537292 462.373291 C 231.424011 462.946655 230.735962 463.146606 229.129333 462.746704 Z M 186.62262 442.960083 C 186.578613 442.920044 186.536011 442.906616 186.493347 442.880005 L 184.286621 440.213257 C 183.885315 438.213257 183.602661 435.17334 183.589294 432.893433 L 183.811951 434.47998 C 183.929321 435.186768 183.961304 435.986694 184.225281 436.506714 C 184.649353 437.666748 185.037292 438.866699 185.389282 440.120117 C 185.685364 439.946655 185.977356 439.826782 186.26532 439.733398 C 186.299988 439.986694 186.325317 440.23999 186.359985 440.493408 L 186.697327 442.893433 Z M 182.269348 437.746704 C 181.141296 434.800049 181.073303 432.186768 181.290649 429.880005 C 181.757324 430.426758 182.277344 431 182.850647 431.613281 C 182.555969 433.986694 182.286621 436.599976 182.269348 437.746704 Z M 178.553284 431.613281 C 178.050659 429.653442 178.177307 427.34668 178.335999 425.520142 C 178.819946 426.586792 179.583984 427.786743 180.708008 429.186768 C 180.22937 431.573364 179.637268 432.973389 178.553284 431.613281 Z M 177.890686 425.320068 L 178.013306 427.826782 C 176.809265 429.386719 177.34668 427.47998 177.890686 425.320068 Z M 161.605347 465.120117 L 159.309326 462.34668 C 159.113342 461.373291 158.946655 460.160034 158.825317 458.906616 C 159.589294 458.826782 160.324036 458.906616 160.960022 459.200073 C 161.107971 460.360107 161.226685 461.47998 161.38269 462.640015 L 161.719971 465.040039 Z M 157.290649 459.893433 C 157.223999 459.720093 157.181274 459.546631 157.121338 459.373291 C 157.186646 459.34668 157.25061 459.306641 157.315979 459.280029 C 157.303955 459.506714 157.293335 459.720093 157.290649 459.893433 Z M 145.545288 449.186768 C 145.395996 448.786743 145.237305 448.400024 145.063965 448.053467 C 145.605347 448.213257 146.17865 448.426758 146.818665 448.733398 C 146.319946 448.839966 145.91333 449 145.545288 449.186768 Z M 117.819946 441.440063 C 118.054626 441.213257 118.261292 441 118.481323 440.786743 C 120.18396 440.226685 121.716003 440.06665 122.998657 440.320068 C 121.217285 442.160034 119.069336 443.34668 117.819946 441.440063 Z M 118.731995 440.533325 C 118.75061 440.546631 118.761292 440.560059 118.780029 440.560059 L 118.633301 440.640015 C 118.665344 440.599976 118.700012 440.573364 118.731995 440.533325 Z M 520.701294 47.866699 L 520.175964 49.786743 C 516.737305 46.226685 515.665344 41.226685 521.096008 41.706665 C 519.878601 42.666748 518.925293 43.453369 520.125305 44.320068 L 523.935974 42.666748 C 522.966614 41.973389 522.703918 41.17334 522.638672 40.400024 C 522.33728 40.706665 521.996033 40.986816 521.654663 41.266724 C 520.987976 39.613281 519.070618 37.573364 516.427979 35.426758 C 516.274658 35.213379 516.143982 35.013306 516.057312 34.839966 C 516.145264 35.013306 516.246643 35.186768 516.366638 35.373291 C 514.593323 33.93335 512.519958 32.453369 510.291992 31 C 510.693359 29.666748 511.613342 28.640015 513.36792 28.160034 L 520.752014 32.853394 C 518.693359 31.360107 514.762695 32.06665 516.019958 34.76001 C 514.216003 30.813354 529.767944 36.360107 522.165344 27.600098 L 515.374634 26.466675 C 515.086609 25.306641 514.643982 23.986816 514.175964 22.613281 C 515.359985 20.34668 513.711975 18.720093 512.405334 16.773315 C 511.741333 13.786743 511.830627 11.280029 514.133301 10.506714 C 506.332031 6.733398 514.027954 11.693359 505.017273 8.160034 C 507.118652 7.373291 508.845276 6.200073 510.002625 4.720093 C 509.975952 4.693359 509.946655 4.653442 509.91864 4.626709 L 510.055969 4.640015 C 510.037292 4.666748 510.022644 4.693359 510.002625 4.720093 C 510.602661 5.34668 511.033325 5.720093 511.09198 5.160034 C 511.493347 5.06665 511.758606 4.906738 511.945313 4.720093 L 512.225281 4.720093 L 512.061279 4.586792 C 512.553284 3.866699 512.042603 2.653442 511.343994 1.320068 C 511.223999 2.053467 511.018677 2.76001 510.726685 3.426758 L 507.975952 1.040039 L 509.118652 3.76001 C 507.850647 2.400024 506.288025 0.906738 505.388 2.320068 C 506.53595 5.079956 505.746643 6.47998 504.960022 8.133423 C 504.82666 8.079956 504.701294 8.040039 504.561279 7.973389 C 504.697327 8.053467 504.810669 8.120117 504.93866 8.186768 C 504.937256 8.186768 504.934631 8.186768 504.933289 8.200073 C 504.93866 8.186768 504.94397 8.186768 504.949341 8.186768 C 508.941345 10.293457 508.886658 11.946655 507.941345 13.440063 C 507.199951 12.333374 506.074646 11.400024 504.006592 11.973389 C 503.989319 10.320068 504.457336 9.213379 504.933289 8.200073 C 503.619934 8.666748 502.190674 8.986816 500.639954 9.120117 C 500.794617 9.17334 500.903931 9.200073 501.031982 9.23999 L 501.03595 9.213379 C 501.062683 9.226685 501.080017 9.23999 501.107971 9.266724 C 501.881287 9.520142 502.302673 9.733398 501.757324 9.706665 C 501.802673 9.773315 501.77594 9.853394 501.771973 9.893433 C 502.411926 10.453369 502.919983 11.013306 503.399963 11.560059 C 501.231995 12.266724 501.967957 10.813354 501.771973 9.893433 C 501.550598 9.693359 501.358643 9.47998 501.107971 9.266724 C 501.077332 9.253418 501.054688 9.253418 501.031982 9.23999 L 500.358643 12.640015 C 499.934631 12.320068 499.630615 12.013306 499.574646 11.720093 L 499.013306 15 C 499.273254 14.47998 499.642639 14.213379 500.07196 14.079956 L 499.596008 16.47998 C 500.593323 16.106689 501.34259 15.333374 502.121338 14.053467 C 502.281311 14.06665 502.441345 14.079956 502.598694 14.093384 C 502.487976 14.013306 502.363953 13.93335 502.243958 13.853394 C 502.61731 13.213379 503 12.466675 503.426697 11.586792 C 504.65863 12.960083 505.519958 14.306641 506.296021 15.586792 C 505.205322 17.079956 504.895996 18.586792 509.073303 20.440063 C 500.924011 17.160034 502.150635 20.679932 496.229309 19.800049 L 498.91864 17.093384 L 499.283936 17.986816 L 499.596008 16.47998 C 497.84668 17.106689 495.383972 16.600098 490.641296 15.493408 C 491.36792 19.013306 492.710632 20.679932 494.080017 21.960083 L 495.422607 20.613281 C 496.41864 21.293457 496.790649 21.906738 495.358643 22.880005 C 495.194641 22.813354 495.021301 22.733398 494.861328 22.666748 C 494.97998 22.76001 495.098694 22.866699 495.217285 22.973389 C 495.090637 23.053467 494.965332 23.133423 494.813293 23.226685 C 495.373291 23.866699 495.975952 24.826782 496.318665 25.400024 C 496.191956 25.426758 496.130615 25.426758 496.002625 25.453369 C 496.142639 25.466675 496.247986 25.47998 496.389282 25.506714 C 496.633301 25.893433 496.694641 25.960083 496.526672 25.520142 C 496.885315 25.546631 497.252014 25.600098 497.618652 25.666748 C 498.273254 26.76001 498.785339 28.213379 499.023987 30.360107 C 500.006592 30.666748 501.380005 30.653442 502.869324 30.640015 C 503.674622 34.333374 501.886658 37.440063 503.018677 40.146606 C 500.650635 40.946655 500.977295 37.426758 497.865356 36.426758 L 499.427979 40.160034 C 499.254639 40.280029 499.347961 40.786743 499.449341 41.373291 C 494.388 38.200073 488.359985 39.34668 488.478638 33.426758 L 487.219971 34.826782 C 487.469299 33.786743 488.050659 33.013306 489.154663 32.640015 C 481.223999 28.813354 489.32666 34.013306 479.582642 30.120117 C 485.581299 33.120117 483.330627 35.213379 481.706604 37.213379 C 479.650635 37.893433 478.349304 39.23999 478.41333 41.146606 C 475.388 41.17334 474.925293 43.226685 467.942627 41.17334 C 470.271973 42.853394 473.130615 43.466675 469.834595 45.360107 C 470.394653 46 470.998657 46.960083 471.341309 47.533325 C 471.2146 47.573364 471.15332 47.573364 471.02533 47.586792 C 471.165344 47.613281 471.271973 47.626709 471.411987 47.640015 C 471.654663 48.026733 471.717285 48.093384 471.549316 47.666748 C 473.054688 47.786743 474.662659 48.186768 476.089294 48.960083 C 476.557312 49.586792 476.911987 50.186768 477.195984 50.786743 L 476.731995 53.813354 L 475.441345 52.880005 C 473.246643 55.06665 472.926697 58.853394 471.981323 62.266724 C 467.629333 60.520142 463.402649 60.533325 463.5 55.560059 L 460.527954 58.866699 C 456.101257 58.706665 452.758667 60.640015 453.491943 64.040039 C 451.111938 64.826782 455.754639 72.560059 452.966675 68.040039 L 451.783936 75.76001 C 451.746643 75.800049 451.701294 75.839966 451.662659 75.880005 L 450.463989 75.013306 C 449.726685 75.746704 449.202637 76.666748 448.794617 77.693359 C 446.398682 78.866699 444.045288 80 446.219971 82.666748 C 432.588013 75.973389 434.752014 91.960083 429.450623 94.426758 L 433.987976 98.213379 C 433.502625 98.679932 432.932007 99.106689 432.171997 99.493408 L 427.375977 96.666748 C 427.049316 100.186768 417.522644 100.23999 421.242615 104.800049 C 407.610657 98.120117 409.774658 114.093384 404.473267 116.560059 L 410.002625 121.186768 C 407.455994 123.746704 406.925293 127.720093 406.430664 133.013306 L 411.594666 136.733398 C 412.452026 139.853394 410.044006 141.093384 407.010681 142.200073 C 406.187988 142.120117 405.361328 142.053467 404.586609 142.053467 C 405.211975 142.213379 405.786621 142.333374 406.323975 142.440063 C 404.686646 143.013306 402.941345 143.600098 401.450623 144.41333 C 401.665344 142.600098 402.941345 142.06665 404.586609 142.053467 C 399.018677 140.640015 391.011963 137.640015 396.147949 141.333374 L 401.288025 144.506714 C 400.213318 145.120117 399.283936 145.866699 398.65863 146.866699 C 397.00531 145.026733 398.461304 144.213379 400.291992 144.266724 C 384.50531 141.06665 399 162.786743 386.695984 161.466675 C 387.496033 164.186768 386.138672 164.626709 384.169312 164.546631 C 384.253296 164.41333 384.2453 164.23999 384.160034 164.013306 C 383.996033 164.106689 383.830627 164.293457 383.681274 164.493408 C 382.373291 164.386719 380.910645 164.186768 379.607971 164.186768 C 381.247986 164.613281 382.657349 164.880005 383.47467 164.800049 C 382.793335 165.866699 382.222656 167.866699 382.307983 170.333374 L 376.445313 166.720093 C 376.422607 166.906738 376.334595 166.986816 376.329346 167.186768 C 373.203979 167.079956 377.947937 170.360107 382.596008 172.773315 C 382.889282 174.213379 383.411987 175.733398 384.289307 177.280029 C 374.698669 171.626709 384.145264 183.466675 373.638672 177.773315 C 377.080017 181.986816 372.049316 187.06665 378.306641 194.360107 C 376.001282 195.133423 373.755981 195.93335 375.033325 199.280029 C 374.994629 199.320068 374.955994 199.360107 374.917297 199.400024 L 367.734619 194.826782 L 372.141296 202.373291 C 371.465332 203.146606 370.778625 203.946655 370.075928 204.76001 C 366.573303 203.720093 364.15863 201.973389 361.517273 197.253418 C 364.857361 207.106689 362.319946 205.053467 364.208008 210.786743 C 363.698669 211.213379 363.169312 211.613281 362.627991 212.013306 L 361.446655 210.973389 C 361.193359 211.373291 361.2146 212.079956 361.332031 212.893433 C 359.380005 214.120117 357.213318 215.06665 354.739929 215.560059 C 356.263977 216.466675 357.341309 217.160034 358.098694 217.706665 C 355.15332 217.506714 352.708008 218.946655 350.353271 221.146606 C 349.219971 220.453369 348.282654 219.560059 347.607971 217.946655 C 346.970642 224.679932 338.088013 221.466675 342.47467 229.826782 C 342.319946 229.986816 342.164001 230.146606 342.00531 230.320068 C 339.561279 228.520142 339.161316 226.360107 337.230652 225.520142 C 337.598694 226.41333 338.730652 229.106689 336.514648 228.146606 C 334.310669 227.186768 334.47467 225.426758 333.719971 223.640015 C 331.917297 226.506714 333.91864 230.23999 337.522644 234.23999 C 335.27594 235.839966 332.739929 237.106689 329.761292 237.706665 C 344.146667 246.186768 320.583984 237.360107 330.362671 245.666748 C 326.873291 243.773315 324.132019 243.679932 322.630676 240.093384 C 321.963989 247.133423 312.222656 243.253418 318.166626 253.17334 C 314.660034 251.280029 314.450623 248.626709 312.252014 247.653442 C 312.621338 248.560059 313.752014 251.253418 311.536011 250.293457 C 309.332031 249.320068 309.496033 247.573364 308.742615 245.773315 C 305.494629 250.946655 314.580017 258.906738 323.189331 266.266724 C 317.075989 265.360107 316.718689 267.040039 321.165344 273.386719 C 317.59729 271.93335 313.447937 270.93335 314.742615 267.146606 C 313.002625 268.47998 302.44397 273.960083 309.430664 279.746704 C 307.213318 278.853394 307.063965 281.666748 307.538635 282.746704 C 304.162659 286.160034 303.261292 285.973389 301.034607 290.186768 L 303.002625 290.079956 C 304.966675 292.253418 305.841309 293.586792 306.067932 294.453369 C 299.838684 292.280029 291.669312 288.706665 289.88269 289.280029 C 288.515991 288.946655 288.857361 287.280029 288.630676 286.040039 C 277.445313 286.266724 295.059998 292.293457 293.402649 297.746704 C 289.021362 295.520142 284.581299 289.17334 281.669312 291.41333 C 277.511963 290.400024 287.515991 309.213257 277.258667 307.306641 C 280.714661 308.720093 284.134644 310.146606 284.958618 313.546631 C 284.533325 313.866699 284.2547 314.280029 284.166626 314.839966 C 283.037292 315.47998 281.081299 315.666748 279.111938 315.880005 C 273.2453 313.720093 266.507996 310.906616 264.905334 311.41333 C 263.537292 311.093384 263.880005 309.41333 263.651978 308.186768 C 252.467957 308.41333 270.082642 314.440063 268.425293 319.880005 C 264.044006 317.666748 259.603943 311.306641 256.691956 313.560059 C 252.533325 312.533325 262.537292 331.34668 252.281311 329.453369 C 255.855957 330.906616 259.419983 332.360107 260.081299 336.026733 C 258.783997 339.800049 242.761292 335.34668 249.822632 345.253418 C 248.730652 345.013306 247.857361 344.546631 247.121338 343.986694 C 247.483948 346.573364 246.660034 350.026733 246.945313 353.533325 C 246.15863 355.040039 246.238647 356.693359 246.781311 358.41333 C 230.534607 350.079956 246.279968 380.320068 230.02533 367.41333 L 225.442627 375.093384 L 223.845276 373.533325 C 220.343994 376.213257 221.101257 379.613281 222.90802 383.17334 C 222.481323 383.679932 222.116028 384.226685 221.833313 384.853394 C 221.567932 384.520142 221.32666 384.213257 221.102661 384 C 214.890686 386.746704 213.309265 388.160034 214.493347 393.34668 C 209.160034 395.906616 201.522644 396.626709 202.825317 402 C 199.088013 403.599976 195.633301 406.133423 196.27594 411.386719 C 195.701294 410.826782 194.733337 409.853394 194.354675 408.733398 C 194.933289 417.453369 180.135986 416.360107 177.963989 421.613281 C 177.961304 421.613281 177.960022 421.613281 177.957336 421.613281 L 176.059998 418.76001 C 175.639954 422.040039 175.314636 425.386719 175.083984 428.839966 C 172.937317 432.333374 172.417297 425.906616 171.461304 437.453369 C 172.075989 428.440063 170.109314 424.986694 167.62262 422.733398 C 165.189331 420.520142 161.993347 419.280029 162.794678 417.013306 C 161.452026 417.826782 160.288025 418.280029 159.278625 418.493408 C 158.089294 418.533325 156.922668 418.200073 155.962708 417.773315 C 154.001282 416.880005 152.511963 415.293335 150.952026 413.440063 C 150.718689 415.506714 145.154663 422.893433 142.797302 419.306641 C 156.190674 406.360107 143.234619 408 148.700012 396.47998 C 144.885315 403.360107 138.634644 389.986694 133.807983 402.293335 C 132.235962 398.853394 138.361328 396.813354 139.358643 391.720093 C 128.319946 391.800049 128.94397 376.146606 119.67865 371.280029 C 117.909302 373.053467 116.657288 377.040039 112.565308 378.386719 L 116.802673 365.47998 C 114.486633 365.06665 105.88266 375.053467 108.866638 366.133423 C 107.864014 368.053467 106.347992 370.93335 104.810669 370.653442 C 97.936005 348.360107 67.717316 351.213257 67.685303 320.693359 C 66.537323 326.133423 64.851959 325.280029 63.165314 324.040039 C 63.41864 325.800049 59.06131 328.640015 57.022644 331.360107 L 56.895996 318.706665 C 49.525299 324.733398 49.670654 313.186768 43.069336 319.333374 L 46.146667 319.893433 C 39.283966 323.853394 36.191986 332.720093 31.635986 341.06665 C 24.555969 346.560059 24.605316 335.400024 18.09198 341.466675 L 21.169312 342.026733 C 11.483978 347.613281 9.323975 362.986694 -0.063995 372.839966 C 10.898651 366.453369 -3.978699 393.186768 12.339996 384.586792 C 11.589325 387.626709 8.518646 387.053467 7.010681 389.93335 C 12.112 386.653442 14.417297 387.079956 15.47467 391.493408 L 14.205322 392.293335 C 22.970673 398.133423 22.522644 405.400024 28.781342 416.026733 L 32.578674 410.41333 C 33.872009 412.76001 32.874664 414.679932 32.645325 416.733398 C 41.558655 411 27.721313 411.613281 37.134644 404.93335 C 30.586639 417.400024 50.317291 416.839966 41.722656 429.986694 C 44.574677 432.613281 46.022644 423.400024 48.866669 426.026733 L 46.853302 429.866699 L 51.174652 426.453369 C 52.487976 428.800049 49.967987 433.599976 47.681335 436.333374 C 47.5 435.599976 45.708008 435.920044 45.010651 435.706665 C 44.258636 441.200073 51.890656 440.693359 52.785309 442.17334 L 51.798645 438.133423 C 62.333313 442.186768 68.361328 454.866699 81.682678 455.213257 L 83.201324 452.320068 C 92.936005 453.079956 85.581329 459.06665 93.802643 462.706665 L 93.067993 463.06665 C 96.445343 461.826782 99.217316 462.146606 100.735992 463.973389 C 96.655975 465.320068 99.009338 472.079956 94.162659 473.280029 C 99.41864 473.720093 101.022644 473.47998 102.810669 472.493408 C 103.703979 472 104.644012 471.320068 106.110657 470.440063 C 106.843994 470 107.708008 469.506714 108.763977 468.973389 C 109.789307 468.400024 111.26001 468.013306 112.833313 467.426758 C 112.112 469.133423 111.419983 470.866699 110.76001 472.613281 C 115.61731 470.546631 117.244019 468.640015 121.841309 470.880005 C 119.034668 471.41333 118.487976 473.599976 117.93335 476.040039 C 117.341309 478.426758 116.773315 481.079956 113.003967 481.746704 C 113.859985 486.333374 115.804016 489 117.894653 490.466675 C 120.002686 491.946655 122.277344 492.23999 124.225342 492.453369 C 128.182678 492.960083 130.659973 493.053467 130.337341 503.986694 C 139.216003 492.386719 124.861328 488.373291 128.386658 487.320068 C 128.354614 484.120117 130.322632 482.226685 132.345337 481.41333 C 134.393311 480.626709 136.513306 480.946655 137.519958 482.813354 C 138.716003 484.079956 138.427979 490.040039 139.08667 496.733398 C 139.695984 503.386719 141.40802 510.906616 145.552002 514.386719 C 144.753296 513.586792 144.533325 514.866699 143.723999 514.06665 C 144.97998 517.653442 146.731995 517.520142 148.40802 517.706665 C 150.116028 517.920044 151.731995 518.440063 153.497314 524.026733 C 154.744019 519.253418 155.862671 520.41333 156.873291 521.06665 C 157.865356 521.706665 158.694641 521.800049 158.825317 514.41333 C 156.62262 513.626709 154.341309 512.773315 151.981323 511.839966 C 154.054688 511.720093 156.02533 508.093384 157.941345 505.973389 C 159.91333 503.893433 161.734619 503.253418 164.878601 510.280029 C 164.726685 513.160034 163.265381 515.853394 162.08667 517.026733 C 163.873291 522.360107 165.02533 518.626709 166.662659 521.360107 C 166.911987 521.306641 167.18396 521.466675 167.492004 521.906616 C 167.675964 524.640015 167.618652 526.826782 167.322632 528.693359 C 166.511963 531.146606 164.290649 529.120117 161.945313 527.373291 C 159.578613 525.613281 157.102661 524.160034 155.055969 527.133423 C 156.151978 531.266724 158.473267 530.599976 160.042603 530.506714 C 161.613342 530.41333 162.679993 531.120117 161.815979 538.47998 C 163.241333 528.76001 165.266663 531.973389 167.954651 535.720093 C 169.850647 534.800049 172.211975 533.226685 173.197327 523.040039 L 174.244019 532.586792 C 174.811951 530.160034 175.634644 523.986694 176.981323 522.560059 C 176.88269 527.386719 176.698669 532.306641 176.430664 537.34668 C 177.657349 529.786743 179.834595 529.653442 182.374634 529.746704 C 184.867981 529.906616 187.717285 530.293335 189.058655 525.320068 C 184.861328 530.813354 183.810669 528.866699 183.165344 525.373291 C 182.532043 521.866699 182.162659 517 179.916016 515.880005 C 181.498657 510.23999 182.813354 508.533325 184.271973 508.586792 C 185.137268 508.626709 186.037292 509.333374 186.987976 510.306641 C 187.173279 511.493408 187.142639 513.373291 186.794617 516.333374 C 187.142639 513.960083 187.526672 512.373291 187.946655 511.360107 C 188.279968 511.733398 188.616028 512.133423 188.962708 512.533325 C 190.670593 514.506714 192.547974 516.560059 194.691956 516.906616 C 196.698669 517.253418 198.982666 516.013306 201.395996 512.06665 C 200.554688 513.093384 198.997314 513.626709 197.666626 513.293335 C 196.741333 513.079956 195.945313 512.440063 195.503967 511.373291 C 196.080017 510.493408 196.624023 509.253418 197.094666 507.466675 C 197.657349 507.293335 198.241333 507.160034 198.847961 507.040039 L 199.221313 510.453369 C 199.419983 509.599976 199.650635 508.293335 199.922668 506.893433 C 200.536011 506.826782 201.154663 506.826782 201.773315 506.866699 C 201.716003 508.493408 201.638672 510.146606 201.563965 511.786743 C 201.507996 511.880005 201.452026 511.973389 201.395996 512.06665 C 201.450623 512 201.511963 511.93335 201.559998 511.866699 C 201.507996 512.986694 201.469299 514.079956 201.409302 515.213257 C 202.634644 507.640015 204.811951 507.520142 207.353333 507.613281 C 209.84668 507.773315 212.694641 508.160034 214.036011 503.186768 C 209.838684 508.666748 208.788025 506.733398 208.142639 503.23999 C 207.523987 499.813354 207.143982 495.106689 205.033325 493.839966 C 205.052002 493.653442 205.052002 493.426758 205.053284 493.200073 C 206.173279 489.360107 207.165344 487.453369 208.175964 486.773315 L 208.419983 487.106689 C 208.766663 486.893433 209.082642 486.679932 209.373291 486.466675 C 210.781311 486.640015 212.278625 488.47998 213.939941 490.386719 C 215.647949 492.360107 217.526672 494.41333 219.669312 494.773315 C 221.675964 495.120117 223.960022 493.880005 226.374634 489.920044 C 225.532043 490.946655 223.97467 491.47998 222.643982 491.160034 C 221.007996 490.773315 219.734619 489.120117 220.216003 485.986694 C 222.878601 484.853394 226.905334 483.93335 230.089294 485.599976 C 233.664001 479.946655 232.370605 478.786743 230.445313 477.880005 C 228.497314 477 225.996033 476.266724 226.401306 472.41333 C 229.7547 474.786743 230.26532 472.786743 229.973267 469.626709 C 229.82666 467.906616 229.455994 465.853394 229.235962 463.853394 C 230.210632 465.093384 231.067932 466.426758 232.189331 467.520142 C 237.529358 468.306641 237.221313 462.866699 238.341309 461.360107 C 237.832031 461.679932 237.211975 462.013306 236.470642 462.026733 C 238.538635 458.160034 233.97467 454.23999 233.247986 451.013306 L 233.233337 450.960083 C 233.17865 450.706665 233.160034 450.453369 233.161316 450.200073 C 235.824036 450.893433 236.853333 452.880005 237.847961 454.826782 C 238.173279 453.34668 236.777344 450.986694 237.127991 448.986694 C 238.157349 451.720093 239.137268 454.520142 240.02533 457.440063 L 241.602661 452.320068 C 244.036011 454.720093 245.962708 457.093384 246.018677 459.746704 L 245.867981 456.17334 C 246.179993 456.599976 246.502625 457.026733 246.813354 457.453369 C 246.881287 454.506714 247.105347 452.466675 247.56665 450.93335 C 250.055969 451.546631 253.362671 451.973389 254.155945 453.506714 C 257.225281 452.839966 255.65863 447.653442 255.471985 443.373291 C 256 444.079956 256.538635 444.773315 257.166626 445.386719 C 260.171997 445.826782 261.388 444.293335 262.077332 442.613281 L 263.015991 443.946655 C 263.935974 442.746704 263.513306 441.920044 262.581299 441.120117 C 262.815979 440.333374 263.015991 439.626709 263.318665 439.213257 C 262.675964 439.626709 261.859985 440.06665 260.834595 439.826782 C 260.82135 439.813354 260.807983 439.800049 260.794617 439.800049 L 259.247986 433.226685 C 260.267944 432.76001 261.365356 432.360107 262.425293 431.920044 C 262.56134 432.17334 262.694641 432.440063 262.82666 432.693359 C 262.888 432.41333 262.873291 432.093384 262.833313 431.746704 C 264.073303 431.213257 265.225281 430.599976 266.081299 429.693359 C 268.746643 432.253418 270.935974 434.773315 270.996033 437.599976 L 270.599976 428.146606 C 272.796021 429.266724 278.101257 429.373291 279.133301 431.373291 C 284.167969 430.280029 276.710632 417.013306 283.370605 415.546631 C 282.691956 414.666748 282.222656 413.586792 282.293335 412.213257 C 283.173279 411.546631 284.2453 411.053467 285.355957 410.599976 C 287.834595 417.466675 284.942627 418.200073 292.429321 420.013306 C 286.738647 415.266724 286.553284 412.266724 287.634644 409.679932 C 290.859985 408.320068 293.585327 406.47998 292.094666 400.546631 L 301.996033 404.106689 C 302.769348 400.506714 295.921326 399.866699 292.651978 396.720093 C 292.969299 396.013306 292.151978 394.693359 290.981323 393.106689 C 290.966675 392.613281 291.002625 392.079956 291.126648 391.506714 C 291.322632 390.106689 291.84668 389.546631 292.559998 389.493408 L 298.198669 393.293335 L 298.432007 393.106689 C 299.925293 394.306641 301.361328 395.34668 302.425293 395.426758 C 300.149353 390.186768 295.023987 380.160034 304.489319 381.280029 C 304.941345 383.733398 302.97998 383.839966 302.606628 385.506714 L 309.302673 385.946655 C 313.607971 395.200073 309.086609 395.853394 317.406616 397.880005 C 302.606628 385.506714 325.011963 385.06665 310.221313 372.706665 L 314.957336 373.253418 C 314.365356 373.706665 315.185364 374.493408 314.594666 374.93335 C 318.805298 375.720093 318.096008 373.920044 316.213318 371.306641 C 322.434631 373.306641 322.555969 369.880005 329.462646 370.546631 C 326.517273 369.360107 314.774658 367.453369 310.809265 362.880005 C 310.570618 361.76001 310.832031 360.826782 311.941345 360.226685 C 314.455994 359.426758 317.601257 359.960083 318.470642 362.546631 L 317.749329 355.773315 C 318.723999 355.040039 320.527954 356.533325 320.449341 357.560059 L 321.197327 356.06665 L 325.518677 359.640015 C 325.469299 357.200073 324.11731 355.266724 322.601257 353.266724 L 323.57196 351.333374 L 323.983948 351.720093 C 323.361328 350.746704 322.679993 349.493408 322.023987 348.186768 C 325.190674 348.306641 329.65863 351.079956 333.650635 353.41333 C 334.993347 352.386719 334.61731 351.626709 333.477295 350.906616 C 334.258667 349.41333 328.458618 342.786743 337.946655 343.093384 L 337.457336 347.666748 C 347.594666 352.47998 346.362671 347.640015 354.439941 348.41333 C 350.997314 347.026733 335.5 344.666748 334.5 338.186768 C 336.422607 338.093384 337.996033 337.226685 336.442627 332.93335 C 341.83728 337.160034 341.973267 334.266724 343.494629 331.720093 L 350.496033 337.506714 C 350.41333 333.386719 346.629333 330.706665 344.580017 326.706665 C 347.481323 324.47998 353.458618 328.253418 358.627991 331.280029 C 363.282654 327.706665 347.345276 327.373291 350.170593 321.026733 C 355.825317 319.466675 354.971985 314.560059 354.210632 306.76001 C 358.7146 306.106689 358.210632 310.653442 360.985352 311.333374 L 357.11731 304.546631 C 357.698669 304.093384 359.302673 305.653442 360.109314 306.440063 C 359.43866 302.76001 353.114624 300.653442 353.585327 296.079956 C 351.330627 293.880005 352.098694 293.333374 354.031982 293.280029 L 357.239929 295.17334 L 355.234619 293.306641 C 359.863953 293.506714 367.793335 294.853394 364.065369 288.06665 C 366.822632 288.733398 368.078613 291.960083 371.061279 293.853394 C 369.788025 286.773315 369.958618 285.839966 368.445313 281.920044 C 369.022644 282.47998 369.487976 283.079956 369.725281 283.506714 L 368.723999 275.626709 L 373.339966 275.666748 C 371.485352 275.280029 369.866638 274.466675 368.437256 273.360107 L 368.230652 271.733398 C 373.761292 276.333374 373.557312 273.693359 377.238647 273.826782 C 374.914612 272.386719 373.353271 271.120117 372.328003 269.946655 C 372.258667 269.520142 372.231995 269.079956 372.281311 268.693359 C 373.213318 269.920044 374.109314 270.946655 374.933289 271.373291 C 375.810669 271.800049 374.625305 270.06665 373.421326 267.853394 L 382.217285 273.040039 L 379.269287 270.280029 L 389.150635 268 C 387.03064 262.906738 383.973267 257.280029 381.573303 251.746704 C 382.30127 252.013306 382.975952 252.493408 383.482666 253.253418 L 382.935974 254.106689 C 385.462646 252.160034 388.34668 248.613281 389.866638 244.546631 C 391.246643 245.506714 392.711975 246.573364 394.290649 247.853394 C 385.462646 244.013306 393.078613 255.773315 388.703979 258.266724 C 390.978638 256.960083 393.93866 259.973389 394.702637 261.373291 L 393.208008 249.586792 C 398.738647 254.200073 398.534607 251.546631 402.216003 251.693359 C 392.932007 245.946655 395.717285 242.720093 396.975952 239.133423 C 398.065369 240.17334 398.929321 241.013306 399.329346 241.453369 L 397.195984 238.453369 C 397.446655 237.546631 397.550659 236.613281 397.299988 235.600098 C 401.179993 238.386719 404.5 242.053467 401.039978 244.573364 C 408.370605 246.573364 402.089294 239.573364 399.611938 235.079956 L 405.747986 241.693359 C 401.160034 235.133423 402.711975 234.693359 405.06665 234.320068 L 401.452026 232.013306 C 401.67865 231.079956 402.317322 230.34668 403.141296 229.893433 C 404.36792 231.440063 405.175964 232.920044 405.373291 234.280029 C 407.167969 234 409.254639 233.613281 409.430664 230.626709 C 413.142639 227.026733 416.916016 220.626709 415.671997 214.493408 C 417.613342 215.600098 419.47998 216.506714 420.874634 217.040039 C 420.044006 216.626709 420.015991 216.106689 420.372009 215.506714 C 422.185303 217.200073 423.727966 218.679932 424.306641 219.320068 L 421.029358 214.693359 C 421.84668 213.853394 423.027954 212.93335 423.7453 212.026733 L 430.725281 219.560059 C 426.137268 213 427.689331 212.546631 430.044006 212.186768 L 420.754639 206.253418 C 419.833313 203.360107 416.985352 199.626709 414.57196 196.040039 C 422.231995 201.640015 429.689331 207.573364 430.350647 212.146606 C 431.239929 212.013306 432.198669 211.839966 432.965332 211.34668 C 433.611938 211.76001 434.33728 212.200073 435.205322 212.720093 C 438.349304 211.839966 436.039978 209.960083 434.416016 208.333374 C 434.435974 207.786743 434.399963 207.160034 434.281311 206.426758 C 434.083984 206.426758 433.753296 206.320068 433.353271 206.160034 C 433.582642 205.920044 434.070618 205.733398 434.939941 205.640015 C 433.544006 203.546631 431.686646 204.640015 430.143982 204.560059 C 429.609314 204.266724 429.054688 203.93335 428.490662 203.600098 C 428.460022 203.546631 428.425293 203.520142 428.395996 203.466675 C 428.402649 203.493408 428.406616 203.520142 428.41333 203.546631 C 424.786621 201.34668 420.910645 198.533325 421.011963 197.506714 C 432.602661 201.466675 427.611938 199.120117 438.452026 201.266724 C 435.695984 201.17334 424.055969 189.666748 426.058655 187.973389 C 426.758667 188.746704 429.129333 190.600098 431.691956 192.626709 C 432.569336 194.160034 433.333313 195.560059 433.94397 196.76001 C 435.794617 196.826782 436.926697 197.306641 437.767944 197.613281 C 438.705322 198.466675 439.373291 199.146606 439.536011 199.546631 L 438.57196 197.866699 C 439.341309 198.013306 439.927979 197.706665 440.917297 196.146606 C 445.242615 197.733398 444.763977 202 444.225281 203.093384 L 452.296021 197.440063 C 449.393311 195.34668 448.238647 193.200073 447.589294 191.079956 C 448.545288 190.186768 449.399963 189.266724 449.332031 188.41333 L 446.924011 188.320068 C 446.679993 187.186768 446.421326 186.06665 445.945313 184.986816 C 445.635986 183.293457 444.496033 181.253418 443.077332 179.079956 C 444.850647 180.93335 446.358643 182.493408 447.213318 183.120117 C 445.171997 180.400024 446.223999 174.23999 448.433289 175.200073 L 450.67865 180.600098 C 452.88269 180.293457 452.050659 177.920044 451.175964 175.47998 C 452.796021 176.266724 454.191956 176.640015 455.09729 176.253418 C 454.042603 175 452.385315 173.079956 450.403931 170.733398 C 450.833313 169.920044 451.986633 169.586792 454.43866 170.120117 C 454.754639 169.93335 455.550659 170.026733 456.534607 170.23999 C 457.469299 171.880005 458.278625 173.360107 458.921326 174.626709 C 463.503967 174.800049 463.713318 177.453369 465.894653 174 C 470.219971 175.600098 469.741333 179.853394 469.203979 180.946655 L 477.274658 175.293457 C 469.517273 169.706665 474.235962 163.693359 467.771973 159.053467 L 469.181274 173.226685 C 464.799988 170.06665 459.7453 163.613281 457.174683 157.839966 C 457.982666 158.426758 458.806641 158.906738 459.65863 159.23999 C 457.945313 157.786743 456.486633 155.306641 455.82666 153.93335 C 455.782654 153.746704 455.754639 153.573364 455.718689 153.386719 C 458.435974 153.679932 461.513306 158.826782 462.749329 155.400024 C 459.150635 152.186768 460.393311 150.906738 461.258667 150.266724 C 465.385315 153.800049 470.328003 159.626709 472.190674 160.973389 C 470.149353 158.253418 471.202637 152.106689 473.410645 153.06665 L 475.655945 158.453369 C 480.781311 157.76001 469.494629 145.839966 479.416016 147.973389 C 480.85199 147.146606 491.91864 151.973389 487.650635 148.266724 C 480.814636 145.040039 466.370605 134.613281 456.07196 126.23999 C 457.629333 124.893433 459.239929 123.93335 460.838623 123.079956 L 465.866638 127.560059 L 466.407959 126.693359 L 461.370605 122.800049 C 463.124023 121.893433 464.85199 121.06665 466.469299 120 C 473.355957 124.47998 478.291992 134.560059 484.635986 137.106689 C 482.647949 135.41333 480.994629 132.320068 480.545288 131.226685 C 483.298706 131.333374 486.467957 136.76001 487.726685 133.253418 C 480.496033 126.800049 492.811951 128.146606 482.339966 126.880005 C 482.306641 122.466675 486.171997 125.23999 488.350647 121.800049 C 486.439941 120.839966 484.191956 118.720093 482.044006 116.160034 C 481.757324 113.853394 481.863953 111.453369 481.385315 109.253418 C 478.862671 107.640015 477.44397 107.653442 476.687988 108.520142 C 475.00531 105.586792 473.885315 102.906738 473.877319 101.333374 C 475.681274 103.026733 478.675964 104.400024 480.057312 105.013306 C 483.124023 101.986816 486.457336 100.693359 489.533325 99.013306 L 493.994629 102.626709 L 492.483948 99.040039 C 491.717285 99.013306 491.042603 98.813354 490.357361 98.546631 C 492.055969 97.546631 493.659973 96.373291 495.070618 94.626709 C 497.285339 95.613281 501.482666 94.866699 503.911926 98.520142 C 503.155945 96.706665 501.121338 94 502.195984 92.253418 C 511.201294 94.34668 500.410645 96.613281 510.15863 100.493408 C 505.905334 96.813354 507.329346 91.560059 506.363953 87.106689 C 498.996033 82.426758 500.91333 91.333374 501.869324 95.773315 C 497.603943 92.41333 493.901306 88.160034 491.109314 83.706665 C 492.406616 82.306641 493.783936 80.960083 495.285339 79.826782 C 496.421326 80.386719 497.380005 80.079956 497.491943 78.826782 C 497.445313 78.720093 497.410645 78.600098 497.370605 78.493408 C 498.373291 77.946655 499.424011 77.506714 500.552002 77.23999 C 499.416016 74.546631 498.84668 71 495.723999 70 L 495.00531 72.626709 C 491.615967 71.546631 490.798645 69.013306 490.089294 67.013306 C 491.593323 68.253418 492.809265 69.76001 492.461304 68.920044 C 495.580017 66.293457 494.606628 62.706665 492.966614 59.226685 C 493 59.253418 493.023987 59.280029 493.057312 59.306641 C 493.021301 59.280029 492.996033 59.23999 492.961304 59.213379 C 492.402649 58.026733 491.773254 56.866699 491.195984 55.746704 C 493.126648 54.226685 503.731995 57.280029 497.187988 49.733398 L 490.56665 48.626709 C 491.221313 48.200073 492.175964 47.893433 493.547974 47.746704 C 501.637268 49.813354 505.561279 57.026733 510.34668 59.853394 C 509.85199 65.146606 502.30127 62.226685 500.667969 64.786743 L 505.807983 64.106689 C 506.919983 66.786743 506.586609 70.320068 503.84668 70.226685 C 510.986633 72.23999 515.645264 57.400024 525.529358 55.106689 C 524.394653 52.41333 523.825317 48.853394 520.701294 47.866699"/>
</svg>
