<?xml version="1.0" standalone="no"?>
<!DOCTYPE svg PUBLIC "-//W3C//DTD SVG 20010904//EN"
 "http://www.w3.org/TR/2001/REC-SVG-20010904/DTD/svg10.dtd">
<svg version="1.0" xmlns="http://www.w3.org/2000/svg"
 width="512.000000pt" height="512.000000pt" viewBox="0 0 512.000000 512.000000"
 preserveAspectRatio="xMidYMid meet">
<metadata>
Created by potrace 1.11, written by Peter Selinger 2001-2013
</metadata>
<g transform="translate(0.000000,512.000000) scale(0.100000,-0.100000)"
fill="#000000" stroke="none">
<path d="M2350 5110 c-600 -55 -1138 -299 -1564 -710 -412 -398 -669 -897
-758 -1475 -30 -199 -30 -531 0 -730 85 -547 316 -1020 692 -1409 247 -256
565 -473 880 -600 47 -19 86 -31 87 -28 1 4 -208 693 -466 1532 -307 999 -464
1527 -457 1531 6 3 91 30 188 59 l178 54 36 108 c41 123 83 188 187 285 67 62
237 188 292 216 53 27 70 54 70 111 0 49 -4 56 -51 109 -168 189 -166 456 5
628 177 177 459 172 636 -9 103 -105 142 -226 123 -373 -8 -61 -7 -83 5 -112
27 -64 41 -68 269 -71 293 -4 390 -29 543 -141 49 -36 97 -65 105 -65 9 0 89
23 179 51 89 27 167 49 173 47 6 -2 219 -685 474 -1517 255 -833 466 -1516
468 -1519 7 -7 113 160 172 273 141 269 228 534 276 840 30 199 30 531 0 730
-61 395 -189 728 -407 1055 -401 603 -1036 1004 -1759 1111 -151 22 -438 32
-576 19z"/>
<path d="M1925 4668 c-141 -49 -188 -216 -92 -325 100 -114 273 -88 338 52 71
153 -87 328 -246 273z"/>
<path d="M2482 3242 c-10 -7 -10 -16 -1 -42 10 -27 9 -35 -2 -44 -21 -16 -12
-48 10 -41 15 4 22 -7 39 -69 16 -52 30 -81 48 -95 33 -26 75 -27 105 -2 20
16 21 21 10 35 -10 12 -17 13 -27 5 -7 -6 -23 -9 -36 -7 -19 2 -27 16 -45 68
-28 86 -28 90 7 97 46 9 36 39 -11 35 -33 -2 -37 0 -45 30 -10 33 -29 44 -52
30z"/>
<path d="M2724 3216 c-38 -38 -42 -63 -15 -97 14 -18 31 -23 80 -27 66 -5 84
-19 60 -48 -10 -12 -26 -15 -65 -12 -48 4 -53 3 -57 -18 -3 -18 2 -23 31 -28
48 -7 119 12 137 37 22 32 18 75 -10 102 -20 21 -34 25 -79 25 -31 0 -58 5
-62 12 -11 18 34 48 72 48 27 0 34 4 34 20 0 17 -7 20 -46 20 -39 0 -51 -5
-80 -34z"/>
<path d="M2309 3101 c-69 -22 -99 -61 -99 -129 0 -84 76 -142 162 -123 50 12
103 58 87 78 -15 18 -26 16 -49 -7 -25 -25 -66 -35 -99 -24 -53 19 -36 38 63
69 l96 30 -19 42 c-26 56 -82 82 -142 64z m72 -51 c35 -20 20 -36 -51 -57
l-70 -21 0 24 c0 51 69 81 121 54z"/>
<path d="M1911 3089 c-15 -6 -22 -15 -18 -27 42 -156 103 -329 114 -326 45 14
43 11 29 52 -12 34 -12 41 3 61 l17 22 53 -42 c46 -37 55 -41 83 -33 l31 9
-71 58 c-40 32 -72 62 -72 68 0 5 12 32 26 60 14 28 23 53 21 55 -2 3 -16 0
-30 -5 -19 -7 -35 -29 -56 -76 -16 -36 -32 -65 -35 -65 -3 0 -19 45 -36 100
-18 55 -32 100 -33 99 -1 0 -13 -5 -26 -10z"/>
<path d="M1494 2946 c-10 -26 4 -48 28 -44 17 2 23 10 23 28 0 18 -6 26 -23
28 -13 2 -25 -3 -28 -12z"/>
<path d="M1745 2930 c-30 -12 -72 -61 -79 -93 -10 -43 11 -102 46 -132 29 -24
38 -27 91 -23 49 4 63 9 90 36 25 25 29 34 19 44 -10 10 -16 10 -30 0 -53 -38
-80 -45 -113 -32 -38 16 -63 67 -50 102 15 39 47 61 91 61 29 0 44 5 50 17 7
13 5 20 -6 24 -22 8 -85 6 -109 -4z"/>
<path d="M1303 2882 c-110 -35 -122 -43 -104 -71 7 -11 16 -11 55 2 38 13 48
14 52 3 3 -7 22 -69 43 -137 35 -116 39 -124 61 -121 13 1 25 4 27 5 1 2 -15
61 -37 133 -22 71 -40 134 -40 140 0 7 21 17 46 23 38 10 45 15 42 34 -2 12
-10 23 -18 23 -8 1 -66 -14 -127 -34z"/>
<path d="M1543 2872 c-13 -2 -23 -8 -23 -14 0 -6 16 -63 36 -128 34 -110 38
-117 60 -112 13 2 24 9 24 16 0 6 -17 63 -38 126 -34 105 -39 115 -59 112z"/>
</g>
</svg>
